<svg width="157" height="44" viewBox="0 0 157 44" fill="none" xmlns="http://www.w3.org/2000/svg">
<path d="M0 9.64912C0 4.32006 4.33372 0 9.67963 0H34.4595C39.8054 0 44.1391 4.32006 44.1391 9.64912V34.3509C44.1391 39.6799 39.8054 44 34.4595 44H9.67963C4.33372 44 0 39.6799 0 34.3509V9.64912Z" fill="#FEDA03"/>
<path fill-rule="evenodd" clip-rule="evenodd" d="M33.1457 18.4196C33.1457 20.5303 31.9125 21.5801 30.5266 21.9448C32.1853 22.4421 33.3857 23.8013 33.3857 25.9562V29.9123H27.0564V26.1551C27.0564 25.0058 26.3798 24.5417 25.223 24.5417H17.7151V29.9123H11.3857V14.0878H26.4234C30.1992 14.0878 33.1457 14.9055 33.1457 18.4196ZM17.7179 18.509H26.2745V18.5097C26.2873 18.5092 26.3001 18.509 26.313 18.509C26.9014 18.509 27.3783 18.992 27.3783 19.5878C27.3783 20.1836 26.9014 20.6666 26.313 20.6666C26.3001 20.6666 26.2873 20.6663 26.2745 20.6659V20.6666H17.7179V18.509Z" fill="black"/>
<path fill-rule="evenodd" clip-rule="evenodd" d="M131.814 25.563C131.814 30.1797 129.138 33.3575 124.598 33.3575C122.734 33.3575 121.02 32.5781 120.268 31.3789V33.1177H116.48V11.8924H120.268V19.687C121.14 18.5478 122.764 17.7684 124.658 17.7684C129.138 17.7684 131.814 20.9462 131.814 25.563ZM120.028 25.563C120.028 28.2911 121.621 30.0898 124.057 30.0898C126.462 30.0898 128.056 28.2911 128.056 25.563C128.056 22.8348 126.462 21.0361 124.057 21.0361C121.621 21.0361 120.028 22.8348 120.028 25.563Z" fill="#16161A"/>
<path fill-rule="evenodd" clip-rule="evenodd" d="M77.7952 33.1177L73.1676 23.7342C75.2423 22.7149 76.475 20.7063 76.475 18.338C76.475 14.5606 73.7991 12.1323 69.6798 12.1323H59.6318L59.6619 33.1177H63.7511V24.5137H68.9883L73.0446 33.1177H77.7952ZM63.7511 15.6398H69.0484C71.1531 15.6398 72.3558 16.6591 72.3558 18.338C72.3558 20.0168 71.1531 21.0061 69.0484 21.0061H63.7511V15.6398Z" fill="#16161A"/>
<path fill-rule="evenodd" clip-rule="evenodd" d="M90.2382 18.0082H94.0267V33.1177H90.2382V31.3789C89.4865 32.5781 87.8028 33.3575 85.9085 33.3575C81.3684 33.3575 78.6924 30.1797 78.6924 25.563C78.6924 20.9462 81.3684 17.7684 85.8484 17.7684C87.7426 17.7684 89.3663 18.5478 90.2382 19.687V18.0082ZM82.4508 25.563C82.4508 28.2911 84.0444 30.0898 86.4497 30.0898C88.8852 30.0898 90.4788 28.2911 90.4788 25.563C90.4788 22.8348 88.8852 21.0361 86.4497 21.0361C84.0444 21.0361 82.4508 22.8348 82.4508 25.563Z" fill="#16161A"/>
<path d="M107.421 18.0082L107.18 21.6657C106.639 21.4258 105.917 21.3059 105.256 21.3059C103.121 21.3059 101.197 23.0747 101.197 27.5716V33.1177H97.4083V18.0082H101.197V20.7663C101.948 19.0575 103.933 17.7684 105.767 17.7684C106.308 17.7684 106.97 17.8583 107.421 18.0082Z" fill="#16161A"/>
<path d="M113.111 33.1177H109.322V18.0082H113.111V33.1177Z" fill="#16161A"/>
<path d="M134.384 33.1177H138.173V11.8924H134.384V33.1177Z" fill="#16161A"/>
<path fill-rule="evenodd" clip-rule="evenodd" d="M155.823 25.0533C155.823 21.5457 153.328 17.7684 148.216 17.7684C143.195 17.7684 140.73 21.6357 140.73 25.563C140.73 29.4902 143.406 33.3575 148.427 33.3575C151.975 33.3575 154.621 31.6787 155.463 28.8307L151.915 27.8713C151.524 29.3403 150.261 30.1797 148.487 30.1797C146.322 30.1797 144.849 28.8307 144.518 26.5523H155.763C155.793 26.2525 155.823 25.5929 155.823 25.0533ZM144.608 23.7942C145.029 21.7556 146.352 20.6464 148.216 20.6464C150.411 20.6464 151.584 21.9954 151.764 23.7942H144.608Z" fill="#16161A"/>
<path d="M108.874 12.6713C108.874 11.7121 109.651 10.9344 110.611 10.9344H111.853C112.813 10.9344 113.59 11.7121 113.59 12.6713V13.914C113.59 14.8732 112.813 15.6508 111.853 15.6508H110.611C109.651 15.6508 108.874 14.8732 108.874 13.914V12.6713Z" fill="#16161A"/>
</svg>
