<svg width="125" height="27" viewBox="0 0 125 27" fill="none" xmlns="http://www.w3.org/2000/svg">
<path d="M22.6196 11.6484H14.6484V26.2964H22.6196V11.6484Z" fill="#4F37FD"/>
<path d="M33.62 0H18.972V7.324H33.62V0Z" fill="#2CCD9A"/>
<path d="M14.648 4.32422H0V11.6482H14.648V4.32422Z" fill="#4F37FD"/>
<path d="M110.005 9.08798H106.903V26.4009H109.871V14.9993H110.005L115.89 26.4009H116.04L121.951 14.9993H122.072V26.4009H125V9.08798H122.162L116.127 20.8369H116.029L110.005 9.08798ZM42.8024 26.4009H45.7699V11.6687H53.52V9.09587H45.7699V11.6687H36.6201V14.2416H42.8024V26.4009ZM68.6653 9.08798V11.4109H74.2451V26.4062H77.2126V11.4109H82.795V9.08798H68.6653ZM99.1056 22.3364C99.1175 22.5344 99.0873 22.7326 99.0169 22.918C98.9466 23.1034 98.8377 23.2718 98.6975 23.412C98.5573 23.5522 98.3889 23.6611 98.2035 23.7315C98.0181 23.8018 97.8198 23.8321 97.6219 23.8202H91.1924C90.9944 23.8321 90.7962 23.8018 90.6108 23.7315C90.4254 23.6611 90.257 23.5522 90.1168 23.412C89.9766 23.2718 89.8677 23.1034 89.7973 22.918C89.727 22.7326 89.6967 22.5344 89.7086 22.3364V9.08798H86.7411V22.197C86.7411 24.6936 88.4485 26.4062 90.9503 26.4062H97.8745C100.374 26.4062 102.084 24.6988 102.084 22.197V9.08798H99.1056V22.3364ZM62.633 19.4426H56.8637L59.7076 12.4685H59.8075L62.633 19.4426ZM61.3781 9.08008H58.3133L51.1155 26.393H54.0094L55.7904 22.0155H63.6826L65.4584 26.393H68.5495L61.3781 9.08008Z" fill="#1C1E4F"/>
</svg>
