<?xml version="1.0" encoding="utf-8"?>
<!-- Generator: Adobe Illustrator 26.0.3, SVG Export Plug-In . SVG Version: 6.00 Build 0)  -->
<svg version="1.1" id="Layer_1" xmlns="http://www.w3.org/2000/svg" xmlns:xlink="http://www.w3.org/1999/xlink" x="0px" y="0px"
	 viewBox="0 0 223.3 1653.7" style="enable-background:new 0 0 223.3 1653.7;" xml:space="preserve">
<style type="text/css">
	.st0{fill:none;stroke:#000000;}
</style>
<path class="st0" d="M185,382.3l-36.7-63.5l36.7-63.5h73.4l36.7,63.5l-36.7,63.5H185z"/>
<path class="st0" d="M-35.3,509.5L-72,445.9l36.7-63.5H38l36.7,63.5L38,509.5H-35.3z"/>
<path class="st0" d="M185,255.2l-36.7-63.5l36.7-63.5h73.4l36.7,63.5l-36.7,63.5H185z"/>
<path class="st0" d="M74.9,573l-36.7-63.5L74.9,446h73.4l36.7,63.5L148.2,573H74.9z"/>
<path class="st0" d="M-35.3,636.6L-72,573.1l36.7-63.5H38l36.7,63.5L38,636.6H-35.3z"/>
<path class="st0" d="M185,636.6l-36.7-63.5l36.7-63.5h73.4l36.7,63.5l-36.7,63.5H185z"/>
<path class="st0" d="M185,128.1l-36.7-63.5L185,1l73.4,0l36.7,63.5l-36.7,63.5H185z"/>
<path class="st0" d="M-35.3,128.1L-72,64.5L-35.3,1L38,1l36.7,63.5L38,128.1H-35.3z"/>
<path class="st0" d="M-35.3,255.2L-72,191.7l36.7-63.5H38l36.7,63.5L38,255.2H-35.3z"/>
<path class="st0" d="M74.9,191.6l-36.7-63.5l36.7-63.5h73.4l36.7,63.5l-36.7,63.5H74.9z"/>
<path class="st0" d="M185,509.5l-36.7-63.5l36.7-63.5h73.4l36.7,63.5l-36.7,63.5H185z"/>
<path class="st0" d="M-35.3,382.3L-72,318.8l36.7-63.5H38l36.7,63.5L38,382.3H-35.3z"/>
<path class="st0" d="M74.9,318.8l-36.7-63.5l36.7-63.5h73.4l36.7,63.5l-36.7,63.5H74.9z"/>
<path class="st0" d="M74.9,445.9l-36.7-63.5l36.7-63.5h73.4l36.7,63.5l-36.7,63.5H74.9z"/>
<path class="st0" d="M185,1018l-36.7-63.5l36.7-63.5h73.4l36.7,63.5l-36.7,63.5H185z"/>
<path class="st0" d="M-35.3,1145.1l-36.7-63.5l36.7-63.5H38l36.7,63.5L38,1145.1H-35.3z"/>
<path class="st0" d="M185,890.9l-36.7-63.5l36.7-63.5h73.4l36.7,63.5l-36.7,63.5H185z"/>
<path class="st0" d="M74.9,1208.7l-36.7-63.5l36.7-63.5h73.4l36.7,63.5l-36.7,63.5H74.9z"/>
<path class="st0" d="M-35.3,1272.3l-36.7-63.5l36.7-63.5H38l36.7,63.5L38,1272.3H-35.3z"/>
<path class="st0" d="M185,1272.3l-36.7-63.5l36.7-63.5h73.4l36.7,63.5l-36.7,63.5H185z"/>
<path class="st0" d="M185,763.7l-36.7-63.5l36.7-63.5h73.4l36.7,63.5l-36.7,63.5H185z"/>
<path class="st0" d="M-35.3,763.7L-72,700.2l36.7-63.5H38l36.7,63.5L38,763.7H-35.3z"/>
<path class="st0" d="M-35.3,890.9L-72,827.3l36.7-63.5H38l36.7,63.5L38,890.9H-35.3z"/>
<path class="st0" d="M74.9,827.3l-36.7-63.5l36.7-63.5h73.4l36.7,63.5l-36.7,63.5H74.9z"/>
<path class="st0" d="M185,1145.1l-36.7-63.5L185,1018h73.4l36.7,63.5l-36.7,63.5H185z"/>
<path class="st0" d="M-35.3,1018L-72,954.5l36.7-63.5H38l36.7,63.5L38,1018H-35.3z"/>
<path class="st0" d="M74.9,954.4l-36.7-63.5l36.7-63.5h73.4l36.7,63.5l-36.7,63.5H74.9z"/>
<path class="st0" d="M74.9,1081.6L38.2,1018l36.7-63.5h73.4l36.7,63.5l-36.7,63.5H74.9z"/>
<path class="st0" d="M185,1653.6l-36.7-63.5l36.7-63.5h73.4l36.7,63.5l-36.7,63.5H185z"/>
<path class="st0" d="M-35.3,1780.8l-36.7-63.5l36.7-63.5H38l36.7,63.5L38,1780.8H-35.3z"/>
<path class="st0" d="M185,1526.5l-36.7-63.5l36.7-63.5h73.4l36.7,63.5l-36.7,63.5H185z"/>
<path class="st0" d="M74.9,1844.3l-36.7-63.5l36.7-63.5h73.4l36.7,63.5l-36.7,63.5H74.9z"/>
<path class="st0" d="M-35.3,1907.9l-36.7-63.5l36.7-63.5H38l36.7,63.5L38,1907.9H-35.3z"/>
<path class="st0" d="M185,1907.9l-36.7-63.5l36.7-63.5h73.4l36.7,63.5l-36.7,63.5H185z"/>
<path class="st0" d="M185,1399.4l-36.7-63.5l36.7-63.5h73.4l36.7,63.5l-36.7,63.5H185z"/>
<path class="st0" d="M-35.3,1399.4l-36.7-63.5l36.7-63.5H38l36.7,63.5L38,1399.4H-35.3z"/>
<path class="st0" d="M-35.3,1526.5L-72,1463l36.7-63.5H38l36.7,63.5L38,1526.5H-35.3z"/>
<path class="st0" d="M74.9,1463l-36.7-63.5l36.7-63.5h73.4l36.7,63.5l-36.7,63.5H74.9z"/>
<path class="st0" d="M185,1780.8l-36.7-63.5l36.7-63.5h73.4l36.7,63.5l-36.7,63.5H185z"/>
<path class="st0" d="M-35.3,1653.6l-36.7-63.5l36.7-63.5H38l36.7,63.5L38,1653.6H-35.3z"/>
<path class="st0" d="M74.9,1590.1l-36.7-63.5l36.7-63.5h73.4l36.7,63.5l-36.7,63.5H74.9z"/>
<path class="st0" d="M74.9,1717.2l-36.7-63.5l36.7-63.5h73.4l36.7,63.5l-36.7,63.5H74.9z"/>
</svg>
