<svg width="211" height="30" viewBox="0 0 211 30" fill="none" xmlns="http://www.w3.org/2000/svg">
<g filter="url(#filter0_d_1911_1525)">
<mask id="path-1-outside-1_1911_1525" maskUnits="userSpaceOnUse" x="-0.228027" y="-0.25" width="211" height="27" fill="black">
<rect fill="white" x="-0.228027" y="-0.25" width="211" height="27"/>
<path d="M3.51097 11.046V25.5H0.771973V0.75H2.05897L17.239 15.072V0.75H20.011V25.5H18.691L3.51097 11.046Z"/>
<path d="M36.511 14.511H31V25.5H25.522V0.75H39.25V3.489H31V11.739H36.511V14.511Z"/>
<path d="M58.4892 0.75V3.489H52.9782V25.5H47.5002V3.489H41.9892V0.75H58.4892Z"/>
<path d="M66.7392 25.5H61.2612V19.989H66.7392V25.5Z"/>
<path d="M72.2505 8.307C72.2505 8.307 72.2505 7.647 72.2505 6.327C72.2505 5.535 72.3935 4.809 72.6795 4.149C72.9875 3.467 73.3945 2.873 73.9005 2.367C74.4285 1.861 75.0335 1.465 75.7155 1.179C76.4195 0.893 77.1675 0.75 77.9595 0.75H80.3025C81.0725 0.75 81.7985 0.904 82.4805 1.212C83.1625 1.498 83.7565 1.894 84.2625 2.4C84.7905 2.884 85.1975 3.467 85.4835 4.149C85.7915 4.809 85.9455 5.513 85.9455 6.261H83.2395C83.2395 5.381 82.9425 4.699 82.3485 4.215C81.7765 3.709 80.9625 3.456 79.9065 3.456H77.7285V7.35C77.7285 7.68 77.9265 8.076 78.3225 8.538C78.7405 9 79.2465 9.517 79.8405 10.089C80.4565 10.639 81.1165 11.233 81.8205 11.871C82.5245 12.509 83.1735 13.169 83.7675 13.851C84.3835 14.511 84.8895 15.193 85.2855 15.897C85.7035 16.579 85.9125 17.25 85.9125 17.91V19.923C85.9125 20.671 85.7695 21.386 85.4835 22.068C85.2195 22.728 84.8345 23.322 84.3285 23.85C83.8445 24.356 83.2505 24.763 82.5465 25.071C81.8645 25.357 81.1055 25.5 80.2695 25.5H77.9595C77.1675 25.5 76.4195 25.357 75.7155 25.071C75.0335 24.763 74.4285 24.356 73.9005 23.85C73.3945 23.344 72.9875 22.761 72.6795 22.101C72.3935 21.419 72.2505 20.693 72.2505 19.923H75.0225C75.0225 20.759 75.2865 21.441 75.8145 21.969C76.3645 22.497 77.0795 22.761 77.9595 22.761H80.4675V18.735C80.4675 18.339 80.2585 17.888 79.8405 17.382C79.4445 16.854 78.9385 16.304 78.3225 15.732C77.7285 15.16 77.0685 14.566 76.3425 13.95C75.6385 13.312 74.9785 12.674 74.3625 12.036C73.7685 11.398 73.2625 10.771 72.8445 10.155C72.4485 9.517 72.2505 8.901 72.2505 8.307Z"/>
<path d="M105.153 0.75V3.489H99.6423V25.5H94.1643V3.489H88.6533V0.75H105.153Z"/>
<path d="M113.535 25.5C112.787 25.5 112.072 25.357 111.39 25.071C110.73 24.763 110.136 24.356 109.608 23.85C109.102 23.322 108.695 22.728 108.387 22.068C108.079 21.386 107.925 20.671 107.925 19.923V6.327C107.925 5.623 108.068 4.941 108.354 4.281C108.662 3.599 109.069 3.005 109.575 2.499C110.081 1.971 110.675 1.553 111.357 1.245C112.039 0.915001 112.765 0.75 113.535 0.75H118.782C119.552 0.75 120.278 0.915001 120.96 1.245C121.642 1.553 122.236 1.971 122.742 2.499C123.248 3.005 123.644 3.599 123.93 4.281C124.238 4.941 124.392 5.623 124.392 6.327V19.923C124.392 20.671 124.238 21.386 123.93 22.068C123.622 22.728 123.204 23.322 122.676 23.85C122.17 24.356 121.576 24.763 120.894 25.071C120.234 25.357 119.53 25.5 118.782 25.5H113.535Z"/>
<path d="M135.414 11.706H140.925V3.456H135.414V11.706ZM129.936 25.5V0.75H140.925C141.761 0.75 142.509 0.882 143.169 1.146C143.851 1.41 144.434 1.784 144.918 2.268C145.402 2.752 145.765 3.335 146.007 4.017C146.271 4.699 146.403 5.447 146.403 6.261V8.637C146.403 9.583 146.249 10.353 145.941 10.947C145.633 11.519 145.292 11.97 144.918 12.3C144.566 12.608 144.236 12.817 143.928 12.927C143.62 13.037 143.466 13.092 143.466 13.092C143.466 13.092 143.62 13.169 143.928 13.323C144.236 13.455 144.566 13.708 144.918 14.082C145.292 14.434 145.633 14.918 145.941 15.534C146.249 16.128 146.403 16.898 146.403 17.844V25.5H140.925V14.511H135.414V25.5H129.936Z"/>
<path d="M157.656 0.75C157.656 0.75 159.35 0.75 162.738 0.75C163.398 0.75 164.069 0.904 164.751 1.212C165.433 1.52 166.038 1.938 166.566 2.466C167.116 2.972 167.567 3.566 167.919 4.248C168.271 4.908 168.447 5.601 168.447 6.327V25.5C168.205 25.5 167.809 25.5 167.259 25.5C166.731 25.522 166.17 25.533 165.576 25.533C165.004 25.533 164.465 25.533 163.959 25.533C163.453 25.533 163.112 25.522 162.936 25.5V14.511H157.524V25.5H152.046V6.327C152.046 5.601 152.211 4.897 152.541 4.215C152.893 3.533 153.333 2.939 153.861 2.433C154.411 1.927 155.016 1.52 155.676 1.212C156.358 0.904 157.018 0.75 157.656 0.75ZM157.524 11.706H162.936V3.456H157.524V11.706Z"/>
<path d="M182.175 14.478V11.673H190.425V19.89C190.425 20.638 190.282 21.353 189.996 22.035C189.732 22.717 189.347 23.311 188.841 23.817C188.357 24.323 187.774 24.73 187.092 25.038C186.41 25.346 185.651 25.5 184.815 25.5H179.535C178.743 25.5 178.006 25.357 177.324 25.071C176.664 24.763 176.081 24.356 175.575 23.85C175.069 23.344 174.673 22.75 174.387 22.068C174.101 21.386 173.958 20.66 173.958 19.89V6.36C173.958 5.656 174.101 4.974 174.387 4.314C174.673 3.632 175.069 3.027 175.575 2.499C176.081 1.971 176.675 1.553 177.357 1.245C178.039 0.915001 178.765 0.75 179.535 0.75H184.782C185.508 0.75 186.212 0.915001 186.894 1.245C187.576 1.553 188.181 1.971 188.709 2.499C189.237 3.005 189.655 3.599 189.963 4.281C190.271 4.941 190.425 5.623 190.425 6.327H187.719C187.719 5.425 187.521 4.732 187.125 4.248C186.729 3.742 186.19 3.489 185.508 3.489H179.436V22.728H184.947V14.478H182.175Z"/>
<path d="M206.957 14.511H201.446V22.728H209.696V25.5H195.968V0.75H209.696V3.489H201.446V11.706H206.957V14.511Z"/>
</mask>
<path d="M3.51097 11.046V25.5H0.771973V0.75H2.05897L17.239 15.072V0.75H20.011V25.5H18.691L3.51097 11.046Z" fill="#F5C32C"/>
<path d="M36.511 14.511H31V25.5H25.522V0.75H39.25V3.489H31V11.739H36.511V14.511Z" fill="#F5C32C"/>
<path d="M58.4892 0.75V3.489H52.9782V25.5H47.5002V3.489H41.9892V0.75H58.4892Z" fill="#F5C32C"/>
<path d="M66.7392 25.5H61.2612V19.989H66.7392V25.5Z" fill="#F5C32C"/>
<path d="M72.2505 8.307C72.2505 8.307 72.2505 7.647 72.2505 6.327C72.2505 5.535 72.3935 4.809 72.6795 4.149C72.9875 3.467 73.3945 2.873 73.9005 2.367C74.4285 1.861 75.0335 1.465 75.7155 1.179C76.4195 0.893 77.1675 0.75 77.9595 0.75H80.3025C81.0725 0.75 81.7985 0.904 82.4805 1.212C83.1625 1.498 83.7565 1.894 84.2625 2.4C84.7905 2.884 85.1975 3.467 85.4835 4.149C85.7915 4.809 85.9455 5.513 85.9455 6.261H83.2395C83.2395 5.381 82.9425 4.699 82.3485 4.215C81.7765 3.709 80.9625 3.456 79.9065 3.456H77.7285V7.35C77.7285 7.68 77.9265 8.076 78.3225 8.538C78.7405 9 79.2465 9.517 79.8405 10.089C80.4565 10.639 81.1165 11.233 81.8205 11.871C82.5245 12.509 83.1735 13.169 83.7675 13.851C84.3835 14.511 84.8895 15.193 85.2855 15.897C85.7035 16.579 85.9125 17.25 85.9125 17.91V19.923C85.9125 20.671 85.7695 21.386 85.4835 22.068C85.2195 22.728 84.8345 23.322 84.3285 23.85C83.8445 24.356 83.2505 24.763 82.5465 25.071C81.8645 25.357 81.1055 25.5 80.2695 25.5H77.9595C77.1675 25.5 76.4195 25.357 75.7155 25.071C75.0335 24.763 74.4285 24.356 73.9005 23.85C73.3945 23.344 72.9875 22.761 72.6795 22.101C72.3935 21.419 72.2505 20.693 72.2505 19.923H75.0225C75.0225 20.759 75.2865 21.441 75.8145 21.969C76.3645 22.497 77.0795 22.761 77.9595 22.761H80.4675V18.735C80.4675 18.339 80.2585 17.888 79.8405 17.382C79.4445 16.854 78.9385 16.304 78.3225 15.732C77.7285 15.16 77.0685 14.566 76.3425 13.95C75.6385 13.312 74.9785 12.674 74.3625 12.036C73.7685 11.398 73.2625 10.771 72.8445 10.155C72.4485 9.517 72.2505 8.901 72.2505 8.307Z" fill="#F5C32C"/>
<path d="M105.153 0.75V3.489H99.6423V25.5H94.1643V3.489H88.6533V0.75H105.153Z" fill="#F5C32C"/>
<path d="M113.535 25.5C112.787 25.5 112.072 25.357 111.39 25.071C110.73 24.763 110.136 24.356 109.608 23.85C109.102 23.322 108.695 22.728 108.387 22.068C108.079 21.386 107.925 20.671 107.925 19.923V6.327C107.925 5.623 108.068 4.941 108.354 4.281C108.662 3.599 109.069 3.005 109.575 2.499C110.081 1.971 110.675 1.553 111.357 1.245C112.039 0.915001 112.765 0.75 113.535 0.75H118.782C119.552 0.75 120.278 0.915001 120.96 1.245C121.642 1.553 122.236 1.971 122.742 2.499C123.248 3.005 123.644 3.599 123.93 4.281C124.238 4.941 124.392 5.623 124.392 6.327V19.923C124.392 20.671 124.238 21.386 123.93 22.068C123.622 22.728 123.204 23.322 122.676 23.85C122.17 24.356 121.576 24.763 120.894 25.071C120.234 25.357 119.53 25.5 118.782 25.5H113.535Z" fill="#F5C32C"/>
<path d="M135.414 11.706H140.925V3.456H135.414V11.706ZM129.936 25.5V0.75H140.925C141.761 0.75 142.509 0.882 143.169 1.146C143.851 1.41 144.434 1.784 144.918 2.268C145.402 2.752 145.765 3.335 146.007 4.017C146.271 4.699 146.403 5.447 146.403 6.261V8.637C146.403 9.583 146.249 10.353 145.941 10.947C145.633 11.519 145.292 11.97 144.918 12.3C144.566 12.608 144.236 12.817 143.928 12.927C143.62 13.037 143.466 13.092 143.466 13.092C143.466 13.092 143.62 13.169 143.928 13.323C144.236 13.455 144.566 13.708 144.918 14.082C145.292 14.434 145.633 14.918 145.941 15.534C146.249 16.128 146.403 16.898 146.403 17.844V25.5H140.925V14.511H135.414V25.5H129.936Z" fill="#F5C32C"/>
<path d="M157.656 0.75C157.656 0.75 159.35 0.75 162.738 0.75C163.398 0.75 164.069 0.904 164.751 1.212C165.433 1.52 166.038 1.938 166.566 2.466C167.116 2.972 167.567 3.566 167.919 4.248C168.271 4.908 168.447 5.601 168.447 6.327V25.5C168.205 25.5 167.809 25.5 167.259 25.5C166.731 25.522 166.17 25.533 165.576 25.533C165.004 25.533 164.465 25.533 163.959 25.533C163.453 25.533 163.112 25.522 162.936 25.5V14.511H157.524V25.5H152.046V6.327C152.046 5.601 152.211 4.897 152.541 4.215C152.893 3.533 153.333 2.939 153.861 2.433C154.411 1.927 155.016 1.52 155.676 1.212C156.358 0.904 157.018 0.75 157.656 0.75ZM157.524 11.706H162.936V3.456H157.524V11.706Z" fill="#F5C32C"/>
<path d="M182.175 14.478V11.673H190.425V19.89C190.425 20.638 190.282 21.353 189.996 22.035C189.732 22.717 189.347 23.311 188.841 23.817C188.357 24.323 187.774 24.73 187.092 25.038C186.41 25.346 185.651 25.5 184.815 25.5H179.535C178.743 25.5 178.006 25.357 177.324 25.071C176.664 24.763 176.081 24.356 175.575 23.85C175.069 23.344 174.673 22.75 174.387 22.068C174.101 21.386 173.958 20.66 173.958 19.89V6.36C173.958 5.656 174.101 4.974 174.387 4.314C174.673 3.632 175.069 3.027 175.575 2.499C176.081 1.971 176.675 1.553 177.357 1.245C178.039 0.915001 178.765 0.75 179.535 0.75H184.782C185.508 0.75 186.212 0.915001 186.894 1.245C187.576 1.553 188.181 1.971 188.709 2.499C189.237 3.005 189.655 3.599 189.963 4.281C190.271 4.941 190.425 5.623 190.425 6.327H187.719C187.719 5.425 187.521 4.732 187.125 4.248C186.729 3.742 186.19 3.489 185.508 3.489H179.436V22.728H184.947V14.478H182.175Z" fill="#F5C32C"/>
<path d="M206.957 14.511H201.446V22.728H209.696V25.5H195.968V0.75H209.696V3.489H201.446V11.706H206.957V14.511Z" fill="#F5C32C"/>
<path d="M3.51097 11.046V25.5H0.771973V0.75H2.05897L17.239 15.072V0.75H20.011V25.5H18.691L3.51097 11.046Z" stroke="black" stroke-width="1.5" mask="url(#path-1-outside-1_1911_1525)"/>
<path d="M36.511 14.511H31V25.5H25.522V0.75H39.25V3.489H31V11.739H36.511V14.511Z" stroke="black" stroke-width="1.5" mask="url(#path-1-outside-1_1911_1525)"/>
<path d="M58.4892 0.75V3.489H52.9782V25.5H47.5002V3.489H41.9892V0.75H58.4892Z" stroke="black" stroke-width="1.5" mask="url(#path-1-outside-1_1911_1525)"/>
<path d="M66.7392 25.5H61.2612V19.989H66.7392V25.5Z" stroke="black" stroke-width="1.5" mask="url(#path-1-outside-1_1911_1525)"/>
<path d="M72.2505 8.307C72.2505 8.307 72.2505 7.647 72.2505 6.327C72.2505 5.535 72.3935 4.809 72.6795 4.149C72.9875 3.467 73.3945 2.873 73.9005 2.367C74.4285 1.861 75.0335 1.465 75.7155 1.179C76.4195 0.893 77.1675 0.75 77.9595 0.75H80.3025C81.0725 0.75 81.7985 0.904 82.4805 1.212C83.1625 1.498 83.7565 1.894 84.2625 2.4C84.7905 2.884 85.1975 3.467 85.4835 4.149C85.7915 4.809 85.9455 5.513 85.9455 6.261H83.2395C83.2395 5.381 82.9425 4.699 82.3485 4.215C81.7765 3.709 80.9625 3.456 79.9065 3.456H77.7285V7.35C77.7285 7.68 77.9265 8.076 78.3225 8.538C78.7405 9 79.2465 9.517 79.8405 10.089C80.4565 10.639 81.1165 11.233 81.8205 11.871C82.5245 12.509 83.1735 13.169 83.7675 13.851C84.3835 14.511 84.8895 15.193 85.2855 15.897C85.7035 16.579 85.9125 17.25 85.9125 17.91V19.923C85.9125 20.671 85.7695 21.386 85.4835 22.068C85.2195 22.728 84.8345 23.322 84.3285 23.85C83.8445 24.356 83.2505 24.763 82.5465 25.071C81.8645 25.357 81.1055 25.5 80.2695 25.5H77.9595C77.1675 25.5 76.4195 25.357 75.7155 25.071C75.0335 24.763 74.4285 24.356 73.9005 23.85C73.3945 23.344 72.9875 22.761 72.6795 22.101C72.3935 21.419 72.2505 20.693 72.2505 19.923H75.0225C75.0225 20.759 75.2865 21.441 75.8145 21.969C76.3645 22.497 77.0795 22.761 77.9595 22.761H80.4675V18.735C80.4675 18.339 80.2585 17.888 79.8405 17.382C79.4445 16.854 78.9385 16.304 78.3225 15.732C77.7285 15.16 77.0685 14.566 76.3425 13.95C75.6385 13.312 74.9785 12.674 74.3625 12.036C73.7685 11.398 73.2625 10.771 72.8445 10.155C72.4485 9.517 72.2505 8.901 72.2505 8.307Z" stroke="black" stroke-width="1.5" mask="url(#path-1-outside-1_1911_1525)"/>
<path d="M105.153 0.75V3.489H99.6423V25.5H94.1643V3.489H88.6533V0.75H105.153Z" stroke="black" stroke-width="1.5" mask="url(#path-1-outside-1_1911_1525)"/>
<path d="M113.535 25.5C112.787 25.5 112.072 25.357 111.39 25.071C110.73 24.763 110.136 24.356 109.608 23.85C109.102 23.322 108.695 22.728 108.387 22.068C108.079 21.386 107.925 20.671 107.925 19.923V6.327C107.925 5.623 108.068 4.941 108.354 4.281C108.662 3.599 109.069 3.005 109.575 2.499C110.081 1.971 110.675 1.553 111.357 1.245C112.039 0.915001 112.765 0.75 113.535 0.75H118.782C119.552 0.75 120.278 0.915001 120.96 1.245C121.642 1.553 122.236 1.971 122.742 2.499C123.248 3.005 123.644 3.599 123.93 4.281C124.238 4.941 124.392 5.623 124.392 6.327V19.923C124.392 20.671 124.238 21.386 123.93 22.068C123.622 22.728 123.204 23.322 122.676 23.85C122.17 24.356 121.576 24.763 120.894 25.071C120.234 25.357 119.53 25.5 118.782 25.5H113.535Z" stroke="black" stroke-width="1.5" mask="url(#path-1-outside-1_1911_1525)"/>
<path d="M135.414 11.706H140.925V3.456H135.414V11.706ZM129.936 25.5V0.75H140.925C141.761 0.75 142.509 0.882 143.169 1.146C143.851 1.41 144.434 1.784 144.918 2.268C145.402 2.752 145.765 3.335 146.007 4.017C146.271 4.699 146.403 5.447 146.403 6.261V8.637C146.403 9.583 146.249 10.353 145.941 10.947C145.633 11.519 145.292 11.97 144.918 12.3C144.566 12.608 144.236 12.817 143.928 12.927C143.62 13.037 143.466 13.092 143.466 13.092C143.466 13.092 143.62 13.169 143.928 13.323C144.236 13.455 144.566 13.708 144.918 14.082C145.292 14.434 145.633 14.918 145.941 15.534C146.249 16.128 146.403 16.898 146.403 17.844V25.5H140.925V14.511H135.414V25.5H129.936Z" stroke="black" stroke-width="1.5" mask="url(#path-1-outside-1_1911_1525)"/>
<path d="M157.656 0.75C157.656 0.75 159.35 0.75 162.738 0.75C163.398 0.75 164.069 0.904 164.751 1.212C165.433 1.52 166.038 1.938 166.566 2.466C167.116 2.972 167.567 3.566 167.919 4.248C168.271 4.908 168.447 5.601 168.447 6.327V25.5C168.205 25.5 167.809 25.5 167.259 25.5C166.731 25.522 166.17 25.533 165.576 25.533C165.004 25.533 164.465 25.533 163.959 25.533C163.453 25.533 163.112 25.522 162.936 25.5V14.511H157.524V25.5H152.046V6.327C152.046 5.601 152.211 4.897 152.541 4.215C152.893 3.533 153.333 2.939 153.861 2.433C154.411 1.927 155.016 1.52 155.676 1.212C156.358 0.904 157.018 0.75 157.656 0.75ZM157.524 11.706H162.936V3.456H157.524V11.706Z" stroke="black" stroke-width="1.5" mask="url(#path-1-outside-1_1911_1525)"/>
<path d="M182.175 14.478V11.673H190.425V19.89C190.425 20.638 190.282 21.353 189.996 22.035C189.732 22.717 189.347 23.311 188.841 23.817C188.357 24.323 187.774 24.73 187.092 25.038C186.41 25.346 185.651 25.5 184.815 25.5H179.535C178.743 25.5 178.006 25.357 177.324 25.071C176.664 24.763 176.081 24.356 175.575 23.85C175.069 23.344 174.673 22.75 174.387 22.068C174.101 21.386 173.958 20.66 173.958 19.89V6.36C173.958 5.656 174.101 4.974 174.387 4.314C174.673 3.632 175.069 3.027 175.575 2.499C176.081 1.971 176.675 1.553 177.357 1.245C178.039 0.915001 178.765 0.75 179.535 0.75H184.782C185.508 0.75 186.212 0.915001 186.894 1.245C187.576 1.553 188.181 1.971 188.709 2.499C189.237 3.005 189.655 3.599 189.963 4.281C190.271 4.941 190.425 5.623 190.425 6.327H187.719C187.719 5.425 187.521 4.732 187.125 4.248C186.729 3.742 186.19 3.489 185.508 3.489H179.436V22.728H184.947V14.478H182.175Z" stroke="black" stroke-width="1.5" mask="url(#path-1-outside-1_1911_1525)"/>
<path d="M206.957 14.511H201.446V22.728H209.696V25.5H195.968V0.75H209.696V3.489H201.446V11.706H206.957V14.511Z" stroke="black" stroke-width="1.5" mask="url(#path-1-outside-1_1911_1525)"/>
</g>
<path d="M114.987 6.84375C114.987 7.67218 114.707 8.34375 114.362 8.34375C114.017 8.34375 113.737 7.67218 113.737 6.84375C113.737 6.01532 114.017 5.34375 114.362 5.34375C114.707 5.34375 114.987 6.01532 114.987 6.84375Z" fill="black"/>
<path d="M118.513 6.84375C118.513 7.67218 118.233 8.34375 117.888 8.34375C117.543 8.34375 117.263 7.67218 117.263 6.84375C117.263 6.01532 117.543 5.34375 117.888 5.34375C118.233 5.34375 118.513 6.01532 118.513 6.84375Z" fill="black"/>
<path fill-rule="evenodd" clip-rule="evenodd" d="M110.522 9.40625C110.522 12.637 113.032 15.2544 116.125 15.2544C119.218 15.2544 121.728 12.637 121.728 9.40625H121.875C121.875 12.719 119.302 15.4062 116.125 15.4062C112.948 15.4062 110.375 12.719 110.375 9.40625H110.522Z" fill="black" stroke="black" stroke-width="0.5" stroke-linejoin="round"/>
<defs>
<filter id="filter0_d_1911_1525" x="0.0219727" y="0" width="210.424" height="29.283" filterUnits="userSpaceOnUse" color-interpolation-filters="sRGB">
<feFlood flood-opacity="0" result="BackgroundImageFix"/>
<feColorMatrix in="SourceAlpha" type="matrix" values="0 0 0 0 0 0 0 0 0 0 0 0 0 0 0 0 0 0 127 0" result="hardAlpha"/>
<feOffset dy="3"/>
<feComposite in2="hardAlpha" operator="out"/>
<feColorMatrix type="matrix" values="0 0 0 0 0 0 0 0 0 0 0 0 0 0 0 0 0 0 0.25 0"/>
<feBlend mode="normal" in2="BackgroundImageFix" result="effect1_dropShadow_1911_1525"/>
<feBlend mode="normal" in="SourceGraphic" in2="effect1_dropShadow_1911_1525" result="shape"/>
</filter>
</defs>
</svg>
