<svg width="80" height="41" viewBox="0 0 80 41" fill="none" xmlns="http://www.w3.org/2000/svg">
<path d="M0 30.247C0 30.5905 0.115245 30.9466 0.345736 31.3155C0.589032 31.6716 0.883549 32.0341 1.22929 32.403C1.58783 32.7718 1.97198 33.1407 2.38174 33.5095C2.80431 33.8657 3.18846 34.2091 3.53419 34.5398C3.89273 34.8705 4.18725 35.1885 4.41774 35.4938C4.66104 35.7863 4.78269 36.0471 4.78269 36.276V38.6036H3.32291C2.81071 38.6036 2.39454 38.451 2.07442 38.1458C1.7671 37.8405 1.61344 37.4462 1.61344 36.9629H0C0 37.408 0.0832328 37.8278 0.249698 38.2221C0.428969 38.6036 0.665863 38.9407 0.960379 39.2333C1.2677 39.5258 1.61984 39.7611 2.0168 39.9392C2.42656 40.1045 2.86193 40.1872 3.32291 40.1872H4.66744C5.15403 40.1872 5.59581 40.1045 5.99276 39.9392C6.40253 39.7611 6.74826 39.5258 7.02997 39.2333C7.32449 38.928 7.54858 38.5846 7.70224 38.203C7.8687 37.8087 7.95194 37.3953 7.95194 36.9629V35.799C7.95194 35.4174 7.83029 35.0295 7.58699 34.6352C7.3565 34.2282 7.06199 33.8339 6.70344 33.4523C6.35771 33.058 5.97996 32.6764 5.5702 32.3076C5.16044 31.9387 4.77628 31.5953 4.41774 31.2773C4.07201 30.9466 3.77749 30.6477 3.53419 30.3806C3.3037 30.1135 3.18846 29.8845 3.18846 29.6937V27.4424H4.45616C5.0708 27.4424 5.54459 27.5887 5.87752 27.8812C6.22325 28.1611 6.39612 28.5554 6.39612 29.0641H7.97114C7.97114 28.6317 7.88151 28.2247 7.70224 27.8431C7.53577 27.4488 7.29888 27.1117 6.99156 26.8319C6.69704 26.5393 6.35131 26.3104 5.95435 26.145C5.55739 25.967 5.13482 25.8779 4.68665 25.8779H3.32291C2.86193 25.8779 2.42656 25.9606 2.0168 26.126C1.61984 26.2913 1.2677 26.5203 0.960379 26.8128C0.665863 27.1053 0.428969 27.4488 0.249698 27.8431C0.0832328 28.2247 0 28.6444 0 29.1023V30.247Z" fill="#F5C32C"/>
<path d="M19.151 25.8779H9.54721V27.4615H12.7549V40.1872H15.9433V27.4615H19.151V25.8779Z" fill="#F5C32C"/>
<path d="M24.0297 40.1872H27.0837C27.5191 40.1872 27.9289 40.1045 28.313 39.9392C28.71 39.7611 29.0557 39.5258 29.3502 39.2333C29.6575 38.928 29.9008 38.5846 30.0801 38.203C30.2594 37.8087 30.349 37.3953 30.349 36.9629V29.1023C30.349 28.6953 30.2594 28.301 30.0801 27.9194C29.9136 27.5251 29.6832 27.1817 29.3886 26.8891C29.0941 26.5839 28.7484 26.3422 28.3514 26.1641C27.9545 25.9733 27.5319 25.8779 27.0837 25.8779H24.0297C23.5815 25.8779 23.159 25.9733 22.762 26.1641C22.3651 26.3422 22.0193 26.5839 21.7248 26.8891C21.4303 27.1817 21.1934 27.5251 21.0141 27.9194C20.8477 28.301 20.7644 28.6953 20.7644 29.1023V36.9629C20.7644 37.3953 20.8541 37.8087 21.0333 38.203C21.2126 38.5846 21.4495 38.928 21.744 39.2333C22.0513 39.5258 22.3971 39.7611 22.7812 39.9392C23.1782 40.1045 23.5944 40.1872 24.0297 40.1872ZM27.1606 38.5846H23.9529V27.4615H27.1606V38.5846Z" fill="#F5C32C"/>
<path d="M36.7642 32.2122V27.4424H39.9719V32.2122H36.7642ZM33.5757 40.1872H36.7642V33.8339H39.9719V40.1872H43.1603V35.7609C43.1603 35.2139 43.0707 34.7688 42.8914 34.4253C42.7121 34.0692 42.5137 33.7894 42.296 33.5859C42.0911 33.3696 41.899 33.2234 41.7198 33.147C41.5405 33.058 41.4508 33.0135 41.4508 33.0135C41.4508 33.0135 41.5405 32.9817 41.7198 32.9181C41.899 32.8545 42.0911 32.7337 42.296 32.5556C42.5137 32.3648 42.7121 32.1041 42.8914 31.7734C43.0707 31.4299 43.1603 30.9848 43.1603 30.4378V29.0641C43.1603 28.5935 43.0835 28.1611 42.9298 27.7668C42.789 27.3725 42.5777 27.0354 42.296 26.7556C42.0143 26.4757 41.6749 26.2595 41.278 26.1069C40.8938 25.9542 40.4585 25.8779 39.9719 25.8779H33.5757V40.1872Z" fill="#F5C32C"/>
<path d="M49.71 25.8779C49.3386 25.8779 48.9545 25.967 48.5575 26.145C48.1734 26.3231 47.8212 26.5584 47.5011 26.851C47.1938 27.1435 46.9377 27.4869 46.7328 27.8812C46.5407 28.2755 46.4447 28.6825 46.4447 29.1023V40.1872H49.6331V33.8339H52.7832V40.1872C52.8856 40.1999 53.0841 40.2063 53.3786 40.2063C53.6731 40.2063 53.9868 40.2063 54.3198 40.2063C54.6655 40.2063 54.992 40.1999 55.2994 40.1872C55.6195 40.1872 55.85 40.1872 55.9908 40.1872V29.1023C55.9908 28.6825 55.8884 28.2819 55.6835 27.9003C55.4786 27.506 55.2161 27.1626 54.896 26.87C54.5887 26.5648 54.2365 26.3231 53.8396 26.145C53.4426 25.967 53.0521 25.8779 52.6679 25.8779H49.71ZM49.6331 32.2122V27.4424H52.7832V32.2122H49.6331Z" fill="#F5C32C"/>
<path d="M63.981 33.8148H65.5945V38.5846H62.3868V27.4615H65.921C66.318 27.4615 66.6317 27.6078 66.8622 27.9003C67.0927 28.1801 67.2079 28.5808 67.2079 29.1023H68.7829C68.7829 28.6953 68.6933 28.301 68.514 27.9194C68.3347 27.5251 68.0915 27.1817 67.7841 26.8891C67.4768 26.5839 67.1247 26.3422 66.7277 26.1641C66.3308 25.9733 65.921 25.8779 65.4984 25.8779H62.4444C61.9963 25.8779 61.5737 25.9733 61.1767 26.1641C60.7798 26.3422 60.434 26.5839 60.1395 26.8891C59.845 27.1944 59.6145 27.5442 59.448 27.9385C59.2816 28.32 59.1983 28.7143 59.1983 29.1214V36.9438C59.1983 37.3889 59.2816 37.8087 59.448 38.203C59.6145 38.5973 59.845 38.9407 60.1395 39.2333C60.434 39.5258 60.7734 39.7611 61.1575 39.9392C61.5545 40.1045 61.9834 40.1872 62.4444 40.1872H65.5176C66.0042 40.1872 66.446 40.0982 66.843 39.9201C67.2399 39.742 67.5793 39.5067 67.861 39.2142C68.1555 38.9216 68.3796 38.5782 68.5332 38.1839C68.6997 37.7896 68.7829 37.3762 68.7829 36.9438V32.1931H63.981V33.8148Z" fill="#F5C32C"/>
<path d="M78.4058 33.8339V32.2122H75.1981V27.4615H80V25.8779H72.0096V40.1872H80V38.5846H75.1981V33.8339H78.4058Z" fill="#F5C32C"/>
<path fill-rule="evenodd" clip-rule="evenodd" d="M0.357913 31.3772L0.357055 31.3759C0.12123 31.0019 0 30.6354 0 30.2777V29.1455C0 28.683 0.0848868 28.2571 0.255785 27.8689L0.256027 27.8683L0.256279 27.8678C0.438977 27.4695 0.6808 27.1219 0.981855 26.8256L0.982456 26.825L0.983069 26.8244C1.29693 26.5283 1.65665 26.2966 2.06175 26.1294L2.06258 26.129C2.48147 25.9615 2.92622 25.8779 3.39615 25.8779H4.75716C5.21507 25.8779 5.6477 25.9681 6.05421 26.1486C6.45865 26.3157 6.81172 26.5473 7.11272 26.8432C7.42721 27.1273 7.66959 27.4693 7.83978 27.8683C8.02331 28.256 8.11497 28.6694 8.11497 29.1078V29.1864H6.38335V29.1078C6.38335 28.6243 6.21873 28.2583 5.8952 27.9988L5.89395 27.9978L5.89273 27.9968C5.57983 27.7243 5.12852 27.5825 4.52713 27.5825H3.34183V29.7305C3.34183 29.8899 3.44057 30.0976 3.66696 30.3578C3.90783 30.6198 4.1998 30.9135 4.54311 31.239C4.90078 31.5534 5.28394 31.8928 5.69258 32.2574C6.10338 32.6238 6.48229 33.0031 6.82926 33.3951C7.19012 33.7759 7.48742 34.1701 7.7206 34.5779C7.96895 34.9772 8.0958 35.3745 8.0958 35.7688V36.9198C8.0958 37.3576 8.01075 37.7766 7.84063 38.1762C7.68337 38.563 7.45412 38.9109 7.15347 39.2197C6.86436 39.5172 6.51033 39.7557 6.09268 39.9355L6.09212 39.9358L6.09156 39.936C5.68442 40.1041 5.23284 40.1874 4.73799 40.1874H3.39615C2.92622 40.1874 2.48147 40.1038 2.06258 39.9363L2.06116 39.9358L2.05977 39.9351C1.65553 39.7554 1.29648 39.5177 0.983069 39.2221L0.982456 39.2215L0.981855 39.2209C0.681226 38.925 0.439471 38.584 0.256693 38.1985L0.256025 38.1971L0.255414 38.1956C0.0850103 37.7956 0 37.3701 0 36.9198V36.8412H1.76996V36.9198C1.76996 37.3794 1.91655 37.7483 2.20605 38.0336C2.50829 38.3189 2.90248 38.464 3.39615 38.464H4.77314V36.2405C4.77314 36.041 4.66537 35.8007 4.42721 35.5169L4.42602 35.5155L4.4249 35.514C4.19838 35.2167 3.90789 34.9057 3.55266 34.581L3.55213 34.5805L3.55161 34.58C3.20793 34.2542 2.82582 33.9157 2.40518 33.5644L2.40419 33.5635L2.40322 33.5627C1.99305 33.1968 1.60838 32.8307 1.24924 32.4646L1.24874 32.4641L1.24824 32.4636C0.900871 32.0963 0.604281 31.7346 0.358826 31.3786L0.357913 31.3772ZM2.15015 38.0897C1.84344 37.7878 1.69009 37.3979 1.69009 36.9198H0.0798718C0.0798718 36.9461 0.0801681 36.9723 0.0807607 36.9984C0.0900908 37.4096 0.172861 37.7985 0.329072 38.1652C0.507984 38.5426 0.744405 38.876 1.03833 39.1653C1.34504 39.4546 1.69648 39.6874 2.09264 39.8635C2.50158 40.027 2.93609 40.1088 3.39615 40.1088H4.73799C5.22361 40.1088 5.6645 40.027 6.06067 39.8635C6.46961 39.6874 6.81466 39.4546 7.09581 39.1653C7.38973 38.8634 7.61338 38.5237 7.76673 38.1463C7.93286 37.7564 8.01593 37.3475 8.01593 36.9198V35.7688C8.01593 35.3914 7.89452 35.0077 7.65171 34.6177C7.42168 34.2152 7.12776 33.8252 6.76993 33.4478C6.42488 33.0578 6.04789 32.6804 5.63895 32.3156C5.23 31.9508 4.84662 31.6112 4.48879 31.2967C4.14375 30.9696 3.84982 30.674 3.60701 30.4098C3.37698 30.1456 3.26196 29.9192 3.26196 29.7305V27.5039H4.52713C5.14055 27.5039 5.61339 27.6485 5.94565 27.9379C6.2907 28.2146 6.46322 28.6046 6.46322 29.1078H8.0351C8.0351 29.0815 8.03476 29.0553 8.03408 29.0292C8.02376 28.6307 7.93464 28.2543 7.76673 27.9001C7.6006 27.5102 7.36418 27.1768 7.05747 26.9C6.76354 26.6107 6.41849 26.3843 6.02233 26.2207C5.62617 26.0446 5.20444 25.9566 4.75716 25.9566H3.39615C2.93609 25.9566 2.50158 26.0383 2.09264 26.2019C1.69648 26.3654 1.34504 26.5918 1.03833 26.8812C0.744405 27.1705 0.507984 27.5102 0.329072 27.9001C0.162938 28.2775 0.0798718 28.6927 0.0798718 29.1455V30.2777C0.0798718 30.6174 0.194887 30.9696 0.424918 31.3344C0.667728 31.6866 0.961656 32.0452 1.3067 32.41C1.66453 32.7748 2.04791 33.1396 2.45685 33.5044C2.87858 33.8566 3.26196 34.1963 3.60701 34.5234C3.96483 34.8504 4.25876 35.1649 4.48879 35.4669C4.7316 35.7562 4.85301 36.0141 4.85301 36.2405V38.5426H3.39615C2.88497 38.5426 2.46963 38.3917 2.15015 38.0897ZM19.2725 25.8779V27.6014H16.0712V40.1874H12.7294V27.6014H9.52815V25.8779H19.2725ZM9.60802 27.5227V25.9566H19.1926V27.5227H15.9914V40.1088H12.8093V27.5227H9.60802ZM28.3687 39.9354L28.3681 39.9356C27.9743 40.1036 27.5545 40.1874 27.1095 40.1874H24.0616C23.6166 40.1874 23.1908 40.1036 22.7847 39.936L22.7833 39.9354L22.7818 39.9347C22.3905 39.755 22.0382 39.5173 21.7252 39.2221L21.724 39.2209L21.7228 39.2197C21.4229 38.9116 21.1815 38.5648 20.9988 38.1796L20.9984 38.1787C20.8148 37.7786 20.723 37.3587 20.723 36.9198V29.1455C20.723 28.732 20.8084 28.3314 20.9788 27.9443L20.979 27.9438L20.9793 27.9432C21.1618 27.5453 21.4034 27.1979 21.7042 26.9017C22.005 26.5928 22.358 26.3484 22.7626 26.1684C23.1695 25.9747 23.6029 25.8779 24.0616 25.8779H27.1095C27.5683 25.8779 28.0016 25.9747 28.4085 26.1684C28.8131 26.3484 29.1661 26.5928 29.4669 26.9017C29.7678 27.198 30.0031 27.5456 30.1729 27.9437C30.3562 28.3307 30.4482 28.7316 30.4482 29.1455V36.9198C30.4482 37.3587 30.3563 37.7786 30.1727 38.1787L30.1723 38.1796C29.9893 38.5655 29.7411 38.9127 29.428 39.2209C29.1269 39.5173 28.7738 39.7553 28.3692 39.9351L28.3687 39.9354ZM30.0999 27.9756C29.9338 27.5856 29.7038 27.246 29.4098 26.9566C29.1159 26.6547 28.7709 26.4157 28.3747 26.2396C27.9785 26.0509 27.5568 25.9566 27.1095 25.9566H24.0616C23.6143 25.9566 23.1926 26.0509 22.7964 26.2396C22.4003 26.4157 22.0552 26.6547 21.7613 26.9566C21.4674 27.246 21.231 27.5856 21.052 27.9756C20.8859 28.353 20.8028 28.743 20.8028 29.1455V36.9198C20.8028 37.3475 20.8923 37.7564 21.0712 38.1463C21.2501 38.5237 21.4865 38.8634 21.7805 39.1653C22.0872 39.4546 22.4322 39.6874 22.8156 39.8635C23.2118 40.027 23.6271 40.1088 24.0616 40.1088H27.1095C27.544 40.1088 27.953 40.027 28.3364 39.8635C28.7325 39.6874 29.0776 39.4546 29.3715 39.1653C29.6782 38.8634 29.921 38.5237 30.0999 38.1463C30.2788 37.7564 30.3683 37.3475 30.3683 36.9198V29.1455C30.3683 28.743 30.2788 28.353 30.0999 27.9756ZM33.5087 40.1874V25.8779H39.9719C40.4657 25.8779 40.9104 25.9547 41.3046 26.1098C41.7103 26.2644 42.0584 26.484 42.3479 26.769C42.6377 27.0542 42.8546 27.3974 42.9989 27.7974C43.1559 28.1971 43.2339 28.6342 43.2339 29.1078V30.4664C43.2339 31.015 43.1433 31.469 42.9565 31.8235L42.9563 31.824L42.956 31.8246C42.7739 32.1575 42.5704 32.4235 42.3442 32.6199L42.344 32.6201C42.135 32.8002 41.9347 32.9262 41.7432 32.9935L41.6511 33.0259L41.75 33.0746C41.9417 33.156 42.1409 33.3081 42.3479 33.5243C42.5731 33.7334 42.7756 34.0177 42.9568 34.3744C43.1433 34.7288 43.2339 35.1826 43.2339 35.731V40.1874H39.892V33.9038H36.8505V40.1874H33.5087ZM42.8856 34.4102C42.7067 34.0579 42.5086 33.7812 42.2914 33.5799C42.0869 33.366 41.8952 33.2214 41.7163 33.1459L41.4479 33.0138L41.7163 32.9195C41.8952 32.8566 42.0869 32.737 42.2914 32.5609C42.5086 32.3722 42.7067 32.1144 42.8856 31.7873C43.0646 31.4476 43.154 31.0073 43.154 30.4664V29.1078C43.154 28.6423 43.0773 28.2146 42.924 27.8246C42.7834 27.4347 42.5725 27.1013 42.2914 26.8246C42.0102 26.5478 41.6716 26.3339 41.2754 26.183C40.892 26.032 40.4575 25.9566 39.9719 25.9566H33.5886V40.1088H36.7707V33.8252H39.9719V40.1088H43.154V35.731C43.154 35.1901 43.0646 34.7498 42.8856 34.4102ZM48.5066 26.1495L48.5075 26.1491C48.9123 25.9691 49.3068 25.8779 49.6906 25.8779H52.6426C53.0388 25.8779 53.4397 25.969 53.8448 26.1491C54.2492 26.3289 54.6083 26.5729 54.9215 26.881C55.2474 27.1764 55.5146 27.523 55.723 27.9203C55.9332 28.3085 56.0388 28.7173 56.0388 29.1455V40.1874H55.2705C54.963 40.2 54.6366 40.2063 54.2912 40.2063H53.3519C53.0586 40.2063 52.8557 40.2001 52.7477 40.1868L52.6778 40.1782V33.9038H49.6938V40.1874H46.3519V29.1455C46.3519 28.718 46.4507 28.3038 46.6474 27.9036L46.6479 27.9027L46.6484 27.9018C46.8567 27.5045 47.1175 27.1578 47.4308 26.8621L47.4314 26.8616L47.432 26.861C47.7574 26.5664 48.1156 26.3291 48.5066 26.1495ZM55.2688 40.1088H55.9589V29.1455C55.9589 28.7304 55.8567 28.3341 55.6522 27.9567C55.4477 27.5668 55.1857 27.2271 54.8663 26.9378C54.5595 26.6359 54.2081 26.3968 53.8119 26.2207C53.4158 26.0446 53.026 25.9566 52.6426 25.9566H49.6906C49.32 25.9566 48.9366 26.0446 48.5404 26.2207C48.157 26.3968 47.8056 26.6296 47.4861 26.9189C47.1794 27.2082 46.9238 27.5479 46.7193 27.9379C46.5276 28.3278 46.4318 28.7304 46.4318 29.1455V40.1088H49.6139V33.8252H52.7576V40.1088C52.8599 40.1214 53.058 40.1277 53.3519 40.1277H54.2912C54.6362 40.1277 54.9621 40.1214 55.2688 40.1088ZM63.8533 33.885V32.1238H68.8053V36.901C68.8053 37.3386 68.7203 37.7575 68.5503 38.1569C68.3932 38.5561 68.1639 38.9045 67.8625 39.2014C67.5739 39.4982 67.2268 39.7364 66.8222 39.9163C66.4146 40.0975 65.9623 40.1874 65.4667 40.1874H62.3996C61.9297 40.1874 61.491 40.1038 61.0844 39.936L61.0829 39.9354L61.0815 39.9347C60.6898 39.7548 60.3434 39.5168 60.0428 39.2209C59.7413 38.9241 59.5056 38.5758 59.3356 38.1768C59.1652 37.7768 59.0801 37.3512 59.0801 36.901V29.1644C59.0801 28.751 59.1655 28.3506 59.3357 27.9636C59.5056 27.5651 59.741 27.2111 60.0416 26.9022C60.3426 26.5931 60.6957 26.3485 61.1006 26.1684C61.5075 25.9747 61.9408 25.8779 62.3996 25.8779H65.4475C65.8815 25.8779 66.302 25.975 66.7082 26.1684C67.1125 26.3482 67.4714 26.5923 67.7845 26.9005C68.0984 27.1967 68.3468 27.5443 68.5297 27.9428C68.7132 28.3301 68.8053 28.7312 68.8053 29.1455V29.2241H67.0737V29.1455C67.0737 28.6401 66.9609 28.2642 66.7467 28.0065L66.7462 28.0059L66.7456 28.0052C66.5318 27.7362 66.2426 27.6014 65.8692 27.6014H62.422V38.4451H65.4635V33.885H63.8533ZM68.4571 27.9756C68.2782 27.5856 68.0354 27.246 67.7287 26.9566C67.4219 26.6547 67.0705 26.4157 66.6743 26.2396C66.2782 26.0509 65.8692 25.9566 65.4475 25.9566H62.3996C61.9523 25.9566 61.5306 26.0509 61.1344 26.2396C60.7383 26.4157 60.3932 26.6547 60.0993 26.9566C59.8054 27.2586 59.5753 27.6045 59.4092 27.9945C59.2431 28.3719 59.16 28.7618 59.16 29.1644V36.901C59.16 37.3412 59.2431 37.7564 59.4092 38.1463C59.5753 38.5363 59.8054 38.876 60.0993 39.1653C60.3932 39.4546 60.7319 39.6874 61.1153 39.8635C61.5114 40.027 61.9395 40.1088 62.3996 40.1088H65.4667C65.9523 40.1088 66.3932 40.0207 66.7894 39.8446C67.1855 39.6685 67.5242 39.4358 67.8053 39.1464C68.0993 38.8571 68.3229 38.5175 68.4763 38.1275C68.6424 37.7375 68.7254 37.3287 68.7254 36.901V32.2024H63.9331V33.8063H65.5434V38.5237H62.3421V27.5227H65.8692C66.2654 27.5227 66.5785 27.6674 66.8085 27.9567C67.0386 28.2335 67.1536 28.6298 67.1536 29.1455H68.7254C68.7254 29.1193 68.7251 29.0931 68.7243 29.0669C68.7134 28.6921 68.6243 28.3284 68.4571 27.9756ZM78.4089 33.9038H75.2077V38.4451H80V40.1874H71.8659V25.8779H80V27.6014H75.2077V32.1427H78.4089V33.9038ZM78.3291 32.2213V33.8252H75.1278V38.5237H79.9201V40.1088H71.9457V25.9566H79.9201V27.5227H75.1278V32.2213H78.3291ZM24.0648 38.4451H27.1063V27.6014H24.0648V38.4451ZM36.8505 27.5825V32.1427H39.892V27.5825H36.8505ZM49.6938 27.5825V32.1427H52.6778V27.5825H49.6938ZM27.1862 38.5237V27.5227H23.9849V38.5237H27.1862ZM36.7707 27.5039H39.9719V32.2213H36.7707V27.5039ZM49.6139 32.2213H52.7576V27.5039H49.6139V32.2213Z" fill="white"/>
<path d="M0 29.4511C0 29.7946 0.115245 30.1507 0.345736 30.5196C0.589032 30.8757 0.883549 31.2382 1.22929 31.6071C1.58783 31.9759 1.97198 32.3448 2.38174 32.7136C2.80431 33.0698 3.18846 33.4132 3.53419 33.7439C3.89273 34.0746 4.18725 34.3926 4.41774 34.6979C4.66104 34.9904 4.78269 35.2512 4.78269 35.4801V37.8077H3.32291C2.81071 37.8077 2.39454 37.6551 2.07442 37.3499C1.7671 37.0446 1.61344 36.6503 1.61344 36.167H0C0 36.6121 0.0832328 37.0319 0.249698 37.4262C0.428969 37.8077 0.665863 38.1448 0.960379 38.4374C1.2677 38.7299 1.61984 38.9652 2.0168 39.1433C2.42656 39.3086 2.86193 39.3913 3.32291 39.3913H4.66744C5.15403 39.3913 5.59581 39.3086 5.99276 39.1433C6.40253 38.9652 6.74826 38.7299 7.02997 38.4374C7.32449 38.1321 7.54858 37.7887 7.70224 37.4071C7.8687 37.0128 7.95194 36.5994 7.95194 36.167V35.0031C7.95194 34.6216 7.83029 34.2336 7.58699 33.8393C7.3565 33.4323 7.06199 33.038 6.70344 32.6564C6.35771 32.2621 5.97996 31.8805 5.5702 31.5117C5.16044 31.1428 4.77628 30.7994 4.41774 30.4814C4.07201 30.1507 3.77749 29.8518 3.53419 29.5847C3.3037 29.3176 3.18846 29.0886 3.18846 28.8978V26.6465H4.45616C5.0708 26.6465 5.54459 26.7928 5.87752 27.0853C6.22325 27.3652 6.39612 27.7595 6.39612 28.2682H7.97114C7.97114 27.8358 7.88151 27.4288 7.70224 27.0472C7.53577 26.6529 7.29888 26.3158 6.99156 26.036C6.69704 25.7434 6.35131 25.5145 5.95435 25.3491C5.55739 25.1711 5.13482 25.082 4.68665 25.082H3.32291C2.86193 25.082 2.42656 25.1647 2.0168 25.3301C1.61984 25.4954 1.2677 25.7244 0.960379 26.0169C0.665863 26.3095 0.428969 26.6529 0.249698 27.0472C0.0832328 27.4288 0 27.8485 0 28.3064V29.4511Z" fill="#F5C32C"/>
<path d="M19.151 25.082H9.54721V26.6656H12.7549V39.3913H15.9433V26.6656H19.151V25.082Z" fill="#F5C32C"/>
<path d="M24.0297 39.3913H27.0837C27.5191 39.3913 27.9289 39.3086 28.313 39.1433C28.71 38.9652 29.0557 38.7299 29.3502 38.4374C29.6575 38.1321 29.9008 37.7887 30.0801 37.4071C30.2594 37.0128 30.349 36.5994 30.349 36.167V28.3064C30.349 27.8994 30.2594 27.5051 30.0801 27.1235C29.9136 26.7292 29.6832 26.3858 29.3886 26.0932C29.0941 25.788 28.7484 25.5463 28.3514 25.3682C27.9545 25.1774 27.5319 25.082 27.0837 25.082H24.0297C23.5815 25.082 23.159 25.1774 22.762 25.3682C22.3651 25.5463 22.0193 25.788 21.7248 26.0932C21.4303 26.3858 21.1934 26.7292 21.0141 27.1235C20.8477 27.5051 20.7644 27.8994 20.7644 28.3064V36.167C20.7644 36.5994 20.8541 37.0128 21.0333 37.4071C21.2126 37.7887 21.4495 38.1321 21.744 38.4374C22.0513 38.7299 22.3971 38.9652 22.7812 39.1433C23.1782 39.3086 23.5944 39.3913 24.0297 39.3913ZM27.1606 37.7887H23.9529V26.6656H27.1606V37.7887Z" fill="#F5C32C"/>
<path d="M36.7642 31.4163V26.6465H39.9719V31.4163H36.7642ZM33.5757 39.3913H36.7642V33.038H39.9719V39.3913H43.1603V34.965C43.1603 34.418 43.0707 33.9729 42.8914 33.6294C42.7121 33.2733 42.5137 32.9935 42.296 32.79C42.0911 32.5737 41.899 32.4275 41.7198 32.3511C41.5405 32.2621 41.4508 32.2176 41.4508 32.2176C41.4508 32.2176 41.5405 32.1858 41.7198 32.1222C41.899 32.0586 42.0911 31.9378 42.296 31.7597C42.5137 31.5689 42.7121 31.3082 42.8914 30.9775C43.0707 30.634 43.1603 30.1889 43.1603 29.6419V28.2682C43.1603 27.7976 43.0835 27.3652 42.9298 26.9709C42.789 26.5766 42.5777 26.2395 42.296 25.9597C42.0143 25.6798 41.6749 25.4636 41.278 25.311C40.8938 25.1583 40.4585 25.082 39.9719 25.082H33.5757V39.3913Z" fill="#F5C32C"/>
<path d="M49.71 25.082C49.3386 25.082 48.9545 25.1711 48.5575 25.3491C48.1734 25.5272 47.8212 25.7625 47.5011 26.0551C47.1938 26.3476 46.9377 26.691 46.7328 27.0853C46.5407 27.4796 46.4447 27.8866 46.4447 28.3064V39.3913H49.6331V33.038H52.7832V39.3913C52.8856 39.404 53.0841 39.4104 53.3786 39.4104C53.6731 39.4104 53.9868 39.4104 54.3198 39.4104C54.6655 39.4104 54.992 39.404 55.2994 39.3913C55.6195 39.3913 55.85 39.3913 55.9908 39.3913V28.3064C55.9908 27.8866 55.8884 27.486 55.6835 27.1044C55.4786 26.7101 55.2161 26.3667 54.896 26.0741C54.5887 25.7689 54.2365 25.5272 53.8396 25.3491C53.4426 25.1711 53.0521 25.082 52.6679 25.082H49.71ZM49.6331 31.4163V26.6465H52.7832V31.4163H49.6331Z" fill="#F5C32C"/>
<path d="M63.981 33.0189H65.5945V37.7887H62.3868V26.6656H65.921C66.318 26.6656 66.6317 26.8119 66.8622 27.1044C67.0927 27.3842 67.2079 27.7849 67.2079 28.3064H68.7829C68.7829 27.8994 68.6933 27.5051 68.514 27.1235C68.3347 26.7292 68.0915 26.3858 67.7841 26.0932C67.4768 25.788 67.1247 25.5463 66.7277 25.3682C66.3308 25.1774 65.921 25.082 65.4984 25.082H62.4444C61.9963 25.082 61.5737 25.1774 61.1767 25.3682C60.7798 25.5463 60.434 25.788 60.1395 26.0932C59.845 26.3985 59.6145 26.7483 59.448 27.1426C59.2816 27.5241 59.1983 27.9184 59.1983 28.3255V36.1479C59.1983 36.5931 59.2816 37.0128 59.448 37.4071C59.6145 37.8014 59.845 38.1448 60.1395 38.4374C60.434 38.7299 60.7734 38.9652 61.1575 39.1433C61.5545 39.3086 61.9834 39.3913 62.4444 39.3913H65.5176C66.0042 39.3913 66.446 39.3023 66.843 39.1242C67.2399 38.9461 67.5793 38.7108 67.861 38.4183C68.1555 38.1257 68.3796 37.7823 68.5332 37.388C68.6997 36.9937 68.7829 36.5803 68.7829 36.1479V31.3972H63.981V33.0189Z" fill="#F5C32C"/>
<path d="M78.4058 33.038V31.4163H75.1981V26.6656H80V25.082H72.0096V39.3913H80V37.7887H75.1981V33.038H78.4058Z" fill="#F5C32C"/>
<path fill-rule="evenodd" clip-rule="evenodd" d="M0.357913 30.5813L0.357055 30.58C0.12123 30.206 0 29.8395 0 29.4818V28.3496C0 27.8871 0.0848868 27.4612 0.255785 27.073L0.256027 27.0724L0.256279 27.0719C0.438977 26.6736 0.6808 26.326 0.981855 26.0297L0.982456 26.0291L0.983069 26.0285C1.29693 25.7324 1.65665 25.5007 2.06175 25.3335L2.06258 25.3331C2.48147 25.1656 2.92622 25.082 3.39615 25.082H4.75716C5.21507 25.082 5.6477 25.1722 6.05421 25.3527C6.45865 25.5198 6.81172 25.7514 7.11272 26.0473C7.42721 26.3314 7.66959 26.6734 7.83978 27.0724C8.02331 27.4601 8.11497 27.8735 8.11497 28.3119V28.3905H6.38335V28.3119C6.38335 27.8284 6.21873 27.4624 5.8952 27.2029L5.89395 27.2019L5.89273 27.2009C5.57983 26.9284 5.12852 26.7866 4.52713 26.7866H3.34183V28.9346C3.34183 29.094 3.44057 29.3017 3.66696 29.5619C3.90783 29.8239 4.1998 30.1176 4.54311 30.4431C4.90078 30.7575 5.28394 31.0969 5.69258 31.4615C6.10338 31.8279 6.48229 32.2072 6.82926 32.5993C7.19012 32.98 7.48742 33.3742 7.7206 33.782C7.96895 34.1813 8.0958 34.5786 8.0958 34.9729V36.1239C8.0958 36.5618 8.01075 36.9807 7.84063 37.3803C7.68337 37.7671 7.45412 38.115 7.15347 38.4238C6.86436 38.7213 6.51033 38.9598 6.09268 39.1396L6.09212 39.1399L6.09156 39.1401C5.68442 39.3082 5.23284 39.3915 4.73799 39.3915H3.39615C2.92622 39.3915 2.48147 39.3079 2.06258 39.1404L2.06116 39.1399L2.05977 39.1392C1.65553 38.9595 1.29648 38.7218 0.983069 38.4262L0.982456 38.4256L0.981855 38.425C0.681226 38.1291 0.439471 37.7881 0.256693 37.4026L0.256025 37.4012L0.255414 37.3997C0.0850103 36.9997 0 36.5742 0 36.1239V36.0453H1.76996V36.1239C1.76996 36.5835 1.91655 36.9524 2.20605 37.2377C2.50829 37.523 2.90248 37.6681 3.39615 37.6681H4.77314V35.4446C4.77314 35.2451 4.66537 35.0048 4.42721 34.721L4.42602 34.7196L4.4249 34.7181C4.19838 34.4208 3.90789 34.1098 3.55266 33.7851L3.55213 33.7846L3.55161 33.7841C3.20793 33.4583 2.82582 33.1198 2.40518 32.7685L2.40419 32.7676L2.40322 32.7668C1.99305 32.4009 1.60838 32.0348 1.24924 31.6687L1.24874 31.6682L1.24824 31.6677C0.900871 31.3004 0.604281 30.9387 0.358826 30.5827L0.357913 30.5813ZM2.15015 37.2938C1.84344 36.9919 1.69009 36.602 1.69009 36.1239H0.0798718C0.0798718 36.1502 0.0801681 36.1764 0.0807607 36.2025C0.0900908 36.6137 0.172861 37.0026 0.329072 37.3693C0.507984 37.7467 0.744405 38.0801 1.03833 38.3694C1.34504 38.6587 1.69648 38.8915 2.09264 39.0676C2.50158 39.2311 2.93609 39.3129 3.39615 39.3129H4.73799C5.22361 39.3129 5.6645 39.2311 6.06067 39.0676C6.46961 38.8915 6.81466 38.6587 7.09581 38.3694C7.38973 38.0675 7.61338 37.7278 7.76673 37.3505C7.93286 36.9605 8.01593 36.5516 8.01593 36.1239V34.9729C8.01593 34.5955 7.89452 34.2118 7.65171 33.8218C7.42168 33.4193 7.12776 33.0293 6.76993 32.6519C6.42488 32.2619 6.04789 31.8845 5.63895 31.5197C5.23 31.1549 4.84662 30.8153 4.48879 30.5008C4.14375 30.1737 3.84982 29.8781 3.60701 29.6139C3.37698 29.3497 3.26196 29.1233 3.26196 28.9346V26.708H4.52713C5.14055 26.708 5.61339 26.8526 5.94565 27.142C6.2907 27.4187 6.46322 27.8087 6.46322 28.3119H8.0351C8.0351 28.2856 8.03476 28.2594 8.03408 28.2333C8.02376 27.8348 7.93464 27.4584 7.76673 27.1042C7.6006 26.7143 7.36418 26.3809 7.05747 26.1041C6.76354 25.8148 6.41849 25.5884 6.02233 25.4248C5.62617 25.2487 5.20444 25.1607 4.75716 25.1607H3.39615C2.93609 25.1607 2.50158 25.2424 2.09264 25.406C1.69648 25.5695 1.34504 25.7959 1.03833 26.0853C0.744405 26.3746 0.507984 26.7143 0.329072 27.1042C0.162938 27.4816 0.0798718 27.8968 0.0798718 28.3496V29.4818C0.0798718 29.8215 0.194887 30.1737 0.424918 30.5385C0.667728 30.8907 0.961656 31.2493 1.3067 31.6141C1.66453 31.9789 2.04791 32.3437 2.45685 32.7085C2.87858 33.0607 3.26196 33.4004 3.60701 33.7275C3.96483 34.0546 4.25876 34.369 4.48879 34.671C4.7316 34.9603 4.85301 35.2182 4.85301 35.4446V37.7467H3.39615C2.88497 37.7467 2.46963 37.5958 2.15015 37.2938ZM19.2725 25.082V26.8055H16.0712V39.3915H12.7294V26.8055H9.52815V25.082H19.2725ZM9.60802 26.7268V25.1607H19.1926V26.7268H15.9914V39.3129H12.8093V26.7268H9.60802ZM28.3687 39.1395L28.3681 39.1397C27.9743 39.3077 27.5545 39.3915 27.1095 39.3915H24.0616C23.6166 39.3915 23.1908 39.3077 22.7847 39.1401L22.7833 39.1395L22.7818 39.1388C22.3905 38.9591 22.0382 38.7214 21.7252 38.4262L21.724 38.425L21.7228 38.4238C21.4229 38.1157 21.1815 37.7689 20.9988 37.3837L20.9984 37.3828C20.8148 36.9827 20.723 36.5628 20.723 36.1239V28.3496C20.723 27.9361 20.8084 27.5355 20.9788 27.1484L20.979 27.1479L20.9793 27.1473C21.1618 26.7494 21.4034 26.402 21.7042 26.1058C22.005 25.7969 22.358 25.5525 22.7626 25.3725C23.1695 25.1788 23.6029 25.082 24.0616 25.082H27.1095C27.5683 25.082 28.0016 25.1788 28.4085 25.3725C28.8131 25.5525 29.1661 25.7969 29.4669 26.1058C29.7678 26.4021 30.0031 26.7497 30.1729 27.1478C30.3562 27.5348 30.4482 27.9357 30.4482 28.3496V36.1239C30.4482 36.5628 30.3563 36.9827 30.1727 37.3828L30.1723 37.3837C29.9893 37.7696 29.7411 38.1168 29.428 38.425C29.1269 38.7214 28.7738 38.9594 28.3692 39.1392L28.3687 39.1395ZM30.0999 27.1797C29.9338 26.7897 29.7038 26.4501 29.4098 26.1607C29.1159 25.8588 28.7709 25.6198 28.3747 25.4437C27.9785 25.255 27.5568 25.1607 27.1095 25.1607H24.0616C23.6143 25.1607 23.1926 25.255 22.7964 25.4437C22.4003 25.6198 22.0552 25.8588 21.7613 26.1607C21.4674 26.4501 21.231 26.7897 21.052 27.1797C20.8859 27.5571 20.8028 27.9471 20.8028 28.3496V36.1239C20.8028 36.5516 20.8923 36.9605 21.0712 37.3505C21.2501 37.7278 21.4865 38.0675 21.7805 38.3694C22.0872 38.6587 22.4322 38.8915 22.8156 39.0676C23.2118 39.2311 23.6271 39.3129 24.0616 39.3129H27.1095C27.544 39.3129 27.953 39.2311 28.3364 39.0676C28.7325 38.8915 29.0776 38.6587 29.3715 38.3694C29.6782 38.0675 29.921 37.7278 30.0999 37.3505C30.2788 36.9605 30.3683 36.5516 30.3683 36.1239V28.3496C30.3683 27.9471 30.2788 27.5571 30.0999 27.1797ZM33.5087 39.3915V25.082H39.9719C40.4657 25.082 40.9104 25.1588 41.3046 25.3139C41.7103 25.4685 42.0584 25.6881 42.3479 25.9731C42.6377 26.2583 42.8546 26.6015 42.9989 27.0015C43.1559 27.4012 43.2339 27.8383 43.2339 28.3119V29.6705C43.2339 30.2191 43.1433 30.6731 42.9565 31.0276L42.9563 31.0281L42.956 31.0287C42.7739 31.3616 42.5704 31.6276 42.3442 31.824L42.344 31.8242C42.135 32.0043 41.9347 32.1303 41.7432 32.1976L41.6511 32.23L41.75 32.2787C41.9417 32.3601 42.1409 32.5122 42.3479 32.7284C42.5731 32.9375 42.7756 33.2218 42.9568 33.5785C43.1433 33.9329 43.2339 34.3867 43.2339 34.9351V39.3915H39.892V33.1079H36.8505V39.3915H33.5087ZM42.8856 33.6143C42.7067 33.262 42.5086 32.9853 42.2914 32.784C42.0869 32.5701 41.8952 32.4255 41.7163 32.35L41.4479 32.2179L41.7163 32.1236C41.8952 32.0607 42.0869 31.9412 42.2914 31.765C42.5086 31.5763 42.7067 31.3185 42.8856 30.9914C43.0646 30.6517 43.154 30.2114 43.154 29.6705V28.3119C43.154 27.8464 43.0773 27.4187 42.924 27.0288C42.7834 26.6388 42.5725 26.3054 42.2914 26.0287C42.0102 25.7519 41.6716 25.538 41.2754 25.3871C40.892 25.2361 40.4575 25.1607 39.9719 25.1607H33.5886V39.3129H36.7707V33.0293H39.9719V39.3129H43.154V34.9351C43.154 34.3942 43.0646 33.9539 42.8856 33.6143ZM48.5066 25.3536L48.5075 25.3532C48.9123 25.1732 49.3068 25.082 49.6906 25.082H52.6426C53.0388 25.082 53.4397 25.1731 53.8448 25.3532C54.2492 25.533 54.6083 25.777 54.9215 26.0851C55.2474 26.3805 55.5146 26.7271 55.723 27.1244C55.9332 27.5126 56.0388 27.9214 56.0388 28.3496V39.3915H55.2705C54.963 39.4041 54.6366 39.4104 54.2912 39.4104H53.3519C53.0586 39.4104 52.8557 39.4042 52.7477 39.3909L52.6778 39.3823V33.1079H49.6938V39.3915H46.3519V28.3496C46.3519 27.9221 46.4507 27.5079 46.6474 27.1077L46.6479 27.1068L46.6484 27.1059C46.8567 26.7086 47.1175 26.3619 47.4308 26.0662L47.4314 26.0657L47.432 26.0651C47.7574 25.7705 48.1156 25.5332 48.5066 25.3536ZM55.2688 39.3129H55.9589V28.3496C55.9589 27.9345 55.8567 27.5382 55.6522 27.1608C55.4477 26.7709 55.1857 26.4312 54.8663 26.1419C54.5595 25.84 54.2081 25.6009 53.8119 25.4248C53.4158 25.2487 53.026 25.1607 52.6426 25.1607H49.6906C49.32 25.1607 48.9366 25.2487 48.5404 25.4248C48.157 25.6009 47.8056 25.8337 47.4861 26.123C47.1794 26.4123 46.9238 26.752 46.7193 27.142C46.5276 27.5319 46.4318 27.9345 46.4318 28.3496V39.3129H49.6139V33.0293H52.7576V39.3129C52.8599 39.3255 53.058 39.3318 53.3519 39.3318H54.2912C54.6362 39.3318 54.9621 39.3255 55.2688 39.3129ZM63.8533 33.0891V31.3279H68.8053V36.1051C68.8053 36.5427 68.7203 36.9616 68.5503 37.361C68.3932 37.7602 68.1639 38.1086 67.8625 38.4055C67.5739 38.7023 67.2268 38.9405 66.8222 39.1204C66.4146 39.3016 65.9623 39.3915 65.4667 39.3915H62.3996C61.9297 39.3915 61.491 39.308 61.0844 39.1401L61.0829 39.1395L61.0815 39.1388C60.6898 38.9589 60.3434 38.7209 60.0428 38.425C59.7413 38.1282 59.5056 37.7799 59.3356 37.3809C59.1652 36.9809 59.0801 36.5553 59.0801 36.1051V28.3685C59.0801 27.9551 59.1655 27.5547 59.3357 27.1677C59.5056 26.7692 59.741 26.4152 60.0416 26.1063C60.3426 25.7973 60.6957 25.5526 61.1006 25.3725C61.5075 25.1788 61.9408 25.082 62.3996 25.082H65.4475C65.8815 25.082 66.302 25.1791 66.7082 25.3725C67.1125 25.5523 67.4714 25.7964 67.7845 26.1046C68.0984 26.4008 68.3468 26.7484 68.5297 27.1469C68.7132 27.5342 68.8053 27.9353 68.8053 28.3496V28.4282H67.0737V28.3496C67.0737 27.8442 66.9609 27.4683 66.7467 27.2106L66.7462 27.21L66.7456 27.2093C66.5318 26.9403 66.2426 26.8055 65.8692 26.8055H62.422V37.6492H65.4635V33.0891H63.8533ZM68.4571 27.1797C68.2782 26.7897 68.0354 26.4501 67.7287 26.1607C67.4219 25.8588 67.0705 25.6198 66.6743 25.4437C66.2782 25.255 65.8692 25.1607 65.4475 25.1607H62.3996C61.9523 25.1607 61.5306 25.255 61.1344 25.4437C60.7383 25.6198 60.3932 25.8588 60.0993 26.1607C59.8054 26.4627 59.5753 26.8086 59.4092 27.1986C59.2431 27.576 59.16 27.9659 59.16 28.3685V36.1051C59.16 36.5453 59.2431 36.9605 59.4092 37.3505C59.5753 37.7404 59.8054 38.0801 60.0993 38.3694C60.3932 38.6587 60.7319 38.8915 61.1153 39.0676C61.5114 39.2311 61.9395 39.3129 62.3996 39.3129H65.4667C65.9523 39.3129 66.3932 39.2248 66.7894 39.0487C67.1855 38.8726 67.5242 38.6399 67.8053 38.3505C68.0993 38.0612 68.3229 37.7216 68.4763 37.3316C68.6424 36.9416 68.7254 36.5328 68.7254 36.1051V31.4065H63.9331V33.0104H65.5434V37.7278H62.3421V26.7268H65.8692C66.2654 26.7268 66.5785 26.8715 66.8085 27.1608C67.0386 27.4376 67.1536 27.8339 67.1536 28.3496H68.7254C68.7254 28.3234 68.7251 28.2972 68.7243 28.271C68.7134 27.8962 68.6243 27.5325 68.4571 27.1797ZM78.4089 33.1079H75.2077V37.6492H80V39.3915H71.8659V25.082H80V26.8055H75.2077V31.3468H78.4089V33.1079ZM78.3291 31.4254V33.0293H75.1278V37.7278H79.9201V39.3129H71.9457V25.1607H79.9201V26.7268H75.1278V31.4254H78.3291ZM24.0648 37.6492H27.1063V26.8055H24.0648V37.6492ZM36.8505 26.7866V31.3468H39.892V26.7866H36.8505ZM49.6938 26.7866V31.3468H52.6778V26.7866H49.6938ZM27.1862 37.7278V26.7268H23.9849V37.7278H27.1862ZM36.7707 26.708H39.9719V31.4254H36.7707V26.708ZM49.6139 31.4254H52.7576V26.708H49.6139V31.4254Z" fill="white"/>
<path d="M0 28.655C0 28.9984 0.115245 29.3546 0.345736 29.7234C0.589032 30.0796 0.883549 30.4421 1.22929 30.8109C1.58783 31.1798 1.97198 31.5486 2.38174 31.9175C2.80431 32.2736 3.18846 32.6171 3.53419 32.9478C3.89273 33.2785 4.18725 33.5965 4.41774 33.9017C4.66104 34.1943 4.78269 34.455 4.78269 34.684V37.0116H3.32291C2.81071 37.0116 2.39454 36.859 2.07442 36.5537C1.7671 36.2484 1.61344 35.8541 1.61344 35.3708H0C0 35.816 0.0832328 36.2357 0.249698 36.63C0.428969 37.0116 0.665863 37.3487 0.960379 37.6412C1.2677 37.9338 1.61984 38.1691 2.0168 38.3471C2.42656 38.5125 2.86193 38.5952 3.32291 38.5952H4.66744C5.15403 38.5952 5.59581 38.5125 5.99276 38.3471C6.40253 38.1691 6.74826 37.9338 7.02997 37.6412C7.32449 37.336 7.54858 36.9925 7.70224 36.6109C7.8687 36.2166 7.95194 35.8033 7.95194 35.3708V34.207C7.95194 33.8254 7.83029 33.4375 7.58699 33.0432C7.3565 32.6361 7.06199 32.2418 6.70344 31.8603C6.35771 31.466 5.97996 31.0844 5.5702 30.7155C5.16044 30.3467 4.77628 30.0032 4.41774 29.6853C4.07201 29.3546 3.77749 29.0556 3.53419 28.7885C3.3037 28.5214 3.18846 28.2925 3.18846 28.1017V25.8504H4.45616C5.0708 25.8504 5.54459 25.9966 5.87752 26.2892C6.22325 26.569 6.39612 26.9633 6.39612 27.4721H7.97114C7.97114 27.0396 7.88151 26.6326 7.70224 26.251C7.53577 25.8567 7.29888 25.5197 6.99156 25.2398C6.69704 24.9473 6.35131 24.7183 5.95435 24.553C5.55739 24.3749 5.13482 24.2859 4.68665 24.2859H3.32291C2.86193 24.2859 2.42656 24.3686 2.0168 24.5339C1.61984 24.6993 1.2677 24.9282 0.960379 25.2208C0.665863 25.5133 0.428969 25.8567 0.249698 26.251C0.0832328 26.6326 0 27.0523 0 27.5102V28.655Z" fill="#F5C32C"/>
<path d="M19.151 24.2859H9.54721V25.8694H12.7549V38.5952H15.9433V25.8694H19.151V24.2859Z" fill="#F5C32C"/>
<path d="M24.0297 38.5952H27.0837C27.5191 38.5952 27.9289 38.5125 28.313 38.3471C28.71 38.1691 29.0557 37.9338 29.3502 37.6412C29.6575 37.336 29.9008 36.9925 30.0801 36.6109C30.2594 36.2166 30.349 35.8033 30.349 35.3708V27.5102C30.349 27.1032 30.2594 26.7089 30.0801 26.3273C29.9136 25.933 29.6832 25.5896 29.3886 25.2971C29.0941 24.9918 28.7484 24.7501 28.3514 24.5721C27.9545 24.3813 27.5319 24.2859 27.0837 24.2859H24.0297C23.5815 24.2859 23.159 24.3813 22.762 24.5721C22.3651 24.7501 22.0193 24.9918 21.7248 25.2971C21.4303 25.5896 21.1934 25.933 21.0141 26.3273C20.8477 26.7089 20.7644 27.1032 20.7644 27.5102V35.3708C20.7644 35.8033 20.8541 36.2166 21.0333 36.6109C21.2126 36.9925 21.4495 37.336 21.744 37.6412C22.0513 37.9338 22.3971 38.1691 22.7812 38.3471C23.1782 38.5125 23.5944 38.5952 24.0297 38.5952ZM27.1606 36.9925H23.9529V25.8694H27.1606V36.9925Z" fill="#F5C32C"/>
<path d="M36.7642 30.6201V25.8504H39.9719V30.6201H36.7642ZM33.5757 38.5952H36.7642V32.2418H39.9719V38.5952H43.1603V34.1688C43.1603 33.6219 43.0707 33.1767 42.8914 32.8333C42.7121 32.4772 42.5137 32.1973 42.296 31.9938C42.0911 31.7776 41.899 31.6313 41.7198 31.555C41.5405 31.466 41.4508 31.4214 41.4508 31.4214C41.4508 31.4214 41.5405 31.3897 41.7198 31.3261C41.899 31.2625 42.0911 31.1416 42.296 30.9636C42.5137 30.7728 42.7121 30.512 42.8914 30.1813C43.0707 29.8379 43.1603 29.3927 43.1603 28.8458V27.4721C43.1603 27.0015 43.0835 26.569 42.9298 26.1747C42.789 25.7804 42.5777 25.4434 42.296 25.1635C42.0143 24.8837 41.6749 24.6675 41.278 24.5148C40.8938 24.3622 40.4585 24.2859 39.9719 24.2859H33.5757V38.5952Z" fill="#F5C32C"/>
<path d="M49.71 24.2859C49.3386 24.2859 48.9545 24.3749 48.5575 24.553C48.1734 24.7311 47.8212 24.9664 47.5011 25.2589C47.1938 25.5515 46.9377 25.8949 46.7328 26.2892C46.5407 26.6835 46.4447 27.0905 46.4447 27.5102V38.5952H49.6331V32.2418H52.7832V38.5952C52.8856 38.6079 53.0841 38.6142 53.3786 38.6142C53.6731 38.6142 53.9868 38.6142 54.3198 38.6142C54.6655 38.6142 54.992 38.6079 55.2994 38.5952C55.6195 38.5952 55.85 38.5952 55.9908 38.5952V27.5102C55.9908 27.0905 55.8884 26.6898 55.6835 26.3083C55.4786 25.914 55.2161 25.5705 54.896 25.278C54.5887 24.9727 54.2365 24.7311 53.8396 24.553C53.4426 24.3749 53.0521 24.2859 52.6679 24.2859H49.71ZM49.6331 30.6201V25.8504H52.7832V30.6201H49.6331Z" fill="#F5C32C"/>
<path d="M63.981 32.2228H65.5945V36.9925H62.3868V25.8694H65.921C66.318 25.8694 66.6317 26.0157 66.8622 26.3083C67.0927 26.5881 67.2079 26.9888 67.2079 27.5102H68.7829C68.7829 27.1032 68.6933 26.7089 68.514 26.3273C68.3347 25.933 68.0915 25.5896 67.7841 25.2971C67.4768 24.9918 67.1247 24.7501 66.7277 24.5721C66.3308 24.3813 65.921 24.2859 65.4984 24.2859H62.4444C61.9963 24.2859 61.5737 24.3813 61.1767 24.5721C60.7798 24.7501 60.434 24.9918 60.1395 25.2971C59.845 25.6023 59.6145 25.9521 59.448 26.3464C59.2816 26.728 59.1983 27.1223 59.1983 27.5293V35.3517C59.1983 35.7969 59.2816 36.2166 59.448 36.6109C59.6145 37.0052 59.845 37.3487 60.1395 37.6412C60.434 37.9338 60.7734 38.1691 61.1575 38.3471C61.5545 38.5125 61.9834 38.5952 62.4444 38.5952H65.5176C66.0042 38.5952 66.446 38.5061 66.843 38.3281C67.2399 38.15 67.5793 37.9147 67.861 37.6221C68.1555 37.3296 68.3796 36.9862 68.5332 36.5919C68.6997 36.1976 68.7829 35.7842 68.7829 35.3517V30.601H63.981V32.2228Z" fill="#F5C32C"/>
<path d="M78.4058 32.2418V30.6201H75.1981V25.8694H80V24.2859H72.0096V38.5952H80V36.9925H75.1981V32.2418H78.4058Z" fill="#F5C32C"/>
<path fill-rule="evenodd" clip-rule="evenodd" d="M0.357913 29.54L0.357055 29.5386C0.12123 29.1542 0 28.7776 0 28.4099V27.2463C0 26.7709 0.0848868 26.3332 0.255785 25.9342L0.256027 25.9336L0.256279 25.9331C0.438977 25.5238 0.6808 25.1665 0.981855 24.8619L0.982456 24.8613L0.983069 24.8607C1.29693 24.5564 1.65665 24.3182 2.06175 24.1463L2.06258 24.146C2.48147 23.9738 2.92622 23.8879 3.39615 23.8879H4.75716C5.21507 23.8879 5.6477 23.9806 6.05421 24.1662C6.45865 24.3379 6.81172 24.5759 7.11272 24.8801C7.42721 25.1721 7.66959 25.5236 7.83978 25.9336C8.02331 26.332 8.11497 26.757 8.11497 27.2075V27.2883H6.38335V27.2075C6.38335 26.7106 6.21873 26.3345 5.8952 26.0677L5.89395 26.0667L5.89273 26.0656C5.57983 25.7856 5.12852 25.6398 4.52713 25.6398H3.34183V27.8475C3.34183 28.0113 3.44057 28.2249 3.66696 28.4923C3.90783 28.7616 4.1998 29.0634 4.54311 29.3979C4.90078 29.721 5.28394 30.0699 5.69258 30.4446C6.10338 30.8212 6.48229 31.211 6.82926 31.614C7.19012 32.0053 7.48742 32.4105 7.7206 32.8296C7.96895 33.24 8.0958 33.6483 8.0958 34.0535V35.2366C8.0958 35.6865 8.01075 36.1172 7.84063 36.5278C7.68337 36.9253 7.45412 37.2829 7.15347 37.6003C6.86436 37.9061 6.51033 38.1512 6.09268 38.336L6.09212 38.3363L6.09156 38.3365C5.68442 38.5092 5.23284 38.5949 4.73799 38.5949H3.39615C2.92622 38.5949 2.48147 38.509 2.06258 38.3369L2.06116 38.3363L2.05977 38.3356C1.65553 38.1509 1.29648 37.9066 0.983069 37.6028L0.982456 37.6022L0.981855 37.6016C0.681226 37.2974 0.439471 36.947 0.256693 36.5507L0.256025 36.5493L0.255414 36.5478C0.0850103 36.1367 0 35.6994 0 35.2366V35.1557H1.76996V35.2366C1.76996 35.7089 1.91655 36.0881 2.20605 36.3812C2.50829 36.6745 2.90248 36.8236 3.39615 36.8236H4.77314V34.5384C4.77314 34.3333 4.66537 34.0864 4.42721 33.7947L4.42602 33.7932L4.4249 33.7917C4.19838 33.4861 3.90789 33.1665 3.55266 32.8328L3.55213 32.8323L3.55161 32.8317C3.20793 32.4969 2.82582 32.149 2.40518 31.7879L2.40419 31.787L2.40322 31.7862C1.99305 31.4101 1.60838 31.0339 1.24924 30.6576L1.24874 30.657L1.24824 30.6565C0.900871 30.279 0.604281 29.9073 0.358826 29.5414L0.357913 29.54ZM2.15015 36.439C1.84344 36.1287 1.69009 35.7279 1.69009 35.2366H0.0798718C0.0798718 35.2636 0.0801681 35.2905 0.0807607 35.3174C0.0900908 35.7399 0.172861 36.1397 0.329072 36.5165C0.507984 36.9044 0.744405 37.247 1.03833 37.5444C1.34504 37.8418 1.69648 38.081 2.09264 38.262C2.50158 38.4301 2.93609 38.5141 3.39615 38.5141H4.73799C5.22361 38.5141 5.6645 38.4301 6.06067 38.262C6.46961 38.081 6.81466 37.8418 7.09581 37.5444C7.38973 37.2341 7.61338 36.885 7.76673 36.4971C7.93286 36.0963 8.01593 35.6761 8.01593 35.2366V34.0535C8.01593 33.6657 7.89452 33.2713 7.65171 32.8705C7.42168 32.4568 7.12776 32.056 6.76993 31.6681C6.42488 31.2673 6.04789 30.8794 5.63895 30.5045C5.23 30.1295 4.84662 29.7804 4.48879 29.4572C4.14375 29.121 3.84982 28.8172 3.60701 28.5457C3.37698 28.2742 3.26196 28.0414 3.26196 27.8475V25.559H4.52713C5.14055 25.559 5.61339 25.7077 5.94565 26.0051C6.2907 26.2895 6.46322 26.6903 6.46322 27.2075H8.0351C8.0351 27.1805 8.03476 27.1535 8.03408 27.1267C8.02376 26.7171 7.93464 26.3303 7.76673 25.9663C7.6006 25.5655 7.36418 25.2229 7.05747 24.9384C6.76354 24.6411 6.41849 24.4083 6.02233 24.2403C5.62617 24.0593 5.20444 23.9687 4.75716 23.9687H3.39615C2.93609 23.9687 2.50158 24.0528 2.09264 24.2209C1.69648 24.3889 1.34504 24.6217 1.03833 24.919C0.744405 25.2164 0.507984 25.5655 0.329072 25.9663C0.162938 26.3542 0.0798718 26.7808 0.0798718 27.2463V28.4099C0.0798718 28.759 0.194887 29.121 0.424918 29.496C0.667728 29.858 0.961656 30.2265 1.3067 30.6014C1.66453 30.9764 2.04791 31.3513 2.45685 31.7263C2.87858 32.0883 3.26196 32.4374 3.60701 32.7735C3.96483 33.1097 4.25876 33.4329 4.48879 33.7432C4.7316 34.0406 4.85301 34.3056 4.85301 34.5384V36.9044H3.39615C2.88497 36.9044 2.46963 36.7493 2.15015 36.439ZM19.2725 23.8879V25.6592H16.0712V38.5949H12.7294V25.6592H9.52815V23.8879H19.2725ZM9.60802 25.5784V23.9687H19.1926V25.5784H15.9914V38.5141H12.8093V25.5784H9.60802ZM28.3687 38.3359L28.3681 38.3361C27.9743 38.5088 27.5545 38.5949 27.1095 38.5949H24.0616C23.6166 38.5949 23.1908 38.5088 22.7847 38.3365L22.7833 38.3359L22.7818 38.3352C22.3905 38.1505 22.0382 37.9062 21.7252 37.6028L21.724 37.6016L21.7228 37.6003C21.4229 37.2837 21.1815 36.9272 20.9988 36.5313L20.9984 36.5304C20.8148 36.1192 20.723 35.6876 20.723 35.2366V27.2463C20.723 26.8213 20.8084 26.4095 20.9788 26.0118L20.979 26.0112L20.9793 26.0106C21.1618 25.6016 21.4034 25.2446 21.7042 24.9401C22.005 24.6227 22.358 24.3714 22.7626 24.1864C23.1695 23.9874 23.6029 23.8879 24.0616 23.8879H27.1095C27.5683 23.8879 28.0016 23.9874 28.4085 24.1864C28.8131 24.3714 29.1661 24.6227 29.4669 24.9401C29.7678 25.2446 30.0031 25.6019 30.1729 26.0111C30.3562 26.4089 30.4482 26.8208 30.4482 27.2463V35.2366C30.4482 35.6876 30.3563 36.1192 30.1727 36.5304L30.1723 36.5313C29.9893 36.9279 29.7411 37.2848 29.428 37.6016C29.1269 37.9061 28.7738 38.1508 28.3692 38.3356L28.3687 38.3359ZM30.0999 26.0439C29.9338 25.6431 29.7038 25.294 29.4098 24.9966C29.1159 24.6863 28.7709 24.4407 28.3747 24.2597C27.9785 24.0657 27.5568 23.9687 27.1095 23.9687H24.0616C23.6143 23.9687 23.1926 24.0657 22.7964 24.2597C22.4003 24.4407 22.0552 24.6863 21.7613 24.9966C21.4674 25.294 21.231 25.6431 21.052 26.0439C20.8859 26.4318 20.8028 26.8326 20.8028 27.2463V35.2366C20.8028 35.6761 20.8923 36.0963 21.0712 36.4971C21.2501 36.885 21.4865 37.2341 21.7805 37.5444C22.0872 37.8418 22.4322 38.081 22.8156 38.262C23.2118 38.4301 23.6271 38.5141 24.0616 38.5141H27.1095C27.544 38.5141 27.953 38.4301 28.3364 38.262C28.7325 38.081 29.0776 37.8418 29.3715 37.5444C29.6782 37.2341 29.921 36.885 30.0999 36.4971C30.2788 36.0963 30.3683 35.6761 30.3683 35.2366V27.2463C30.3683 26.8326 30.2788 26.4318 30.0999 26.0439ZM33.5087 38.5949V23.8879H39.9719C40.4657 23.8879 40.9104 23.9668 41.3046 24.1263C41.7103 24.2852 42.0584 24.5109 42.3479 24.8037C42.6377 25.0969 42.8546 25.4497 42.9989 25.8607C43.1559 26.2715 43.2339 26.7207 43.2339 27.2075V28.6039C43.2339 29.1677 43.1433 29.6343 42.9565 29.9986L42.9563 29.9992L42.956 29.9997C42.7739 30.3419 42.5704 30.6153 42.3442 30.8172L42.344 30.8174C42.135 31.0024 41.9347 31.132 41.7432 31.2012L41.6511 31.2344L41.75 31.2845C41.9417 31.3681 42.1409 31.5245 42.3479 31.7467C42.5731 31.9616 42.7756 32.2539 42.9568 32.6204C43.1433 32.9847 43.2339 33.4511 43.2339 34.0147V38.5949H39.892V32.1368H36.8505V38.5949H33.5087ZM42.8856 32.6572C42.7067 32.2952 42.5086 32.0107 42.2914 31.8038C42.0869 31.5841 41.8952 31.4354 41.7163 31.3578L41.4479 31.222L41.7163 31.1251C41.8952 31.0604 42.0869 30.9376 42.2914 30.7566C42.5086 30.5626 42.7067 30.2976 42.8856 29.9614C43.0646 29.6123 43.154 29.1598 43.154 28.6039V27.2075C43.154 26.7291 43.0773 26.2895 42.924 25.8887C42.7834 25.4879 42.5725 25.1453 42.2914 24.8609C42.0102 24.5764 41.6716 24.3566 41.2754 24.2015C40.892 24.0463 40.4575 23.9687 39.9719 23.9687H33.5886V38.5141H36.7707V32.056H39.9719V38.5141H43.154V34.0147C43.154 33.4588 43.0646 33.0063 42.8856 32.6572ZM48.5066 24.167L48.5075 24.1666C48.9123 23.9817 49.3068 23.8879 49.6906 23.8879H52.6426C53.0388 23.8879 53.4397 23.9815 53.8448 24.1666C54.2492 24.3514 54.6083 24.6022 54.9215 24.9189C55.2474 25.2225 55.5146 25.5787 55.723 25.987C55.9332 26.3861 56.0388 26.8062 56.0388 27.2463V38.5949H55.2705C54.963 38.6078 54.6366 38.6143 54.2912 38.6143H53.3519C53.0586 38.6143 52.8557 38.6079 52.7477 38.5943L52.6778 38.5854V32.1368H49.6938V38.5949H46.3519V27.2463C46.3519 26.8069 46.4507 26.3812 46.6474 25.9699L46.6479 25.969L46.6484 25.968C46.8567 25.5597 47.1175 25.2033 47.4308 24.8995L47.4314 24.8989L47.432 24.8984C47.7574 24.5955 48.1156 24.3516 48.5066 24.167ZM55.2688 38.5141H55.9589V27.2463C55.9589 26.8196 55.8567 26.4124 55.6522 26.0245C55.4477 25.6237 55.1857 25.2746 54.8663 24.9772C54.5595 24.6669 54.2081 24.4213 53.8119 24.2403C53.4158 24.0593 53.026 23.9687 52.6426 23.9687H49.6906C49.32 23.9687 48.9366 24.0593 48.5404 24.2403C48.157 24.4213 47.8056 24.6605 47.4861 24.9578C47.1794 25.2552 46.9238 25.6043 46.7193 26.0051C46.5276 26.4059 46.4318 26.8196 46.4318 27.2463V38.5141H49.6139V32.056H52.7576V38.5141C52.8599 38.527 53.058 38.5335 53.3519 38.5335H54.2912C54.6362 38.5335 54.9621 38.527 55.2688 38.5141ZM63.8533 32.1174V30.3073H68.8053V35.2172C68.8053 35.667 68.7203 36.0975 68.5503 36.508C68.3932 36.9183 68.1639 37.2764 67.8625 37.5815C67.5739 37.8866 67.2268 38.1314 66.8222 38.3162C66.4146 38.5025 65.9623 38.5949 65.4667 38.5949H62.3996C61.9297 38.5949 61.491 38.509 61.0844 38.3365L61.0829 38.3359L61.0815 38.3352C60.6898 38.1503 60.3434 37.9057 60.0428 37.6016C59.7413 37.2965 59.5056 36.9386 59.3356 36.5284C59.1652 36.1173 59.0801 35.68 59.0801 35.2172V27.2657C59.0801 26.8408 59.1655 26.4292 59.3357 26.0316C59.5056 25.6219 59.741 25.2581 60.0416 24.9407C60.3426 24.623 60.6957 24.3716 61.1006 24.1865C61.5075 23.9874 61.9408 23.8879 62.3996 23.8879H65.4475C65.8815 23.8879 66.302 23.9877 66.7082 24.1865C67.1125 24.3713 67.4714 24.6222 67.7845 24.9389C68.0984 25.2433 68.3468 25.6006 68.5297 26.0102C68.7132 26.4082 68.8053 26.8205 68.8053 27.2463V27.3271H67.0737V27.2463C67.0737 26.7268 66.9609 26.3405 66.7467 26.0757L66.7462 26.075L66.7456 26.0743C66.5318 25.7978 66.2426 25.6592 65.8692 25.6592H62.422V36.8042H65.4635V32.1174H63.8533ZM68.4571 26.0439C68.2782 25.6431 68.0354 25.294 67.7287 24.9966C67.4219 24.6863 67.0705 24.4407 66.6743 24.2597C66.2782 24.0657 65.8692 23.9687 65.4475 23.9687H62.3996C61.9523 23.9687 61.5306 24.0657 61.1344 24.2597C60.7383 24.4407 60.3932 24.6863 60.0993 24.9966C59.8054 25.3069 59.5753 25.6625 59.4092 26.0633C59.2431 26.4512 59.16 26.852 59.16 27.2657V35.2172C59.16 35.6697 59.2431 36.0963 59.4092 36.4971C59.5753 36.898 59.8054 37.247 60.0993 37.5444C60.3932 37.8418 60.7319 38.081 61.1153 38.262C61.5114 38.4301 61.9395 38.5141 62.3996 38.5141H65.4667C65.9523 38.5141 66.3932 38.4236 66.7894 38.2426C67.1855 38.0616 67.5242 37.8224 67.8053 37.525C68.0993 37.2277 68.3229 36.8786 68.4763 36.4778C68.6424 36.077 68.7254 35.6568 68.7254 35.2172V30.3881H63.9331V32.0366H65.5434V36.885H62.3421V25.5784H65.8692C66.2654 25.5784 66.5785 25.7271 66.8085 26.0245C67.0386 26.3089 67.1536 26.7162 67.1536 27.2463H68.7254C68.7254 27.2193 68.7251 27.1924 68.7243 27.1655C68.7134 26.7803 68.6243 26.4065 68.4571 26.0439ZM78.4089 32.1368H75.2077V36.8042H80V38.5949H71.8659V23.8879H80V25.6592H75.2077V30.3267H78.4089V32.1368ZM78.3291 30.4075V32.056H75.1278V36.885H79.9201V38.5141H71.9457V23.9687H79.9201V25.5784H75.1278V30.4075H78.3291ZM24.0648 36.8042H27.1063V25.6592H24.0648V36.8042ZM36.8505 25.6398V30.3267H39.892V25.6398H36.8505ZM49.6938 25.6398V30.3267H52.6778V25.6398H49.6938ZM27.1862 36.885V25.5784H23.9849V36.885H27.1862ZM36.7707 25.559H39.9719V30.4075H36.7707V25.559ZM49.6139 30.4075H52.7576V25.559H49.6139V30.4075Z" fill="white"/>
<path d="M0 27.8591C0 28.2025 0.115245 28.5587 0.345736 28.9275C0.589032 29.2837 0.883549 29.6462 1.22929 30.015C1.58783 30.3839 1.97198 30.7527 2.38174 31.1216C2.80431 31.4777 3.18846 31.8212 3.53419 32.1519C3.89273 32.4826 4.18725 32.8006 4.41774 33.1058C4.66104 33.3984 4.78269 33.6591 4.78269 33.8881V36.2157H3.32291C2.81071 36.2157 2.39454 36.0631 2.07442 35.7578C1.7671 35.4525 1.61344 35.0582 1.61344 34.5749H0C0 35.0201 0.0832328 35.4398 0.249698 35.8341C0.428969 36.2157 0.665863 36.5528 0.960379 36.8453C1.2677 37.1379 1.61984 37.3732 2.0168 37.5512C2.42656 37.7166 2.86193 37.7993 3.32291 37.7993H4.66744C5.15403 37.7993 5.59581 37.7166 5.99276 37.5512C6.40253 37.3732 6.74826 37.1379 7.02997 36.8453C7.32449 36.5401 7.54858 36.1966 7.70224 35.815C7.8687 35.4207 7.95194 35.0074 7.95194 34.5749V33.4111C7.95194 33.0295 7.83029 32.6416 7.58699 32.2473C7.3565 31.8402 7.06199 31.4459 6.70344 31.0644C6.35771 30.6701 5.97996 30.2885 5.5702 29.9196C5.16044 29.5508 4.77628 29.2073 4.41774 28.8894C4.07201 28.5587 3.77749 28.2597 3.53419 27.9926C3.3037 27.7255 3.18846 27.4966 3.18846 27.3058V25.0545H4.45616C5.0708 25.0545 5.54459 25.2007 5.87752 25.4933C6.22325 25.7731 6.39612 26.1674 6.39612 26.6762H7.97114C7.97114 26.2437 7.88151 25.8367 7.70224 25.4551C7.53577 25.0608 7.29888 24.7238 6.99156 24.4439C6.69704 24.1514 6.35131 23.9224 5.95435 23.7571C5.55739 23.579 5.13482 23.49 4.68665 23.49H3.32291C2.86193 23.49 2.42656 23.5727 2.0168 23.738C1.61984 23.9034 1.2677 24.1323 0.960379 24.4249C0.665863 24.7174 0.428969 25.0608 0.249698 25.4551C0.0832328 25.8367 0 26.2565 0 26.7143V27.8591Z" fill="#F5C32C"/>
<path d="M19.151 23.49H9.54721V25.0736H12.7549V37.7993H15.9433V25.0736H19.151V23.49Z" fill="#F5C32C"/>
<path d="M24.0297 37.7993H27.0837C27.5191 37.7993 27.9289 37.7166 28.313 37.5512C28.71 37.3732 29.0557 37.1379 29.3502 36.8453C29.6575 36.5401 29.9008 36.1966 30.0801 35.815C30.2594 35.4207 30.349 35.0074 30.349 34.5749V26.7143C30.349 26.3073 30.2594 25.913 30.0801 25.5314C29.9136 25.1371 29.6832 24.7937 29.3886 24.5012C29.0941 24.1959 28.7484 23.9542 28.3514 23.7762C27.9545 23.5854 27.5319 23.49 27.0837 23.49H24.0297C23.5815 23.49 23.159 23.5854 22.762 23.7762C22.3651 23.9542 22.0193 24.1959 21.7248 24.5012C21.4303 24.7937 21.1934 25.1371 21.0141 25.5314C20.8477 25.913 20.7644 26.3073 20.7644 26.7143V34.5749C20.7644 35.0074 20.8541 35.4207 21.0333 35.815C21.2126 36.1966 21.4495 36.5401 21.744 36.8453C22.0513 37.1379 22.3971 37.3732 22.7812 37.5512C23.1782 37.7166 23.5944 37.7993 24.0297 37.7993ZM27.1606 36.1966H23.9529V25.0736H27.1606V36.1966Z" fill="#F5C32C"/>
<path d="M36.7642 29.8242V25.0545H39.9719V29.8242H36.7642ZM33.5757 37.7993H36.7642V31.4459H39.9719V37.7993H43.1603V33.3729C43.1603 32.826 43.0707 32.3808 42.8914 32.0374C42.7121 31.6813 42.5137 31.4014 42.296 31.1979C42.0911 30.9817 41.899 30.8354 41.7198 30.7591C41.5405 30.6701 41.4508 30.6256 41.4508 30.6256C41.4508 30.6256 41.5405 30.5938 41.7198 30.5302C41.899 30.4666 42.0911 30.3457 42.296 30.1677C42.5137 29.9769 42.7121 29.7161 42.8914 29.3854C43.0707 29.042 43.1603 28.5968 43.1603 28.0499V26.6762C43.1603 26.2056 43.0835 25.7731 42.9298 25.3788C42.789 24.9845 42.5777 24.6475 42.296 24.3676C42.0143 24.0878 41.6749 23.8716 41.278 23.7189C40.8938 23.5663 40.4585 23.49 39.9719 23.49H33.5757V37.7993Z" fill="#F5C32C"/>
<path d="M49.71 23.49C49.3386 23.49 48.9545 23.579 48.5575 23.7571C48.1734 23.9352 47.8212 24.1705 47.5011 24.463C47.1938 24.7556 46.9377 25.099 46.7328 25.4933C46.5407 25.8876 46.4447 26.2946 46.4447 26.7143V37.7993H49.6331V31.4459H52.7832V37.7993C52.8856 37.812 53.0841 37.8183 53.3786 37.8183C53.6731 37.8183 53.9868 37.8183 54.3198 37.8183C54.6655 37.8183 54.992 37.812 55.2994 37.7993C55.6195 37.7993 55.85 37.7993 55.9908 37.7993V26.7143C55.9908 26.2946 55.8884 25.8939 55.6835 25.5124C55.4786 25.1181 55.2161 24.7746 54.896 24.4821C54.5887 24.1768 54.2365 23.9352 53.8396 23.7571C53.4426 23.579 53.0521 23.49 52.6679 23.49H49.71ZM49.6331 29.8242V25.0545H52.7832V29.8242H49.6331Z" fill="#F5C32C"/>
<path d="M63.981 31.4269H65.5945V36.1966H62.3868V25.0736H65.921C66.318 25.0736 66.6317 25.2198 66.8622 25.5124C67.0927 25.7922 67.2079 26.1929 67.2079 26.7143H68.7829C68.7829 26.3073 68.6933 25.913 68.514 25.5314C68.3347 25.1371 68.0915 24.7937 67.7841 24.5012C67.4768 24.1959 67.1247 23.9542 66.7277 23.7762C66.3308 23.5854 65.921 23.49 65.4984 23.49H62.4444C61.9963 23.49 61.5737 23.5854 61.1767 23.7762C60.7798 23.9542 60.434 24.1959 60.1395 24.5012C59.845 24.8064 59.6145 25.1562 59.448 25.5505C59.2816 25.9321 59.1983 26.3264 59.1983 26.7334V34.5558C59.1983 35.001 59.2816 35.4207 59.448 35.815C59.6145 36.2093 59.845 36.5528 60.1395 36.8453C60.434 37.1379 60.7734 37.3732 61.1575 37.5512C61.5545 37.7166 61.9834 37.7993 62.4444 37.7993H65.5176C66.0042 37.7993 66.446 37.7102 66.843 37.5322C67.2399 37.3541 67.5793 37.1188 67.861 36.8262C68.1555 36.5337 68.3796 36.1903 68.5332 35.796C68.6997 35.4017 68.7829 34.9883 68.7829 34.5558V29.8052H63.981V31.4269Z" fill="#F5C32C"/>
<path d="M78.4058 31.4459V29.8242H75.1981V25.0736H80V23.49H72.0096V37.7993H80V36.1966H75.1981V31.4459H78.4058Z" fill="#F5C32C"/>
<path fill-rule="evenodd" clip-rule="evenodd" d="M0.357913 28.7441L0.357055 28.7427C0.12123 28.3583 0 27.9817 0 27.614V26.4504C0 25.975 0.0848868 25.5373 0.255785 25.1383L0.256027 25.1377L0.256279 25.1372C0.438977 24.7279 0.6808 24.3706 0.981855 24.066L0.982456 24.0654L0.983069 24.0648C1.29693 23.7605 1.65665 23.5223 2.06175 23.3504L2.06258 23.3501C2.48147 23.1779 2.92622 23.092 3.39615 23.092H4.75716C5.21507 23.092 5.6477 23.1847 6.05421 23.3703C6.45865 23.542 6.81172 23.78 7.11272 24.0842C7.42721 24.3762 7.66959 24.7277 7.83978 25.1377C8.02331 25.5361 8.11497 25.9611 8.11497 26.4116V26.4924H6.38335V26.4116C6.38335 25.9147 6.21873 25.5386 5.8952 25.2718L5.89395 25.2708L5.89273 25.2697C5.57983 24.9897 5.12852 24.8439 4.52713 24.8439H3.34183V27.0516C3.34183 27.2154 3.44057 27.429 3.66696 27.6964C3.90783 27.9657 4.1998 28.2675 4.54311 28.602C4.90078 28.9251 5.28394 29.274 5.69258 29.6487C6.10338 30.0253 6.48229 30.4151 6.82926 30.8181C7.19012 31.2094 7.48742 31.6146 7.7206 32.0337C7.96895 32.4441 8.0958 32.8524 8.0958 33.2576V34.4407C8.0958 34.8906 8.01075 35.3213 7.84063 35.7319C7.68337 36.1294 7.45412 36.487 7.15347 36.8044C6.86436 37.1102 6.51033 37.3553 6.09268 37.5401L6.09212 37.5404L6.09156 37.5406C5.68442 37.7133 5.23284 37.799 4.73799 37.799H3.39615C2.92622 37.799 2.48147 37.7131 2.06258 37.541L2.06116 37.5404L2.05977 37.5397C1.65553 37.355 1.29648 37.1107 0.983069 36.8069L0.982456 36.8063L0.981855 36.8057C0.681226 36.5015 0.439471 36.1511 0.256693 35.7548L0.256025 35.7534L0.255414 35.7519C0.0850103 35.3408 0 34.9035 0 34.4407V34.3598H1.76996V34.4407C1.76996 34.913 1.91655 35.2922 2.20605 35.5853C2.50829 35.8786 2.90248 36.0277 3.39615 36.0277H4.77314V33.7425C4.77314 33.5374 4.66537 33.2905 4.42721 32.9988L4.42602 32.9973L4.4249 32.9958C4.19838 32.6902 3.90789 32.3706 3.55266 32.0369L3.55213 32.0364L3.55161 32.0358C3.20793 31.701 2.82582 31.3531 2.40518 30.992L2.40419 30.9911L2.40322 30.9903C1.99305 30.6142 1.60838 30.238 1.24924 29.8617L1.24874 29.8611L1.24824 29.8606C0.900871 29.4831 0.604281 29.1114 0.358826 28.7455L0.357913 28.7441ZM2.15015 35.6431C1.84344 35.3328 1.69009 34.932 1.69009 34.4407H0.0798718C0.0798718 34.4677 0.0801681 34.4946 0.0807607 34.5215C0.0900908 34.9441 0.172861 35.3438 0.329072 35.7206C0.507984 36.1085 0.744405 36.4511 1.03833 36.7485C1.34504 37.0459 1.69648 37.2851 2.09264 37.4661C2.50158 37.6342 2.93609 37.7182 3.39615 37.7182H4.73799C5.22361 37.7182 5.6645 37.6342 6.06067 37.4661C6.46961 37.2851 6.81466 37.0459 7.09581 36.7485C7.38973 36.4382 7.61338 36.0891 7.76673 35.7013C7.93286 35.3004 8.01593 34.8802 8.01593 34.4407V33.2576C8.01593 32.8698 7.89452 32.4754 7.65171 32.0746C7.42168 31.6609 7.12776 31.2601 6.76993 30.8722C6.42488 30.4714 6.04789 30.0835 5.63895 29.7086C5.23 29.3336 4.84662 28.9845 4.48879 28.6613C4.14375 28.3251 3.84982 28.0213 3.60701 27.7498C3.37698 27.4783 3.26196 27.2455 3.26196 27.0516V24.7631H4.52713C5.14055 24.7631 5.61339 24.9118 5.94565 25.2092C6.2907 25.4936 6.46322 25.8944 6.46322 26.4116H8.0351C8.0351 26.3846 8.03476 26.3576 8.03408 26.3308C8.02376 25.9212 7.93464 25.5344 7.76673 25.1704C7.6006 24.7696 7.36418 24.427 7.05747 24.1425C6.76354 23.8452 6.41849 23.6124 6.02233 23.4444C5.62617 23.2634 5.20444 23.1728 4.75716 23.1728H3.39615C2.93609 23.1728 2.50158 23.2569 2.09264 23.425C1.69648 23.593 1.34504 23.8258 1.03833 24.1231C0.744405 24.4205 0.507984 24.7696 0.329072 25.1704C0.162938 25.5583 0.0798718 25.985 0.0798718 26.4504V27.614C0.0798718 27.9631 0.194887 28.3251 0.424918 28.7001C0.667728 29.0621 0.961656 29.4306 1.3067 29.8055C1.66453 30.1805 2.04791 30.5554 2.45685 30.9304C2.87858 31.2924 3.26196 31.6415 3.60701 31.9776C3.96483 32.3138 4.25876 32.637 4.48879 32.9473C4.7316 33.2447 4.85301 33.5098 4.85301 33.7425V36.1085H3.39615C2.88497 36.1085 2.46963 35.9534 2.15015 35.6431ZM19.2725 23.092V24.8633H16.0712V37.799H12.7294V24.8633H9.52815V23.092H19.2725ZM9.60802 24.7825V23.1728H19.1926V24.7825H15.9914V37.7182H12.8093V24.7825H9.60802ZM28.3687 37.54L28.3681 37.5402C27.9743 37.7129 27.5545 37.799 27.1095 37.799H24.0616C23.6166 37.799 23.1908 37.7129 22.7847 37.5406L22.7833 37.54L22.7818 37.5393C22.3905 37.3546 22.0382 37.1103 21.7252 36.8069L21.724 36.8057L21.7228 36.8044C21.4229 36.4878 21.1815 36.1313 20.9988 35.7354L20.9984 35.7345C20.8148 35.3233 20.723 34.8917 20.723 34.4407V26.4504C20.723 26.0254 20.8084 25.6136 20.9788 25.2159L20.979 25.2153L20.9793 25.2147C21.1618 24.8057 21.4034 24.4487 21.7042 24.1442C22.005 23.8268 22.358 23.5755 22.7626 23.3905C23.1695 23.1915 23.6029 23.092 24.0616 23.092H27.1095C27.5683 23.092 28.0016 23.1915 28.4085 23.3905C28.8131 23.5755 29.1661 23.8268 29.4669 24.1442C29.7678 24.4487 30.0031 24.806 30.1729 25.2152C30.3562 25.613 30.4482 26.025 30.4482 26.4504V34.4407C30.4482 34.8917 30.3563 35.3233 30.1727 35.7345L30.1723 35.7354C29.9893 36.1321 29.7411 36.4889 29.428 36.8057C29.1269 37.1102 28.7738 37.3549 28.3692 37.5397L28.3687 37.54ZM30.0999 25.248C29.9338 24.8472 29.7038 24.4981 29.4098 24.2007C29.1159 23.8904 28.7709 23.6448 28.3747 23.4638C27.9785 23.2698 27.5568 23.1728 27.1095 23.1728H24.0616C23.6143 23.1728 23.1926 23.2698 22.7964 23.4638C22.4003 23.6448 22.0552 23.8904 21.7613 24.2007C21.4674 24.4981 21.231 24.8472 21.052 25.248C20.8859 25.6359 20.8028 26.0367 20.8028 26.4504V34.4407C20.8028 34.8802 20.8923 35.3004 21.0712 35.7013C21.2501 36.0891 21.4865 36.4382 21.7805 36.7485C22.0872 37.0459 22.4322 37.2851 22.8156 37.4661C23.2118 37.6342 23.6271 37.7182 24.0616 37.7182H27.1095C27.544 37.7182 27.953 37.6342 28.3364 37.4661C28.7325 37.2851 29.0776 37.0459 29.3715 36.7485C29.6782 36.4382 29.921 36.0891 30.0999 35.7013C30.2788 35.3004 30.3683 34.8802 30.3683 34.4407V26.4504C30.3683 26.0367 30.2788 25.6359 30.0999 25.248ZM33.5087 37.799V23.092H39.9719C40.4657 23.092 40.9104 23.1709 41.3046 23.3304C41.7103 23.4893 42.0584 23.715 42.3479 24.0078C42.6377 24.301 42.8546 24.6538 42.9989 25.0648C43.1559 25.4756 43.2339 25.9248 43.2339 26.4116V27.808C43.2339 28.3718 43.1433 28.8384 42.9565 29.2027L42.9563 29.2033L42.956 29.2038C42.7739 29.546 42.5704 29.8194 42.3442 30.0213L42.344 30.0215C42.135 30.2065 41.9347 30.3361 41.7432 30.4053L41.6511 30.4385L41.75 30.4886C41.9417 30.5722 42.1409 30.7286 42.3479 30.9508C42.5731 31.1657 42.7756 31.458 42.9568 31.8245C43.1433 32.1888 43.2339 32.6552 43.2339 33.2188V37.799H39.892V31.3409H36.8505V37.799H33.5087ZM42.8856 31.8613C42.7067 31.4993 42.5086 31.2148 42.2914 31.0079C42.0869 30.7882 41.8952 30.6395 41.7163 30.5619L41.4479 30.4261L41.7163 30.3292C41.8952 30.2645 42.0869 30.1417 42.2914 29.9607C42.5086 29.7667 42.7067 29.5017 42.8856 29.1655C43.0646 28.8164 43.154 28.3639 43.154 27.808V26.4116C43.154 25.9332 43.0773 25.4936 42.924 25.0928C42.7834 24.692 42.5725 24.3494 42.2914 24.065C42.0102 23.7805 41.6716 23.5607 41.2754 23.4056C40.892 23.2504 40.4575 23.1728 39.9719 23.1728H33.5886V37.7182H36.7707V31.2601H39.9719V37.7182H43.154V33.2188C43.154 32.6629 43.0646 32.2104 42.8856 31.8613ZM48.5066 23.3711L48.5075 23.3707C48.9123 23.1858 49.3068 23.092 49.6906 23.092H52.6426C53.0388 23.092 53.4397 23.1856 53.8448 23.3707C54.2492 23.5555 54.6083 23.8063 54.9215 24.123C55.2474 24.4266 55.5146 24.7828 55.723 25.1911C55.9332 25.5902 56.0388 26.0103 56.0388 26.4504V37.799H55.2705C54.963 37.8119 54.6366 37.8184 54.2912 37.8184H53.3519C53.0586 37.8184 52.8557 37.812 52.7477 37.7984L52.6778 37.7895V31.3409H49.6938V37.799H46.3519V26.4504C46.3519 26.011 46.4507 25.5853 46.6474 25.174L46.6479 25.1731L46.6484 25.1721C46.8567 24.7638 47.1175 24.4074 47.4308 24.1036L47.4314 24.103L47.432 24.1025C47.7574 23.7996 48.1156 23.5557 48.5066 23.3711ZM55.2688 37.7182H55.9589V26.4504C55.9589 26.0237 55.8567 25.6165 55.6522 25.2286C55.4477 24.8278 55.1857 24.4787 54.8663 24.1813C54.5595 23.871 54.2081 23.6254 53.8119 23.4444C53.4158 23.2634 53.026 23.1728 52.6426 23.1728H49.6906C49.32 23.1728 48.9366 23.2634 48.5404 23.4444C48.157 23.6254 47.8056 23.8646 47.4861 24.1619C47.1794 24.4593 46.9238 24.8084 46.7193 25.2092C46.5276 25.61 46.4318 26.0237 46.4318 26.4504V37.7182H49.6139V31.2601H52.7576V37.7182C52.8599 37.7311 53.058 37.7376 53.3519 37.7376H54.2912C54.6362 37.7376 54.9621 37.7311 55.2688 37.7182ZM63.8533 31.3215V29.5114H68.8053V34.4213C68.8053 34.8711 68.7203 35.3016 68.5503 35.7121C68.3932 36.1224 68.1639 36.4805 67.8625 36.7856C67.5739 37.0907 67.2268 37.3355 66.8222 37.5203C66.4146 37.7066 65.9623 37.799 65.4667 37.799H62.3996C61.9297 37.799 61.491 37.7131 61.0844 37.5406L61.0829 37.54L61.0815 37.5393C60.6898 37.3544 60.3434 37.1098 60.0428 36.8057C59.7413 36.5006 59.5056 36.1427 59.3356 35.7325C59.1652 35.3214 59.0801 34.8841 59.0801 34.4213V26.4698C59.0801 26.0449 59.1655 25.6333 59.3357 25.2357C59.5056 24.826 59.741 24.4622 60.0416 24.1448C60.3426 23.8271 60.6957 23.5757 61.1006 23.3906C61.5075 23.1915 61.9408 23.092 62.3996 23.092H65.4475C65.8815 23.092 66.302 23.1919 66.7082 23.3906C67.1125 23.5754 67.4714 23.8263 67.7845 24.143C68.0984 24.4474 68.3468 24.8047 68.5297 25.2143C68.7132 25.6123 68.8053 26.0246 68.8053 26.4504V26.5312H67.0737V26.4504C67.0737 25.9309 66.9609 25.5446 66.7467 25.2798L66.7462 25.2791L66.7456 25.2784C66.5318 25.0019 66.2426 24.8633 65.8692 24.8633H62.422V36.0083H65.4635V31.3215H63.8533ZM68.4571 25.248C68.2782 24.8472 68.0354 24.4981 67.7287 24.2007C67.4219 23.8904 67.0705 23.6448 66.6743 23.4638C66.2782 23.2698 65.8692 23.1728 65.4475 23.1728H62.3996C61.9523 23.1728 61.5306 23.2698 61.1344 23.4638C60.7383 23.6448 60.3932 23.8904 60.0993 24.2007C59.8054 24.511 59.5753 24.8666 59.4092 25.2674C59.2431 25.6553 59.16 26.0561 59.16 26.4698V34.4213C59.16 34.8738 59.2431 35.3004 59.4092 35.7013C59.5753 36.1021 59.8054 36.4511 60.0993 36.7485C60.3932 37.0459 60.7319 37.2851 61.1153 37.4661C61.5114 37.6342 61.9395 37.7182 62.3996 37.7182H65.4667C65.9523 37.7182 66.3932 37.6277 66.7894 37.4467C67.1855 37.2657 67.5242 37.0265 67.8053 36.7291C68.0993 36.4318 68.3229 36.0827 68.4763 35.6819C68.6424 35.2811 68.7254 34.8609 68.7254 34.4213V29.5922H63.9331V31.2407H65.5434V36.0891H62.3421V24.7825H65.8692C66.2654 24.7825 66.5785 24.9312 66.8085 25.2286C67.0386 25.513 67.1536 25.9203 67.1536 26.4504H68.7254C68.7254 26.4234 68.7251 26.3965 68.7243 26.3696C68.7134 25.9844 68.6243 25.6106 68.4571 25.248ZM78.4089 31.3409H75.2077V36.0083H80V37.799H71.8659V23.092H80V24.8633H75.2077V29.5308H78.4089V31.3409ZM78.3291 29.6116V31.2601H75.1278V36.0891H79.9201V37.7182H71.9457V23.1728H79.9201V24.7825H75.1278V29.6116H78.3291ZM24.0648 36.0083H27.1063V24.8633H24.0648V36.0083ZM36.8505 24.8439V29.5308H39.892V24.8439H36.8505ZM49.6938 24.8439V29.5308H52.6778V24.8439H49.6938ZM27.1862 36.0891V24.7825H23.9849V36.0891H27.1862ZM36.7707 24.7631H39.9719V29.6116H36.7707V24.7631ZM49.6139 29.6116H52.7576V24.7631H49.6139V29.6116Z" fill="white"/>
<path d="M0 27.0629C0 27.4064 0.115245 27.7625 0.345736 28.1314C0.589032 28.4875 0.883549 28.85 1.22929 29.2189C1.58783 29.5877 1.97198 29.9566 2.38174 30.3255C2.80431 30.6816 3.18846 31.025 3.53419 31.3557C3.89273 31.6864 4.18725 32.0044 4.41774 32.3097C4.66104 32.6022 4.78269 32.863 4.78269 33.0919V35.4196H3.32291C2.81071 35.4196 2.39454 35.2669 2.07442 34.9617C1.7671 34.6564 1.61344 34.2621 1.61344 33.7788H0C0 34.2239 0.0832328 34.6437 0.249698 35.038C0.428969 35.4196 0.665863 35.7566 0.960379 36.0492C1.2677 36.3417 1.61984 36.577 2.0168 36.7551C2.42656 36.9205 2.86193 37.0031 3.32291 37.0031H4.66744C5.15403 37.0031 5.59581 36.9205 5.99276 36.7551C6.40253 36.577 6.74826 36.3417 7.02997 36.0492C7.32449 35.7439 7.54858 35.4005 7.70224 35.0189C7.8687 34.6246 7.95194 34.2112 7.95194 33.7788V32.6149C7.95194 32.2334 7.83029 31.8454 7.58699 31.4511C7.3565 31.0441 7.06199 30.6498 6.70344 30.2682C6.35771 29.8739 5.97996 29.4923 5.5702 29.1235C5.16044 28.7546 4.77628 28.4112 4.41774 28.0932C4.07201 27.7625 3.77749 27.4636 3.53419 27.1965C3.3037 26.9294 3.18846 26.7004 3.18846 26.5097V24.2583H4.45616C5.0708 24.2583 5.54459 24.4046 5.87752 24.6971C6.22325 24.977 6.39612 25.3713 6.39612 25.88H7.97114C7.97114 25.4476 7.88151 25.0406 7.70224 24.659C7.53577 24.2647 7.29888 23.9276 6.99156 23.6478C6.69704 23.3553 6.35131 23.1263 5.95435 22.961C5.55739 22.7829 5.13482 22.6938 4.68665 22.6938H3.32291C2.86193 22.6938 2.42656 22.7765 2.0168 22.9419C1.61984 23.1072 1.2677 23.3362 0.960379 23.6287C0.665863 23.9213 0.428969 24.2647 0.249698 24.659C0.0832328 25.0406 0 25.4603 0 25.9182V27.0629Z" fill="black"/>
<path d="M19.151 22.6938H9.54721V24.2774H12.7549V37.0031H15.9433V24.2774H19.151V22.6938Z" fill="black"/>
<path d="M24.0297 37.0031H27.0837C27.5191 37.0031 27.9289 36.9205 28.313 36.7551C28.71 36.577 29.0557 36.3417 29.3502 36.0492C29.6575 35.7439 29.9008 35.4005 30.0801 35.0189C30.2594 34.6246 30.349 34.2112 30.349 33.7788V25.9182C30.349 25.5112 30.2594 25.1169 30.0801 24.7353C29.9136 24.341 29.6832 23.9976 29.3886 23.705C29.0941 23.3998 28.7484 23.1581 28.3514 22.98C27.9545 22.7892 27.5319 22.6938 27.0837 22.6938H24.0297C23.5815 22.6938 23.159 22.7892 22.762 22.98C22.3651 23.1581 22.0193 23.3998 21.7248 23.705C21.4303 23.9976 21.1934 24.341 21.0141 24.7353C20.8477 25.1169 20.7644 25.5112 20.7644 25.9182V33.7788C20.7644 34.2112 20.8541 34.6246 21.0333 35.0189C21.2126 35.4005 21.4495 35.7439 21.744 36.0492C22.0513 36.3417 22.3971 36.577 22.7812 36.7551C23.1782 36.9205 23.5944 37.0031 24.0297 37.0031ZM27.1606 35.4005H23.9529V24.2774H27.1606V35.4005Z" fill="black"/>
<path d="M36.7642 29.0281V24.2583H39.9719V29.0281H36.7642ZM33.5757 37.0031H36.7642V30.6498H39.9719V37.0031H43.1603V32.5768C43.1603 32.0299 43.0707 31.5847 42.8914 31.2413C42.7121 30.8851 42.5137 30.6053 42.296 30.4018C42.0911 30.1855 41.899 30.0393 41.7198 29.963C41.5405 29.8739 41.4508 29.8294 41.4508 29.8294C41.4508 29.8294 41.5405 29.7976 41.7198 29.734C41.899 29.6704 42.0911 29.5496 42.296 29.3715C42.5137 29.1807 42.7121 28.92 42.8914 28.5893C43.0707 28.2458 43.1603 27.8007 43.1603 27.2537V25.88C43.1603 25.4094 43.0835 24.977 42.9298 24.5827C42.789 24.1884 42.5777 23.8513 42.296 23.5715C42.0143 23.2917 41.6749 23.0754 41.278 22.9228C40.8938 22.7702 40.4585 22.6938 39.9719 22.6938H33.5757V37.0031Z" fill="black"/>
<path d="M49.71 22.6938C49.3386 22.6938 48.9545 22.7829 48.5575 22.961C48.1734 23.139 47.8212 23.3743 47.5011 23.6669C47.1938 23.9594 46.9377 24.3028 46.7328 24.6971C46.5407 25.0914 46.4447 25.4985 46.4447 25.9182V37.0031H49.6331V30.6498H52.7832V37.0031C52.8856 37.0158 53.0841 37.0222 53.3786 37.0222C53.6731 37.0222 53.9868 37.0222 54.3198 37.0222C54.6655 37.0222 54.992 37.0158 55.2994 37.0031C55.6195 37.0031 55.85 37.0031 55.9908 37.0031V25.9182C55.9908 25.4985 55.8884 25.0978 55.6835 24.7162C55.4786 24.3219 55.2161 23.9785 54.896 23.686C54.5887 23.3807 54.2365 23.139 53.8396 22.961C53.4426 22.7829 53.0521 22.6938 52.6679 22.6938H49.71ZM49.6331 29.0281V24.2583H52.7832V29.0281H49.6331Z" fill="black"/>
<path d="M63.981 30.6307H65.5945V35.4005H62.3868V24.2774H65.921C66.318 24.2774 66.6317 24.4237 66.8622 24.7162C67.0927 24.9961 67.2079 25.3967 67.2079 25.9182H68.7829C68.7829 25.5112 68.6933 25.1169 68.514 24.7353C68.3347 24.341 68.0915 23.9976 67.7841 23.705C67.4768 23.3998 67.1247 23.1581 66.7277 22.98C66.3308 22.7892 65.921 22.6938 65.4984 22.6938H62.4444C61.9963 22.6938 61.5737 22.7892 61.1767 22.98C60.7798 23.1581 60.434 23.3998 60.1395 23.705C59.845 24.0103 59.6145 24.3601 59.448 24.7544C59.2816 25.136 59.1983 25.5303 59.1983 25.9373V33.7597C59.1983 34.2049 59.2816 34.6246 59.448 35.0189C59.6145 35.4132 59.845 35.7566 60.1395 36.0492C60.434 36.3417 60.7734 36.577 61.1575 36.7551C61.5545 36.9205 61.9834 37.0031 62.4444 37.0031H65.5176C66.0042 37.0031 66.446 36.9141 66.843 36.736C67.2399 36.5579 67.5793 36.3226 67.861 36.0301C68.1555 35.7375 68.3796 35.3941 68.5332 34.9998C68.6997 34.6055 68.7829 34.1921 68.7829 33.7597V29.009H63.981V30.6307Z" fill="black"/>
<path d="M78.4058 30.6498V29.0281H75.1981V24.2774H80V22.6938H72.0096V37.0031H80V35.4005H75.1981V30.6498H78.4058Z" fill="black"/>
<path fill-rule="evenodd" clip-rule="evenodd" d="M0.357913 27.948L0.357055 27.9466C0.12123 27.5622 0 27.1855 0 26.8179V25.6543C0 25.1789 0.0848868 24.7411 0.255785 24.3421L0.256027 24.3416L0.256279 24.341C0.438977 23.9317 0.6808 23.5744 0.981855 23.2699L0.982456 23.2693L0.983069 23.2687C1.29693 22.9644 1.65665 22.7262 2.06175 22.5543L2.06258 22.554C2.48147 22.3818 2.92622 22.2959 3.39615 22.2959H4.75716C5.21507 22.2959 5.6477 22.3886 6.05421 22.5741C6.45865 22.7459 6.81172 22.9838 7.11272 23.288C7.42721 23.58 7.66959 23.9315 7.83978 24.3415C8.02331 24.74 8.11497 25.1649 8.11497 25.6155V25.6963H6.38335V25.6155C6.38335 25.1185 6.21873 24.7424 5.8952 24.4757L5.89395 24.4747L5.89273 24.4736C5.57983 24.1935 5.12852 24.0478 4.52713 24.0478H3.34183V26.2555C3.34183 26.4193 3.44057 26.6328 3.66696 26.9002C3.90783 27.1695 4.1998 27.4714 4.54311 27.8059C4.90078 28.129 5.28394 28.4779 5.69258 28.8525C6.10338 29.2292 6.48229 29.619 6.82926 30.0219C7.19012 30.4132 7.48742 30.8184 7.7206 31.2375C7.96895 31.6479 8.0958 32.0563 8.0958 32.4615V33.6445C8.0958 34.0945 8.01075 34.5251 7.84063 34.9358C7.68337 35.3333 7.45412 35.6909 7.15347 36.0083C6.86436 36.3141 6.51033 36.5591 6.09268 36.744L6.09212 36.7442L6.09156 36.7445C5.68442 36.9172 5.23284 37.0029 4.73799 37.0029H3.39615C2.92622 37.0029 2.48147 36.917 2.06258 36.7448L2.06116 36.7442L2.05977 36.7436C1.65553 36.5589 1.29648 36.3146 0.983069 36.0107L0.982456 36.0101L0.981855 36.0095C0.681226 35.7054 0.439471 35.3549 0.256693 34.9587L0.256025 34.9572L0.255414 34.9558C0.0850103 34.5446 0 34.1073 0 33.6445V33.5637H1.76996V33.6445C1.76996 34.1169 1.91655 34.496 2.20605 34.7892C2.50829 35.0824 2.90248 35.2316 3.39615 35.2316H4.77314V32.9463C4.77314 32.7413 4.66537 32.4943 4.42721 32.2027L4.42602 32.2012L4.4249 32.1997C4.19838 31.8941 3.90789 31.5744 3.55266 31.2407L3.55213 31.2402L3.55161 31.2397C3.20793 30.9049 2.82582 30.5569 2.40518 30.1958L2.40419 30.195L2.40322 30.1941C1.99305 29.818 1.60838 29.4418 1.24924 29.0655L1.24874 29.065L1.24824 29.0645C0.900871 28.687 0.604281 28.3153 0.358826 27.9493L0.357913 27.948ZM2.15015 34.8469C1.84344 34.5366 1.69009 34.1358 1.69009 33.6445H0.0798718C0.0798718 33.6715 0.0801681 33.6985 0.0807607 33.7253C0.0900908 34.1479 0.172861 34.5476 0.329072 34.9245C0.507984 35.3124 0.744405 35.655 1.03833 35.9524C1.34504 36.2497 1.69648 36.4889 2.09264 36.6699C2.50158 36.838 2.93609 36.9221 3.39615 36.9221H4.73799C5.22361 36.9221 5.6645 36.838 6.06067 36.6699C6.46961 36.4889 6.81466 36.2497 7.09581 35.9524C7.38973 35.6421 7.61338 35.293 7.76673 34.9051C7.93286 34.5043 8.01593 34.0841 8.01593 33.6445V32.4615C8.01593 32.0736 7.89452 31.6793 7.65171 31.2785C7.42168 30.8647 7.12776 30.4639 6.76993 30.076C6.42488 29.6752 6.04789 29.2874 5.63895 28.9124C5.23 28.5375 4.84662 28.1884 4.48879 27.8652C4.14375 27.529 3.84982 27.2252 3.60701 26.9536C3.37698 26.6821 3.26196 26.4494 3.26196 26.2555V23.967H4.52713C5.14055 23.967 5.61339 24.1157 5.94565 24.4131C6.2907 24.6975 6.46322 25.0983 6.46322 25.6155H8.0351C8.0351 25.5884 8.03476 25.5615 8.03408 25.5347C8.02376 25.1251 7.93464 24.7383 7.76673 24.3743C7.6006 23.9735 7.36418 23.6308 7.05747 23.3464C6.76354 23.049 6.41849 22.8163 6.02233 22.6482C5.62617 22.4672 5.20444 22.3767 4.75716 22.3767H3.39615C2.93609 22.3767 2.50158 22.4607 2.09264 22.6288C1.69648 22.7969 1.34504 23.0296 1.03833 23.327C0.744405 23.6244 0.507984 23.9735 0.329072 24.3743C0.162938 24.7621 0.0798718 25.1888 0.0798718 25.6543V26.8179C0.0798718 27.167 0.194887 27.529 0.424918 27.9039C0.667728 28.266 0.961656 28.6344 1.3067 29.0094C1.66453 29.3843 2.04791 29.7593 2.45685 30.1342C2.87858 30.4962 3.26196 30.8453 3.60701 31.1815C3.96483 31.5177 4.25876 31.8409 4.48879 32.1512C4.7316 32.4486 4.85301 32.7136 4.85301 32.9463V35.3124H3.39615C2.88497 35.3124 2.46963 35.1572 2.15015 34.8469ZM19.2725 22.2959V24.0672H16.0712V37.0029H12.7294V24.0672H9.52815V22.2959H19.2725ZM9.60802 23.9864V22.3767H19.1926V23.9864H15.9914V36.9221H12.8093V23.9864H9.60802ZM28.3687 36.7438L28.3681 36.7441C27.9743 36.9167 27.5545 37.0029 27.1095 37.0029H24.0616C23.6166 37.0029 23.1908 36.9167 22.7847 36.7445L22.7833 36.7438L22.7818 36.7432C22.3905 36.5584 22.0382 36.3142 21.7252 36.0107L21.724 36.0095L21.7228 36.0083C21.4229 35.6916 21.1815 35.3352 20.9988 34.9393L20.9984 34.9384C20.8148 34.5271 20.723 34.0956 20.723 33.6445V25.6543C20.723 25.2292 20.8084 24.8175 20.9788 24.4197L20.979 24.4191L20.9793 24.4186C21.1618 24.0096 21.4034 23.6525 21.7042 23.3481C22.005 23.0307 22.358 22.7794 22.7626 22.5944C23.1695 22.3954 23.6029 22.2959 24.0616 22.2959H27.1095C27.5683 22.2959 28.0016 22.3954 28.4085 22.5944C28.8131 22.7794 29.1661 23.0307 29.4669 23.3481C29.7678 23.6526 30.0031 24.0098 30.1729 24.4191C30.3562 24.8168 30.4482 25.2288 30.4482 25.6543V33.6445C30.4482 34.0956 30.3563 34.5271 30.1727 34.9384L30.1723 34.9393C29.9893 35.3359 29.7411 35.6927 29.428 36.0095C29.1269 36.3141 28.7738 36.5588 28.3692 36.7436L28.3687 36.7438ZM30.0999 24.4518C29.9338 24.051 29.7038 23.702 29.4098 23.4046C29.1159 23.0943 28.7709 22.8486 28.3747 22.6676C27.9785 22.4737 27.5568 22.3767 27.1095 22.3767H24.0616C23.6143 22.3767 23.1926 22.4737 22.7964 22.6676C22.4003 22.8486 22.0552 23.0943 21.7613 23.4046C21.4674 23.702 21.231 24.051 21.052 24.4518C20.8859 24.8397 20.8028 25.2405 20.8028 25.6543V33.6445C20.8028 34.0841 20.8923 34.5043 21.0712 34.9051C21.2501 35.293 21.4865 35.6421 21.7805 35.9524C22.0872 36.2497 22.4322 36.4889 22.8156 36.6699C23.2118 36.838 23.6271 36.9221 24.0616 36.9221H27.1095C27.544 36.9221 27.953 36.838 28.3364 36.6699C28.7325 36.4889 29.0776 36.2497 29.3715 35.9524C29.6782 35.6421 29.921 35.293 30.0999 34.9051C30.2788 34.5043 30.3683 34.0841 30.3683 33.6445V25.6543C30.3683 25.2405 30.2788 24.8397 30.0999 24.4518ZM33.5087 37.0029V22.2959H39.9719C40.4657 22.2959 40.9104 22.3748 41.3046 22.5342C41.7103 22.6931 42.0584 22.9188 42.3479 23.2117C42.6377 23.5049 42.8546 23.8576 42.9989 24.2687C43.1559 24.6795 43.2339 25.1287 43.2339 25.6155V27.0118C43.2339 27.5757 43.1433 28.0422 42.9565 28.4066L42.9563 28.4072L42.956 28.4077C42.7739 28.7499 42.5704 29.0233 42.3442 29.2251L42.344 29.2254C42.135 29.4104 41.9347 29.5399 41.7432 29.6091L41.6511 29.6424L41.75 29.6924C41.9417 29.7761 42.1409 29.9324 42.3479 30.1547C42.5731 30.3696 42.7756 30.6618 42.9568 31.0284C43.1433 31.3926 43.2339 31.859 43.2339 32.4227V37.0029H39.892V30.5447H36.8505V37.0029H33.5087ZM42.8856 31.0651C42.7067 30.7031 42.5086 30.4187 42.2914 30.2118C42.0869 29.992 41.8952 29.8433 41.7163 29.7657L41.4479 29.63L41.7163 29.533C41.8952 29.4684 42.0869 29.3455 42.2914 29.1645C42.5086 28.9706 42.7067 28.7056 42.8856 28.3694C43.0646 28.0203 43.154 27.5678 43.154 27.0118V25.6155C43.154 25.1371 43.0773 24.6975 42.924 24.2967C42.7834 23.8959 42.5725 23.5533 42.2914 23.2688C42.0102 22.9844 41.6716 22.7646 41.2754 22.6094C40.892 22.4543 40.4575 22.3767 39.9719 22.3767H33.5886V36.9221H36.7707V30.4639H39.9719V36.9221H43.154V32.4227C43.154 31.8667 43.0646 31.4142 42.8856 31.0651ZM48.5066 22.575L48.5075 22.5746C48.9123 22.3896 49.3068 22.2959 49.6906 22.2959H52.6426C53.0388 22.2959 53.4397 22.3895 53.8448 22.5746C54.2492 22.7594 54.6083 23.0102 54.9215 23.3268C55.2474 23.6304 55.5146 23.9867 55.723 24.395C55.9332 24.794 56.0388 25.2141 56.0388 25.6543V37.0029H55.2705C54.963 37.0158 54.6366 37.0223 54.2912 37.0223H53.3519C53.0586 37.0223 52.8557 37.0159 52.7477 37.0022L52.6778 36.9934V30.5447H49.6938V37.0029H46.3519V25.6543C46.3519 25.2149 46.4507 24.7891 46.6474 24.3779L46.6479 24.3769L46.6484 24.376C46.8567 23.9677 47.1175 23.6113 47.4308 23.3074L47.4314 23.3069L47.432 23.3063C47.7574 23.0035 48.1156 22.7596 48.5066 22.575ZM55.2688 36.9221H55.9589V25.6543C55.9589 25.2276 55.8567 24.8203 55.6522 24.4325C55.4477 24.0316 55.1857 23.6826 54.8663 23.3852C54.5595 23.0749 54.2081 22.8292 53.8119 22.6482C53.4158 22.4672 53.026 22.3767 52.6426 22.3767H49.6906C49.32 22.3767 48.9366 22.4672 48.5404 22.6482C48.157 22.8292 47.8056 23.0684 47.4861 23.3658C47.1794 23.6632 46.9238 24.0123 46.7193 24.4131C46.5276 24.8139 46.4318 25.2276 46.4318 25.6543V36.9221H49.6139V30.4639H52.7576V36.9221C52.8599 36.935 53.058 36.9415 53.3519 36.9415H54.2912C54.6362 36.9415 54.9621 36.935 55.2688 36.9221ZM63.8533 30.5253V28.7152H68.8053V33.6251C68.8053 34.0749 68.7203 34.5054 68.5503 34.9159C68.3932 35.3262 68.1639 35.6843 67.8625 35.9894C67.5739 36.2945 67.2268 36.5393 66.8222 36.7242C66.4146 36.9105 65.9623 37.0029 65.4667 37.0029H62.3996C61.9297 37.0029 61.491 36.917 61.0844 36.7445L61.0829 36.7438L61.0815 36.7432C60.6898 36.5583 60.3434 36.3137 60.0428 36.0095C59.7413 35.7045 59.5056 35.3465 59.3356 34.9364C59.1652 34.5253 59.0801 34.0879 59.0801 33.6251V25.6737C59.0801 25.2488 59.1655 24.8372 59.3357 24.4396C59.5056 24.0299 59.741 23.6661 60.0416 23.3487C60.3426 23.031 60.6957 22.7795 61.1006 22.5944C61.5075 22.3954 61.9408 22.2959 62.3996 22.2959H65.4475C65.8815 22.2959 66.302 22.3957 66.7082 22.5944C67.1125 22.7793 67.4714 23.0302 67.7845 23.3468C68.0984 23.6513 68.3468 24.0086 68.5297 24.4181C68.7132 24.8162 68.8053 25.2285 68.8053 25.6543V25.7351H67.0737V25.6543C67.0737 25.1348 66.9609 24.7484 66.7467 24.4836L66.7462 24.4829L66.7456 24.4823C66.5318 24.2058 66.2426 24.0672 65.8692 24.0672H62.422V35.2122H65.4635V30.5253H63.8533ZM68.4571 24.4518C68.2782 24.051 68.0354 23.702 67.7287 23.4046C67.4219 23.0943 67.0705 22.8486 66.6743 22.6676C66.2782 22.4737 65.8692 22.3767 65.4475 22.3767H62.3996C61.9523 22.3767 61.5306 22.4737 61.1344 22.6676C60.7383 22.8486 60.3932 23.0943 60.0993 23.4046C59.8054 23.7149 59.5753 24.0704 59.4092 24.4712C59.2431 24.8591 59.16 25.2599 59.16 25.6737V33.6251C59.16 34.0776 59.2431 34.5043 59.4092 34.9051C59.5753 35.3059 59.8054 35.655 60.0993 35.9524C60.3932 36.2497 60.7319 36.4889 61.1153 36.6699C61.5114 36.838 61.9395 36.9221 62.3996 36.9221H65.4667C65.9523 36.9221 66.3932 36.8316 66.7894 36.6506C67.1855 36.4695 67.5242 36.2304 67.8053 35.933C68.0993 35.6356 68.3229 35.2865 68.4763 34.8857C68.6424 34.4849 68.7254 34.0647 68.7254 33.6251V28.7961H63.9331V30.4445H65.5434V35.293H62.3421V23.9864H65.8692C66.2654 23.9864 66.5785 24.1351 66.8085 24.4325C67.0386 24.7169 67.1536 25.1242 67.1536 25.6543H68.7254C68.7254 25.6273 68.7251 25.6003 68.7243 25.5735C68.7134 25.1883 68.6243 24.8144 68.4571 24.4518ZM78.4089 30.5447H75.2077V35.2122H80V37.0029H71.8659V22.2959H80V24.0672H75.2077V28.7346H78.4089V30.5447ZM78.3291 28.8155V30.4639H75.1278V35.293H79.9201V36.9221H71.9457V22.3767H79.9201V23.9864H75.1278V28.8155H78.3291ZM24.0648 35.2122H27.1063V24.0672H24.0648V35.2122ZM36.8505 24.0478V28.7346H39.892V24.0478H36.8505ZM49.6938 24.0478V28.7346H52.6778V24.0478H49.6938ZM27.1862 35.293V23.9864H23.9849V35.293H27.1862ZM36.7707 23.967H39.9719V28.8155H36.7707V23.967ZM49.6139 28.8155H52.7576V23.967H49.6139V28.8155Z" fill="white"/>
<path d="M29.8506 29.6591C29.8506 33.0663 27.9796 35.8283 25.6715 35.8283C23.3635 35.8283 21.4924 33.0663 21.4924 29.6591C21.4924 26.252 23.3635 23.49 25.6715 23.49C27.9796 23.49 29.8506 26.252 29.8506 29.6591Z" fill="black"/>
<path d="M24.6766 26.6739C24.6766 27.1136 24.4984 27.47 24.2786 27.47C24.0588 27.47 23.8806 27.1136 23.8806 26.6739C23.8806 26.2343 24.0588 25.8779 24.2786 25.8779C24.4984 25.8779 24.6766 26.2343 24.6766 26.6739Z" fill="white"/>
<path d="M27.0646 26.6739C27.0646 27.1136 26.8864 27.47 26.6666 27.47C26.4467 27.47 26.2686 27.1136 26.2686 26.6739C26.2686 26.2343 26.4467 25.8779 26.6666 25.8779C26.8864 25.8779 27.0646 26.2343 27.0646 26.6739Z" fill="white"/>
<path fill-rule="evenodd" clip-rule="evenodd" d="M22.3702 28.2661C22.3702 29.9806 23.7597 31.3696 25.4727 31.3696C27.1856 31.3696 28.5751 29.9806 28.5751 28.2661H28.6567C28.6567 30.0241 27.2317 31.4502 25.4727 31.4502C23.7136 31.4502 22.2886 30.0241 22.2886 28.2661H22.3702Z" fill="white"/>
<path d="M1.98452 9.93814L10.7776 18.3059H11.5422V3.97754H9.93649V12.2689L1.14345 3.97754H0.397949V18.3059H1.98452V9.93814Z" fill="#F5C32C"/>
<path d="M21.0998 11.9441V10.3393H17.9076V5.56321H22.6864V3.97754H14.7344V18.3059H17.9076V11.9441H21.0998Z" fill="#F5C32C"/>
<path d="M33.8308 3.97754H24.2731V5.56321H27.4654V18.3059H30.6385V5.56321H33.8308V3.97754Z" fill="#F5C32C"/>
<path fill-rule="evenodd" clip-rule="evenodd" d="M10.5336 18.623L1.67806 10.1173V18.623H0.0802131V4.05845H0.831007L9.68654 12.4865V4.05845H11.3036V18.623H10.5336ZM9.60633 12.2989L0.862874 3.97754H0V18.7039H1.75827V10.3061L10.5015 18.7039H11.3839V3.97754H9.60633V12.2989ZM21.0094 12.2373H17.7945V18.7039H14.4384V3.97754H22.6073V5.75118H17.7945V10.4442H21.0094V12.2373ZM20.9292 10.5251V12.1563H17.7143V18.623H14.5186V4.05845H22.5271V5.67026H17.7143V10.5251H20.9292ZM33.8308 3.97754V5.75118H30.6159V18.7039H27.2598V5.75118H24.0448V3.97754H33.8308ZM24.1251 5.67026V4.05845H33.7506V5.67026H30.5357V18.623H27.34V5.67026H24.1251Z" fill="white"/>
<path d="M1.98452 9.14224L10.7776 17.51H11.5422V3.18164H9.93649V11.473L1.14345 3.18164H0.397949V17.51H1.98452V9.14224Z" fill="#F5C32C"/>
<path d="M21.0998 11.1482V9.54343H17.9076V4.76731H22.6864V3.18164H14.7344V17.51H17.9076V11.1482H21.0998Z" fill="#F5C32C"/>
<path d="M33.8308 3.18164H24.2731V4.76731H27.4654V17.51H30.6385V4.76731H33.8308V3.18164Z" fill="#F5C32C"/>
<path fill-rule="evenodd" clip-rule="evenodd" d="M10.5336 17.8271L1.67806 9.3214V17.8271H0.0802131V3.26255H0.831007L9.68654 11.6906V3.26255H11.3036V17.8271H10.5336ZM9.60633 11.503L0.862874 3.18164H0V17.908H1.75827V9.51017L10.5015 17.908H11.3839V3.18164H9.60633V11.503ZM21.0094 11.4414H17.7945V17.908H14.4384V3.18164H22.6073V4.95528H17.7945V9.6483H21.0094V11.4414ZM20.9292 9.72921V11.3604H17.7143V17.8271H14.5186V3.26255H22.5271V4.87436H17.7143V9.72921H20.9292ZM33.8308 3.18164V4.95528H30.6159V17.908H27.2598V4.95528H24.0448V3.18164H33.8308ZM24.1251 4.87436V3.26255H33.7506V4.87436H30.5357V17.8271H27.34V4.87436H24.1251Z" fill="white"/>
<path d="M1.98452 8.34609L10.7776 16.7139H11.5422V2.3855H9.93649V10.6768L1.14345 2.3855H0.397949V16.7139H1.98452V8.34609Z" fill="#F5C32C"/>
<path d="M21.0998 10.3521V8.74729H17.9076V3.97117H22.6864V2.3855H14.7344V16.7139H17.9076V10.3521H21.0998Z" fill="#F5C32C"/>
<path d="M33.8308 2.3855H24.2731V3.97117H27.4654V16.7139H30.6385V3.97117H33.8308V2.3855Z" fill="#F5C32C"/>
<path fill-rule="evenodd" clip-rule="evenodd" d="M10.5336 17.031L1.67806 8.52526V17.031H0.0802131V2.46641H0.831007L9.68654 10.8944V2.46641H11.3036V17.031H10.5336ZM9.60633 10.7068L0.862874 2.3855H0V17.1119H1.75827V8.71403L10.5015 17.1119H11.3839V2.3855H9.60633V10.7068ZM21.0094 10.6452H17.7945V17.1119H14.4384V2.3855H22.6073V4.15914H17.7945V8.85215H21.0094V10.6452ZM20.9292 8.93307V10.5643H17.7143V17.031H14.5186V2.46641H22.5271V4.07822H17.7143V8.93307H20.9292ZM33.8308 2.3855V4.15914H30.6159V17.1119H27.2598V4.15914H24.0448V2.3855H33.8308ZM24.1251 4.07822V2.46641H33.7506V4.07822H30.5357V17.031H27.34V4.07822H24.1251Z" fill="white"/>
<path d="M1.98452 7.54995L10.7776 15.9177H11.5422V1.58936H9.93649V9.8807L1.14345 1.58936H0.397949V15.9177H1.98452V7.54995Z" fill="#F5C32C"/>
<path d="M21.0998 9.55592V7.95115H17.9076V3.17503H22.6864V1.58936H14.7344V15.9177H17.9076V9.55592H21.0998Z" fill="#F5C32C"/>
<path d="M33.8308 1.58936H24.2731V3.17503H27.4654V15.9177H30.6385V3.17503H33.8308V1.58936Z" fill="#F5C32C"/>
<path fill-rule="evenodd" clip-rule="evenodd" d="M10.5336 16.2348L1.67806 7.72912V16.2348H0.0802131V1.67027H0.831007L9.68654 10.0983V1.67027H11.3036V16.2348H10.5336ZM9.60633 9.9107L0.862874 1.58936H0V16.3157H1.75827V7.91789L10.5015 16.3157H11.3839V1.58936H9.60633V9.9107ZM21.0094 9.84907H17.7945V16.3157H14.4384V1.58936H22.6073V3.36299H17.7945V8.05601H21.0094V9.84907ZM20.9292 8.13693V9.76815H17.7143V16.2348H14.5186V1.67027H22.5271V3.28208H17.7143V8.13693H20.9292ZM33.8308 1.58936V3.36299H30.6159V16.3157H27.2598V3.36299H24.0448V1.58936H33.8308ZM24.1251 3.28208V1.67027H33.7506V3.28208H30.5357V16.2348H27.34V3.28208H24.1251Z" fill="white"/>
<path d="M1.98452 6.75405L10.7776 15.1218H11.5422V0.793457H9.93649V9.0848L1.14345 0.793457H0.397949V15.1218H1.98452V6.75405Z" fill="black"/>
<path d="M21.0998 8.76002V7.15525H17.9076V2.37913H22.6864V0.793457H14.7344V15.1218H17.9076V8.76002H21.0998Z" fill="black"/>
<path d="M33.8308 0.793457H24.2731V2.37913H27.4654V15.1218H30.6385V2.37913H33.8308V0.793457Z" fill="black"/>
<path fill-rule="evenodd" clip-rule="evenodd" d="M10.5336 15.4389L1.67806 6.93322V15.4389H0.0802131V0.874371H0.831007L9.68654 9.30239V0.874371H11.3036V15.4389H10.5336ZM9.60633 9.1148L0.862874 0.793457H0V15.5198H1.75827V7.12199L10.5015 15.5198H11.3839V0.793457H9.60633V9.1148ZM21.0094 9.05317H17.7945V15.5198H14.4384V0.793457H22.6073V2.56709H17.7945V7.26011H21.0094V9.05317ZM20.9292 7.34103V8.97226H17.7143V15.4389H14.5186V0.874371H22.5271V2.48618H17.7143V7.34103H20.9292ZM33.8308 0.793457V2.56709H30.6159V15.5198H27.2598V2.56709H24.0448V0.793457H33.8308ZM24.1251 2.48618V0.874371H33.7506V2.48618H30.5357V15.4389H27.34V2.48618H24.1251Z" fill="white"/>
</svg>
