<svg width="211" height="30" viewBox="0 0 211 30" fill="none" xmlns="http://www.w3.org/2000/svg">
<g filter="url(#filter0_d_1905_1512)">
<mask id="path-1-outside-1_1905_1512" maskUnits="userSpaceOnUse" x="-0.228027" y="0.25" width="211" height="27" fill="black">
<rect fill="white" x="-0.228027" y="0.25" width="211" height="27"/>
<path d="M3.51097 11.546V26H0.771973V1.25H2.05897L17.239 15.572V1.25H20.011V26H18.691L3.51097 11.546Z"/>
<path d="M36.511 15.011H31V26H25.522V1.25H39.25V3.989H31V12.239H36.511V15.011Z"/>
<path d="M58.4892 1.25V3.989H52.9782V26H47.5002V3.989H41.9892V1.25H58.4892Z"/>
<path d="M66.7392 26H61.2612V20.489H66.7392V26Z"/>
<path d="M72.2505 8.807C72.2505 8.807 72.2505 8.147 72.2505 6.827C72.2505 6.035 72.3935 5.309 72.6795 4.649C72.9875 3.967 73.3945 3.373 73.9005 2.867C74.4285 2.361 75.0335 1.965 75.7155 1.679C76.4195 1.393 77.1675 1.25 77.9595 1.25H80.3025C81.0725 1.25 81.7985 1.404 82.4805 1.712C83.1625 1.998 83.7565 2.394 84.2625 2.9C84.7905 3.384 85.1975 3.967 85.4835 4.649C85.7915 5.309 85.9455 6.013 85.9455 6.761H83.2395C83.2395 5.881 82.9425 5.199 82.3485 4.715C81.7765 4.209 80.9625 3.956 79.9065 3.956H77.7285V7.85C77.7285 8.18 77.9265 8.576 78.3225 9.038C78.7405 9.5 79.2465 10.017 79.8405 10.589C80.4565 11.139 81.1165 11.733 81.8205 12.371C82.5245 13.009 83.1735 13.669 83.7675 14.351C84.3835 15.011 84.8895 15.693 85.2855 16.397C85.7035 17.079 85.9125 17.75 85.9125 18.41V20.423C85.9125 21.171 85.7695 21.886 85.4835 22.568C85.2195 23.228 84.8345 23.822 84.3285 24.35C83.8445 24.856 83.2505 25.263 82.5465 25.571C81.8645 25.857 81.1055 26 80.2695 26H77.9595C77.1675 26 76.4195 25.857 75.7155 25.571C75.0335 25.263 74.4285 24.856 73.9005 24.35C73.3945 23.844 72.9875 23.261 72.6795 22.601C72.3935 21.919 72.2505 21.193 72.2505 20.423H75.0225C75.0225 21.259 75.2865 21.941 75.8145 22.469C76.3645 22.997 77.0795 23.261 77.9595 23.261H80.4675V19.235C80.4675 18.839 80.2585 18.388 79.8405 17.882C79.4445 17.354 78.9385 16.804 78.3225 16.232C77.7285 15.66 77.0685 15.066 76.3425 14.45C75.6385 13.812 74.9785 13.174 74.3625 12.536C73.7685 11.898 73.2625 11.271 72.8445 10.655C72.4485 10.017 72.2505 9.401 72.2505 8.807Z"/>
<path d="M105.153 1.25V3.989H99.6423V26H94.1643V3.989H88.6533V1.25H105.153Z"/>
<path d="M113.535 26C112.787 26 112.072 25.857 111.39 25.571C110.73 25.263 110.136 24.856 109.608 24.35C109.102 23.822 108.695 23.228 108.387 22.568C108.079 21.886 107.925 21.171 107.925 20.423V6.827C107.925 6.123 108.068 5.441 108.354 4.781C108.662 4.099 109.069 3.505 109.575 2.999C110.081 2.471 110.675 2.053 111.357 1.745C112.039 1.415 112.765 1.25 113.535 1.25H118.782C119.552 1.25 120.278 1.415 120.96 1.745C121.642 2.053 122.236 2.471 122.742 2.999C123.248 3.505 123.644 4.099 123.93 4.781C124.238 5.441 124.392 6.123 124.392 6.827V20.423C124.392 21.171 124.238 21.886 123.93 22.568C123.622 23.228 123.204 23.822 122.676 24.35C122.17 24.856 121.576 25.263 120.894 25.571C120.234 25.857 119.53 26 118.782 26H113.535Z"/>
<path d="M135.414 12.206H140.925V3.956H135.414V12.206ZM129.936 26V1.25H140.925C141.761 1.25 142.509 1.382 143.169 1.646C143.851 1.91 144.434 2.284 144.918 2.768C145.402 3.252 145.765 3.835 146.007 4.517C146.271 5.199 146.403 5.947 146.403 6.761V9.137C146.403 10.083 146.249 10.853 145.941 11.447C145.633 12.019 145.292 12.47 144.918 12.8C144.566 13.108 144.236 13.317 143.928 13.427C143.62 13.537 143.466 13.592 143.466 13.592C143.466 13.592 143.62 13.669 143.928 13.823C144.236 13.955 144.566 14.208 144.918 14.582C145.292 14.934 145.633 15.418 145.941 16.034C146.249 16.628 146.403 17.398 146.403 18.344V26H140.925V15.011H135.414V26H129.936Z"/>
<path d="M157.656 1.25C157.656 1.25 159.35 1.25 162.738 1.25C163.398 1.25 164.069 1.404 164.751 1.712C165.433 2.02 166.038 2.438 166.566 2.966C167.116 3.472 167.567 4.066 167.919 4.748C168.271 5.408 168.447 6.101 168.447 6.827V26C168.205 26 167.809 26 167.259 26C166.731 26.022 166.17 26.033 165.576 26.033C165.004 26.033 164.465 26.033 163.959 26.033C163.453 26.033 163.112 26.022 162.936 26V15.011H157.524V26H152.046V6.827C152.046 6.101 152.211 5.397 152.541 4.715C152.893 4.033 153.333 3.439 153.861 2.933C154.411 2.427 155.016 2.02 155.676 1.712C156.358 1.404 157.018 1.25 157.656 1.25ZM157.524 12.206H162.936V3.956H157.524V12.206Z"/>
<path d="M182.175 14.978V12.173H190.425V20.39C190.425 21.138 190.282 21.853 189.996 22.535C189.732 23.217 189.347 23.811 188.841 24.317C188.357 24.823 187.774 25.23 187.092 25.538C186.41 25.846 185.651 26 184.815 26H179.535C178.743 26 178.006 25.857 177.324 25.571C176.664 25.263 176.081 24.856 175.575 24.35C175.069 23.844 174.673 23.25 174.387 22.568C174.101 21.886 173.958 21.16 173.958 20.39V6.86C173.958 6.156 174.101 5.474 174.387 4.814C174.673 4.132 175.069 3.527 175.575 2.999C176.081 2.471 176.675 2.053 177.357 1.745C178.039 1.415 178.765 1.25 179.535 1.25H184.782C185.508 1.25 186.212 1.415 186.894 1.745C187.576 2.053 188.181 2.471 188.709 2.999C189.237 3.505 189.655 4.099 189.963 4.781C190.271 5.441 190.425 6.123 190.425 6.827H187.719C187.719 5.925 187.521 5.232 187.125 4.748C186.729 4.242 186.19 3.989 185.508 3.989H179.436V23.228H184.947V14.978H182.175Z"/>
<path d="M206.957 15.011H201.446V23.228H209.696V26H195.968V1.25H209.696V3.989H201.446V12.206H206.957V15.011Z"/>
</mask>
<path d="M3.51097 11.546V26H0.771973V1.25H2.05897L17.239 15.572V1.25H20.011V26H18.691L3.51097 11.546Z" fill="white"/>
<path d="M36.511 15.011H31V26H25.522V1.25H39.25V3.989H31V12.239H36.511V15.011Z" fill="white"/>
<path d="M58.4892 1.25V3.989H52.9782V26H47.5002V3.989H41.9892V1.25H58.4892Z" fill="white"/>
<path d="M66.7392 26H61.2612V20.489H66.7392V26Z" fill="white"/>
<path d="M72.2505 8.807C72.2505 8.807 72.2505 8.147 72.2505 6.827C72.2505 6.035 72.3935 5.309 72.6795 4.649C72.9875 3.967 73.3945 3.373 73.9005 2.867C74.4285 2.361 75.0335 1.965 75.7155 1.679C76.4195 1.393 77.1675 1.25 77.9595 1.25H80.3025C81.0725 1.25 81.7985 1.404 82.4805 1.712C83.1625 1.998 83.7565 2.394 84.2625 2.9C84.7905 3.384 85.1975 3.967 85.4835 4.649C85.7915 5.309 85.9455 6.013 85.9455 6.761H83.2395C83.2395 5.881 82.9425 5.199 82.3485 4.715C81.7765 4.209 80.9625 3.956 79.9065 3.956H77.7285V7.85C77.7285 8.18 77.9265 8.576 78.3225 9.038C78.7405 9.5 79.2465 10.017 79.8405 10.589C80.4565 11.139 81.1165 11.733 81.8205 12.371C82.5245 13.009 83.1735 13.669 83.7675 14.351C84.3835 15.011 84.8895 15.693 85.2855 16.397C85.7035 17.079 85.9125 17.75 85.9125 18.41V20.423C85.9125 21.171 85.7695 21.886 85.4835 22.568C85.2195 23.228 84.8345 23.822 84.3285 24.35C83.8445 24.856 83.2505 25.263 82.5465 25.571C81.8645 25.857 81.1055 26 80.2695 26H77.9595C77.1675 26 76.4195 25.857 75.7155 25.571C75.0335 25.263 74.4285 24.856 73.9005 24.35C73.3945 23.844 72.9875 23.261 72.6795 22.601C72.3935 21.919 72.2505 21.193 72.2505 20.423H75.0225C75.0225 21.259 75.2865 21.941 75.8145 22.469C76.3645 22.997 77.0795 23.261 77.9595 23.261H80.4675V19.235C80.4675 18.839 80.2585 18.388 79.8405 17.882C79.4445 17.354 78.9385 16.804 78.3225 16.232C77.7285 15.66 77.0685 15.066 76.3425 14.45C75.6385 13.812 74.9785 13.174 74.3625 12.536C73.7685 11.898 73.2625 11.271 72.8445 10.655C72.4485 10.017 72.2505 9.401 72.2505 8.807Z" fill="white"/>
<path d="M105.153 1.25V3.989H99.6423V26H94.1643V3.989H88.6533V1.25H105.153Z" fill="white"/>
<path d="M113.535 26C112.787 26 112.072 25.857 111.39 25.571C110.73 25.263 110.136 24.856 109.608 24.35C109.102 23.822 108.695 23.228 108.387 22.568C108.079 21.886 107.925 21.171 107.925 20.423V6.827C107.925 6.123 108.068 5.441 108.354 4.781C108.662 4.099 109.069 3.505 109.575 2.999C110.081 2.471 110.675 2.053 111.357 1.745C112.039 1.415 112.765 1.25 113.535 1.25H118.782C119.552 1.25 120.278 1.415 120.96 1.745C121.642 2.053 122.236 2.471 122.742 2.999C123.248 3.505 123.644 4.099 123.93 4.781C124.238 5.441 124.392 6.123 124.392 6.827V20.423C124.392 21.171 124.238 21.886 123.93 22.568C123.622 23.228 123.204 23.822 122.676 24.35C122.17 24.856 121.576 25.263 120.894 25.571C120.234 25.857 119.53 26 118.782 26H113.535Z" fill="white"/>
<path d="M135.414 12.206H140.925V3.956H135.414V12.206ZM129.936 26V1.25H140.925C141.761 1.25 142.509 1.382 143.169 1.646C143.851 1.91 144.434 2.284 144.918 2.768C145.402 3.252 145.765 3.835 146.007 4.517C146.271 5.199 146.403 5.947 146.403 6.761V9.137C146.403 10.083 146.249 10.853 145.941 11.447C145.633 12.019 145.292 12.47 144.918 12.8C144.566 13.108 144.236 13.317 143.928 13.427C143.62 13.537 143.466 13.592 143.466 13.592C143.466 13.592 143.62 13.669 143.928 13.823C144.236 13.955 144.566 14.208 144.918 14.582C145.292 14.934 145.633 15.418 145.941 16.034C146.249 16.628 146.403 17.398 146.403 18.344V26H140.925V15.011H135.414V26H129.936Z" fill="white"/>
<path d="M157.656 1.25C157.656 1.25 159.35 1.25 162.738 1.25C163.398 1.25 164.069 1.404 164.751 1.712C165.433 2.02 166.038 2.438 166.566 2.966C167.116 3.472 167.567 4.066 167.919 4.748C168.271 5.408 168.447 6.101 168.447 6.827V26C168.205 26 167.809 26 167.259 26C166.731 26.022 166.17 26.033 165.576 26.033C165.004 26.033 164.465 26.033 163.959 26.033C163.453 26.033 163.112 26.022 162.936 26V15.011H157.524V26H152.046V6.827C152.046 6.101 152.211 5.397 152.541 4.715C152.893 4.033 153.333 3.439 153.861 2.933C154.411 2.427 155.016 2.02 155.676 1.712C156.358 1.404 157.018 1.25 157.656 1.25ZM157.524 12.206H162.936V3.956H157.524V12.206Z" fill="white"/>
<path d="M182.175 14.978V12.173H190.425V20.39C190.425 21.138 190.282 21.853 189.996 22.535C189.732 23.217 189.347 23.811 188.841 24.317C188.357 24.823 187.774 25.23 187.092 25.538C186.41 25.846 185.651 26 184.815 26H179.535C178.743 26 178.006 25.857 177.324 25.571C176.664 25.263 176.081 24.856 175.575 24.35C175.069 23.844 174.673 23.25 174.387 22.568C174.101 21.886 173.958 21.16 173.958 20.39V6.86C173.958 6.156 174.101 5.474 174.387 4.814C174.673 4.132 175.069 3.527 175.575 2.999C176.081 2.471 176.675 2.053 177.357 1.745C178.039 1.415 178.765 1.25 179.535 1.25H184.782C185.508 1.25 186.212 1.415 186.894 1.745C187.576 2.053 188.181 2.471 188.709 2.999C189.237 3.505 189.655 4.099 189.963 4.781C190.271 5.441 190.425 6.123 190.425 6.827H187.719C187.719 5.925 187.521 5.232 187.125 4.748C186.729 4.242 186.19 3.989 185.508 3.989H179.436V23.228H184.947V14.978H182.175Z" fill="white"/>
<path d="M206.957 15.011H201.446V23.228H209.696V26H195.968V1.25H209.696V3.989H201.446V12.206H206.957V15.011Z" fill="white"/>
<path d="M3.51097 11.546V26H0.771973V1.25H2.05897L17.239 15.572V1.25H20.011V26H18.691L3.51097 11.546Z" stroke="black" stroke-width="1.5" mask="url(#path-1-outside-1_1905_1512)"/>
<path d="M36.511 15.011H31V26H25.522V1.25H39.25V3.989H31V12.239H36.511V15.011Z" stroke="black" stroke-width="1.5" mask="url(#path-1-outside-1_1905_1512)"/>
<path d="M58.4892 1.25V3.989H52.9782V26H47.5002V3.989H41.9892V1.25H58.4892Z" stroke="black" stroke-width="1.5" mask="url(#path-1-outside-1_1905_1512)"/>
<path d="M66.7392 26H61.2612V20.489H66.7392V26Z" stroke="black" stroke-width="1.5" mask="url(#path-1-outside-1_1905_1512)"/>
<path d="M72.2505 8.807C72.2505 8.807 72.2505 8.147 72.2505 6.827C72.2505 6.035 72.3935 5.309 72.6795 4.649C72.9875 3.967 73.3945 3.373 73.9005 2.867C74.4285 2.361 75.0335 1.965 75.7155 1.679C76.4195 1.393 77.1675 1.25 77.9595 1.25H80.3025C81.0725 1.25 81.7985 1.404 82.4805 1.712C83.1625 1.998 83.7565 2.394 84.2625 2.9C84.7905 3.384 85.1975 3.967 85.4835 4.649C85.7915 5.309 85.9455 6.013 85.9455 6.761H83.2395C83.2395 5.881 82.9425 5.199 82.3485 4.715C81.7765 4.209 80.9625 3.956 79.9065 3.956H77.7285V7.85C77.7285 8.18 77.9265 8.576 78.3225 9.038C78.7405 9.5 79.2465 10.017 79.8405 10.589C80.4565 11.139 81.1165 11.733 81.8205 12.371C82.5245 13.009 83.1735 13.669 83.7675 14.351C84.3835 15.011 84.8895 15.693 85.2855 16.397C85.7035 17.079 85.9125 17.75 85.9125 18.41V20.423C85.9125 21.171 85.7695 21.886 85.4835 22.568C85.2195 23.228 84.8345 23.822 84.3285 24.35C83.8445 24.856 83.2505 25.263 82.5465 25.571C81.8645 25.857 81.1055 26 80.2695 26H77.9595C77.1675 26 76.4195 25.857 75.7155 25.571C75.0335 25.263 74.4285 24.856 73.9005 24.35C73.3945 23.844 72.9875 23.261 72.6795 22.601C72.3935 21.919 72.2505 21.193 72.2505 20.423H75.0225C75.0225 21.259 75.2865 21.941 75.8145 22.469C76.3645 22.997 77.0795 23.261 77.9595 23.261H80.4675V19.235C80.4675 18.839 80.2585 18.388 79.8405 17.882C79.4445 17.354 78.9385 16.804 78.3225 16.232C77.7285 15.66 77.0685 15.066 76.3425 14.45C75.6385 13.812 74.9785 13.174 74.3625 12.536C73.7685 11.898 73.2625 11.271 72.8445 10.655C72.4485 10.017 72.2505 9.401 72.2505 8.807Z" stroke="black" stroke-width="1.5" mask="url(#path-1-outside-1_1905_1512)"/>
<path d="M105.153 1.25V3.989H99.6423V26H94.1643V3.989H88.6533V1.25H105.153Z" stroke="black" stroke-width="1.5" mask="url(#path-1-outside-1_1905_1512)"/>
<path d="M113.535 26C112.787 26 112.072 25.857 111.39 25.571C110.73 25.263 110.136 24.856 109.608 24.35C109.102 23.822 108.695 23.228 108.387 22.568C108.079 21.886 107.925 21.171 107.925 20.423V6.827C107.925 6.123 108.068 5.441 108.354 4.781C108.662 4.099 109.069 3.505 109.575 2.999C110.081 2.471 110.675 2.053 111.357 1.745C112.039 1.415 112.765 1.25 113.535 1.25H118.782C119.552 1.25 120.278 1.415 120.96 1.745C121.642 2.053 122.236 2.471 122.742 2.999C123.248 3.505 123.644 4.099 123.93 4.781C124.238 5.441 124.392 6.123 124.392 6.827V20.423C124.392 21.171 124.238 21.886 123.93 22.568C123.622 23.228 123.204 23.822 122.676 24.35C122.17 24.856 121.576 25.263 120.894 25.571C120.234 25.857 119.53 26 118.782 26H113.535Z" stroke="black" stroke-width="1.5" mask="url(#path-1-outside-1_1905_1512)"/>
<path d="M135.414 12.206H140.925V3.956H135.414V12.206ZM129.936 26V1.25H140.925C141.761 1.25 142.509 1.382 143.169 1.646C143.851 1.91 144.434 2.284 144.918 2.768C145.402 3.252 145.765 3.835 146.007 4.517C146.271 5.199 146.403 5.947 146.403 6.761V9.137C146.403 10.083 146.249 10.853 145.941 11.447C145.633 12.019 145.292 12.47 144.918 12.8C144.566 13.108 144.236 13.317 143.928 13.427C143.62 13.537 143.466 13.592 143.466 13.592C143.466 13.592 143.62 13.669 143.928 13.823C144.236 13.955 144.566 14.208 144.918 14.582C145.292 14.934 145.633 15.418 145.941 16.034C146.249 16.628 146.403 17.398 146.403 18.344V26H140.925V15.011H135.414V26H129.936Z" stroke="black" stroke-width="1.5" mask="url(#path-1-outside-1_1905_1512)"/>
<path d="M157.656 1.25C157.656 1.25 159.35 1.25 162.738 1.25C163.398 1.25 164.069 1.404 164.751 1.712C165.433 2.02 166.038 2.438 166.566 2.966C167.116 3.472 167.567 4.066 167.919 4.748C168.271 5.408 168.447 6.101 168.447 6.827V26C168.205 26 167.809 26 167.259 26C166.731 26.022 166.17 26.033 165.576 26.033C165.004 26.033 164.465 26.033 163.959 26.033C163.453 26.033 163.112 26.022 162.936 26V15.011H157.524V26H152.046V6.827C152.046 6.101 152.211 5.397 152.541 4.715C152.893 4.033 153.333 3.439 153.861 2.933C154.411 2.427 155.016 2.02 155.676 1.712C156.358 1.404 157.018 1.25 157.656 1.25ZM157.524 12.206H162.936V3.956H157.524V12.206Z" stroke="black" stroke-width="1.5" mask="url(#path-1-outside-1_1905_1512)"/>
<path d="M182.175 14.978V12.173H190.425V20.39C190.425 21.138 190.282 21.853 189.996 22.535C189.732 23.217 189.347 23.811 188.841 24.317C188.357 24.823 187.774 25.23 187.092 25.538C186.41 25.846 185.651 26 184.815 26H179.535C178.743 26 178.006 25.857 177.324 25.571C176.664 25.263 176.081 24.856 175.575 24.35C175.069 23.844 174.673 23.25 174.387 22.568C174.101 21.886 173.958 21.16 173.958 20.39V6.86C173.958 6.156 174.101 5.474 174.387 4.814C174.673 4.132 175.069 3.527 175.575 2.999C176.081 2.471 176.675 2.053 177.357 1.745C178.039 1.415 178.765 1.25 179.535 1.25H184.782C185.508 1.25 186.212 1.415 186.894 1.745C187.576 2.053 188.181 2.471 188.709 2.999C189.237 3.505 189.655 4.099 189.963 4.781C190.271 5.441 190.425 6.123 190.425 6.827H187.719C187.719 5.925 187.521 5.232 187.125 4.748C186.729 4.242 186.19 3.989 185.508 3.989H179.436V23.228H184.947V14.978H182.175Z" stroke="black" stroke-width="1.5" mask="url(#path-1-outside-1_1905_1512)"/>
<path d="M206.957 15.011H201.446V23.228H209.696V26H195.968V1.25H209.696V3.989H201.446V12.206H206.957V15.011Z" stroke="black" stroke-width="1.5" mask="url(#path-1-outside-1_1905_1512)"/>
</g>
<path d="M114.987 7.34375C114.987 8.17218 114.707 8.84375 114.362 8.84375C114.017 8.84375 113.737 8.17218 113.737 7.34375C113.737 6.51532 114.017 5.84375 114.362 5.84375C114.707 5.84375 114.987 6.51532 114.987 7.34375Z" fill="black"/>
<path d="M118.513 7.34375C118.513 8.17218 118.233 8.84375 117.888 8.84375C117.543 8.84375 117.263 8.17218 117.263 7.34375C117.263 6.51532 117.543 5.84375 117.888 5.84375C118.233 5.84375 118.513 6.51532 118.513 7.34375Z" fill="black"/>
<path fill-rule="evenodd" clip-rule="evenodd" d="M110.522 9.90625C110.522 13.137 113.032 15.7544 116.125 15.7544C119.218 15.7544 121.728 13.137 121.728 9.90625H121.875C121.875 13.219 119.302 15.9062 116.125 15.9062C112.948 15.9062 110.375 13.219 110.375 9.90625H110.522Z" fill="black" stroke="black" stroke-width="0.5" stroke-linejoin="round"/>
<defs>
<filter id="filter0_d_1905_1512" x="0.0219727" y="0.5" width="210.424" height="29.283" filterUnits="userSpaceOnUse" color-interpolation-filters="sRGB">
<feFlood flood-opacity="0" result="BackgroundImageFix"/>
<feColorMatrix in="SourceAlpha" type="matrix" values="0 0 0 0 0 0 0 0 0 0 0 0 0 0 0 0 0 0 127 0" result="hardAlpha"/>
<feOffset dy="3"/>
<feComposite in2="hardAlpha" operator="out"/>
<feColorMatrix type="matrix" values="0 0 0 0 0 0 0 0 0 0 0 0 0 0 0 0 0 0 0.25 0"/>
<feBlend mode="normal" in2="BackgroundImageFix" result="effect1_dropShadow_1905_1512"/>
<feBlend mode="normal" in="SourceGraphic" in2="effect1_dropShadow_1905_1512" result="shape"/>
</filter>
</defs>
</svg>
