<svg width="561" height="210" viewBox="0 0 561 210" fill="none" xmlns="http://www.w3.org/2000/svg">
<g clip-path="url(#clip0_97_222)">
<rect width="561" height="210" fill="white"/>
<path d="M195.287 27.5216L279.727 -73.6999L284.903 -65.9469L412.351 -49.3262L428.186 -37.1266L205.098 44.4926L195.287 27.5216Z" fill="white"/>
<rect x="279.186" y="-82.9006" width="5.5784" height="140.168" transform="rotate(37.612 279.186 -82.9006)" fill="#66FECB"/>
<path d="M429.897 -37.0629L279.052 -52.2586L205.033 43.8151L356.485 58.2233L429.897 -37.0629Z" fill="#66FECB"/>
<path d="M205.033 43.8151L356.485 58.2233L429.897 -37.0629L279.052 -52.2586L205.033 43.8151ZM205.033 43.8151L194.247 27.3479L267.962 -68.332L413.694 -49.5463" stroke="black" stroke-linecap="round" stroke-linejoin="round"/>
<path d="M273.291 -66.1088L268.134 -59.4152L197.756 31.9336" stroke="black" stroke-linecap="round" stroke-linejoin="round"/>
<g clip-path="url(#clip1_97_222)">
<path d="M340.893 32.1704L364.983 1.14385L344.801 -24.9066L300.536 -19.9315L276.445 11.0951L296.624 37.1498L340.893 32.1704Z" fill="#E1B935" stroke="#231F20" stroke-miterlimit="10"/>
<path d="M318.031 2.32847C318.657 2.81094 320.435 1.55358 322.001 -0.479919C323.568 -2.51342 324.33 -4.55301 323.704 -5.03547C323.078 -5.51794 321.3 -4.26058 319.734 -2.22709C318.167 -0.193588 317.405 1.846 318.031 2.32847Z" fill="#231F20" stroke="#231F20" stroke-miterlimit="10"/>
<path d="M328.562 4.57462C329.188 5.05709 330.966 3.79973 332.533 1.76623C334.099 -0.267262 334.862 -2.30685 334.235 -2.78932C333.609 -3.27179 331.831 -2.01443 330.265 0.0190695C328.698 2.05257 327.936 4.09216 328.562 4.57462Z" fill="#231F20" stroke="#231F20" stroke-miterlimit="10"/>
<path d="M302.848 4.8395L303.723 5.05368C301.776 8.62779 302.101 12.0053 304.995 15.1287C307.019 17.3142 309.925 18.7866 313.606 19.5294C317.699 20.3724 321.942 20.1197 325.906 18.797C329.929 17.4694 332.767 15.369 334.538 12.6124L335.416 12.8224C332.911 16.5932 328.846 19.169 322.969 20.1947C315.912 21.426 309.894 20.2028 305.393 16.5685C301.191 13.1777 300.543 9.19816 302.848 4.8395Z" fill="black"/>
</g>
<path d="M395.223 149.813L441.43 26.3593L448.879 31.9637L574.651 5.49326L593.63 11.7686L410.096 162.584L395.223 149.813Z" fill="white"/>
<rect x="437.877" y="17.8553" width="5.5784" height="140.168" transform="rotate(18.2966 437.877 17.8553)" fill="#FFE1C5"/>
<path d="M473.921 12.4975L485.005 21.9209L485.705 24.2464L432.259 34.8444L437.408 19.271L473.921 12.4975Z" fill="#FFE1C5"/>
<path d="M432.415 34.3725L437.564 18.7991L474.077 12.0256L485.575 23.1566" stroke="black" stroke-linecap="round" stroke-linejoin="round"/>
<path d="M595.266 11.2626L447.885 46.8169L409.811 161.966L557.504 125.468L595.266 11.2626Z" fill="#FFE1C5"/>
<path d="M409.811 161.966L557.504 125.468L595.266 11.2626L447.885 46.8169L409.811 161.966ZM409.811 161.966L394.185 149.993L432.103 35.3163L575.846 4.8413" stroke="black" stroke-linecap="round" stroke-linejoin="round"/>
<path d="M437.867 35.6518L435.215 43.6745L399.013 153.16" stroke="black" stroke-linecap="round" stroke-linejoin="round"/>
<g clip-path="url(#clip2_97_222)">
<path d="M534.171 106.039L546.643 68.7902L518.98 50.8817L478.852 70.2183L466.38 107.467L494.041 125.38L534.171 106.039Z" fill="#E1B935" stroke="#231F20" stroke-miterlimit="10"/>
<path d="M502.725 85.4385C503.476 85.6867 504.738 83.9121 505.544 81.4749C506.349 79.0376 506.394 76.8607 505.644 76.6125C504.893 76.3643 503.631 78.1389 502.826 80.5762C502.02 83.0134 501.975 85.1904 502.725 85.4385Z" fill="#231F20" stroke="#231F20" stroke-miterlimit="10"/>
<path d="M513.407 84.0749C514.157 84.3231 515.419 82.5485 516.225 80.1112C517.031 77.674 517.076 75.497 516.325 75.2489C515.575 75.0007 514.313 76.7753 513.507 79.2125C512.701 81.6498 512.656 83.8267 513.407 84.0749Z" fill="#231F20" stroke="#231F20" stroke-miterlimit="10"/>
<path d="M489.227 92.8304L490.124 92.743C489.469 96.7599 490.893 99.8398 494.657 101.83C497.29 103.223 500.519 103.651 504.24 103.135C508.381 102.577 512.301 100.935 515.604 98.3754C518.962 95.7918 520.946 92.8707 521.705 89.6837L522.603 89.5913C521.486 93.9785 518.502 97.7538 513.295 100.666C507.043 104.162 500.959 104.998 495.509 103.057C490.422 101.247 488.494 97.706 489.227 92.8304Z" fill="black"/>
</g>
<path d="M453.079 146.429L455.379 14.631L464.273 17.4241L573.971 -49.5497L593.956 -49.9764L471.363 153.496L453.079 146.429Z" fill="white"/>
<rect x="449.188" y="7.80298" width="5.5784" height="140.168" transform="rotate(-1.22326 449.188 7.80298)" fill="#F7CDCF"/>
<path d="M481.372 -9.2907L494.966 -4.11219L496.403 -2.15421L449.57 25.6927L449.22 9.29373L481.372 -9.2907Z" fill="#F7CDCF"/>
<path d="M449.56 25.1957L449.21 8.79679L481.361 -9.78765L495.917 -3.13817" stroke="black" stroke-linecap="round" stroke-linejoin="round"/>
<path d="M595.329 -51L468.299 31.7559L470.888 153.009L597.897 69.2588L595.329 -51Z" fill="#F7CDCF"/>
<path d="M470.888 153.009L597.897 69.2588L595.329 -51L468.299 31.7559L470.888 153.009ZM470.888 153.009L452.16 146.945L449.581 26.1896L574.88 -50.5634" stroke="black" stroke-linecap="round" stroke-linejoin="round"/>
<path d="M455.126 24.5797L455.307 33.0276L457.768 148.317" stroke="black" stroke-linecap="round" stroke-linejoin="round"/>
<g clip-path="url(#clip3_97_222)">
<path d="M569.414 58.7429L568.723 19.4678L536.666 11.8316L505.305 43.465L505.996 82.7401L538.053 90.3817L569.414 58.7429Z" fill="#E1B935" stroke="#231F20" stroke-miterlimit="10"/>
<path d="M532.892 49.8337C533.682 49.8168 534.279 47.7226 534.224 45.1562C534.169 42.5898 533.484 40.5229 532.694 40.5398C531.903 40.5567 531.307 42.6509 531.362 45.2173C531.417 47.7838 532.102 49.8506 532.892 49.8337Z" fill="#231F20" stroke="#231F20" stroke-miterlimit="10"/>
<path d="M542.504 44.9794C543.294 44.9625 543.891 42.8683 543.836 40.3019C543.781 37.7355 543.096 35.6686 542.305 35.6855C541.515 35.7024 540.919 37.7966 540.974 40.363C541.028 42.9294 541.714 44.9963 542.504 44.9794Z" fill="#231F20" stroke="#231F20" stroke-miterlimit="10"/>
<path d="M522.64 61.3107L523.456 60.9288C524.18 64.9337 526.552 67.3608 530.765 67.9788C533.711 68.4125 536.898 67.7368 540.232 66.0068C543.949 64.097 547.095 61.2396 549.353 57.7237C551.655 54.1666 552.549 50.7506 552.199 47.4931L553.015 47.1059C553.428 51.6141 551.877 56.1694 547.942 60.6542C543.218 66.0381 537.762 68.8595 531.977 68.851C526.578 68.8448 523.578 66.1511 522.64 61.3107Z" fill="black"/>
</g>
<path d="M13.1722 171.144L-43.5344 52.1466L-34.328 50.681L34.0002 -58.1789L51.6982 -67.4716L32.6898 169.316L13.1722 171.144Z" fill="white"/>
<rect x="-52.12" y="48.7951" width="5.5784" height="140.168" transform="rotate(-27.7028 -52.12 48.7951)" fill="#E11E2E"/>
<path d="M52.4707 -69L-24.3343 61.7143L32.0471 169.092L108.39 37.4979L52.4707 -69Z" fill="#E11E2E"/>
<path d="M32.0471 169.092L108.39 37.4979L52.4707 -69L-24.3343 61.7143L32.0471 169.092ZM32.0471 169.092L12.58 172.016L-43.5703 65.0778L34.3612 -59.4912" stroke="black" stroke-linecap="round" stroke-linejoin="round"/>
<path d="M-39.3247 61.1643L-35.3965 68.6456L18.2121 170.743" stroke="black" stroke-linecap="round" stroke-linejoin="round"/>
<g clip-path="url(#clip4_97_222)">
<path d="M78.2059 40.7853L60.0757 5.93841L27.9771 13.3966L14.011 55.6946L32.1411 90.5415L64.2421 83.088L78.2059 40.7853Z" fill="#E1B935" stroke="#231F20" stroke-miterlimit="10"/>
<path d="M41.5432 49.095C42.2431 48.7275 41.843 46.5871 40.6497 44.3143C39.4563 42.0416 37.9215 40.497 37.2216 40.8645C36.5217 41.232 36.9217 43.3724 38.1151 45.6452C39.3084 47.9179 40.8432 49.4625 41.5432 49.095Z" fill="#231F20" stroke="#231F20" stroke-miterlimit="10"/>
<path d="M47.9822 40.4642C48.6821 40.0967 48.2821 37.9563 47.0887 35.6835C45.8954 33.4108 44.3605 31.8662 43.6606 32.2337C42.9607 32.6012 43.3608 34.7416 44.5541 37.0144C45.7475 39.2871 47.2823 40.8317 47.9822 40.4642Z" fill="#231F20" stroke="#231F20" stroke-miterlimit="10"/>
<path d="M37.4838 63.9393L38.0439 63.2335C40.4783 66.4952 43.6828 67.6104 47.7296 66.285C50.5604 65.3593 53.1119 63.3336 55.3245 60.2986C57.7996 56.932 59.342 52.9715 59.7956 48.8175C60.2695 44.6075 59.5465 41.1512 57.7812 38.3914L58.3388 37.681C60.7188 41.5319 61.3616 46.301 59.8389 52.0699C58.0108 58.9955 54.3858 63.9532 49.2038 66.525C44.3681 68.9269 40.4816 67.8536 37.4838 63.9393Z" fill="black"/>
</g>
<path d="M0.56652 107.495L53.029 -13.4335L60.1822 -7.45526L187.144 -27.4557L205.776 -20.2175L14.7662 121.009L0.56652 107.495Z" fill="white"/>
<rect x="49.9156" y="-22.1082" width="5.5784" height="140.168" transform="rotate(21.2296 49.9156 -22.1082)" fill="#0A854C"/>
<path d="M86.1874 -25.6146L96.7739 -15.6365L97.3539 -13.2782L43.4361 -5.42874L49.3756 -20.7183L86.1874 -25.6146Z" fill="#0A854C"/>
<path d="M43.6161 -5.89205L49.5556 -21.1816L86.3674 -26.0779L97.2805 -14.3732" stroke="black" stroke-linecap="round" stroke-linejoin="round"/>
<path d="M207.436 -20.6391L58.4291 7.32764L14.5128 120.378L163.88 91.4841L207.436 -20.6391Z" fill="#0A854C"/>
<path d="M14.5128 120.378L163.88 91.4841L207.436 -20.6391L58.4291 7.32764L14.5128 120.378ZM14.5128 120.378L-0.480172 107.621L43.2561 -4.96542L188.37 -28.0457" stroke="black" stroke-linecap="round" stroke-linejoin="round"/>
<path d="M48.9958 -4.33545L45.936 3.54098L4.17958 111.031" stroke="black" stroke-linecap="round" stroke-linejoin="round"/>
<g clip-path="url(#clip5_97_222)">
<path d="M141.572 70.8869L155.934 34.3253L129.223 15.0248L88.1584 32.2828L73.7967 68.8445L100.505 88.1499L141.572 70.8869Z" fill="#E1B935" stroke="#231F20" stroke-miterlimit="10"/>
<path d="M111.221 48.7047C111.958 48.991 113.309 47.2832 114.239 44.8904C115.168 42.4976 115.324 40.3258 114.588 40.0395C113.851 39.7533 112.5 41.461 111.57 43.8538C110.641 46.2466 110.485 48.4184 111.221 48.7047Z" fill="#231F20" stroke="#231F20" stroke-miterlimit="10"/>
<path d="M121.959 47.8893C122.695 48.1756 124.046 46.4679 124.976 44.0751C125.905 41.6822 126.062 39.5104 125.325 39.2242C124.588 38.9379 123.237 40.6456 122.307 43.0384C121.378 45.4313 121.222 47.6031 121.959 47.8893Z" fill="#231F20" stroke="#231F20" stroke-miterlimit="10"/>
<path d="M97.363 55.3961L98.263 55.3547C97.4032 59.3329 98.6676 62.4815 102.325 64.6618C104.883 66.188 108.087 66.7808 111.828 66.4551C115.993 66.1095 119.992 64.6705 123.421 62.2835C126.907 59.8751 129.038 57.0593 129.959 53.9153L130.861 53.869C129.521 58.1933 126.348 61.811 120.998 64.4528C114.575 67.6243 108.456 68.1483 103.113 65.931C98.1252 63.8631 96.3813 60.2278 97.363 55.3961Z" fill="black"/>
</g>
<path d="M-47.4336 215.495L5.02888 94.5665L12.182 100.545L139.143 80.5443L157.776 87.7825L-33.2339 229.009L-47.4336 215.495Z" fill="white"/>
<rect x="1.91544" y="85.8918" width="5.5784" height="140.168" transform="rotate(21.2296 1.91544 85.8918)" fill="#EE4116"/>
<path d="M38.1873 82.3854L48.7738 92.3635L49.3538 94.7218L-4.564 102.571L1.3755 87.2817L38.1873 82.3854Z" fill="#EE4116"/>
<path d="M-4.38404 102.108L1.55546 86.8184L38.3673 81.9221L49.2804 93.6268" stroke="black" stroke-linecap="round" stroke-linejoin="round"/>
<path d="M159.436 87.3609L10.429 115.328L-33.4873 228.378L115.88 199.484L159.436 87.3609Z" fill="#EE4116"/>
<path d="M-33.4873 228.378L115.88 199.484L159.436 87.3609L10.429 115.328L-33.4873 228.378ZM-33.4873 228.378L-48.4803 215.621L-4.744 103.035L140.37 79.9543" stroke="black" stroke-linecap="round" stroke-linejoin="round"/>
<path d="M0.995667 103.665L-2.06407 111.541L-43.8205 219.031" stroke="black" stroke-linecap="round" stroke-linejoin="round"/>
<path d="M139.937 79.7859L159.003 87.1925" stroke="black" stroke-linecap="round"/>
<g clip-path="url(#clip6_97_222)">
<path d="M93.5717 178.887L107.933 142.325L81.2233 123.025L40.1583 140.283L25.7966 176.844L52.5048 196.15L93.5717 178.887Z" fill="#E1B935" stroke="#231F20" stroke-miterlimit="10"/>
<path d="M63.2213 156.705C63.9582 156.991 65.3091 155.283 66.2386 152.89C67.1681 150.498 67.3243 148.326 66.5874 148.039C65.8506 147.753 64.4997 149.461 63.5701 151.854C62.6406 154.247 62.4844 156.418 63.2213 156.705Z" fill="#231F20" stroke="#231F20" stroke-miterlimit="10"/>
<path d="M73.9585 155.889C74.6953 156.176 76.0462 154.468 76.9758 152.075C77.9053 149.682 78.0615 147.51 77.3246 147.224C76.5877 146.938 75.2368 148.646 74.3073 151.038C73.3778 153.431 73.2216 155.603 73.9585 155.889Z" fill="#231F20" stroke="#231F20" stroke-miterlimit="10"/>
<path d="M49.3628 163.396L50.2629 163.355C49.4031 167.333 50.6675 170.482 54.3253 172.662C56.8829 174.188 60.0864 174.781 63.8281 174.455C67.9924 174.109 71.9916 172.67 75.4214 170.284C78.9068 167.875 81.0376 165.059 81.9587 161.915L82.8606 161.869C81.5207 166.193 78.3475 169.811 72.9978 172.453C66.5754 175.624 60.4561 176.148 55.1128 173.931C50.1251 171.863 48.3812 168.228 49.3628 163.396Z" fill="black"/>
</g>
<path d="M290.929 197.081L387.684 107.558L391.821 115.913L516.074 148.784L530.208 162.918L298.477 215.173L290.929 197.081Z" fill="white"/>
<rect x="388.331" y="98.3644" width="5.5784" height="140.168" transform="rotate(45 388.331 98.3644)" fill="#66FECB"/>
<path d="M422.94 109.776L428.606 123.174L428.186 125.566L375.679 111.017L387.277 99.4188L422.94 109.776Z" fill="#66FECB"/>
<path d="M376.03 110.666L387.629 99.0673L423.291 109.424L428.561 124.535" stroke="black" stroke-linecap="round" stroke-linejoin="round"/>
<path d="M531.897 163.201L384.258 128.735L298.5 214.493L446.842 248.256L531.897 163.201Z" fill="#66FECB"/>
<path d="M298.5 214.493L446.842 248.256L531.897 163.201L384.258 128.735L298.5 214.493ZM298.5 214.493L289.921 196.775L375.327 111.369L517.434 148.738" stroke="black" stroke-linecap="round" stroke-linejoin="round"/>
<path d="M380.326 114.259L374.351 120.234L292.811 201.774" stroke="black" stroke-linecap="round" stroke-linejoin="round"/>
<path d="M517.105 148.409L531.568 162.872" stroke="black" stroke-linecap="round"/>
<g clip-path="url(#clip7_97_222)">
<path d="M434.729 220.415L462.609 192.744L445.944 164.314L401.407 163.556L373.526 191.227L390.187 219.66L434.729 220.415Z" fill="#E1B935" stroke="#231F20" stroke-miterlimit="10"/>
<path d="M415.894 187.881C416.453 188.44 418.377 187.421 420.193 185.606C422.008 183.791 423.026 181.867 422.467 181.308C421.908 180.749 419.984 181.767 418.168 183.582C416.353 185.397 415.335 187.322 415.894 187.881Z" fill="#231F20" stroke="#231F20" stroke-miterlimit="10"/>
<path d="M426.049 191.463C426.608 192.021 428.532 191.003 430.348 189.188C432.163 187.373 433.181 185.448 432.622 184.889C432.063 184.33 430.139 185.349 428.323 187.164C426.508 188.979 425.49 190.904 426.049 191.463Z" fill="#231F20" stroke="#231F20" stroke-miterlimit="10"/>
<path d="M400.514 188.419L401.354 188.744C398.964 192.038 398.852 195.429 401.321 198.899C403.046 201.326 405.739 203.16 409.294 204.37C413.245 205.732 417.485 206.027 421.586 205.225C425.746 204.426 428.831 202.708 430.941 200.202L431.786 200.523C428.816 203.941 424.454 205.972 418.493 206.234C411.337 206.547 405.526 204.56 401.53 200.377C397.799 196.475 397.668 192.445 400.514 188.419Z" fill="black"/>
</g>
<path d="M429.079 281.429L431.379 149.631L440.273 152.424L549.971 85.4504L569.956 85.0236L447.363 288.496L429.079 281.429Z" fill="white"/>
<rect x="425.188" y="142.803" width="5.5784" height="140.168" transform="rotate(-1.22326 425.188 142.803)" fill="#0A854C"/>
<path d="M457.372 125.709L470.966 130.888L472.403 132.846L425.57 160.693L425.22 144.294L457.372 125.709Z" fill="#0A854C"/>
<path d="M425.56 160.196L425.21 143.797L457.361 125.212L471.917 131.862" stroke="black" stroke-linecap="round" stroke-linejoin="round"/>
<path d="M571.329 84L444.299 166.756L446.888 288.009L573.897 204.259L571.329 84Z" fill="#0A854C"/>
<path d="M446.888 288.009L573.897 204.259L571.329 84L444.299 166.756L446.888 288.009ZM446.888 288.009L428.16 281.945L425.581 161.19L550.88 84.4367" stroke="black" stroke-linecap="round" stroke-linejoin="round"/>
<path d="M431.126 159.58L431.307 168.028L433.768 283.317" stroke="black" stroke-linecap="round" stroke-linejoin="round"/>
<path d="M550.415 84.4466L570.864 84.0099" stroke="black" stroke-linecap="round"/>
<g clip-path="url(#clip8_97_222)">
<path d="M545.414 193.743L544.723 154.468L512.666 146.832L481.305 178.465L481.996 217.74L514.053 225.382L545.414 193.743Z" fill="#E1B935" stroke="#231F20" stroke-miterlimit="10"/>
<path d="M508.892 184.834C509.682 184.817 510.279 182.723 510.224 180.156C510.169 177.59 509.484 175.523 508.694 175.54C507.903 175.557 507.307 177.651 507.362 180.217C507.417 182.784 508.102 184.851 508.892 184.834Z" fill="#231F20" stroke="#231F20" stroke-miterlimit="10"/>
<path d="M518.504 179.979C519.294 179.963 519.891 177.868 519.836 175.302C519.781 172.735 519.096 170.669 518.305 170.686C517.515 170.702 516.919 172.797 516.974 175.363C517.028 177.929 517.714 179.996 518.504 179.979Z" fill="#231F20" stroke="#231F20" stroke-miterlimit="10"/>
<path d="M498.64 196.311L499.456 195.929C500.18 199.934 502.552 202.361 506.765 202.979C509.711 203.412 512.898 202.737 516.232 201.007C519.949 199.097 523.095 196.24 525.353 192.724C527.655 189.167 528.549 185.751 528.199 182.493L529.015 182.106C529.428 186.614 527.877 191.169 523.942 195.654C519.218 201.038 513.762 203.86 507.977 203.851C502.578 203.845 499.578 201.151 498.64 196.311Z" fill="black"/>
</g>
<path d="M382.045 175.447L316.395 61.1412L325.462 58.9751L385.255 -54.7965L402.19 -65.4169L401.366 172.131L382.045 175.447Z" fill="white"/>
<rect x="307.578" y="58.4568" width="5.5784" height="140.168" transform="rotate(-32.0936 307.578 58.4568)" fill="#E11E2E"/>
<path d="M326.431 27.2718L340.756 24.7412L342.994 25.6846L317.085 73.6161L308.37 59.7201L326.431 27.2718Z" fill="#E11E2E"/>
<path d="M316.821 73.195L308.106 59.299L326.166 26.8507L342.072 25.0894" stroke="black" stroke-linecap="round" stroke-linejoin="round"/>
<path d="M402.843 -67L336.271 69.2109L400.708 171.957L466.752 34.9042L402.843 -67Z" fill="#E11E2E"/>
<path d="M400.708 171.957L466.752 34.9042L402.843 -67L336.271 69.2109L400.708 171.957ZM400.708 171.957L381.521 176.363L317.349 74.0372L385.515 -56.1326" stroke="black" stroke-linecap="round" stroke-linejoin="round"/>
<path d="M321.282 69.8102L325.772 76.9687L387.039 174.662" stroke="black" stroke-linecap="round" stroke-linejoin="round"/>
<g clip-path="url(#clip9_97_222)">
<path d="M436.908 40.4929L416.163 7.13631L384.729 17.0301L374.043 60.2732L394.787 93.6298L426.224 83.7405L436.908 40.4929Z" fill="#E1B935" stroke="#231F20" stroke-miterlimit="10"/>
<path d="M400.989 51.585C401.659 51.165 401.096 49.0615 399.732 46.8868C398.368 44.7121 396.72 43.2896 396.05 43.7096C395.38 44.1296 395.943 46.2331 397.307 48.4078C398.671 50.5825 400.319 52.005 400.989 51.585Z" fill="#231F20" stroke="#231F20" stroke-miterlimit="10"/>
<path d="M406.748 42.4866C407.418 42.0666 406.855 39.9631 405.491 37.7884C404.127 35.6137 402.479 34.1912 401.809 34.6112C401.139 35.0312 401.702 37.1347 403.066 39.3094C404.43 41.4841 406.078 42.9066 406.748 42.4866Z" fill="#231F20" stroke="#231F20" stroke-miterlimit="10"/>
<path d="M398.078 66.6965L398.582 65.95C401.259 69.0156 404.54 69.8823 408.473 68.2509C411.225 67.1113 413.614 64.8961 415.587 61.7007C417.798 58.1544 419.032 54.0874 419.166 49.911C419.317 45.677 418.331 42.2862 416.36 39.6696L416.861 38.9186C419.529 42.5761 420.535 47.2819 419.459 53.1505C418.166 60.1957 414.931 65.4164 409.961 68.3774C405.324 71.1425 401.366 70.3698 398.078 66.6965Z" fill="black"/>
</g>
<path d="M100.369 102.252L184.809 1.03033L189.985 8.78335L317.433 25.404L333.268 37.6037L110.18 119.223L100.369 102.252Z" fill="white"/>
<rect x="184.268" y="-8.17035" width="5.5784" height="140.168" transform="rotate(37.612 184.268 -8.17035)" fill="#336BAD"/>
<path d="M220.057 -1.30402L227.399 11.2549L227.29 13.681L173.348 6.00444L183.358 -6.98913L220.057 -1.30402Z" fill="#336BAD"/>
<path d="M173.651 5.6107L183.662 -7.38287L220.36 -1.69775L227.529 12.6098" stroke="black" stroke-linecap="round" stroke-linejoin="round"/>
<path d="M334.979 37.6673L184.134 22.4716L110.115 118.545L261.568 132.954L334.979 37.6673Z" fill="#336BAD"/>
<path d="M110.115 118.545L261.568 132.954L334.979 37.6673L184.134 22.4716L110.115 118.545ZM110.115 118.545L99.329 102.078L173.044 6.39818L318.776 25.1839" stroke="black" stroke-linecap="round" stroke-linejoin="round"/>
<path d="M178.373 8.6214L173.216 15.3151L102.838 106.664" stroke="black" stroke-linecap="round" stroke-linejoin="round"/>
<path d="M318.408 24.9001L334.611 37.3835" stroke="black" stroke-linecap="round"/>
<g clip-path="url(#clip10_97_222)">
<path d="M245.975 106.901L270.065 75.8741L249.883 49.8236L205.618 54.7988L181.527 85.8253L201.706 111.88L245.975 106.901Z" fill="#E1B935" stroke="#231F20" stroke-miterlimit="10"/>
<path d="M223.113 77.0587C223.739 77.5412 225.517 76.2838 227.083 74.2503C228.65 72.2168 229.412 70.1772 228.786 69.6948C228.16 69.2123 226.382 70.4696 224.816 72.5031C223.249 74.5366 222.487 76.5762 223.113 77.0587Z" fill="#231F20" stroke="#231F20" stroke-miterlimit="10"/>
<path d="M233.644 79.3048C234.27 79.7873 236.048 78.53 237.615 76.4965C239.181 74.463 239.944 72.4234 239.317 71.9409C238.691 71.4584 236.913 72.7158 235.347 74.7493C233.78 76.7828 233.018 78.8224 233.644 79.3048Z" fill="#231F20" stroke="#231F20" stroke-miterlimit="10"/>
<path d="M207.93 79.5697L208.805 79.7839C206.858 83.358 207.183 86.7355 210.077 89.8589C212.101 92.0445 215.007 93.5168 218.688 94.2596C222.781 95.1026 227.024 94.8499 230.988 93.5273C235.011 92.1996 237.849 90.0992 239.62 87.3426L240.498 87.5526C237.993 91.3234 233.928 93.8992 228.051 94.9249C220.994 96.1562 214.976 94.9331 210.475 91.2987C206.273 87.908 205.625 83.9284 207.93 79.5697Z" fill="black"/>
</g>
<path d="M105.071 289.759L84.9061 159.493L94.1459 160.731L190.845 76.0642L210.465 72.2424L124.292 293.611L105.071 289.759Z" fill="white"/>
<rect x="77.6438" y="153.818" width="5.5784" height="140.168" transform="rotate(-11.0226 77.6438 153.818)" fill="#47AED7"/>
<path d="M106.448 131.496L120.726 134.285L122.475 135.97L81.065 171.382L77.9289 155.281L106.448 131.496Z" fill="#47AED7"/>
<path d="M80.97 170.894L77.8339 154.794L106.353 131.008L121.829 135.083" stroke="black" stroke-linecap="round" stroke-linejoin="round"/>
<path d="M211.644 71L100.552 174.169L123.74 293.212L234.642 189.067L211.644 71Z" fill="#47AED7"/>
<path d="M123.74 293.212L234.642 189.067L211.644 71L100.552 174.169L123.74 293.212ZM123.74 293.212L104.253 290.424L81.1601 171.869L191.567 74.9107" stroke="black" stroke-linecap="round" stroke-linejoin="round"/>
<path d="M86.3503 169.339L87.9659 177.633L110.014 290.822" stroke="black" stroke-linecap="round" stroke-linejoin="round"/>
<path d="M191.111 74.9996L211.188 71.0889" stroke="black" stroke-linecap="round"/>
<g clip-path="url(#clip11_97_222)">
<path d="M204.785 183.553L197.42 144.968L164.531 142.899L139.012 179.409L146.377 217.993L179.266 220.067L204.785 183.553Z" fill="#E1B935" stroke="#231F20" stroke-miterlimit="10"/>
<path d="M167.28 180.989C168.056 180.838 168.287 178.673 167.796 176.153C167.305 173.634 166.278 171.714 165.502 171.865C164.726 172.016 164.495 174.181 164.986 176.701C165.477 179.22 166.504 181.14 167.28 180.989Z" fill="#231F20" stroke="#231F20" stroke-miterlimit="10"/>
<path d="M175.925 174.57C176.701 174.419 176.932 172.254 176.441 169.734C175.951 167.214 174.924 165.294 174.148 165.445C173.372 165.596 173.141 167.762 173.631 170.281C174.122 172.801 175.149 174.721 175.925 174.57Z" fill="#231F20" stroke="#231F20" stroke-miterlimit="10"/>
<path d="M159.13 194.044L159.869 193.528C161.265 197.352 164.015 199.34 168.272 199.232C171.249 199.157 174.275 197.949 177.265 195.677C180.603 193.163 183.217 189.811 184.844 185.962C186.506 182.066 186.806 178.547 185.907 175.397L186.645 174.876C187.819 179.248 187.066 184.001 183.952 189.09C180.213 195.2 175.317 198.909 169.615 199.885C164.293 200.798 160.879 198.654 159.13 194.044Z" fill="black"/>
</g>
<path d="M210.93 251.347L216.043 119.628L224.876 122.611L335.979 57.9941H355.968L229.06 258.803L210.93 251.347Z" fill="white"/>
<rect x="210" y="112.67" width="5.5784" height="140.168" fill="#D3E7DC"/>
<path d="M242.541 96.267L256.022 101.735L257.416 103.723L210 130.563V114.161L242.541 96.267Z" fill="#D3E7DC"/>
<path d="M210 130.066V113.664L242.541 95.77L256.952 102.729" stroke="black" stroke-linecap="round" stroke-linejoin="round"/>
<path d="M357.363 57L228.595 137.025V258.305L357.363 177.286V57Z" fill="#D3E7DC"/>
<path d="M228.595 258.305L357.363 177.286V57L228.595 137.025V258.305ZM228.595 258.305L210 251.844V131.061L336.909 57" stroke="black" stroke-linecap="round" stroke-linejoin="round"/>
<path d="M215.578 129.569V138.019V253.335" stroke="black" stroke-linecap="round" stroke-linejoin="round"/>
<path d="M336.444 57L356.898 57" stroke="black" stroke-linecap="round"/>
<g clip-path="url(#clip12_97_222)">
<path d="M329.11 166.165L329.258 126.884L297.372 118.565L265.343 149.522L265.195 188.803L297.081 197.127L329.11 166.165Z" fill="#E1B935" stroke="#231F20" stroke-miterlimit="10"/>
<path d="M292.787 156.478C293.578 156.478 294.219 154.397 294.219 151.83C294.219 149.263 293.578 147.182 292.787 147.182C291.997 147.182 291.356 149.263 291.356 151.83C291.356 154.397 291.997 156.478 292.787 156.478Z" fill="#231F20" stroke="#231F20" stroke-miterlimit="10"/>
<path d="M302.5 151.83C303.291 151.83 303.932 149.749 303.932 147.182C303.932 144.615 303.291 142.534 302.5 142.534C301.71 142.534 301.069 144.615 301.069 147.182C301.069 149.749 301.71 151.83 302.5 151.83Z" fill="#231F20" stroke="#231F20" stroke-miterlimit="10"/>
<path d="M282.292 167.733L283.116 167.369C283.755 171.388 286.074 173.866 290.273 174.573C293.21 175.07 296.411 174.462 299.78 172.804C303.537 170.974 306.744 168.184 309.076 164.717C311.453 161.21 312.42 157.814 312.14 154.55L312.964 154.18C313.281 158.696 311.633 163.217 307.603 167.617C302.765 172.899 297.25 175.603 291.467 175.471C286.069 175.35 283.127 172.593 282.292 167.733Z" fill="black"/>
</g>
</g>
<defs>
<clipPath id="clip0_97_222">
<rect width="561" height="210" fill="white"/>
</clipPath>
<clipPath id="clip1_97_222">
<rect width="64.5914" height="79.1481" fill="white" transform="translate(319.283 -44.94) rotate(37.612)"/>
</clipPath>
<clipPath id="clip2_97_222">
<rect width="64.5914" height="79.1481" fill="white" transform="translate(488.272 40.4164) rotate(18.2966)"/>
</clipPath>
<clipPath id="clip3_97_222">
<rect width="64.5914" height="79.1481" fill="white" transform="translate(504.226 12.2284) rotate(-1.22326)"/>
</clipPath>
<clipPath id="clip4_97_222">
<rect width="64.5914" height="79.1481" fill="white" transform="translate(-0.88266 28.2161) rotate(-27.7028)"/>
</clipPath>
<clipPath id="clip5_97_222">
<rect width="64.5914" height="79.1481" fill="white" transform="translate(99.0911 3.00201) rotate(21.2296)"/>
</clipPath>
<clipPath id="clip6_97_222">
<rect width="64.5914" height="79.1481" fill="white" transform="translate(51.091 111.002) rotate(21.2296)"/>
</clipPath>
<clipPath id="clip7_97_222">
<rect width="64.5914" height="79.1481" fill="white" transform="translate(423.214 141.166) rotate(45)"/>
</clipPath>
<clipPath id="clip8_97_222">
<rect width="64.5914" height="79.1481" fill="white" transform="translate(480.226 147.228) rotate(-1.22326)"/>
</clipPath>
<clipPath id="clip9_97_222">
<rect width="64.5914" height="79.1481" fill="white" transform="translate(357.089 34.0155) rotate(-32.0936)"/>
</clipPath>
<clipPath id="clip10_97_222">
<rect width="64.5914" height="79.1481" fill="white" transform="translate(224.365 29.7902) rotate(37.612)"/>
</clipPath>
<clipPath id="clip11_97_222">
<rect width="64.5914" height="79.1481" fill="white" transform="translate(132.632 148.811) rotate(-11.0226)"/>
</clipPath>
<clipPath id="clip12_97_222">
<rect width="64.5914" height="79.1481" fill="white" transform="translate(264.931 118.269)"/>
</clipPath>
</defs>
</svg>
