<svg width="561" height="210" viewBox="0 0 561 210" fill="none" xmlns="http://www.w3.org/2000/svg">
<g clip-path="url(#clip0_88_320)">
<rect width="561" height="210" fill="white"/>
<rect width="561" height="210" fill="#D3E7DC"/>
<path d="M-31.4709 168.95L-108.207 36.0402L-59.6175 -35.801L16.6442 96.288L-31.4709 168.95Z" fill="#D8DAD9" stroke="black"/>
<rect x="-59.767" y="-36.06" width="158.514" height="152.748" transform="rotate(-30 -59.767 -36.06)" fill="#D8DAD9" stroke="black"/>
<path d="M105.361 89.9503L28.6254 -42.9598L77.2145 -114.801L153.476 17.288L105.361 89.9503Z" fill="#0A854C" stroke="black"/>
<rect x="-108.317" y="35.8489" width="158" height="152" transform="rotate(-30 -108.317 35.8489)" fill="#0A854C" stroke="black"/>
<path d="M460.501 120.729L418.397 -36.4077L487.877 -96.653L529.722 59.5125L460.501 120.729Z" fill="#D8DAD9" stroke="black"/>
<rect x="487.743" y="-96.9264" width="168.015" height="161.906" transform="rotate(-15 487.743 -96.9264)" fill="#D8DAD9" stroke="black"/>
<rect x="418.333" y="-36.6445" width="167.471" height="161.113" transform="rotate(-15 418.333 -36.6445)" fill="#E2BA36" stroke="black"/>
<path d="M233.814 103.237L303.856 -33.3188L390.566 -31.4624L320.956 104.25L233.814 103.237Z" fill="#D8DAD9" stroke="black"/>
<rect x="390.703" y="-31.7285" width="158.514" height="152.748" transform="rotate(27.1544 390.703 -31.7285)" fill="#D8DAD9" stroke="black"/>
<path d="M374.399 175.347L444.442 38.7908L531.152 40.6471L461.541 176.359L374.399 175.347Z" fill="#336BAD" stroke="black"/>
<rect x="303.957" y="-33.5153" width="158" height="152" transform="rotate(27.1544 303.957 -33.5153)" fill="#336BAD" stroke="black"/>
<path fill-rule="evenodd" clip-rule="evenodd" d="M345.059 52.304L367.905 41.0617L365.687 66.4274L357.16 60.5889L334.101 94.2682L330.528 91.822L353.587 58.1426L345.059 52.304Z" fill="#D3E7DC"/>
<path d="M367.905 41.0617L368.403 41.1053L368.481 40.2213L367.684 40.6131L367.905 41.0617ZM345.059 52.304L344.838 51.8554L344.07 52.2332L344.777 52.7166L345.059 52.304ZM365.687 66.4274L365.405 66.84L366.111 67.3234L366.185 66.471L365.687 66.4274ZM357.16 60.5889L357.442 60.1763L357.03 59.8938L356.747 60.3064L357.16 60.5889ZM334.101 94.2682L333.818 94.6808L334.231 94.9633L334.513 94.5507L334.101 94.2682ZM330.528 91.822L330.115 91.5395L329.833 91.9521L330.245 92.2346L330.528 91.822ZM353.587 58.1426L353.999 58.4251L354.282 58.0125L353.869 57.73L353.587 58.1426ZM367.684 40.6131L344.838 51.8554L345.28 52.7526L368.126 41.5103L367.684 40.6131ZM366.185 66.471L368.403 41.1053L367.407 41.0182L365.189 66.3839L366.185 66.471ZM356.877 61.0014L365.405 66.84L365.97 66.0149L357.442 60.1763L356.877 61.0014ZM334.513 94.5507L357.572 60.8713L356.747 60.3064L333.688 93.9858L334.513 94.5507ZM330.245 92.2346L333.818 94.6808L334.383 93.8557L330.81 91.4094L330.245 92.2346ZM353.174 57.8601L330.115 91.5395L330.94 92.1045L353.999 58.4251L353.174 57.8601ZM344.777 52.7166L353.304 58.5552L353.869 57.73L345.341 51.8914L344.777 52.7166Z" fill="black"/>
<path fill-rule="evenodd" clip-rule="evenodd" d="M341.059 52.304L363.905 41.0617L361.687 66.4274L353.16 60.5889L330.101 94.2682L326.528 91.822L349.587 58.1426L341.059 52.304Z" fill="#D3E7DC"/>
<path d="M363.905 41.0617L364.403 41.1053L364.481 40.2213L363.684 40.6131L363.905 41.0617ZM341.059 52.304L340.838 51.8554L340.07 52.2332L340.777 52.7166L341.059 52.304ZM361.687 66.4274L361.405 66.84L362.111 67.3234L362.185 66.471L361.687 66.4274ZM353.16 60.5889L353.442 60.1763L353.03 59.8938L352.747 60.3064L353.16 60.5889ZM330.101 94.2682L329.818 94.6808L330.231 94.9633L330.513 94.5507L330.101 94.2682ZM326.528 91.822L326.115 91.5395L325.833 91.9521L326.245 92.2346L326.528 91.822ZM349.587 58.1426L349.999 58.4251L350.282 58.0125L349.869 57.73L349.587 58.1426ZM363.684 40.6131L340.838 51.8554L341.28 52.7526L364.126 41.5103L363.684 40.6131ZM362.185 66.471L364.403 41.1053L363.407 41.0182L361.189 66.3839L362.185 66.471ZM352.877 61.0014L361.405 66.84L361.97 66.0149L353.442 60.1763L352.877 61.0014ZM330.513 94.5507L353.572 60.8713L352.747 60.3064L329.688 93.9858L330.513 94.5507ZM326.245 92.2346L329.818 94.6808L330.383 93.8557L326.81 91.4094L326.245 92.2346ZM349.174 57.8601L326.115 91.5395L326.94 92.1045L349.999 58.4251L349.174 57.8601ZM340.777 52.7166L349.304 58.5552L349.869 57.73L341.341 51.8914L340.777 52.7166Z" fill="black"/>
<path fill-rule="evenodd" clip-rule="evenodd" d="M337.059 52.304L359.905 41.0617L357.687 66.4274L349.16 60.5889L326.101 94.2682L322.528 91.822L345.587 58.1426L337.059 52.304Z" fill="white"/>
<path d="M359.905 41.0617L360.403 41.1053L360.481 40.2213L359.684 40.6131L359.905 41.0617ZM337.059 52.304L336.838 51.8554L336.071 52.2332L336.777 52.7166L337.059 52.304ZM357.687 66.4274L357.405 66.84L358.111 67.3234L358.185 66.471L357.687 66.4274ZM349.16 60.5889L349.442 60.1763L349.03 59.8938L348.747 60.3064L349.16 60.5889ZM326.101 94.2682L325.818 94.6808L326.231 94.9633L326.513 94.5507L326.101 94.2682ZM322.528 91.822L322.115 91.5395L321.833 91.9521L322.245 92.2346L322.528 91.822ZM345.587 58.1426L345.999 58.4251L346.282 58.0125L345.869 57.73L345.587 58.1426ZM359.684 40.6131L336.838 51.8554L337.28 52.7526L360.126 41.5103L359.684 40.6131ZM358.185 66.471L360.403 41.1053L359.407 41.0182L357.189 66.3839L358.185 66.471ZM348.877 61.0014L357.405 66.84L357.97 66.0149L349.442 60.1763L348.877 61.0014ZM326.513 94.5507L349.572 60.8713L348.747 60.3064L325.688 93.9858L326.513 94.5507ZM322.245 92.2346L325.818 94.6808L326.383 93.8557L322.81 91.4094L322.245 92.2346ZM345.174 57.8601L322.115 91.5395L322.94 92.1045L345.999 58.4251L345.174 57.8601ZM336.777 52.7166L345.304 58.5552L345.869 57.73L337.341 51.8914L336.777 52.7166Z" fill="black"/>
<path d="M80.7064 174.968L48.6789 24.8761L117.048 -28.4883L148.877 120.677L80.7064 174.968Z" fill="#D8DAD9" stroke="black"/>
<rect x="116.953" y="-26.545" width="158.514" height="152.748" transform="rotate(-12.0454 116.953 -26.545)" fill="white" stroke="black"/>
<path d="M235.195 144.232L203.168 -5.86062L271.537 -59.225L303.366 89.9401L235.195 144.232Z" fill="#47AED7" stroke="black"/>
<rect x="48.6006" y="26.8959" width="158" height="152" transform="rotate(-12.0454 48.6006 26.8959)" fill="#47AED7" stroke="black"/>
<path fill-rule="evenodd" clip-rule="evenodd" d="M129.039 81.3817L136.141 56.9294L153.378 75.67L143.317 78.0312L152.642 117.769L148.426 118.758L139.101 79.0205L129.039 81.3817Z" fill="white"/>
<path d="M136.141 56.9294L136.509 56.5909L135.908 55.9379L135.66 56.79L136.141 56.9294ZM129.039 81.3817L128.559 81.2422L128.321 82.0639L129.154 81.8684L129.039 81.3817ZM153.378 75.67L153.492 76.1568L154.325 75.9613L153.746 75.3315L153.378 75.67ZM143.317 78.0312L143.202 77.5444L142.716 77.6586L142.83 78.1454L143.317 78.0312ZM152.642 117.769L152.756 118.255L153.243 118.141L153.129 117.654L152.642 117.769ZM148.426 118.758L147.939 118.872L148.054 119.359L148.54 119.245L148.426 118.758ZM139.101 79.0205L139.588 78.9062L139.473 78.4195L138.987 78.5337L139.101 79.0205ZM135.66 56.79L128.559 81.2422L129.519 81.5211L136.621 57.0689L135.66 56.79ZM153.746 75.3315L136.509 56.5909L135.773 57.2679L153.01 76.0085L153.746 75.3315ZM143.431 78.518L153.492 76.1568L153.264 75.1832L143.202 77.5444L143.431 78.518ZM153.129 117.654L143.803 77.9169L142.83 78.1454L152.155 117.883L153.129 117.654ZM148.54 119.245L152.756 118.255L152.528 117.282L148.312 118.271L148.54 119.245ZM138.614 79.1347L147.939 118.872L148.913 118.644L139.588 78.9062L138.614 79.1347ZM129.154 81.8684L139.215 79.5072L138.987 78.5337L128.925 80.8949L129.154 81.8684Z" fill="black"/>
<path d="M450.529 274.95L373.793 142.04L422.383 70.199L498.644 202.288L450.529 274.95Z" fill="#D8DAD9" stroke="black"/>
<rect x="422.233" y="69.94" width="158.514" height="152.748" transform="rotate(-30 422.233 69.94)" fill="white" stroke="black"/>
<path d="M587.361 195.95L510.625 63.0402L559.215 -8.80105L635.476 123.288L587.361 195.95Z" fill="#0A854C" stroke="black"/>
<rect x="373.683" y="141.849" width="158" height="152" transform="rotate(-30 373.683 141.849)" fill="#0A854C" stroke="black"/>
<path d="M146.655 212.238L178.021 62.0057L262.124 40.8258L230.952 190.13L146.655 212.238Z" fill="#D8DAD9" stroke="black"/>
<rect x="262.186" y="40.533" width="158.514" height="152.748" transform="rotate(11.793 262.186 40.533)" fill="white" stroke="black"/>
<path d="M301.32 244.529L332.685 94.2972L416.789 73.1173L385.617 222.421L301.32 244.529Z" fill="#E11E2E" stroke="black"/>
<rect x="178.066" y="61.7896" width="158" height="152" transform="rotate(11.793 178.066 61.7896)" fill="#E11E2E" stroke="black"/>
<path fill-rule="evenodd" clip-rule="evenodd" d="M237.342 135.715L254.112 116.555L261.814 140.824L251.698 138.712L243.356 178.667L239.117 177.782L247.459 137.827L237.342 135.715Z" fill="#E2BA36"/>
<path d="M254.112 116.555L254.588 116.403L254.32 115.558L253.736 116.225L254.112 116.555ZM237.342 135.715L236.966 135.386L236.402 136.029L237.24 136.204L237.342 135.715ZM261.814 140.824L261.712 141.314L262.55 141.489L262.291 140.673L261.814 140.824ZM251.698 138.712L251.8 138.223L251.31 138.12L251.208 138.61L251.698 138.712ZM243.356 178.667L243.253 179.157L243.743 179.259L243.845 178.77L243.356 178.667ZM239.117 177.782L238.627 177.68L238.525 178.17L239.015 178.272L239.117 177.782ZM247.459 137.827L247.948 137.929L248.05 137.44L247.561 137.338L247.459 137.827ZM253.736 116.225L236.966 135.386L237.718 136.044L254.488 116.884L253.736 116.225ZM262.291 140.673L254.588 116.403L253.635 116.706L261.338 140.976L262.291 140.673ZM251.595 139.202L261.712 141.314L261.917 140.335L251.8 138.223L251.595 139.202ZM243.845 178.77L252.187 138.814L251.208 138.61L242.866 178.565L243.845 178.77ZM239.015 178.272L243.253 179.157L243.458 178.178L239.219 177.293L239.015 178.272ZM246.969 137.725L238.627 177.68L239.606 177.885L247.948 137.929L246.969 137.725ZM237.24 136.204L247.357 138.317L247.561 137.338L237.444 135.225L237.24 136.204Z" fill="black"/>
<path fill-rule="evenodd" clip-rule="evenodd" d="M233.342 137.715L250.112 118.555L257.814 142.824L247.698 140.712L239.356 180.667L235.117 179.782L243.459 139.827L233.342 137.715Z" fill="#E2BA36"/>
<path d="M250.112 118.555L250.588 118.403L250.32 117.558L249.736 118.225L250.112 118.555ZM233.342 137.715L232.966 137.386L232.402 138.029L233.24 138.204L233.342 137.715ZM257.814 142.824L257.712 143.314L258.55 143.489L258.291 142.673L257.814 142.824ZM247.698 140.712L247.8 140.223L247.31 140.12L247.208 140.61L247.698 140.712ZM239.356 180.667L239.253 181.157L239.743 181.259L239.845 180.77L239.356 180.667ZM235.117 179.782L234.627 179.68L234.525 180.17L235.015 180.272L235.117 179.782ZM243.459 139.827L243.948 139.929L244.05 139.44L243.561 139.338L243.459 139.827ZM249.736 118.225L232.966 137.386L233.718 138.044L250.488 118.884L249.736 118.225ZM258.291 142.673L250.588 118.403L249.635 118.706L257.338 142.976L258.291 142.673ZM247.595 141.202L257.712 143.314L257.917 142.335L247.8 140.223L247.595 141.202ZM239.845 180.77L248.187 140.814L247.208 140.61L238.866 180.565L239.845 180.77ZM235.015 180.272L239.253 181.157L239.458 180.178L235.219 179.293L235.015 180.272ZM242.969 139.725L234.627 179.68L235.606 179.885L243.948 139.929L242.969 139.725ZM233.24 138.204L243.357 140.317L243.561 139.338L233.444 137.225L233.24 138.204Z" fill="black"/>
<path fill-rule="evenodd" clip-rule="evenodd" d="M229.342 139.715L246.112 120.555L253.814 144.824L243.698 142.712L235.356 182.667L231.117 181.782L239.459 141.827L229.342 139.715Z" fill="white"/>
<path d="M246.112 120.555L246.588 120.403L246.32 119.558L245.736 120.225L246.112 120.555ZM229.342 139.715L228.966 139.386L228.402 140.029L229.24 140.204L229.342 139.715ZM253.814 144.824L253.712 145.314L254.55 145.489L254.291 144.673L253.814 144.824ZM243.698 142.712L243.8 142.223L243.31 142.12L243.208 142.61L243.698 142.712ZM235.356 182.667L235.253 183.157L235.743 183.259L235.845 182.77L235.356 182.667ZM231.117 181.782L230.627 181.68L230.525 182.17L231.015 182.272L231.117 181.782ZM239.459 141.827L239.948 141.929L240.05 141.44L239.561 141.338L239.459 141.827ZM245.736 120.225L228.966 139.386L229.718 140.044L246.488 120.884L245.736 120.225ZM254.291 144.673L246.588 120.403L245.635 120.706L253.338 144.976L254.291 144.673ZM243.595 143.202L253.712 145.314L253.917 144.335L243.8 142.223L243.595 143.202ZM235.845 182.77L244.187 142.814L243.208 142.61L234.866 182.565L235.845 182.77ZM231.015 182.272L235.253 183.157L235.458 182.178L231.219 181.293L231.015 182.272ZM238.969 141.725L230.627 181.68L231.606 181.885L239.948 141.929L238.969 141.725ZM229.24 140.204L239.357 142.317L239.561 141.338L229.444 139.225L229.24 140.204Z" fill="black"/>
<path d="M-35.4985 294.729L-77.6031 137.592L-8.12257 77.347L33.7218 233.512L-35.4985 294.729Z" fill="white" stroke="black"/>
<rect x="-8.2575" y="77.0736" width="168.015" height="161.906" transform="rotate(-15 -8.2575 77.0736)" fill="white" stroke="black"/>
<path d="M126.208 251.4L84.1038 94.2631L153.584 34.0179L195.429 190.183L126.208 251.4Z" fill="#E2BA36" stroke="black"/>
<rect x="-77.6665" y="137.355" width="167.471" height="161.113" transform="rotate(-15 -77.6665 137.355)" fill="#E2BA36" stroke="black"/>
<path fill-rule="evenodd" clip-rule="evenodd" d="M12.0834 178.559L18.7933 152.428L37.6699 171.704L27.0925 174.538L38.286 216.312L33.8543 217.5L22.6608 175.725L12.0834 178.559Z" fill="#66FECB"/>
<path d="M18.7933 152.428L19.1505 152.078L18.5297 151.444L18.309 152.304L18.7933 152.428ZM12.0834 178.559L11.5991 178.435L11.3863 179.264L12.2128 179.042L12.0834 178.559ZM37.6699 171.704L37.7994 172.187L38.6259 171.965L38.0272 171.354L37.6699 171.704ZM27.0925 174.538L26.9631 174.055L26.4802 174.184L26.6096 174.667L27.0925 174.538ZM38.286 216.312L38.4154 216.795L38.8983 216.666L38.7689 216.183L38.286 216.312ZM33.8543 217.5L33.3713 217.629L33.5007 218.112L33.9837 217.983L33.8543 217.5ZM22.6608 175.725L23.1438 175.596L23.0144 175.113L22.5314 175.242L22.6608 175.725ZM18.309 152.304L11.5991 178.435L12.5677 178.684L19.2776 152.552L18.309 152.304ZM38.0272 171.354L19.1505 152.078L18.4361 152.778L37.3127 172.053L38.0272 171.354ZM27.2219 175.021L37.7994 172.187L37.5405 171.221L26.9631 174.055L27.2219 175.021ZM38.7689 216.183L27.5755 174.408L26.6096 174.667L37.803 216.442L38.7689 216.183ZM33.9837 217.983L38.4154 216.795L38.1566 215.829L33.7248 217.017L33.9837 217.983ZM22.1779 175.855L33.3713 217.629L34.3372 217.37L23.1438 175.596L22.1779 175.855ZM12.2128 179.042L22.7902 176.208L22.5314 175.242L11.954 178.076L12.2128 179.042Z" fill="black"/>
<path fill-rule="evenodd" clip-rule="evenodd" d="M9.08342 181.559L15.7933 155.428L34.6699 174.704L24.0925 177.538L35.286 219.312L30.8543 220.5L19.6608 178.725L9.08342 181.559Z" fill="#66FECB"/>
<path d="M15.7933 155.428L16.1505 155.078L15.5297 154.444L15.309 155.304L15.7933 155.428ZM9.08342 181.559L8.59913 181.435L8.38632 182.264L9.21283 182.042L9.08342 181.559ZM34.6699 174.704L34.7994 175.187L35.6259 174.965L35.0272 174.354L34.6699 174.704ZM24.0925 177.538L23.9631 177.055L23.4802 177.184L23.6096 177.667L24.0925 177.538ZM35.286 219.312L35.4154 219.795L35.8983 219.666L35.7689 219.183L35.286 219.312ZM30.8543 220.5L30.3713 220.629L30.5007 221.112L30.9837 220.983L30.8543 220.5ZM19.6608 178.725L20.1438 178.596L20.0144 178.113L19.5314 178.242L19.6608 178.725ZM15.309 155.304L8.59913 181.435L9.56771 181.684L16.2776 155.552L15.309 155.304ZM35.0272 174.354L16.1505 155.078L15.4361 155.778L34.3127 175.053L35.0272 174.354ZM24.2219 178.021L34.7994 175.187L34.5405 174.221L23.9631 177.055L24.2219 178.021ZM35.7689 219.183L24.5755 177.408L23.6096 177.667L34.803 219.442L35.7689 219.183ZM30.9837 220.983L35.4154 219.795L35.1566 218.829L30.7248 220.017L30.9837 220.983ZM19.1779 178.855L30.3713 220.629L31.3372 220.37L20.1438 178.596L19.1779 178.855ZM9.21283 182.042L19.7902 179.208L19.5314 178.242L8.95401 181.076L9.21283 182.042Z" fill="black"/>
<path fill-rule="evenodd" clip-rule="evenodd" d="M6.42168 185.877L13.1316 159.745L32.0082 179.021L21.4308 181.855L32.6242 223.63L28.1925 224.817L16.9991 183.043L6.42168 185.877Z" fill="white"/>
<path d="M13.1316 159.745L13.4888 159.396L12.8679 158.762L12.6473 159.621L13.1316 159.745ZM6.42168 185.877L5.93739 185.753L5.72458 186.581L6.55109 186.36L6.42168 185.877ZM32.0082 179.021L32.1376 179.504L32.9641 179.282L32.3654 178.671L32.0082 179.021ZM21.4308 181.855L21.3014 181.372L20.8184 181.502L20.9478 181.985L21.4308 181.855ZM32.6242 223.63L32.7536 224.113L33.2366 223.983L33.1072 223.5L32.6242 223.63ZM28.1925 224.817L27.7096 224.947L27.839 225.43L28.3219 225.3L28.1925 224.817ZM16.9991 183.043L17.482 182.913L17.3526 182.43L16.8697 182.56L16.9991 183.043ZM12.6473 159.621L5.93739 185.753L6.90597 186.001L13.6158 159.87L12.6473 159.621ZM32.3654 178.671L13.4888 159.396L12.7743 160.095L31.651 179.371L32.3654 178.671ZM21.5602 182.338L32.1376 179.504L31.8788 178.538L21.3014 181.372L21.5602 182.338ZM33.1072 223.5L21.9138 181.726L20.9478 181.985L32.1413 223.759L33.1072 223.5ZM28.3219 225.3L32.7536 224.113L32.4948 223.147L28.0631 224.334L28.3219 225.3ZM16.5161 183.172L27.7096 224.947L28.6755 224.688L17.482 182.913L16.5161 183.172ZM6.55109 186.36L17.1285 183.526L16.8697 182.56L6.29227 185.394L6.55109 186.36Z" fill="black"/>
<path d="M256.501 420.729L214.397 263.592L283.877 203.347L325.722 359.512L256.501 420.729Z" fill="#D8DAD9" stroke="black"/>
<rect x="283.743" y="203.074" width="168.015" height="161.906" transform="rotate(-15 283.743 203.074)" fill="white" stroke="black"/>
<path d="M418.208 377.399L376.104 220.263L445.584 160.018L487.429 316.183L418.208 377.399Z" fill="#E2BA36" stroke="black"/>
<path fill-rule="evenodd" clip-rule="evenodd" d="M468.545 148.4L468.997 122.942L490.54 136.516L481.447 141.429L500.85 177.34L497.04 179.398L477.638 143.488L468.545 148.4Z" fill="#47AED7"/>
<path d="M468.997 122.942L469.264 122.519L468.513 122.046L468.497 122.933L468.997 122.942ZM468.545 148.4L468.045 148.392L468.03 149.247L468.783 148.84L468.545 148.4ZM490.54 136.516L490.777 136.956L491.53 136.55L490.806 136.093L490.54 136.516ZM481.447 141.429L481.209 140.989L480.77 141.227L481.007 141.667L481.447 141.429ZM500.85 177.34L501.088 177.78L501.527 177.542L501.29 177.102L500.85 177.34ZM497.04 179.398L496.6 179.636L496.838 180.076L497.278 179.838L497.04 179.398ZM477.638 143.488L478.077 143.25L477.84 142.81L477.4 143.048L477.638 143.488ZM468.497 122.933L468.045 148.392L469.045 148.409L469.497 122.951L468.497 122.933ZM490.806 136.093L469.264 122.519L468.731 123.365L490.273 136.94L490.806 136.093ZM481.685 141.869L490.777 136.956L490.302 136.077L481.209 140.989L481.685 141.869ZM501.29 177.102L481.887 141.192L481.007 141.667L500.41 177.577L501.29 177.102ZM497.278 179.838L501.088 177.78L500.612 176.9L496.803 178.958L497.278 179.838ZM477.198 143.725L496.6 179.636L497.48 179.16L478.077 143.25L477.198 143.725ZM468.783 148.84L477.875 143.928L477.4 143.048L468.307 147.961L468.783 148.84Z" fill="black"/>
<path fill-rule="evenodd" clip-rule="evenodd" d="M466.545 152.4L466.997 126.942L488.54 140.516L479.447 145.429L498.85 181.34L495.04 183.398L475.638 147.488L466.545 152.4Z" fill="#47AED7"/>
<path d="M466.997 126.942L467.264 126.519L466.513 126.046L466.497 126.933L466.997 126.942ZM466.545 152.4L466.045 152.392L466.03 153.247L466.783 152.84L466.545 152.4ZM488.54 140.516L488.777 140.956L489.53 140.55L488.806 140.093L488.54 140.516ZM479.447 145.429L479.209 144.989L478.77 145.227L479.007 145.667L479.447 145.429ZM498.85 181.34L499.088 181.78L499.527 181.542L499.29 181.102L498.85 181.34ZM495.04 183.398L494.6 183.636L494.838 184.076L495.278 183.838L495.04 183.398ZM475.638 147.488L476.077 147.25L475.84 146.81L475.4 147.048L475.638 147.488ZM466.497 126.933L466.045 152.392L467.045 152.409L467.497 126.951L466.497 126.933ZM488.806 140.093L467.264 126.519L466.731 127.365L488.273 140.94L488.806 140.093ZM479.685 145.869L488.777 140.956L488.302 140.077L479.209 144.989L479.685 145.869ZM499.29 181.102L479.887 145.192L479.007 145.667L498.41 181.577L499.29 181.102ZM495.278 183.838L499.088 181.78L498.612 180.9L494.803 182.958L495.278 183.838ZM475.198 147.725L494.6 183.636L495.48 183.16L476.077 147.25L475.198 147.725ZM466.783 152.84L475.875 147.928L475.4 147.048L466.307 151.961L466.783 152.84Z" fill="black"/>
<path fill-rule="evenodd" clip-rule="evenodd" d="M464.545 156.4L464.997 130.942L486.54 144.516L477.447 149.429L496.85 185.34L493.04 187.398L473.638 151.488L464.545 156.4Z" fill="white"/>
<path d="M464.997 130.942L465.264 130.519L464.513 130.046L464.497 130.933L464.997 130.942ZM464.545 156.4L464.045 156.392L464.03 157.247L464.783 156.84L464.545 156.4ZM486.54 144.516L486.777 144.956L487.53 144.55L486.806 144.093L486.54 144.516ZM477.447 149.429L477.209 148.989L476.77 149.227L477.007 149.667L477.447 149.429ZM496.85 185.34L497.088 185.78L497.527 185.542L497.29 185.102L496.85 185.34ZM493.04 187.398L492.6 187.636L492.838 188.076L493.278 187.838L493.04 187.398ZM473.638 151.488L474.077 151.25L473.84 150.81L473.4 151.048L473.638 151.488ZM464.497 130.933L464.045 156.392L465.045 156.409L465.497 130.951L464.497 130.933ZM486.806 144.093L465.264 130.519L464.731 131.365L486.273 144.94L486.806 144.093ZM477.685 149.869L486.777 144.956L486.302 144.077L477.209 148.989L477.685 149.869ZM497.29 185.102L477.887 149.192L477.007 149.667L496.41 185.577L497.29 185.102ZM493.278 187.838L497.088 185.78L496.612 184.9L492.803 186.958L493.278 187.838ZM473.198 151.725L492.6 187.636L493.48 187.16L474.077 151.25L473.198 151.725ZM464.783 156.84L473.875 151.928L473.4 151.048L464.307 155.961L464.783 156.84Z" fill="black"/>
</g>
<defs>
<clipPath id="clip0_88_320">
<rect width="561" height="210" fill="white"/>
</clipPath>
</defs>
</svg>
