<svg xmlns="http://www.w3.org/2000/svg" width="1110" height="1110" fill="none"><path fill="#000" style="stroke-width:.987187" d="M0 0h1110v1110H0z"/><mask id="a" maskUnits="userSpaceOnUse" x="69" y="595.96" width="1002" height="183" fill="#000"><path fill="#fff" d="M69 595.96h1002v183H69z"/><path d="M70 651.92c0 4.32 1.44 8.8 4.32 13.44 3.04 4.48 6.72 9.04 11.04 13.68 4.48 4.64 9.28 9.28 14.4 13.92 5.28 4.48 10.08 8.8 14.4 12.96 4.48 4.16 8.16 8.16 11.04 12 3.04 3.68 4.56 6.96 4.56 9.84v29.28h-18.24c-6.4 0-11.6-1.92-15.6-5.76-3.84-3.84-5.76-8.8-5.76-14.88H70c0 5.6 1.04 10.88 3.12 15.84 2.24 4.8 5.2 9.04 8.88 12.72 3.84 3.68 8.24 6.64 13.2 8.88 5.12 2.08 10.56 3.12 16.32 3.12h16.8c6.08 0 11.6-1.04 16.56-3.12 5.12-2.24 9.44-5.2 12.96-8.88 3.68-3.84 6.48-8.16 8.4-12.96 2.08-4.96 3.12-10.16 3.12-15.6v-14.64c0-4.8-1.52-9.68-4.56-14.64-2.88-5.12-6.56-10.08-11.04-14.88-4.32-4.96-9.04-9.76-14.16-14.4-5.12-4.64-9.92-8.96-14.4-12.96-4.32-4.16-8-7.92-11.04-11.28-2.88-3.36-4.32-6.24-4.32-8.64v-28.32h15.84c7.68 0 13.6 1.84 17.76 5.52 4.32 3.52 6.48 8.48 6.48 14.88h19.68c0-5.44-1.12-10.56-3.36-15.36-2.08-4.96-5.04-9.2-8.88-12.72-3.68-3.68-8-6.56-12.96-8.64-4.96-2.24-10.24-3.36-15.84-3.36h-17.04c-5.76 0-11.2 1.04-16.32 3.12-4.96 2.08-9.36 4.96-13.2 8.64-3.68 3.68-6.64 8-8.88 12.96-2.08 4.8-3.12 10.08-3.12 15.84zm239.293-54.96h-120v19.92h40.08v160.08h39.84V616.88h40.08zm60.96 180h38.16c5.44 0 10.56-1.04 15.36-3.12 4.96-2.24 9.28-5.2 12.96-8.88 3.84-3.84 6.88-8.16 9.12-12.96a37.483 37.483 0 0 0 3.36-15.6v-98.88c0-5.12-1.12-10.08-3.36-14.88-2.08-4.96-4.96-9.28-8.64-12.96-3.68-3.84-8-6.88-12.96-9.12-4.96-2.4-10.24-3.6-15.84-3.6h-38.16c-5.6 0-10.88 1.2-15.84 3.6-4.96 2.24-9.28 5.28-12.96 9.12-3.68 3.68-6.64 8-8.88 12.96-2.08 4.8-3.12 9.76-3.12 14.88v98.88c0 5.44 1.12 10.64 3.36 15.6 2.24 4.8 5.2 9.12 8.88 12.96 3.84 3.68 8.16 6.64 12.96 8.88 4.96 2.08 10.16 3.12 15.6 3.12zm39.12-20.16h-40.08V616.88h40.08zm119.998-80.16v-60h40.08v60zm-39.84 100.32h39.84v-79.92h40.08v79.92h39.84v-55.68c0-6.88-1.12-12.48-3.36-16.8-2.24-4.48-4.72-8-7.44-10.56-2.56-2.72-4.96-4.56-7.2-5.52l-3.36-1.68 3.36-1.2c2.24-.8 4.64-2.32 7.2-4.56 2.72-2.4 5.2-5.68 7.44-9.84 2.24-4.32 3.36-9.92 3.36-16.8v-17.28c0-5.92-.96-11.36-2.88-16.32-1.76-4.96-4.4-9.2-7.92-12.72-3.52-3.52-7.76-6.24-12.72-8.16-4.8-1.92-10.24-2.88-16.32-2.88h-79.92zm201.598-180c-4.64 0-9.44 1.12-14.4 3.36-4.8 2.24-9.2 5.2-13.2 8.88-3.84 3.68-7.04 8-9.6 12.96-2.4 4.96-3.6 10.08-3.6 15.36v139.44h39.84v-79.92h39.36v79.92c1.28.16 3.76.24 7.44.24h11.76c4.32 0 8.4-.08 12.24-.24h8.64V637.52c0-5.28-1.28-10.32-3.84-15.12-2.56-4.96-5.84-9.28-9.84-12.96a44.3 44.3 0 0 0-13.2-9.12c-4.96-2.24-9.84-3.36-14.64-3.36zm-.96 79.68v-60h39.36v60zm179.279 20.16h20.16v60h-40.08V616.88h44.16c4.96 0 8.88 1.84 11.76 5.52 2.88 3.52 4.32 8.56 4.32 15.12h19.68c0-5.12-1.12-10.08-3.36-14.88-2.24-4.96-5.28-9.28-9.12-12.96a44.3 44.3 0 0 0-13.2-9.12c-4.961-2.4-10.08-3.6-15.36-3.6h-38.16c-5.6 0-10.88 1.2-15.84 3.6-4.96 2.24-9.28 5.28-12.96 9.12-3.68 3.84-6.56 8.24-8.64 13.2-2.08 4.8-3.12 9.76-3.12 14.88v98.4c0 5.6 1.04 10.88 3.12 15.84 2.08 4.96 4.96 9.28 8.64 12.96 3.68 3.68 7.92 6.64 12.72 8.88 4.96 2.08 10.32 3.12 16.08 3.12h38.4c6.08 0 11.599-1.12 16.56-3.36 4.96-2.24 9.2-5.2 12.72-8.88 3.68-3.68 6.48-8 8.4-12.96 2.08-4.96 3.12-10.16 3.12-15.6V676.4h-60zm180.242.24v-20.4h-40.08v-59.76h60v-19.92h-99.844v180h99.844V756.8h-60v-59.76z"/></mask><path d="M55.195 663.32c0 4.32 1.44 8.8 4.32 13.44 3.04 4.48 6.72 9.04 11.04 13.68 4.48 4.64 9.28 9.28 14.4 13.92 5.28 4.48 10.08 8.8 14.4 12.96 4.48 4.16 8.16 8.16 11.04 12 3.04 3.68 4.56 6.96 4.56 9.84v29.28h-18.24c-6.4 0-11.6-1.92-15.6-5.76-3.84-3.84-5.76-8.8-5.76-14.88h-20.16c0 5.6 1.04 10.88 3.12 15.84 2.24 4.8 5.2 9.04 8.88 12.72 3.84 3.68 8.24 6.64 13.2 8.88 5.12 2.08 10.56 3.12 16.32 3.12h16.8c6.08 0 11.6-1.04 16.56-3.12 5.12-2.24 9.44-5.2 12.96-8.88 3.68-3.84 6.48-8.16 8.4-12.96 2.08-4.96 3.12-10.16 3.12-15.6v-14.64c0-4.8-1.52-9.68-4.56-14.64-2.88-5.12-6.56-10.08-11.04-14.88-4.32-4.96-9.04-9.76-14.16-14.4-5.12-4.64-9.92-8.96-14.4-12.96-4.32-4.16-8-7.92-11.04-11.28-2.88-3.36-4.32-6.24-4.32-8.64v-28.32h15.84c7.68 0 13.6 1.84 17.76 5.52 4.32 3.52 6.48 8.48 6.48 14.88h19.68c0-5.44-1.12-10.56-3.36-15.36-2.08-4.96-5.04-9.2-8.88-12.72-3.68-3.68-8-6.56-12.96-8.64-4.96-2.24-10.24-3.36-15.84-3.36h-17.04c-5.76 0-11.2 1.04-16.32 3.12-4.96 2.08-9.36 4.96-13.2 8.64-3.68 3.68-6.64 8-8.88 12.96-2.08 4.8-3.12 10.08-3.12 15.84zm239.293-54.96h-120v19.92h40.08v160.08h39.84V628.28h40.08zm60.96 180h38.16c5.44 0 10.56-1.04 15.36-3.12 4.96-2.24 9.28-5.2 12.96-8.88 3.84-3.84 6.88-8.16 9.12-12.96a37.483 37.483 0 0 0 3.36-15.6v-98.88c0-5.12-1.12-10.08-3.36-14.88-2.08-4.96-4.96-9.28-8.64-12.96-3.68-3.84-8-6.88-12.96-9.12-4.96-2.4-10.24-3.6-15.84-3.6h-38.16c-5.6 0-10.88 1.2-15.84 3.6-4.96 2.24-9.28 5.28-12.96 9.12-3.68 3.68-6.64 8-8.88 12.96-2.08 4.8-3.12 9.76-3.12 14.88v98.88c0 5.44 1.12 10.64 3.36 15.6 2.24 4.8 5.2 9.12 8.88 12.96 3.84 3.68 8.16 6.64 12.96 8.88 4.96 2.08 10.16 3.12 15.6 3.12zm39.12-20.16h-40.08V628.28h40.08zm119.998-80.16v-60h40.08v60zm-39.84 100.32h39.84v-79.92h40.08v79.92h39.84v-55.68c0-6.88-1.12-12.48-3.36-16.8-2.24-4.48-4.72-8-7.44-10.56-2.56-2.72-4.96-4.56-7.2-5.52l-3.36-1.68 3.36-1.2c2.24-.8 4.64-2.32 7.2-4.56 2.72-2.4 5.2-5.68 7.44-9.84 2.24-4.32 3.36-9.92 3.36-16.8v-17.28c0-5.92-.96-11.36-2.88-16.32-1.76-4.96-4.4-9.2-7.92-12.72-3.52-3.52-7.76-6.24-12.72-8.16-4.8-1.92-10.24-2.88-16.32-2.88h-79.92zm201.598-180c-4.64 0-9.44 1.12-14.4 3.36-4.8 2.24-9.2 5.2-13.2 8.88-3.84 3.68-7.04 8-9.6 12.96-2.4 4.96-3.6 10.08-3.6 15.36v139.44h39.84v-79.92h39.36v79.92c1.28.16 3.76.24 7.44.24h11.76c4.32 0 8.4-.08 12.24-.24h8.64V648.92c0-5.28-1.28-10.32-3.84-15.12-2.56-4.96-5.84-9.28-9.84-12.96a44.3 44.3 0 0 0-13.2-9.12c-4.96-2.24-9.84-3.36-14.64-3.36zm-.96 79.68v-60h39.36v60zm179.279 20.16h20.16v60h-40.08V628.28h44.16c4.96 0 8.88 1.84 11.76 5.52 2.88 3.52 4.32 8.56 4.32 15.12h19.68c0-5.12-1.12-10.08-3.36-14.88-2.24-4.96-5.28-9.28-9.12-12.96a44.3 44.3 0 0 0-13.2-9.12c-4.961-2.4-10.08-3.6-15.36-3.6h-38.16c-5.6 0-10.88 1.2-15.84 3.6-4.96 2.24-9.28 5.28-12.96 9.12-3.68 3.84-6.56 8.24-8.64 13.2-2.08 4.8-3.12 9.76-3.12 14.88v98.4c0 5.6 1.04 10.88 3.12 15.84 2.08 4.96 4.96 9.28 8.64 12.96 3.68 3.68 7.92 6.64 12.72 8.88 4.96 2.08 10.32 3.12 16.08 3.12h38.4c6.08 0 11.599-1.12 16.56-3.36 4.96-2.24 9.2-5.2 12.72-8.88 3.68-3.68 6.48-8 8.4-12.96 2.08-4.96 3.12-10.16 3.12-15.6V687.8h-60zm180.242.24v-20.4h-40.08v-59.76h60v-19.92h-99.844v180h99.844V768.2h-60v-59.76z" fill="#f5c32c"/><path d="M70 651.92c0 4.32 1.44 8.8 4.32 13.44 3.04 4.48 6.72 9.04 11.04 13.68 4.48 4.64 9.28 9.28 14.4 13.92 5.28 4.48 10.08 8.8 14.4 12.96 4.48 4.16 8.16 8.16 11.04 12 3.04 3.68 4.56 6.96 4.56 9.84v29.28h-18.24c-6.4 0-11.6-1.92-15.6-5.76-3.84-3.84-5.76-8.8-5.76-14.88H70c0 5.6 1.04 10.88 3.12 15.84 2.24 4.8 5.2 9.04 8.88 12.72 3.84 3.68 8.24 6.64 13.2 8.88 5.12 2.08 10.56 3.12 16.32 3.12h16.8c6.08 0 11.6-1.04 16.56-3.12 5.12-2.24 9.44-5.2 12.96-8.88 3.68-3.84 6.48-8.16 8.4-12.96 2.08-4.96 3.12-10.16 3.12-15.6v-14.64c0-4.8-1.52-9.68-4.56-14.64-2.88-5.12-6.56-10.08-11.04-14.88-4.32-4.96-9.04-9.76-14.16-14.4-5.12-4.64-9.92-8.96-14.4-12.96-4.32-4.16-8-7.92-11.04-11.28-2.88-3.36-4.32-6.24-4.32-8.64v-28.32h15.84c7.68 0 13.6 1.84 17.76 5.52 4.32 3.52 6.48 8.48 6.48 14.88h19.68c0-5.44-1.12-10.56-3.36-15.36-2.08-4.96-5.04-9.2-8.88-12.72-3.68-3.68-8-6.56-12.96-8.64-4.96-2.24-10.24-3.36-15.84-3.36h-17.04c-5.76 0-11.2 1.04-16.32 3.12-4.96 2.08-9.36 4.96-13.2 8.64-3.68 3.68-6.64 8-8.88 12.96-2.08 4.8-3.12 10.08-3.12 15.84zm239.293-54.96h-120v19.92h40.08v160.08h39.84V616.88h40.08zm60.96 180h38.16c5.44 0 10.56-1.04 15.36-3.12 4.96-2.24 9.28-5.2 12.96-8.88 3.84-3.84 6.88-8.16 9.12-12.96a37.483 37.483 0 0 0 3.36-15.6v-98.88c0-5.12-1.12-10.08-3.36-14.88-2.08-4.96-4.96-9.28-8.64-12.96-3.68-3.84-8-6.88-12.96-9.12-4.96-2.4-10.24-3.6-15.84-3.6h-38.16c-5.6 0-10.88 1.2-15.84 3.6-4.96 2.24-9.28 5.28-12.96 9.12-3.68 3.68-6.64 8-8.88 12.96-2.08 4.8-3.12 9.76-3.12 14.88v98.88c0 5.44 1.12 10.64 3.36 15.6 2.24 4.8 5.2 9.12 8.88 12.96 3.84 3.68 8.16 6.64 12.96 8.88 4.96 2.08 10.16 3.12 15.6 3.12zm39.12-20.16h-40.08V616.88h40.08zm119.998-80.16v-60h40.08v60zm-39.84 100.32h39.84v-79.92h40.08v79.92h39.84v-55.68c0-6.88-1.12-12.48-3.36-16.8-2.24-4.48-4.72-8-7.44-10.56-2.56-2.72-4.96-4.56-7.2-5.52l-3.36-1.68 3.36-1.2c2.24-.8 4.64-2.32 7.2-4.56 2.72-2.4 5.2-5.68 7.44-9.84 2.24-4.32 3.36-9.92 3.36-16.8v-17.28c0-5.92-.96-11.36-2.88-16.32-1.76-4.96-4.4-9.2-7.92-12.72-3.52-3.52-7.76-6.24-12.72-8.16-4.8-1.92-10.24-2.88-16.32-2.88h-79.92zm201.598-180c-4.64 0-9.44 1.12-14.4 3.36-4.8 2.24-9.2 5.2-13.2 8.88-3.84 3.68-7.04 8-9.6 12.96-2.4 4.96-3.6 10.08-3.6 15.36v139.44h39.84v-79.92h39.36v79.92c1.28.16 3.76.24 7.44.24h11.76c4.32 0 8.4-.08 12.24-.24h8.64V637.52c0-5.28-1.28-10.32-3.84-15.12-2.56-4.96-5.84-9.28-9.84-12.96a44.3 44.3 0 0 0-13.2-9.12c-4.96-2.24-9.84-3.36-14.64-3.36zm-.96 79.68v-60h39.36v60zm179.279 20.16h20.16v60h-40.08V616.88h44.16c4.96 0 8.88 1.84 11.76 5.52 2.88 3.52 4.32 8.56 4.32 15.12h19.68c0-5.12-1.12-10.08-3.36-14.88-2.24-4.96-5.28-9.28-9.12-12.96a44.3 44.3 0 0 0-13.2-9.12c-4.961-2.4-10.08-3.6-15.36-3.6h-38.16c-5.6 0-10.88 1.2-15.84 3.6-4.96 2.24-9.28 5.28-12.96 9.12-3.68 3.84-6.56 8.24-8.64 13.2-2.08 4.8-3.12 9.76-3.12 14.88v98.4c0 5.6 1.04 10.88 3.12 15.84 2.08 4.96 4.96 9.28 8.64 12.96 3.68 3.68 7.92 6.64 12.72 8.88 4.96 2.08 10.32 3.12 16.08 3.12h38.4c6.08 0 11.599-1.12 16.56-3.36 4.96-2.24 9.2-5.2 12.72-8.88 3.68-3.68 6.48-8 8.4-12.96 2.08-4.96 3.12-10.16 3.12-15.6V676.4h-60zm180.242.24v-20.4h-40.08v-59.76h60v-19.92h-99.844v180h99.844V756.8h-60v-59.76z" stroke="#000" stroke-width="2" mask="url(#a)" transform="translate(-14.805 11.4)"/><mask id="b" maskUnits="userSpaceOnUse" x="69" y="585.72" width="1002" height="183" fill="#000"><path fill="#fff" d="M69 585.72h1002v183H69z"/><path d="M70 641.68c0 4.32 1.44 8.8 4.32 13.44 3.04 4.48 6.72 9.04 11.04 13.68 4.48 4.64 9.28 9.28 14.4 13.92 5.28 4.48 10.08 8.8 14.4 12.96 4.48 4.16 8.16 8.16 11.04 12 3.04 3.68 4.56 6.96 4.56 9.84v29.28h-18.24c-6.4 0-11.6-1.92-15.6-5.76-3.84-3.84-5.76-8.8-5.76-14.88H70c0 5.6 1.04 10.88 3.12 15.84 2.24 4.8 5.2 9.04 8.88 12.72 3.84 3.68 8.24 6.64 13.2 8.88 5.12 2.08 10.56 3.12 16.32 3.12h16.8c6.08 0 11.6-1.04 16.56-3.12 5.12-2.24 9.44-5.2 12.96-8.88 3.68-3.84 6.48-8.16 8.4-12.96 2.08-4.96 3.12-10.16 3.12-15.6v-14.64c0-4.8-1.52-9.68-4.56-14.64-2.88-5.12-6.56-10.08-11.04-14.88-4.32-4.96-9.04-9.76-14.16-14.4-5.12-4.64-9.92-8.96-14.4-12.96-4.32-4.16-8-7.92-11.04-11.28-2.88-3.36-4.32-6.24-4.32-8.64V606.4h15.84c7.68 0 13.6 1.84 17.76 5.52 4.32 3.52 6.48 8.48 6.48 14.88h19.68c0-5.44-1.12-10.56-3.36-15.36-2.08-4.96-5.04-9.2-8.88-12.72-3.68-3.68-8-6.56-12.96-8.64-4.96-2.24-10.24-3.36-15.84-3.36h-17.04c-5.76 0-11.2 1.04-16.32 3.12-4.96 2.08-9.36 4.96-13.2 8.64-3.68 3.68-6.64 8-8.88 12.96-2.08 4.8-3.12 10.08-3.12 15.84zm239.293-54.96h-120v19.92h40.08v160.08h39.84V606.64h40.08zm60.96 180h38.16c5.44 0 10.56-1.04 15.36-3.12 4.96-2.24 9.28-5.2 12.96-8.88 3.84-3.84 6.88-8.16 9.12-12.96a37.483 37.483 0 0 0 3.36-15.6v-98.88c0-5.12-1.12-10.08-3.36-14.88-2.08-4.96-4.96-9.28-8.64-12.96-3.68-3.84-8-6.88-12.96-9.12-4.96-2.4-10.24-3.6-15.84-3.6h-38.16c-5.6 0-10.88 1.2-15.84 3.6-4.96 2.24-9.28 5.28-12.96 9.12-3.68 3.68-6.64 8-8.88 12.96-2.08 4.8-3.12 9.76-3.12 14.88v98.88c0 5.44 1.12 10.64 3.36 15.6 2.24 4.8 5.2 9.12 8.88 12.96 3.84 3.68 8.16 6.64 12.96 8.88 4.96 2.08 10.16 3.12 15.6 3.12zm39.12-20.16h-40.08V606.64h40.08zm119.998-80.16v-60h40.08v60zm-39.84 100.32h39.84V686.8h40.08v79.92h39.84v-55.68c0-6.88-1.12-12.48-3.36-16.8-2.24-4.48-4.72-8-7.44-10.56-2.56-2.72-4.96-4.56-7.2-5.52l-3.36-1.68 3.36-1.2c2.24-.8 4.64-2.32 7.2-4.56 2.72-2.4 5.2-5.68 7.44-9.84 2.24-4.32 3.36-9.92 3.36-16.8V626.8c0-5.92-.96-11.36-2.88-16.32-1.76-4.96-4.4-9.2-7.92-12.72-3.52-3.52-7.76-6.24-12.72-8.16-4.8-1.92-10.24-2.88-16.32-2.88h-79.92zm201.598-180c-4.64 0-9.44 1.12-14.4 3.36-4.8 2.24-9.2 5.2-13.2 8.88-3.84 3.68-7.04 8-9.6 12.96-2.4 4.96-3.6 10.08-3.6 15.36v139.44h39.84V686.8h39.36v79.92c1.28.16 3.76.24 7.44.24h11.76c4.32 0 8.4-.08 12.24-.24h8.64V627.28c0-5.28-1.28-10.32-3.84-15.12-2.56-4.96-5.84-9.28-9.84-12.96a44.3 44.3 0 0 0-13.2-9.12c-4.96-2.24-9.84-3.36-14.64-3.36zm-.96 79.68v-60h39.36v60zm179.279 20.16h20.16v60h-40.08V606.64h44.16c4.96 0 8.88 1.84 11.76 5.52 2.88 3.52 4.32 8.56 4.32 15.12h19.68c0-5.12-1.12-10.08-3.36-14.88-2.24-4.96-5.28-9.28-9.12-12.96a44.3 44.3 0 0 0-13.2-9.12c-4.961-2.4-10.08-3.6-15.36-3.6h-38.16c-5.6 0-10.88 1.2-15.84 3.6-4.96 2.24-9.28 5.28-12.96 9.12-3.68 3.84-6.56 8.24-8.64 13.2-2.08 4.8-3.12 9.76-3.12 14.88v98.4c0 5.6 1.04 10.88 3.12 15.84 2.08 4.96 4.96 9.28 8.64 12.96 3.68 3.68 7.92 6.64 12.72 8.88 4.96 2.08 10.32 3.12 16.08 3.12h38.4c6.08 0 11.599-1.12 16.56-3.36 4.96-2.24 9.2-5.2 12.72-8.88 3.68-3.68 6.48-8 8.4-12.96 2.08-4.96 3.12-10.16 3.12-15.6v-59.76h-60zm180.242.24v-20.4h-40.08v-59.76h60v-19.92h-99.844v180h99.844v-20.16h-60V686.8z"/></mask><path d="M55.195 653.08c0 4.32 1.44 8.8 4.32 13.44 3.04 4.48 6.72 9.04 11.04 13.68 4.48 4.64 9.28 9.28 14.4 13.92 5.28 4.48 10.08 8.8 14.4 12.96 4.48 4.16 8.16 8.16 11.04 12 3.04 3.68 4.56 6.96 4.56 9.84v29.28h-18.24c-6.4 0-11.6-1.92-15.6-5.76-3.84-3.84-5.76-8.8-5.76-14.88h-20.16c0 5.6 1.04 10.88 3.12 15.84 2.24 4.8 5.2 9.04 8.88 12.72 3.84 3.68 8.24 6.64 13.2 8.88 5.12 2.08 10.56 3.12 16.32 3.12h16.8c6.08 0 11.6-1.04 16.56-3.12 5.12-2.24 9.44-5.2 12.96-8.88 3.68-3.84 6.48-8.16 8.4-12.96 2.08-4.96 3.12-10.16 3.12-15.6v-14.64c0-4.8-1.52-9.68-4.56-14.64-2.88-5.12-6.56-10.08-11.04-14.88-4.32-4.96-9.04-9.76-14.16-14.4-5.12-4.64-9.92-8.96-14.4-12.96-4.32-4.16-8-7.92-11.04-11.28-2.88-3.36-4.32-6.24-4.32-8.64V617.8h15.84c7.68 0 13.6 1.84 17.76 5.52 4.32 3.52 6.48 8.48 6.48 14.88h19.68c0-5.44-1.12-10.56-3.36-15.36-2.08-4.96-5.04-9.2-8.88-12.72-3.68-3.68-8-6.56-12.96-8.64-4.96-2.24-10.24-3.36-15.84-3.36h-17.04c-5.76 0-11.2 1.04-16.32 3.12-4.96 2.08-9.36 4.96-13.2 8.64-3.68 3.68-6.64 8-8.88 12.96-2.08 4.8-3.12 10.08-3.12 15.84zm239.293-54.96h-120v19.92h40.08v160.08h39.84V618.04h40.08zm60.96 180h38.16c5.44 0 10.56-1.04 15.36-3.12 4.96-2.24 9.28-5.2 12.96-8.88 3.84-3.84 6.88-8.16 9.12-12.96a37.483 37.483 0 0 0 3.36-15.6v-98.88c0-5.12-1.12-10.08-3.36-14.88-2.08-4.96-4.96-9.28-8.64-12.96-3.68-3.84-8-6.88-12.96-9.12-4.96-2.4-10.24-3.6-15.84-3.6h-38.16c-5.6 0-10.88 1.2-15.84 3.6-4.96 2.24-9.28 5.28-12.96 9.12-3.68 3.68-6.64 8-8.88 12.96-2.08 4.8-3.12 9.76-3.12 14.88v98.88c0 5.44 1.12 10.64 3.36 15.6 2.24 4.8 5.2 9.12 8.88 12.96 3.84 3.68 8.16 6.64 12.96 8.88 4.96 2.08 10.16 3.12 15.6 3.12zm39.12-20.16h-40.08V618.04h40.08zm119.998-80.16v-60h40.08v60zm-39.84 100.32h39.84V698.2h40.08v79.92h39.84v-55.68c0-6.88-1.12-12.48-3.36-16.8-2.24-4.48-4.72-8-7.44-10.56-2.56-2.72-4.96-4.56-7.2-5.52l-3.36-1.68 3.36-1.2c2.24-.8 4.64-2.32 7.2-4.56 2.72-2.4 5.2-5.68 7.44-9.84 2.24-4.32 3.36-9.92 3.36-16.8V638.2c0-5.92-.96-11.36-2.88-16.32-1.76-4.96-4.4-9.2-7.92-12.72-3.52-3.52-7.76-6.24-12.72-8.16-4.8-1.92-10.24-2.88-16.32-2.88h-79.92zm201.598-180c-4.64 0-9.44 1.12-14.4 3.36-4.8 2.24-9.2 5.2-13.2 8.88-3.84 3.68-7.04 8-9.6 12.96-2.4 4.96-3.6 10.08-3.6 15.36v139.44h39.84V698.2h39.36v79.92c1.28.16 3.76.24 7.44.24h11.76c4.32 0 8.4-.08 12.24-.24h8.64V638.68c0-5.28-1.28-10.32-3.84-15.12-2.56-4.96-5.84-9.28-9.84-12.96a44.3 44.3 0 0 0-13.2-9.12c-4.96-2.24-9.84-3.36-14.64-3.36zm-.96 79.68v-60h39.36v60zm179.279 20.16h20.16v60h-40.08V618.04h44.16c4.96 0 8.88 1.84 11.76 5.52 2.88 3.52 4.32 8.56 4.32 15.12h19.68c0-5.12-1.12-10.08-3.36-14.88-2.24-4.96-5.28-9.28-9.12-12.96a44.3 44.3 0 0 0-13.2-9.12c-4.961-2.4-10.08-3.6-15.36-3.6h-38.16c-5.6 0-10.88 1.2-15.84 3.6-4.96 2.24-9.28 5.28-12.96 9.12-3.68 3.84-6.56 8.24-8.64 13.2-2.08 4.8-3.12 9.76-3.12 14.88v98.4c0 5.6 1.04 10.88 3.12 15.84 2.08 4.96 4.96 9.28 8.64 12.96 3.68 3.68 7.92 6.64 12.72 8.88 4.96 2.08 10.32 3.12 16.08 3.12h38.4c6.08 0 11.599-1.12 16.56-3.36 4.96-2.24 9.2-5.2 12.72-8.88 3.68-3.68 6.48-8 8.4-12.96 2.08-4.96 3.12-10.16 3.12-15.6v-59.76h-60zm180.242.24v-20.4h-40.08v-59.76h60v-19.92h-99.844v180h99.844v-20.16h-60V698.2z" fill="#f5c32c"/><path d="M70 641.68c0 4.32 1.44 8.8 4.32 13.44 3.04 4.48 6.72 9.04 11.04 13.68 4.48 4.64 9.28 9.28 14.4 13.92 5.28 4.48 10.08 8.8 14.4 12.96 4.48 4.16 8.16 8.16 11.04 12 3.04 3.68 4.56 6.96 4.56 9.84v29.28h-18.24c-6.4 0-11.6-1.92-15.6-5.76-3.84-3.84-5.76-8.8-5.76-14.88H70c0 5.6 1.04 10.88 3.12 15.84 2.24 4.8 5.2 9.04 8.88 12.72 3.84 3.68 8.24 6.64 13.2 8.88 5.12 2.08 10.56 3.12 16.32 3.12h16.8c6.08 0 11.6-1.04 16.56-3.12 5.12-2.24 9.44-5.2 12.96-8.88 3.68-3.84 6.48-8.16 8.4-12.96 2.08-4.96 3.12-10.16 3.12-15.6v-14.64c0-4.8-1.52-9.68-4.56-14.64-2.88-5.12-6.56-10.08-11.04-14.88-4.32-4.96-9.04-9.76-14.16-14.4-5.12-4.64-9.92-8.96-14.4-12.96-4.32-4.16-8-7.92-11.04-11.28-2.88-3.36-4.32-6.24-4.32-8.64V606.4h15.84c7.68 0 13.6 1.84 17.76 5.52 4.32 3.52 6.48 8.48 6.48 14.88h19.68c0-5.44-1.12-10.56-3.36-15.36-2.08-4.96-5.04-9.2-8.88-12.72-3.68-3.68-8-6.56-12.96-8.64-4.96-2.24-10.24-3.36-15.84-3.36h-17.04c-5.76 0-11.2 1.04-16.32 3.12-4.96 2.08-9.36 4.96-13.2 8.64-3.68 3.68-6.64 8-8.88 12.96-2.08 4.8-3.12 10.08-3.12 15.84zm239.293-54.96h-120v19.92h40.08v160.08h39.84V606.64h40.08zm60.96 180h38.16c5.44 0 10.56-1.04 15.36-3.12 4.96-2.24 9.28-5.2 12.96-8.88 3.84-3.84 6.88-8.16 9.12-12.96a37.483 37.483 0 0 0 3.36-15.6v-98.88c0-5.12-1.12-10.08-3.36-14.88-2.08-4.96-4.96-9.28-8.64-12.96-3.68-3.84-8-6.88-12.96-9.12-4.96-2.4-10.24-3.6-15.84-3.6h-38.16c-5.6 0-10.88 1.2-15.84 3.6-4.96 2.24-9.28 5.28-12.96 9.12-3.68 3.68-6.64 8-8.88 12.96-2.08 4.8-3.12 9.76-3.12 14.88v98.88c0 5.44 1.12 10.64 3.36 15.6 2.24 4.8 5.2 9.12 8.88 12.96 3.84 3.68 8.16 6.64 12.96 8.88 4.96 2.08 10.16 3.12 15.6 3.12zm39.12-20.16h-40.08V606.64h40.08zm119.998-80.16v-60h40.08v60zm-39.84 100.32h39.84V686.8h40.08v79.92h39.84v-55.68c0-6.88-1.12-12.48-3.36-16.8-2.24-4.48-4.72-8-7.44-10.56-2.56-2.72-4.96-4.56-7.2-5.52l-3.36-1.68 3.36-1.2c2.24-.8 4.64-2.32 7.2-4.56 2.72-2.4 5.2-5.68 7.44-9.84 2.24-4.32 3.36-9.92 3.36-16.8V626.8c0-5.92-.96-11.36-2.88-16.32-1.76-4.96-4.4-9.2-7.92-12.72-3.52-3.52-7.76-6.24-12.72-8.16-4.8-1.92-10.24-2.88-16.32-2.88h-79.92zm201.598-180c-4.64 0-9.44 1.12-14.4 3.36-4.8 2.24-9.2 5.2-13.2 8.88-3.84 3.68-7.04 8-9.6 12.96-2.4 4.96-3.6 10.08-3.6 15.36v139.44h39.84V686.8h39.36v79.92c1.28.16 3.76.24 7.44.24h11.76c4.32 0 8.4-.08 12.24-.24h8.64V627.28c0-5.28-1.28-10.32-3.84-15.12-2.56-4.96-5.84-9.28-9.84-12.96a44.3 44.3 0 0 0-13.2-9.12c-4.96-2.24-9.84-3.36-14.64-3.36zm-.96 79.68v-60h39.36v60zm179.279 20.16h20.16v60h-40.08V606.64h44.16c4.96 0 8.88 1.84 11.76 5.52 2.88 3.52 4.32 8.56 4.32 15.12h19.68c0-5.12-1.12-10.08-3.36-14.88-2.24-4.96-5.28-9.28-9.12-12.96a44.3 44.3 0 0 0-13.2-9.12c-4.961-2.4-10.08-3.6-15.36-3.6h-38.16c-5.6 0-10.88 1.2-15.84 3.6-4.96 2.24-9.28 5.28-12.96 9.12-3.68 3.84-6.56 8.24-8.64 13.2-2.08 4.8-3.12 9.76-3.12 14.88v98.4c0 5.6 1.04 10.88 3.12 15.84 2.08 4.96 4.96 9.28 8.64 12.96 3.68 3.68 7.92 6.64 12.72 8.88 4.96 2.08 10.32 3.12 16.08 3.12h38.4c6.08 0 11.599-1.12 16.56-3.36 4.96-2.24 9.2-5.2 12.72-8.88 3.68-3.68 6.48-8 8.4-12.96 2.08-4.96 3.12-10.16 3.12-15.6v-59.76h-60zm180.242.24v-20.4h-40.08v-59.76h60v-19.92h-99.844v180h99.844v-20.16h-60V686.8z" stroke="#000" stroke-width="2" mask="url(#b)" transform="translate(-14.805 11.4)"/><mask id="c" maskUnits="userSpaceOnUse" x="69" y="575.48" width="1002" height="183" fill="#000"><path fill="#fff" d="M69 575.48h1002v183H69z"/><path d="M70 631.44c0 4.32 1.44 8.8 4.32 13.44 3.04 4.48 6.72 9.04 11.04 13.68 4.48 4.64 9.28 9.28 14.4 13.92 5.28 4.48 10.08 8.8 14.4 12.96 4.48 4.16 8.16 8.16 11.04 12 3.04 3.68 4.56 6.96 4.56 9.84v29.28h-18.24c-6.4 0-11.6-1.92-15.6-5.76-3.84-3.84-5.76-8.8-5.76-14.88H70c0 5.6 1.04 10.88 3.12 15.84 2.24 4.8 5.2 9.04 8.88 12.72 3.84 3.68 8.24 6.64 13.2 8.88 5.12 2.08 10.56 3.12 16.32 3.12h16.8c6.08 0 11.6-1.04 16.56-3.12 5.12-2.24 9.44-5.2 12.96-8.88 3.68-3.84 6.48-8.16 8.4-12.96 2.08-4.96 3.12-10.16 3.12-15.6v-14.64c0-4.8-1.52-9.68-4.56-14.64-2.88-5.12-6.56-10.08-11.04-14.88-4.32-4.96-9.04-9.76-14.16-14.4-5.12-4.64-9.92-8.96-14.4-12.96-4.32-4.16-8-7.92-11.04-11.28-2.88-3.36-4.32-6.24-4.32-8.64v-28.32h15.84c7.68 0 13.6 1.84 17.76 5.52 4.32 3.52 6.48 8.48 6.48 14.88h19.68c0-5.44-1.12-10.56-3.36-15.36-2.08-4.96-5.04-9.2-8.88-12.72-3.68-3.68-8-6.56-12.96-8.64-4.96-2.24-10.24-3.36-15.84-3.36h-17.04c-5.76 0-11.2 1.04-16.32 3.12-4.96 2.08-9.36 4.96-13.2 8.64-3.68 3.68-6.64 8-8.88 12.96C71.04 606 70 611.28 70 617.04zm239.293-54.96h-120v19.92h40.08v160.08h39.84V596.4h40.08zm60.96 180h38.16c5.44 0 10.56-1.04 15.36-3.12 4.96-2.24 9.28-5.2 12.96-8.88 3.84-3.84 6.88-8.16 9.12-12.96a37.483 37.483 0 0 0 3.36-15.6v-98.88c0-5.12-1.12-10.08-3.36-14.88-2.08-4.96-4.96-9.28-8.64-12.96-3.68-3.84-8-6.88-12.96-9.12-4.96-2.4-10.24-3.6-15.84-3.6h-38.16c-5.6 0-10.88 1.2-15.84 3.6-4.96 2.24-9.28 5.28-12.96 9.12-3.68 3.68-6.64 8-8.88 12.96-2.08 4.8-3.12 9.76-3.12 14.88v98.88c0 5.44 1.12 10.64 3.36 15.6 2.24 4.8 5.2 9.12 8.88 12.96 3.84 3.68 8.16 6.64 12.96 8.88 4.96 2.08 10.16 3.12 15.6 3.12zm39.12-20.16h-40.08V596.4h40.08zm119.998-80.16v-60h40.08v60zm-39.84 100.32h39.84v-79.92h40.08v79.92h39.84V700.8c0-6.88-1.12-12.48-3.36-16.8-2.24-4.48-4.72-8-7.44-10.56-2.56-2.72-4.96-4.56-7.2-5.52l-3.36-1.68 3.36-1.2c2.24-.8 4.64-2.32 7.2-4.56 2.72-2.4 5.2-5.68 7.44-9.84 2.24-4.32 3.36-9.92 3.36-16.8v-17.28c0-5.92-.96-11.36-2.88-16.32-1.76-4.96-4.4-9.2-7.92-12.72-3.52-3.52-7.76-6.24-12.72-8.16-4.8-1.92-10.24-2.88-16.32-2.88h-79.92zm201.598-180c-4.64 0-9.44 1.12-14.4 3.36-4.8 2.24-9.2 5.2-13.2 8.88-3.84 3.68-7.04 8-9.6 12.96-2.4 4.96-3.6 10.08-3.6 15.36v139.44h39.84v-79.92h39.36v79.92c1.28.16 3.76.24 7.44.24h11.76c4.32 0 8.4-.08 12.24-.24h8.64V617.04c0-5.28-1.28-10.32-3.84-15.12-2.56-4.96-5.84-9.28-9.84-12.96a44.3 44.3 0 0 0-13.2-9.12c-4.96-2.24-9.84-3.36-14.64-3.36zm-.96 79.68v-60h39.36v60zm179.279 20.16h20.16v60h-40.08V596.4h44.16c4.96 0 8.88 1.84 11.76 5.52 2.88 3.52 4.32 8.56 4.32 15.12h19.68c0-5.12-1.12-10.08-3.36-14.88-2.24-4.96-5.28-9.28-9.12-12.96a44.3 44.3 0 0 0-13.2-9.12c-4.961-2.4-10.08-3.6-15.36-3.6h-38.16c-5.6 0-10.88 1.2-15.84 3.6-4.96 2.24-9.28 5.28-12.96 9.12-3.68 3.84-6.56 8.24-8.64 13.2-2.08 4.8-3.12 9.76-3.12 14.88v98.4c0 5.6 1.04 10.88 3.12 15.84 2.08 4.96 4.96 9.28 8.64 12.96 3.68 3.68 7.92 6.64 12.72 8.88 4.96 2.08 10.32 3.12 16.08 3.12h38.4c6.08 0 11.599-1.12 16.56-3.36 4.96-2.24 9.2-5.2 12.72-8.88 3.68-3.68 6.48-8 8.4-12.96 2.08-4.96 3.12-10.16 3.12-15.6v-59.76h-60zm180.242.24v-20.4h-40.08V596.4h60v-19.92h-99.844v180h99.844v-20.16h-60v-59.76z"/></mask><path d="M55.195 642.84c0 4.32 1.44 8.8 4.32 13.44 3.04 4.48 6.72 9.04 11.04 13.68 4.48 4.64 9.28 9.28 14.4 13.92 5.28 4.48 10.08 8.8 14.4 12.96 4.48 4.16 8.16 8.16 11.04 12 3.04 3.68 4.56 6.96 4.56 9.84v29.28h-18.24c-6.4 0-11.6-1.92-15.6-5.76-3.84-3.84-5.76-8.8-5.76-14.88h-20.16c0 5.6 1.04 10.88 3.12 15.84 2.24 4.8 5.2 9.04 8.88 12.72 3.84 3.68 8.24 6.64 13.2 8.88 5.12 2.08 10.56 3.12 16.32 3.12h16.8c6.08 0 11.6-1.04 16.56-3.12 5.12-2.24 9.44-5.2 12.96-8.88 3.68-3.84 6.48-8.16 8.4-12.96 2.08-4.96 3.12-10.16 3.12-15.6v-14.64c0-4.8-1.52-9.68-4.56-14.64-2.88-5.12-6.56-10.08-11.04-14.88-4.32-4.96-9.04-9.76-14.16-14.4-5.12-4.64-9.92-8.96-14.4-12.96-4.32-4.16-8-7.92-11.04-11.28-2.88-3.36-4.32-6.24-4.32-8.64v-28.32h15.84c7.68 0 13.6 1.84 17.76 5.52 4.32 3.52 6.48 8.48 6.48 14.88h19.68c0-5.44-1.12-10.56-3.36-15.36-2.08-4.96-5.04-9.2-8.88-12.72-3.68-3.68-8-6.56-12.96-8.64-4.96-2.24-10.24-3.36-15.84-3.36h-17.04c-5.76 0-11.2 1.04-16.32 3.12-4.96 2.08-9.36 4.96-13.2 8.64-3.68 3.68-6.64 8-8.88 12.96-2.08 4.8-3.12 10.08-3.12 15.84zm239.293-54.96h-120v19.92h40.08v160.08h39.84V607.8h40.08zm60.96 180h38.16c5.44 0 10.56-1.04 15.36-3.12 4.96-2.24 9.28-5.2 12.96-8.88 3.84-3.84 6.88-8.16 9.12-12.96a37.483 37.483 0 0 0 3.36-15.6v-98.88c0-5.12-1.12-10.08-3.36-14.88-2.08-4.96-4.96-9.28-8.64-12.96-3.68-3.84-8-6.88-12.96-9.12-4.96-2.4-10.24-3.6-15.84-3.6h-38.16c-5.6 0-10.88 1.2-15.84 3.6-4.96 2.24-9.28 5.28-12.96 9.12-3.68 3.68-6.64 8-8.88 12.96-2.08 4.8-3.12 9.76-3.12 14.88v98.88c0 5.44 1.12 10.64 3.36 15.6 2.24 4.8 5.2 9.12 8.88 12.96 3.84 3.68 8.16 6.64 12.96 8.88 4.96 2.08 10.16 3.12 15.6 3.12zm39.12-20.16h-40.08V607.8h40.08zm119.998-80.16v-60h40.08v60zm-39.84 100.32h39.84v-79.92h40.08v79.92h39.84V712.2c0-6.88-1.12-12.48-3.36-16.8-2.24-4.48-4.72-8-7.44-10.56-2.56-2.72-4.96-4.56-7.2-5.52l-3.36-1.68 3.36-1.2c2.24-.8 4.64-2.32 7.2-4.56 2.72-2.4 5.2-5.68 7.44-9.84 2.24-4.32 3.36-9.92 3.36-16.8v-17.28c0-5.92-.96-11.36-2.88-16.32-1.76-4.96-4.4-9.2-7.92-12.72-3.52-3.52-7.76-6.24-12.72-8.16-4.8-1.92-10.24-2.88-16.32-2.88h-79.92zm201.598-180c-4.64 0-9.44 1.12-14.4 3.36-4.8 2.24-9.2 5.2-13.2 8.88-3.84 3.68-7.04 8-9.6 12.96-2.4 4.96-3.6 10.08-3.6 15.36v139.44h39.84v-79.92h39.36v79.92c1.28.16 3.76.24 7.44.24h11.76c4.32 0 8.4-.08 12.24-.24h8.64V628.44c0-5.28-1.28-10.32-3.84-15.12-2.56-4.96-5.84-9.28-9.84-12.96a44.3 44.3 0 0 0-13.2-9.12c-4.96-2.24-9.84-3.36-14.64-3.36zm-.96 79.68v-60h39.36v60zm179.279 20.16h20.16v60h-40.08V607.8h44.16c4.96 0 8.88 1.84 11.76 5.52 2.88 3.52 4.32 8.56 4.32 15.12h19.68c0-5.12-1.12-10.08-3.36-14.88-2.24-4.96-5.28-9.28-9.12-12.96a44.3 44.3 0 0 0-13.2-9.12c-4.961-2.4-10.08-3.6-15.36-3.6h-38.16c-5.6 0-10.88 1.2-15.84 3.6-4.96 2.24-9.28 5.28-12.96 9.12-3.68 3.84-6.56 8.24-8.64 13.2-2.08 4.8-3.12 9.76-3.12 14.88v98.4c0 5.6 1.04 10.88 3.12 15.84 2.08 4.96 4.96 9.28 8.64 12.96 3.68 3.68 7.92 6.64 12.72 8.88 4.96 2.08 10.32 3.12 16.08 3.12h38.4c6.08 0 11.599-1.12 16.56-3.36 4.96-2.24 9.2-5.2 12.72-8.88 3.68-3.68 6.48-8 8.4-12.96 2.08-4.96 3.12-10.16 3.12-15.6v-59.76h-60zm180.242.24v-20.4h-40.08V607.8h60v-19.92h-99.844v180h99.844v-20.16h-60v-59.76z" fill="#f5c32c"/><path d="M70 631.44c0 4.32 1.44 8.8 4.32 13.44 3.04 4.48 6.72 9.04 11.04 13.68 4.48 4.64 9.28 9.28 14.4 13.92 5.28 4.48 10.08 8.8 14.4 12.96 4.48 4.16 8.16 8.16 11.04 12 3.04 3.68 4.56 6.96 4.56 9.84v29.28h-18.24c-6.4 0-11.6-1.92-15.6-5.76-3.84-3.84-5.76-8.8-5.76-14.88H70c0 5.6 1.04 10.88 3.12 15.84 2.24 4.8 5.2 9.04 8.88 12.72 3.84 3.68 8.24 6.64 13.2 8.88 5.12 2.08 10.56 3.12 16.32 3.12h16.8c6.08 0 11.6-1.04 16.56-3.12 5.12-2.24 9.44-5.2 12.96-8.88 3.68-3.84 6.48-8.16 8.4-12.96 2.08-4.96 3.12-10.16 3.12-15.6v-14.64c0-4.8-1.52-9.68-4.56-14.64-2.88-5.12-6.56-10.08-11.04-14.88-4.32-4.96-9.04-9.76-14.16-14.4-5.12-4.64-9.92-8.96-14.4-12.96-4.32-4.16-8-7.92-11.04-11.28-2.88-3.36-4.32-6.24-4.32-8.64v-28.32h15.84c7.68 0 13.6 1.84 17.76 5.52 4.32 3.52 6.48 8.48 6.48 14.88h19.68c0-5.44-1.12-10.56-3.36-15.36-2.08-4.96-5.04-9.2-8.88-12.72-3.68-3.68-8-6.56-12.96-8.64-4.96-2.24-10.24-3.36-15.84-3.36h-17.04c-5.76 0-11.2 1.04-16.32 3.12-4.96 2.08-9.36 4.96-13.2 8.64-3.68 3.68-6.64 8-8.88 12.96C71.04 606 70 611.28 70 617.04zm239.293-54.96h-120v19.92h40.08v160.08h39.84V596.4h40.08zm60.96 180h38.16c5.44 0 10.56-1.04 15.36-3.12 4.96-2.24 9.28-5.2 12.96-8.88 3.84-3.84 6.88-8.16 9.12-12.96a37.483 37.483 0 0 0 3.36-15.6v-98.88c0-5.12-1.12-10.08-3.36-14.88-2.08-4.96-4.96-9.28-8.64-12.96-3.68-3.84-8-6.88-12.96-9.12-4.96-2.4-10.24-3.6-15.84-3.6h-38.16c-5.6 0-10.88 1.2-15.84 3.6-4.96 2.24-9.28 5.28-12.96 9.12-3.68 3.68-6.64 8-8.88 12.96-2.08 4.8-3.12 9.76-3.12 14.88v98.88c0 5.44 1.12 10.64 3.36 15.6 2.24 4.8 5.2 9.12 8.88 12.96 3.84 3.68 8.16 6.64 12.96 8.88 4.96 2.08 10.16 3.12 15.6 3.12zm39.12-20.16h-40.08V596.4h40.08zm119.998-80.16v-60h40.08v60zm-39.84 100.32h39.84v-79.92h40.08v79.92h39.84V700.8c0-6.88-1.12-12.48-3.36-16.8-2.24-4.48-4.72-8-7.44-10.56-2.56-2.72-4.96-4.56-7.2-5.52l-3.36-1.68 3.36-1.2c2.24-.8 4.64-2.32 7.2-4.56 2.72-2.4 5.2-5.68 7.44-9.84 2.24-4.32 3.36-9.92 3.36-16.8v-17.28c0-5.92-.96-11.36-2.88-16.32-1.76-4.96-4.4-9.2-7.92-12.72-3.52-3.52-7.76-6.24-12.72-8.16-4.8-1.92-10.24-2.88-16.32-2.88h-79.92zm201.598-180c-4.64 0-9.44 1.12-14.4 3.36-4.8 2.24-9.2 5.2-13.2 8.88-3.84 3.68-7.04 8-9.6 12.96-2.4 4.96-3.6 10.08-3.6 15.36v139.44h39.84v-79.92h39.36v79.92c1.28.16 3.76.24 7.44.24h11.76c4.32 0 8.4-.08 12.24-.24h8.64V617.04c0-5.28-1.28-10.32-3.84-15.12-2.56-4.96-5.84-9.28-9.84-12.96a44.3 44.3 0 0 0-13.2-9.12c-4.96-2.24-9.84-3.36-14.64-3.36zm-.96 79.68v-60h39.36v60zm179.279 20.16h20.16v60h-40.08V596.4h44.16c4.96 0 8.88 1.84 11.76 5.52 2.88 3.52 4.32 8.56 4.32 15.12h19.68c0-5.12-1.12-10.08-3.36-14.88-2.24-4.96-5.28-9.28-9.12-12.96a44.3 44.3 0 0 0-13.2-9.12c-4.961-2.4-10.08-3.6-15.36-3.6h-38.16c-5.6 0-10.88 1.2-15.84 3.6-4.96 2.24-9.28 5.28-12.96 9.12-3.68 3.84-6.56 8.24-8.64 13.2-2.08 4.8-3.12 9.76-3.12 14.88v98.4c0 5.6 1.04 10.88 3.12 15.84 2.08 4.96 4.96 9.28 8.64 12.96 3.68 3.68 7.92 6.64 12.72 8.88 4.96 2.08 10.32 3.12 16.08 3.12h38.4c6.08 0 11.599-1.12 16.56-3.36 4.96-2.24 9.2-5.2 12.72-8.88 3.68-3.68 6.48-8 8.4-12.96 2.08-4.96 3.12-10.16 3.12-15.6v-59.76h-60zm180.242.24v-20.4h-40.08V596.4h60v-19.92h-99.844v180h99.844v-20.16h-60v-59.76z" stroke="#000" stroke-width="2" mask="url(#c)" transform="translate(-14.805 11.4)"/><mask id="d" maskUnits="userSpaceOnUse" x="69" y="565.24" width="1002" height="183" fill="#000"><path fill="#fff" d="M69 565.24h1002v183H69z"/><path d="M70 621.2c0 4.32 1.44 8.8 4.32 13.44 3.04 4.48 6.72 9.04 11.04 13.68 4.48 4.64 9.28 9.28 14.4 13.92 5.28 4.48 10.08 8.8 14.4 12.96 4.48 4.16 8.16 8.16 11.04 12 3.04 3.68 4.56 6.96 4.56 9.84v29.28h-18.24c-6.4 0-11.6-1.92-15.6-5.76-3.84-3.84-5.76-8.8-5.76-14.88H70c0 5.6 1.04 10.88 3.12 15.84 2.24 4.8 5.2 9.04 8.88 12.72 3.84 3.68 8.24 6.64 13.2 8.88 5.12 2.08 10.56 3.12 16.32 3.12h16.8c6.08 0 11.6-1.04 16.56-3.12 5.12-2.24 9.44-5.2 12.96-8.88 3.68-3.84 6.48-8.16 8.4-12.96 2.08-4.96 3.12-10.16 3.12-15.6v-14.64c0-4.8-1.52-9.68-4.56-14.64-2.88-5.12-6.56-10.08-11.04-14.88-4.32-4.96-9.04-9.76-14.16-14.4-5.12-4.64-9.92-8.96-14.4-12.96-4.32-4.16-8-7.92-11.04-11.28-2.88-3.36-4.32-6.24-4.32-8.64v-28.32h15.84c7.68 0 13.6 1.84 17.76 5.52 4.32 3.52 6.48 8.48 6.48 14.88h19.68c0-5.44-1.12-10.56-3.36-15.36-2.08-4.96-5.04-9.2-8.88-12.72-3.68-3.68-8-6.56-12.96-8.64-4.96-2.24-10.24-3.36-15.84-3.36h-17.04c-5.76 0-11.2 1.04-16.32 3.12-4.96 2.08-9.36 4.96-13.2 8.64-3.68 3.68-6.64 8-8.88 12.96-2.08 4.8-3.12 10.08-3.12 15.84zm239.293-54.96h-120v19.92h40.08v160.08h39.84V586.16h40.08zm60.96 180h38.16c5.44 0 10.56-1.04 15.36-3.12 4.96-2.24 9.28-5.2 12.96-8.88 3.84-3.84 6.88-8.16 9.12-12.96a37.483 37.483 0 0 0 3.36-15.6V606.8c0-5.12-1.12-10.08-3.36-14.88-2.08-4.96-4.96-9.28-8.64-12.96-3.68-3.84-8-6.88-12.96-9.12-4.96-2.4-10.24-3.6-15.84-3.6h-38.16c-5.6 0-10.88 1.2-15.84 3.6-4.96 2.24-9.28 5.28-12.96 9.12-3.68 3.68-6.64 8-8.88 12.96-2.08 4.8-3.12 9.76-3.12 14.88v98.88c0 5.44 1.12 10.64 3.36 15.6 2.24 4.8 5.2 9.12 8.88 12.96 3.84 3.68 8.16 6.64 12.96 8.88 4.96 2.08 10.16 3.12 15.6 3.12zm39.12-20.16h-40.08V586.16h40.08zm119.998-80.16v-60h40.08v60zm-39.84 100.32h39.84v-79.92h40.08v79.92h39.84v-55.68c0-6.88-1.12-12.48-3.36-16.8-2.24-4.48-4.72-8-7.44-10.56-2.56-2.72-4.96-4.56-7.2-5.52l-3.36-1.68 3.36-1.2c2.24-.8 4.64-2.32 7.2-4.56 2.72-2.4 5.2-5.68 7.44-9.84 2.24-4.32 3.36-9.92 3.36-16.8v-17.28c0-5.92-.96-11.36-2.88-16.32-1.76-4.96-4.4-9.2-7.92-12.72-3.52-3.52-7.76-6.24-12.72-8.16-4.8-1.92-10.24-2.88-16.32-2.88h-79.92zm201.598-180c-4.64 0-9.44 1.12-14.4 3.36-4.8 2.24-9.2 5.2-13.2 8.88-3.84 3.68-7.04 8-9.6 12.96-2.4 4.96-3.6 10.08-3.6 15.36v139.44h39.84v-79.92h39.36v79.92c1.28.16 3.76.24 7.44.24h11.76c4.32 0 8.4-.08 12.24-.24h8.64V606.8c0-5.28-1.28-10.32-3.84-15.12-2.56-4.96-5.84-9.28-9.84-12.96a44.3 44.3 0 0 0-13.2-9.12c-4.96-2.24-9.84-3.36-14.64-3.36zm-.96 79.68v-60h39.36v60zm179.279 20.16h20.16v60h-40.08V586.16h44.16c4.96 0 8.88 1.84 11.76 5.52 2.88 3.52 4.32 8.56 4.32 15.12h19.68c0-5.12-1.12-10.08-3.36-14.88-2.24-4.96-5.28-9.28-9.12-12.96a44.3 44.3 0 0 0-13.2-9.12c-4.961-2.4-10.08-3.6-15.36-3.6h-38.16c-5.6 0-10.88 1.2-15.84 3.6-4.96 2.24-9.28 5.28-12.96 9.12-3.68 3.84-6.56 8.24-8.64 13.2-2.08 4.8-3.12 9.76-3.12 14.88v98.4c0 5.6 1.04 10.88 3.12 15.84 2.08 4.96 4.96 9.28 8.64 12.96 3.68 3.68 7.92 6.64 12.72 8.88 4.96 2.08 10.32 3.12 16.08 3.12h38.4c6.08 0 11.599-1.12 16.56-3.36 4.96-2.24 9.2-5.2 12.72-8.88 3.68-3.68 6.48-8 8.4-12.96 2.08-4.96 3.12-10.16 3.12-15.6v-59.76h-60zm180.242.24v-20.4h-40.08v-59.76h60v-19.92h-99.844v180h99.844v-20.16h-60v-59.76z"/></mask><path d="M55.195 632.6c0 4.32 1.44 8.8 4.32 13.44 3.04 4.48 6.72 9.04 11.04 13.68 4.48 4.64 9.28 9.28 14.4 13.92 5.28 4.48 10.08 8.8 14.4 12.96 4.48 4.16 8.16 8.16 11.04 12 3.04 3.68 4.56 6.96 4.56 9.84v29.28h-18.24c-6.4 0-11.6-1.92-15.6-5.76-3.84-3.84-5.76-8.8-5.76-14.88h-20.16c0 5.6 1.04 10.88 3.12 15.84 2.24 4.8 5.2 9.04 8.88 12.72 3.84 3.68 8.24 6.64 13.2 8.88 5.12 2.08 10.56 3.12 16.32 3.12h16.8c6.08 0 11.6-1.04 16.56-3.12 5.12-2.24 9.44-5.2 12.96-8.88 3.68-3.84 6.48-8.16 8.4-12.96 2.08-4.96 3.12-10.16 3.12-15.6v-14.64c0-4.8-1.52-9.68-4.56-14.64-2.88-5.12-6.56-10.08-11.04-14.88-4.32-4.96-9.04-9.76-14.16-14.4-5.12-4.64-9.92-8.96-14.4-12.96-4.32-4.16-8-7.92-11.04-11.28-2.88-3.36-4.32-6.24-4.32-8.64v-28.32h15.84c7.68 0 13.6 1.84 17.76 5.52 4.32 3.52 6.48 8.48 6.48 14.88h19.68c0-5.44-1.12-10.56-3.36-15.36-2.08-4.96-5.04-9.2-8.88-12.72-3.68-3.68-8-6.56-12.96-8.64-4.96-2.24-10.24-3.36-15.84-3.36h-17.04c-5.76 0-11.2 1.04-16.32 3.12-4.96 2.08-9.36 4.96-13.2 8.64-3.68 3.68-6.64 8-8.88 12.96-2.08 4.8-3.12 10.08-3.12 15.84zm239.293-54.96h-120v19.92h40.08v160.08h39.84V597.56h40.08zm60.96 180h38.16c5.44 0 10.56-1.04 15.36-3.12 4.96-2.24 9.28-5.2 12.96-8.88 3.84-3.84 6.88-8.16 9.12-12.96a37.483 37.483 0 0 0 3.36-15.6V618.2c0-5.12-1.12-10.08-3.36-14.88-2.08-4.96-4.96-9.28-8.64-12.96-3.68-3.84-8-6.88-12.96-9.12-4.96-2.4-10.24-3.6-15.84-3.6h-38.16c-5.6 0-10.88 1.2-15.84 3.6-4.96 2.24-9.28 5.28-12.96 9.12-3.68 3.68-6.64 8-8.88 12.96-2.08 4.8-3.12 9.76-3.12 14.88v98.88c0 5.44 1.12 10.64 3.36 15.6 2.24 4.8 5.2 9.12 8.88 12.96 3.84 3.68 8.16 6.64 12.96 8.88 4.96 2.08 10.16 3.12 15.6 3.12zm39.12-20.16h-40.08V597.56h40.08zm119.998-80.16v-60h40.08v60zm-39.84 100.32h39.84v-79.92h40.08v79.92h39.84v-55.68c0-6.88-1.12-12.48-3.36-16.8-2.24-4.48-4.72-8-7.44-10.56-2.56-2.72-4.96-4.56-7.2-5.52l-3.36-1.68 3.36-1.2c2.24-.8 4.64-2.32 7.2-4.56 2.72-2.4 5.2-5.68 7.44-9.84 2.24-4.32 3.36-9.92 3.36-16.8v-17.28c0-5.92-.96-11.36-2.88-16.32-1.76-4.96-4.4-9.2-7.92-12.72-3.52-3.52-7.76-6.24-12.72-8.16-4.8-1.92-10.24-2.88-16.32-2.88h-79.92zm201.598-180c-4.64 0-9.44 1.12-14.4 3.36-4.8 2.24-9.2 5.2-13.2 8.88-3.84 3.68-7.04 8-9.6 12.96-2.4 4.96-3.6 10.08-3.6 15.36v139.44h39.84v-79.92h39.36v79.92c1.28.16 3.76.24 7.44.24h11.76c4.32 0 8.4-.08 12.24-.24h8.64V618.2c0-5.28-1.28-10.32-3.84-15.12-2.56-4.96-5.84-9.28-9.84-12.96a44.3 44.3 0 0 0-13.2-9.12c-4.96-2.24-9.84-3.36-14.64-3.36zm-.96 79.68v-60h39.36v60zm179.279 20.16h20.16v60h-40.08V597.56h44.16c4.96 0 8.88 1.84 11.76 5.52 2.88 3.52 4.32 8.56 4.32 15.12h19.68c0-5.12-1.12-10.08-3.36-14.88-2.24-4.96-5.28-9.28-9.12-12.96a44.3 44.3 0 0 0-13.2-9.12c-4.961-2.4-10.08-3.6-15.36-3.6h-38.16c-5.6 0-10.88 1.2-15.84 3.6-4.96 2.24-9.28 5.28-12.96 9.12-3.68 3.84-6.56 8.24-8.64 13.2-2.08 4.8-3.12 9.76-3.12 14.88v98.4c0 5.6 1.04 10.88 3.12 15.84 2.08 4.96 4.96 9.28 8.64 12.96 3.68 3.68 7.92 6.64 12.72 8.88 4.96 2.08 10.32 3.12 16.08 3.12h38.4c6.08 0 11.599-1.12 16.56-3.36 4.96-2.24 9.2-5.2 12.72-8.88 3.68-3.68 6.48-8 8.4-12.96 2.08-4.96 3.12-10.16 3.12-15.6v-59.76h-60zm180.242.24v-20.4h-40.08v-59.76h60v-19.92h-99.844v180h99.844v-20.16h-60v-59.76z" fill="#f5c32c"/><path d="M70 621.2c0 4.32 1.44 8.8 4.32 13.44 3.04 4.48 6.72 9.04 11.04 13.68 4.48 4.64 9.28 9.28 14.4 13.92 5.28 4.48 10.08 8.8 14.4 12.96 4.48 4.16 8.16 8.16 11.04 12 3.04 3.68 4.56 6.96 4.56 9.84v29.28h-18.24c-6.4 0-11.6-1.92-15.6-5.76-3.84-3.84-5.76-8.8-5.76-14.88H70c0 5.6 1.04 10.88 3.12 15.84 2.24 4.8 5.2 9.04 8.88 12.72 3.84 3.68 8.24 6.64 13.2 8.88 5.12 2.08 10.56 3.12 16.32 3.12h16.8c6.08 0 11.6-1.04 16.56-3.12 5.12-2.24 9.44-5.2 12.96-8.88 3.68-3.84 6.48-8.16 8.4-12.96 2.08-4.96 3.12-10.16 3.12-15.6v-14.64c0-4.8-1.52-9.68-4.56-14.64-2.88-5.12-6.56-10.08-11.04-14.88-4.32-4.96-9.04-9.76-14.16-14.4-5.12-4.64-9.92-8.96-14.4-12.96-4.32-4.16-8-7.92-11.04-11.28-2.88-3.36-4.32-6.24-4.32-8.64v-28.32h15.84c7.68 0 13.6 1.84 17.76 5.52 4.32 3.52 6.48 8.48 6.48 14.88h19.68c0-5.44-1.12-10.56-3.36-15.36-2.08-4.96-5.04-9.2-8.88-12.72-3.68-3.68-8-6.56-12.96-8.64-4.96-2.24-10.24-3.36-15.84-3.36h-17.04c-5.76 0-11.2 1.04-16.32 3.12-4.96 2.08-9.36 4.96-13.2 8.64-3.68 3.68-6.64 8-8.88 12.96-2.08 4.8-3.12 10.08-3.12 15.84zm239.293-54.96h-120v19.92h40.08v160.08h39.84V586.16h40.08zm60.96 180h38.16c5.44 0 10.56-1.04 15.36-3.12 4.96-2.24 9.28-5.2 12.96-8.88 3.84-3.84 6.88-8.16 9.12-12.96a37.483 37.483 0 0 0 3.36-15.6V606.8c0-5.12-1.12-10.08-3.36-14.88-2.08-4.96-4.96-9.28-8.64-12.96-3.68-3.84-8-6.88-12.96-9.12-4.96-2.4-10.24-3.6-15.84-3.6h-38.16c-5.6 0-10.88 1.2-15.84 3.6-4.96 2.24-9.28 5.28-12.96 9.12-3.68 3.68-6.64 8-8.88 12.96-2.08 4.8-3.12 9.76-3.12 14.88v98.88c0 5.44 1.12 10.64 3.36 15.6 2.24 4.8 5.2 9.12 8.88 12.96 3.84 3.68 8.16 6.64 12.96 8.88 4.96 2.08 10.16 3.12 15.6 3.12zm39.12-20.16h-40.08V586.16h40.08zm119.998-80.16v-60h40.08v60zm-39.84 100.32h39.84v-79.92h40.08v79.92h39.84v-55.68c0-6.88-1.12-12.48-3.36-16.8-2.24-4.48-4.72-8-7.44-10.56-2.56-2.72-4.96-4.56-7.2-5.52l-3.36-1.68 3.36-1.2c2.24-.8 4.64-2.32 7.2-4.56 2.72-2.4 5.2-5.68 7.44-9.84 2.24-4.32 3.36-9.92 3.36-16.8v-17.28c0-5.92-.96-11.36-2.88-16.32-1.76-4.96-4.4-9.2-7.92-12.72-3.52-3.52-7.76-6.24-12.72-8.16-4.8-1.92-10.24-2.88-16.32-2.88h-79.92zm201.598-180c-4.64 0-9.44 1.12-14.4 3.36-4.8 2.24-9.2 5.2-13.2 8.88-3.84 3.68-7.04 8-9.6 12.96-2.4 4.96-3.6 10.08-3.6 15.36v139.44h39.84v-79.92h39.36v79.92c1.28.16 3.76.24 7.44.24h11.76c4.32 0 8.4-.08 12.24-.24h8.64V606.8c0-5.28-1.28-10.32-3.84-15.12-2.56-4.96-5.84-9.28-9.84-12.96a44.3 44.3 0 0 0-13.2-9.12c-4.96-2.24-9.84-3.36-14.64-3.36zm-.96 79.68v-60h39.36v60zm179.279 20.16h20.16v60h-40.08V586.16h44.16c4.96 0 8.88 1.84 11.76 5.52 2.88 3.52 4.32 8.56 4.32 15.12h19.68c0-5.12-1.12-10.08-3.36-14.88-2.24-4.96-5.28-9.28-9.12-12.96a44.3 44.3 0 0 0-13.2-9.12c-4.961-2.4-10.08-3.6-15.36-3.6h-38.16c-5.6 0-10.88 1.2-15.84 3.6-4.96 2.24-9.28 5.28-12.96 9.12-3.68 3.84-6.56 8.24-8.64 13.2-2.08 4.8-3.12 9.76-3.12 14.88v98.4c0 5.6 1.04 10.88 3.12 15.84 2.08 4.96 4.96 9.28 8.64 12.96 3.68 3.68 7.92 6.64 12.72 8.88 4.96 2.08 10.32 3.12 16.08 3.12h38.4c6.08 0 11.599-1.12 16.56-3.36 4.96-2.24 9.2-5.2 12.72-8.88 3.68-3.68 6.48-8 8.4-12.96 2.08-4.96 3.12-10.16 3.12-15.6v-59.76h-60zm180.242.24v-20.4h-40.08v-59.76h60v-19.92h-99.844v180h99.844v-20.16h-60v-59.76z" stroke="#000" stroke-width="2" mask="url(#d)" transform="translate(-14.805 11.4)"/><mask id="e" maskUnits="userSpaceOnUse" x="69" y="555" width="1002" height="183" fill="#000"><path fill="#fff" d="M69 555h1002v183H69z"/><path d="M70 610.96c0 4.32 1.44 8.8 4.32 13.44 3.04 4.48 6.72 9.04 11.04 13.68 4.48 4.64 9.28 9.28 14.4 13.92 5.28 4.48 10.08 8.8 14.4 12.96 4.48 4.16 8.16 8.16 11.04 12 3.04 3.68 4.56 6.96 4.56 9.84v29.28h-18.24c-6.4 0-11.6-1.92-15.6-5.76-3.84-3.84-5.76-8.8-5.76-14.88H70c0 5.6 1.04 10.88 3.12 15.84 2.24 4.8 5.2 9.04 8.88 12.72 3.84 3.68 8.24 6.64 13.2 8.88 5.12 2.08 10.56 3.12 16.32 3.12h16.8c6.08 0 11.6-1.04 16.56-3.12 5.12-2.24 9.44-5.2 12.96-8.88 3.68-3.84 6.48-8.16 8.4-12.96 2.08-4.96 3.12-10.16 3.12-15.6V680.8c0-4.8-1.52-9.68-4.56-14.64-2.88-5.12-6.56-10.08-11.04-14.88-4.32-4.96-9.04-9.76-14.16-14.4-5.12-4.64-9.92-8.96-14.4-12.96-4.32-4.16-8-7.92-11.04-11.28-2.88-3.36-4.32-6.24-4.32-8.64v-28.32h15.84c7.68 0 13.6 1.84 17.76 5.52 4.32 3.52 6.48 8.48 6.48 14.88h19.68c0-5.44-1.12-10.56-3.36-15.36-2.08-4.96-5.04-9.2-8.88-12.72-3.68-3.68-8-6.56-12.96-8.64-4.96-2.24-10.24-3.36-15.84-3.36h-17.04c-5.76 0-11.2 1.04-16.32 3.12-4.96 2.08-9.36 4.96-13.2 8.64-3.68 3.68-6.64 8-8.88 12.96-2.08 4.8-3.12 10.08-3.12 15.84zM309.293 556h-120v19.92h40.08V736h39.84V575.92h40.08zm60.96 180h38.16c5.44 0 10.56-1.04 15.36-3.12 4.96-2.24 9.28-5.2 12.96-8.88 3.84-3.84 6.88-8.16 9.12-12.96a37.483 37.483 0 0 0 3.36-15.6v-98.88c0-5.12-1.12-10.08-3.36-14.88-2.08-4.96-4.96-9.28-8.64-12.96-3.68-3.84-8-6.88-12.96-9.12-4.96-2.4-10.24-3.6-15.84-3.6h-38.16c-5.6 0-10.88 1.2-15.84 3.6-4.96 2.24-9.28 5.28-12.96 9.12-3.68 3.68-6.64 8-8.88 12.96-2.08 4.8-3.12 9.76-3.12 14.88v98.88c0 5.44 1.12 10.64 3.36 15.6 2.24 4.8 5.2 9.12 8.88 12.96 3.84 3.68 8.16 6.64 12.96 8.88 4.96 2.08 10.16 3.12 15.6 3.12zm39.12-20.16h-40.08V575.92h40.08zm119.998-80.16v-60h40.08v60zM489.531 736h39.84v-79.92h40.08V736h39.84v-55.68c0-6.88-1.12-12.48-3.36-16.8-2.24-4.48-4.72-8-7.44-10.56-2.56-2.72-4.96-4.56-7.2-5.52l-3.36-1.68 3.36-1.2c2.24-.8 4.64-2.32 7.2-4.56 2.72-2.4 5.2-5.68 7.44-9.84 2.24-4.32 3.36-9.92 3.36-16.8v-17.28c0-5.92-.96-11.36-2.88-16.32-1.76-4.96-4.4-9.2-7.92-12.72-3.52-3.52-7.76-6.24-12.72-8.16-4.8-1.92-10.24-2.88-16.32-2.88h-79.92zm201.598-180c-4.64 0-9.44 1.12-14.4 3.36-4.8 2.24-9.2 5.2-13.2 8.88-3.84 3.68-7.04 8-9.6 12.96-2.4 4.96-3.6 10.08-3.6 15.36V736h39.84v-79.92h39.36V736c1.28.16 3.76.24 7.44.24h11.76c4.32 0 8.4-.08 12.24-.24h8.64V596.56c0-5.28-1.28-10.32-3.84-15.12-2.56-4.96-5.84-9.28-9.84-12.96a44.3 44.3 0 0 0-13.2-9.12c-4.96-2.24-9.84-3.36-14.64-3.36zm-.96 79.68v-60h39.36v60zm179.279 20.16h20.16v60h-40.08V575.92h44.16c4.96 0 8.88 1.84 11.76 5.52 2.88 3.52 4.32 8.56 4.32 15.12h19.68c0-5.12-1.12-10.08-3.36-14.88-2.24-4.96-5.28-9.28-9.12-12.96a44.3 44.3 0 0 0-13.2-9.12c-4.961-2.4-10.08-3.6-15.36-3.6h-38.16c-5.6 0-10.88 1.2-15.84 3.6-4.96 2.24-9.28 5.28-12.96 9.12-3.68 3.84-6.56 8.24-8.64 13.2-2.08 4.8-3.12 9.76-3.12 14.88v98.4c0 5.6 1.04 10.88 3.12 15.84 2.08 4.96 4.96 9.28 8.64 12.96 3.68 3.68 7.92 6.64 12.72 8.88 4.96 2.08 10.32 3.12 16.08 3.12h38.4c6.08 0 11.599-1.12 16.56-3.36 4.96-2.24 9.2-5.2 12.72-8.88 3.68-3.68 6.48-8 8.4-12.96 2.08-4.96 3.12-10.16 3.12-15.6v-59.76h-60zm180.242.24v-20.4h-40.08v-59.76h60V556h-99.844v180h99.844v-20.16h-60v-59.76z"/></mask><path d="M55.195 622.36c0 4.32 1.44 8.8 4.32 13.44 3.04 4.48 6.72 9.04 11.04 13.68 4.48 4.64 9.28 9.28 14.4 13.92 5.28 4.48 10.08 8.8 14.4 12.96 4.48 4.16 8.16 8.16 11.04 12 3.04 3.68 4.56 6.96 4.56 9.84v29.28h-18.24c-6.4 0-11.6-1.92-15.6-5.76-3.84-3.84-5.76-8.8-5.76-14.88h-20.16c0 5.6 1.04 10.88 3.12 15.84 2.24 4.8 5.2 9.04 8.88 12.72 3.84 3.68 8.24 6.64 13.2 8.88 5.12 2.08 10.56 3.12 16.32 3.12h16.8c6.08 0 11.6-1.04 16.56-3.12 5.12-2.24 9.44-5.2 12.96-8.88 3.68-3.84 6.48-8.16 8.4-12.96 2.08-4.96 3.12-10.16 3.12-15.6V692.2c0-4.8-1.52-9.68-4.56-14.64-2.88-5.12-6.56-10.08-11.04-14.88-4.32-4.96-9.04-9.76-14.16-14.4-5.12-4.64-9.92-8.96-14.4-12.96-4.32-4.16-8-7.92-11.04-11.28-2.88-3.36-4.32-6.24-4.32-8.64v-28.32h15.84c7.68 0 13.6 1.84 17.76 5.52 4.32 3.52 6.48 8.48 6.48 14.88h19.68c0-5.44-1.12-10.56-3.36-15.36-2.08-4.96-5.04-9.2-8.88-12.72-3.68-3.68-8-6.56-12.96-8.64-4.96-2.24-10.24-3.36-15.84-3.36h-17.04c-5.76 0-11.2 1.04-16.32 3.12-4.96 2.08-9.36 4.96-13.2 8.64-3.68 3.68-6.64 8-8.88 12.96-2.08 4.8-3.12 10.08-3.12 15.84zm239.293-54.96h-120v19.92h40.08V747.4h39.84V587.32h40.08zm60.96 180h38.16c5.44 0 10.56-1.04 15.36-3.12 4.96-2.24 9.28-5.2 12.96-8.88 3.84-3.84 6.88-8.16 9.12-12.96a37.483 37.483 0 0 0 3.36-15.6v-98.88c0-5.12-1.12-10.08-3.36-14.88-2.08-4.96-4.96-9.28-8.64-12.96-3.68-3.84-8-6.88-12.96-9.12-4.96-2.4-10.24-3.6-15.84-3.6h-38.16c-5.6 0-10.88 1.2-15.84 3.6-4.96 2.24-9.28 5.28-12.96 9.12-3.68 3.68-6.64 8-8.88 12.96-2.08 4.8-3.12 9.76-3.12 14.88v98.88c0 5.44 1.12 10.64 3.36 15.6 2.24 4.8 5.2 9.12 8.88 12.96 3.84 3.68 8.16 6.64 12.96 8.88 4.96 2.08 10.16 3.12 15.6 3.12zm39.12-20.16h-40.08V587.32h40.08zm119.998-80.16v-60h40.08v60zm-39.84 100.32h39.84v-79.92h40.08v79.92h39.84v-55.68c0-6.88-1.12-12.48-3.36-16.8-2.24-4.48-4.72-8-7.44-10.56-2.56-2.72-4.96-4.56-7.2-5.52l-3.36-1.68 3.36-1.2c2.24-.8 4.64-2.32 7.2-4.56 2.72-2.4 5.2-5.68 7.44-9.84 2.24-4.32 3.36-9.92 3.36-16.8v-17.28c0-5.92-.96-11.36-2.88-16.32-1.76-4.96-4.4-9.2-7.92-12.72-3.52-3.52-7.76-6.24-12.72-8.16-4.8-1.92-10.24-2.88-16.32-2.88h-79.92zm201.598-180c-4.64 0-9.44 1.12-14.4 3.36-4.8 2.24-9.2 5.2-13.2 8.88-3.84 3.68-7.04 8-9.6 12.96-2.4 4.96-3.6 10.08-3.6 15.36V747.4h39.84v-79.92h39.36v79.92c1.28.16 3.76.24 7.44.24h11.76c4.32 0 8.4-.08 12.24-.24h8.64V607.96c0-5.28-1.28-10.32-3.84-15.12-2.56-4.96-5.84-9.28-9.84-12.96a44.301 44.301 0 0 0-13.2-9.12c-4.96-2.24-9.84-3.36-14.64-3.36zm-.96 79.68v-60h39.36v60zm179.279 20.16h20.16v60h-40.08V587.32h44.16c4.96 0 8.88 1.84 11.76 5.52 2.88 3.52 4.32 8.56 4.32 15.12h19.68c0-5.12-1.12-10.08-3.36-14.88-2.24-4.96-5.28-9.28-9.12-12.96a44.3 44.3 0 0 0-13.2-9.12c-4.961-2.4-10.08-3.6-15.36-3.6h-38.16c-5.6 0-10.88 1.2-15.84 3.6-4.96 2.24-9.28 5.28-12.96 9.12-3.68 3.84-6.56 8.24-8.64 13.2-2.08 4.8-3.12 9.76-3.12 14.88v98.4c0 5.6 1.04 10.88 3.12 15.84 2.08 4.96 4.96 9.28 8.64 12.96 3.68 3.68 7.92 6.64 12.72 8.88 4.96 2.08 10.32 3.12 16.08 3.12h38.4c6.08 0 11.599-1.12 16.56-3.36 4.96-2.24 9.2-5.2 12.72-8.88 3.68-3.68 6.48-8 8.4-12.96 2.08-4.96 3.12-10.16 3.12-15.6v-59.76h-60zm180.242.24v-20.4h-40.08v-59.76h60V567.4h-99.844v180h99.844v-20.16h-60v-59.76z" fill="#fff"/><path d="M70 610.96c0 4.32 1.44 8.8 4.32 13.44 3.04 4.48 6.72 9.04 11.04 13.68 4.48 4.64 9.28 9.28 14.4 13.92 5.28 4.48 10.08 8.8 14.4 12.96 4.48 4.16 8.16 8.16 11.04 12 3.04 3.68 4.56 6.96 4.56 9.84v29.28h-18.24c-6.4 0-11.6-1.92-15.6-5.76-3.84-3.84-5.76-8.8-5.76-14.88H70c0 5.6 1.04 10.88 3.12 15.84 2.24 4.8 5.2 9.04 8.88 12.72 3.84 3.68 8.24 6.64 13.2 8.88 5.12 2.08 10.56 3.12 16.32 3.12h16.8c6.08 0 11.6-1.04 16.56-3.12 5.12-2.24 9.44-5.2 12.96-8.88 3.68-3.84 6.48-8.16 8.4-12.96 2.08-4.96 3.12-10.16 3.12-15.6V680.8c0-4.8-1.52-9.68-4.56-14.64-2.88-5.12-6.56-10.08-11.04-14.88-4.32-4.96-9.04-9.76-14.16-14.4-5.12-4.64-9.92-8.96-14.4-12.96-4.32-4.16-8-7.92-11.04-11.28-2.88-3.36-4.32-6.24-4.32-8.64v-28.32h15.84c7.68 0 13.6 1.84 17.76 5.52 4.32 3.52 6.48 8.48 6.48 14.88h19.68c0-5.44-1.12-10.56-3.36-15.36-2.08-4.96-5.04-9.2-8.88-12.72-3.68-3.68-8-6.56-12.96-8.64-4.96-2.24-10.24-3.36-15.84-3.36h-17.04c-5.76 0-11.2 1.04-16.32 3.12-4.96 2.08-9.36 4.96-13.2 8.64-3.68 3.68-6.64 8-8.88 12.96-2.08 4.8-3.12 10.08-3.12 15.84zM309.293 556h-120v19.92h40.08V736h39.84V575.92h40.08zm60.96 180h38.16c5.44 0 10.56-1.04 15.36-3.12 4.96-2.24 9.28-5.2 12.96-8.88 3.84-3.84 6.88-8.16 9.12-12.96a37.483 37.483 0 0 0 3.36-15.6v-98.88c0-5.12-1.12-10.08-3.36-14.88-2.08-4.96-4.96-9.28-8.64-12.96-3.68-3.84-8-6.88-12.96-9.12-4.96-2.4-10.24-3.6-15.84-3.6h-38.16c-5.6 0-10.88 1.2-15.84 3.6-4.96 2.24-9.28 5.28-12.96 9.12-3.68 3.68-6.64 8-8.88 12.96-2.08 4.8-3.12 9.76-3.12 14.88v98.88c0 5.44 1.12 10.64 3.36 15.6 2.24 4.8 5.2 9.12 8.88 12.96 3.84 3.68 8.16 6.64 12.96 8.88 4.96 2.08 10.16 3.12 15.6 3.12zm39.12-20.16h-40.08V575.92h40.08zm119.998-80.16v-60h40.08v60zM489.531 736h39.84v-79.92h40.08V736h39.84v-55.68c0-6.88-1.12-12.48-3.36-16.8-2.24-4.48-4.72-8-7.44-10.56-2.56-2.72-4.96-4.56-7.2-5.52l-3.36-1.68 3.36-1.2c2.24-.8 4.64-2.32 7.2-4.56 2.72-2.4 5.2-5.68 7.44-9.84 2.24-4.32 3.36-9.92 3.36-16.8v-17.28c0-5.92-.96-11.36-2.88-16.32-1.76-4.96-4.4-9.2-7.92-12.72-3.52-3.52-7.76-6.24-12.72-8.16-4.8-1.92-10.24-2.88-16.32-2.88h-79.92zm201.598-180c-4.64 0-9.44 1.12-14.4 3.36-4.8 2.24-9.2 5.2-13.2 8.88-3.84 3.68-7.04 8-9.6 12.96-2.4 4.96-3.6 10.08-3.6 15.36V736h39.84v-79.92h39.36V736c1.28.16 3.76.24 7.44.24h11.76c4.32 0 8.4-.08 12.24-.24h8.64V596.56c0-5.28-1.28-10.32-3.84-15.12-2.56-4.96-5.84-9.28-9.84-12.96a44.3 44.3 0 0 0-13.2-9.12c-4.96-2.24-9.84-3.36-14.64-3.36zm-.96 79.68v-60h39.36v60zm179.279 20.16h20.16v60h-40.08V575.92h44.16c4.96 0 8.88 1.84 11.76 5.52 2.88 3.52 4.32 8.56 4.32 15.12h19.68c0-5.12-1.12-10.08-3.36-14.88-2.24-4.96-5.28-9.28-9.12-12.96a44.3 44.3 0 0 0-13.2-9.12c-4.961-2.4-10.08-3.6-15.36-3.6h-38.16c-5.6 0-10.88 1.2-15.84 3.6-4.96 2.24-9.28 5.28-12.96 9.12-3.68 3.84-6.56 8.24-8.64 13.2-2.08 4.8-3.12 9.76-3.12 14.88v98.4c0 5.6 1.04 10.88 3.12 15.84 2.08 4.96 4.96 9.28 8.64 12.96 3.68 3.68 7.92 6.64 12.72 8.88 4.96 2.08 10.32 3.12 16.08 3.12h38.4c6.08 0 11.599-1.12 16.56-3.36 4.96-2.24 9.2-5.2 12.72-8.88 3.68-3.68 6.48-8 8.4-12.96 2.08-4.96 3.12-10.16 3.12-15.6v-59.76h-60zm180.242.24v-20.4h-40.08v-59.76h60V556h-99.844v180h99.844v-20.16h-60v-59.76z" stroke="#000" stroke-width="2" mask="url(#e)" transform="translate(-14.805 11.4)"/><ellipse cx="374.195" cy="656.9" rx="53" ry="79.5" fill="#fff"/><ellipse cx="359.695" cy="618.4" rx="4.5" ry="10" fill="#000"/><ellipse cx="388.695" cy="618.4" rx="4.5" ry="10" fill="#000"/><path d="M413.195 640.4c0 21.539-17.237 39-38.5 39s-38.5-17.461-38.5-39" stroke="#000"/><path d="M361.615 541.4V437.446L471.17 541.762l.145.138h10.3v-181h-21.16v103.501L350.898 361.036l-.144-.136h-10.059v181h20.92zm239.5-79.42h.5v-21.16h-40.08v-59h60V360.9h-100.84v181h40.84v-79.92zM761.457 361.4v-.5h-121v20.92h40.08V541.9h40.84V381.82h40.08v-.5z" fill="#f5c32c" stroke="#000"/><path d="M361.615 531.4V427.446L471.17 531.762l.145.138h10.3v-181h-21.16v103.501L350.898 351.036l-.144-.136h-10.059v181h20.92zm239.5-79.42h.5v-21.16h-40.08v-59h60V350.9h-100.84v181h40.84v-79.92zM761.457 351.4v-.5h-121v20.92h40.08V531.9h40.84V371.82h40.08v-.5z" fill="#f5c32c" stroke="#000"/><path d="M361.615 521.4V417.446L471.17 521.762l.145.138h10.3v-181h-21.16v103.501L350.898 341.036l-.144-.136h-10.059v181h20.92zm239.5-79.42h.5v-21.16h-40.08v-59h60V340.9h-100.84v181h40.84v-79.92zM761.457 341.4v-.5h-121v20.92h40.08V521.9h40.84V361.82h40.08v-.5z" fill="#f5c32c" stroke="#000"/><path d="M361.615 511.4V407.446L471.17 511.762l.145.138h10.3v-181h-21.16v103.501L350.898 331.036l-.144-.136h-10.059v181h20.92zm239.5-79.42h.5v-21.16h-40.08v-59h60V330.9h-100.84v181h40.84v-79.92zM761.457 331.4v-.5h-121v20.92h40.08V511.9h40.84V351.82h40.08v-.5z" fill="#f5c32c" stroke="#000"/><path d="M361.615 501.4V397.446L471.17 501.762l.145.138h10.3v-181h-21.16v103.501L350.898 321.036l-.144-.136h-10.059v181h20.92zm239.5-79.42h.5v-21.16h-40.08v-59h60V320.9h-100.84v181h40.84v-79.92zM761.457 321.4v-.5h-121v20.92h40.08V501.9h40.84V341.82h40.08v-.5z" fill="#fff" stroke="#000"/></svg>