<svg xmlns="http://www.w3.org/2000/svg" viewBox="0 0 230.11 55.96"><defs><style>.cls-1{fill:#0f0f0f;}</style></defs><g id="Layer_2" data-name="Layer 2"><g id="Layer_1-2" data-name="Layer 1"><g id="Group_7" data-name="Group 7"><path id="Path_15" data-name="Path 15" class="cls-1" d="M45,28.59H28.59V45H45l-5.48-5.46H56V56H17.64V42.89c-3.38-2.13-7.42,0-7.42,0A6.88,6.88,0,0,1,7,43.73,7,7,0,0,1,0,36.9a6.93,6.93,0,0,1,10.22-6.18s4,2.12,7.42,0V17.64H30.72c2.12-3.37,0-7.42,0-7.42A7,7,0,0,1,29.88,7a7,7,0,0,1,6.83-7,6.92,6.92,0,0,1,7,6.83,7,7,0,0,1-.84,3.39s-2.12,4,0,7.42H56V34.07H50.49A5.49,5.49,0,0,1,45,28.59Z"/></g><g id="Group_8" data-name="Group 8"><path id="Path_16" data-name="Path 16" class="cls-1" d="M78.57,36.79h-3L66.91,56h2.73l2-4.68H82.42l2,4.68h2.79ZM72.46,49.38,77,38.71l4.6,10.67Z"/><path id="Path_17" data-name="Path 17" class="cls-1" d="M114.21,56V53.82H103.64v-17h-2.72V56Z"/><path id="Path_18" data-name="Path 18" class="cls-1" d="M141.31,56V53.82H130.75v-17H128V56Z"/><path id="Path_19" data-name="Path 19" class="cls-1" d="M169.26,56V53.85h-11.4V47.24h9.75V45.19h-9.75V38.9h11V36.79H155.14V56Z"/><path id="Path_20" data-name="Path 20" class="cls-1" d="M196.2,49.36a6.17,6.17,0,0,0,3-2.26,6.34,6.34,0,0,0,1-3.64,6.49,6.49,0,0,0-1-3.56,6.11,6.11,0,0,0-2.76-2.29,10.87,10.87,0,0,0-4.36-.82h-7.8V56H187V50.07h5.08q.36,0,.72,0l.3,0,4.15,6H200l-4.46-6.37ZM191.91,48H187V38.93h4.9A6.27,6.27,0,0,1,196,40.09a4.11,4.11,0,0,1,1.46,3.37A4.17,4.17,0,0,1,196,46.85,6.27,6.27,0,0,1,191.91,48Z"/><path id="Path_21" data-name="Path 21" class="cls-1" d="M222.6,56V49.2l7.51-12.41h-2.49l-6.26,10.32-6.21-10.32h-2.8l7.54,12.47V56Z"/></g></g></g></svg>