<svg version="1.1" id="Layer_1" xmlns="http://www.w3.org/2000/svg" xmlns:xlink="http://www.w3.org/1999/xlink" x="0px" y="0px" xml:space="preserve" style="enable-background:new -256 0 452 701;" viewBox="280 120 1400 960">
<g>
	<path d="M452.05,701.84V489.98l135.01,110.17V498.16h53.19v211.87L505.24,598.97v102.87H452.05z"/>
	<path d="M673.57,701.84V498.16h147.28v49.97h-91.76v31.56h83.28v47.05h-83.28v75.1H673.57z"/>
	<path d="M883.98,701.84V548.42h-54.94v-50.26h164.23v50.26h-53.77v153.42H883.98z"/>
	<path d="M1017.24,701.84V498.16h77.73c17.24,0,32.73,6.14,46.17,18.41c13.44,12.28,20.16,28.35,20.16,47.93   c0,18.99-6.72,34.77-20.16,47.34c-13.15,12.57-28.64,18.7-46.17,18.7h-41.2v71.3H1017.24z M1053.77,597.51h39.45   c16.37,0,31.85-11.98,31.85-33.02c0-21.33-15.49-33.32-31.85-33.32h-39.45V597.51z"/>
	<path d="M1171.84,628.2c0-21.92,7.89-40.62,23.38-55.52c15.49-14.9,34.48-22.5,56.98-22.5c22.5,0,41.5,7.6,56.99,22.5   c15.49,14.91,23.38,33.61,23.38,55.52c0,21.92-7.89,40.62-23.38,55.52c-15.49,14.91-34.48,22.5-56.99,22.5   c-22.5,0-41.49-7.6-56.98-22.5C1179.73,668.82,1171.84,650.12,1171.84,628.2z M1284.64,661.22c8.77-9.06,13.15-19.87,13.15-33.02   c0-13.15-4.38-23.96-13.15-32.73c-8.77-9.06-19.58-13.44-32.44-13.44c-13.15,0-23.96,4.38-32.73,13.44   c-8.47,8.77-12.86,19.58-12.86,32.73c0,13.15,4.38,23.96,12.86,33.02c8.77,8.77,19.58,13.15,32.73,13.15   C1265.06,674.37,1275.87,669.99,1284.64,661.22z"/>
	<path d="M1357.12,701.84V554.56h34.77v21.92c7.01-15.49,23.09-24.84,43.83-24.84c4.09,0,7.6,0.29,10.52,0.87v33.9   c-4.38-0.88-9.35-1.46-14.61-1.46c-24.26,0-39.74,15.19-39.74,39.45v77.44H1357.12z"/>
	<path d="M1481.03,701.84V586.41h-18.99v-31.85h18.99v-56.4h35.07v56.4h31.85v31.85h-31.85v115.43H1481.03z"/>
</g>
</svg>