<svg width="2840" height="720" viewBox="0 0 2840 720" fill="none" xmlns="http://www.w3.org/2000/svg">
<path d="M719.46 340.29C718.15 315.9 714.41 292.15 708.47 269.29C704.93 255.62 700.6 242.27 695.53 229.29C670.07 163.96 626.07 107.89 570 67.57C533.25 41.12 491.31 21.44 446 10.34C418.44 3.58 389.64 0 360 0C330.36 0 301.56 3.58 274 10.34C228.69 21.44 186.75 41.13 150 67.57C93.93 107.9 49.93 163.96 24.47 229.29C19.41 242.27 15.07 255.62 11.53 269.29C5.59 292.15 1.84999 315.9 0.539993 340.29C0.179993 346.82 0 353.39 0 360C0 366.81 0.190007 373.57 0.570007 380.29C1.88001 403.97 5.48 427.05 11.16 449.29C14.65 462.95 18.92 476.3 23.93 489.29C49.3 555.23 93.52 611.81 150 652.43C186.75 678.87 228.69 698.56 274 709.66C301.56 716.42 330.36 720 360 720C389.64 720 418.44 716.42 446 709.66C491.31 698.56 533.25 678.88 570 652.43C626.48 611.81 670.7 555.23 696.08 489.29C701.09 476.3 705.35 462.95 708.84 449.29C714.52 427.05 718.12 403.97 719.43 380.29C719.81 373.57 720 366.81 720 360C720 353.39 719.82 346.82 719.46 340.29Z" fill="black"/>
<path d="M248.981 342.319L342.321 248.979C350.131 241.169 350.131 228.509 342.321 220.699C334.511 212.889 321.851 212.889 314.041 220.699L220.701 314.039C212.891 321.849 212.891 334.509 220.701 342.319C228.511 350.129 241.171 350.129 248.981 342.319Z" fill="white"/>
<path d="M469.6 376.26L376.26 469.6C368.45 477.41 368.45 490.07 376.26 497.88C384.07 505.69 396.73 505.69 404.54 497.88L497.88 404.54C505.69 396.73 505.69 384.07 497.88 376.26C490.08 368.45 477.41 368.45 469.6 376.26Z" fill="white"/>
<path d="M480.21 211.51L211.51 480.21C203.7 488.02 203.7 500.68 211.51 508.49C219.32 516.3 231.98 516.3 239.79 508.49L508.49 239.79C516.3 231.98 516.3 219.32 508.49 211.51C500.68 203.7 488.02 203.7 480.21 211.51Z" fill="white"/>
<path d="M1093.45 78.5496C1108.25 85.3496 1119.75 95.0496 1127.75 107.65C1135.75 120.25 1139.75 135.05 1139.75 152.25C1139.75 169.25 1135.75 184.05 1127.75 196.65C1119.75 209.35 1108.25 219.05 1093.45 225.75C1078.65 232.45 1061.15 235.85 1040.95 235.85H997.049C995.949 235.85 995.049 236.75 995.049 237.85V297.65C995.049 298.75 994.149 299.65 993.049 299.65H944.449C943.349 299.65 942.449 298.75 942.449 297.65V70.3496C942.449 69.2496 943.349 68.3496 944.449 68.3496H1040.95C1061.05 68.3496 1078.55 71.7496 1093.45 78.5496ZM1074.05 181.85C1082.25 174.95 1086.45 165.05 1086.45 152.25C1086.45 139.25 1082.35 129.25 1074.05 122.35C1065.85 115.45 1053.75 111.95 1037.95 111.95H997.049C995.949 111.95 995.049 112.85 995.049 113.95V190.25C995.049 191.35 995.949 192.25 997.049 192.25H1037.95C1053.85 192.25 1065.85 188.75 1074.05 181.85Z" fill="black"/>
<path d="M1375.55 227.25C1374.85 226.25 1375.25 224.85 1376.35 224.25C1390.25 217.65 1401.05 208.45 1408.85 196.65C1416.95 184.25 1421.05 169.35 1421.05 152.25C1421.05 135.05 1417.05 120.15 1409.05 107.65C1401.05 95.0496 1389.55 85.4496 1374.75 78.5496C1359.85 71.7496 1342.35 68.3496 1322.15 68.3496H1225.65C1224.55 68.3496 1223.65 69.2496 1223.65 70.3496V109.95C1223.65 111.05 1224.55 111.95 1225.65 111.95H1276.35H1287.15H1319.25C1335.05 111.95 1347.05 115.45 1355.35 122.35C1363.55 129.25 1367.75 139.25 1367.75 152.25C1367.75 165.05 1363.65 174.95 1355.35 181.95C1347.15 189.05 1335.05 192.55 1319.25 192.55H1287.15H1276.35H1225.65C1224.55 192.55 1223.65 193.45 1223.65 194.55V297.65C1223.65 298.75 1224.55 299.65 1225.65 299.65H1274.35C1275.45 299.65 1276.35 298.75 1276.35 297.65V237.25C1276.35 236.15 1277.25 235.25 1278.35 235.25H1322.15H1323.65C1324.35 235.25 1324.95 235.55 1325.35 236.15L1368.05 298.85C1368.45 299.35 1369.05 299.75 1369.75 299.75H1421.45C1423.05 299.75 1424.05 297.95 1423.05 296.65L1375.55 227.25Z" fill="black"/>
<path d="M1091.35 532.35H1135.45C1136.55 532.35 1137.45 533.25 1137.45 534.35V625.25C1137.45 625.85 1137.15 626.45 1136.65 626.85C1124.45 636.05 1110.45 643.05 1094.55 648.05C1078.25 653.15 1061.95 655.65 1045.45 655.65C1021.85 655.65 1000.55 650.55 981.75 640.25C962.95 629.95 948.15 615.75 937.35 597.65C926.65 579.45 921.25 558.85 921.25 535.95C921.25 513.05 926.65 492.45 937.35 474.35C948.05 456.15 962.95 441.95 982.05 431.75C1001.15 421.55 1022.55 416.35 1046.45 416.35C1066.35 416.35 1084.45 419.75 1100.75 426.55C1116.35 433.15 1129.65 442.55 1140.45 454.85C1141.15 455.65 1141.05 456.85 1140.35 457.65L1109.35 486.75C1108.55 487.55 1107.35 487.45 1106.55 486.65C1090.55 470.25 1071.45 461.95 1049.05 461.95C1034.55 461.95 1021.65 465.05 1010.35 471.25C999.05 477.45 990.35 486.15 984.05 497.35C977.75 508.55 974.65 521.45 974.65 536.05C974.65 550.35 977.75 563.15 984.05 574.35C990.35 585.55 999.05 594.35 1010.25 600.65C1021.45 606.95 1034.15 610.05 1048.45 610.05C1063.15 610.05 1076.45 606.95 1088.35 600.75C1089.05 600.45 1089.45 599.75 1089.45 598.95V534.35C1089.35 533.25 1090.25 532.35 1091.35 532.35Z" fill="black"/>
<path d="M1841.45 294.85C1829.05 289.25 1818.85 281.35 1810.75 271.15C1810.15 270.45 1810.15 269.35 1810.75 268.65L1837.35 236.15C1838.15 235.15 1839.65 235.15 1840.45 236.15C1852.45 251.75 1866.05 259.55 1881.25 259.55C1902.75 259.55 1913.45 246.75 1913.45 221.25V113.25C1913.45 112.15 1912.55 111.25 1911.45 111.25H1835.45C1834.35 111.25 1833.45 110.35 1833.45 109.25V70.3496C1833.45 69.2496 1834.35 68.3496 1835.45 68.3496H1963.75C1964.85 68.3496 1965.75 69.2496 1965.75 70.3496V218.35C1965.75 246.75 1958.85 268.05 1944.95 282.25C1931.05 296.45 1910.75 303.55 1883.85 303.55C1868.45 303.65 1854.35 300.65 1841.45 294.85Z" fill="black"/>
<path d="M1534.85 420.25H1583.55C1584.65 420.25 1585.55 421.15 1585.55 422.25V605.95C1585.55 607.05 1586.45 607.95 1587.55 607.95H1697.65C1698.75 607.95 1699.65 608.85 1699.65 609.95V649.55C1699.65 650.65 1698.75 651.55 1697.65 651.55H1534.85C1533.75 651.55 1532.85 650.65 1532.85 649.55V422.25C1532.85 421.15 1533.75 420.25 1534.85 420.25Z" fill="black"/>
<path d="M2711.25 111.95H2642.45C2641.35 111.95 2640.45 111.05 2640.45 109.95V70.3496C2640.45 69.2496 2641.35 68.3496 2642.45 68.3496H2836.75C2837.85 68.3496 2838.75 69.2496 2838.75 70.3496V109.95C2838.75 111.05 2837.85 111.95 2836.75 111.95H2767.95C2766.85 111.95 2765.95 112.85 2765.95 113.95V297.65C2765.95 298.75 2765.05 299.65 2763.95 299.65H2715.25C2714.15 299.65 2713.25 298.75 2713.25 297.65V113.95C2713.25 112.85 2712.35 111.95 2711.25 111.95Z" fill="black"/>
<path d="M2492.05 570.25V649.65C2492.05 650.75 2491.15 651.65 2490.05 651.65H2441.35C2440.25 651.65 2439.35 650.75 2439.35 649.65V569.55C2439.35 569.15 2439.25 568.85 2439.05 568.55L2353.05 423.35C2352.25 422.05 2353.25 420.35 2354.75 420.35H2406.05C2406.75 420.35 2407.45 420.75 2407.75 421.35L2466.25 520.25C2467.05 521.55 2468.95 521.55 2469.65 520.25L2528.15 421.35C2528.55 420.75 2529.15 420.35 2529.85 420.35H2576.85C2578.35 420.35 2579.35 422.05 2578.55 423.35L2492.15 569.25C2492.15 569.45 2492.05 569.85 2492.05 570.25Z" fill="black"/>
<path d="M1543.35 288.05C1524.35 277.65 1509.55 263.45 1498.85 245.25C1488.15 227.05 1482.75 206.65 1482.75 183.95C1482.75 161.25 1488.15 140.85 1498.85 122.65C1509.55 104.45 1524.45 90.2496 1543.35 79.8496C1562.35 69.5496 1583.65 64.3496 1607.25 64.3496C1630.85 64.3496 1652.15 69.5496 1670.95 79.8496C1689.85 90.2496 1704.65 104.45 1715.45 122.65C1726.25 140.85 1731.75 161.25 1731.75 183.95C1731.75 206.65 1726.35 227.05 1715.45 245.25C1704.65 263.45 1689.75 277.65 1670.95 288.05C1652.05 298.45 1630.85 303.55 1607.25 303.55C1583.65 303.65 1562.35 298.45 1543.35 288.05ZM1643.65 248.55C1654.45 242.25 1662.95 233.55 1669.15 222.25C1675.35 210.95 1678.45 198.25 1678.45 183.95C1678.45 169.65 1675.35 156.85 1669.15 145.65C1662.95 134.45 1654.45 125.65 1643.65 119.35C1632.85 113.05 1620.65 109.95 1607.25 109.95C1593.85 109.95 1581.65 113.05 1570.85 119.35C1560.05 125.65 1551.55 134.35 1545.35 145.65C1539.15 156.85 1536.05 169.65 1536.05 183.95C1536.05 198.25 1539.15 211.05 1545.35 222.25C1551.55 233.45 1560.05 242.25 1570.85 248.55C1581.65 254.85 1593.85 257.95 1607.25 257.95C1620.65 258.05 1632.85 254.85 1643.65 248.55Z" fill="black"/>
<path d="M1348.15 420.25H1298.75C1297.95 420.25 1297.25 420.75 1296.95 421.45L1197.25 648.75C1196.65 650.05 1197.65 651.55 1199.05 651.55H1248.65C1249.45 651.55 1250.15 651.05 1250.55 650.35L1270.25 602.05L1287.15 561.45L1321.35 477.45C1322.05 475.75 1324.35 475.75 1325.05 477.45L1359.25 561.45L1375.85 602.05L1395.45 650.35C1395.75 651.15 1396.45 651.55 1397.35 651.55H1448.25C1449.65 651.55 1450.65 650.05 1450.05 648.75L1350.05 421.45C1349.65 420.75 1348.85 420.25 1348.15 420.25Z" fill="black"/>
<path d="M2085.25 258.65V297.65C2085.25 298.75 2086.15 299.65 2087.25 299.65H2259.45C2260.55 299.65 2261.45 298.75 2261.45 297.65V258.65C2261.45 257.55 2260.55 256.65 2259.45 256.65H2137.55H2087.25C2086.15 256.65 2085.25 257.55 2085.25 258.65Z" fill="black"/>
<path d="M2261.45 108.65V70.3496C2261.45 69.2496 2260.55 68.3496 2259.45 68.3496H2087.25C2086.15 68.3496 2085.25 69.2496 2085.25 70.3496V108.75C2085.25 109.85 2086.15 110.75 2087.25 110.75H2259.45C2260.55 110.65 2261.45 109.75 2261.45 108.65Z" fill="black"/>
<path d="M2085.25 163.65V200.95C2085.25 202.05 2086.15 202.95 2087.25 202.95H2259.65C2260.75 202.95 2261.65 202.05 2261.65 200.95V163.65C2261.65 162.55 2260.75 161.65 2259.65 161.65H2087.25C2086.15 161.65 2085.25 162.55 2085.25 163.65Z" fill="black"/>
<path d="M1917.55 420.25H1868.15C1867.35 420.25 1866.65 420.75 1866.35 421.45L1766.65 648.75C1766.05 650.05 1767.05 651.55 1768.45 651.55H1818.05C1818.85 651.55 1819.55 651.05 1819.95 650.35L1839.65 602.05L1856.55 561.45L1890.75 477.45C1891.45 475.75 1893.75 475.75 1894.45 477.45L1928.65 561.45L1945.25 602.05L1964.85 650.35C1965.15 651.15 1965.85 651.55 1966.75 651.55H2017.65C2019.05 651.55 2020.05 650.05 2019.45 648.75L1919.45 421.45C1919.05 420.75 1918.35 420.25 1917.55 420.25Z" fill="black"/>
<path d="M2408.95 288.25C2390.25 278.05 2375.45 263.75 2364.75 245.65C2354.05 227.45 2348.65 206.95 2348.65 184.05C2348.65 161.15 2354.05 140.55 2364.75 122.45C2375.45 104.25 2390.25 90.0496 2408.95 79.8496C2427.75 69.4496 2448.75 64.3496 2472.25 64.3496C2491.95 64.3496 2509.85 67.8496 2525.75 74.9496C2541.05 81.7496 2554.05 91.3496 2564.65 103.85C2565.35 104.65 2565.25 105.85 2564.45 106.65L2533.55 135.65C2532.75 136.45 2531.45 136.35 2530.65 135.55C2515.45 118.55 2496.85 110.05 2474.75 110.05C2460.65 110.05 2448.05 113.15 2437.05 119.45C2425.95 125.75 2417.35 134.45 2411.25 145.75C2405.05 156.95 2401.95 169.75 2401.95 184.05C2401.95 198.35 2405.05 211.15 2411.25 222.35C2417.45 233.55 2426.05 242.35 2437.05 248.65C2448.15 254.95 2460.65 258.05 2474.75 258.05C2496.85 258.05 2515.45 249.45 2530.65 232.25C2531.45 231.35 2532.75 231.35 2533.55 232.05L2564.45 261.05C2565.25 261.75 2565.35 262.95 2564.65 263.75C2554.05 276.45 2540.95 286.25 2525.55 293.05C2509.55 300.05 2491.65 303.65 2471.95 303.65C2448.65 303.65 2427.75 298.45 2408.95 288.25Z" fill="black"/>
<path d="M2146.85 455.35L2122.95 421.15C2122.55 420.65 2121.95 420.25 2121.35 420.25H2066.45C2064.85 420.25 2063.85 422.05 2064.85 423.45L2114.35 493.75C2115.15 494.85 2116.75 494.85 2117.55 493.85L2146.95 457.75C2147.35 457.15 2147.35 456.15 2146.85 455.35Z" fill="black"/>
<path d="M2230.15 573.85L2201.25 610.55C2200.75 611.25 2200.65 612.15 2201.15 612.95L2227.05 650.85C2227.45 651.35 2228.05 651.75 2228.75 651.75H2284.65C2286.25 651.75 2287.25 649.95 2286.25 648.55L2233.35 574.05C2232.65 572.85 2231.05 572.75 2230.15 573.85Z" fill="black"/>
<path d="M2203.65 531.95L2280.75 423.45C2281.65 422.15 2280.75 420.25 2279.15 420.25H2227.15C2226.45 420.25 2225.85 420.55 2225.45 421.15L2174.75 495.25C2174.75 495.35 2174.65 495.35 2174.65 495.35L2142.55 533.85L2142.45 533.95L2060.55 648.35C2059.65 649.65 2060.55 651.55 2062.15 651.55H2117.65C2118.35 651.55 2118.95 651.25 2119.35 650.65L2172.65 571.25L2172.75 571.15L2203.65 531.95Z" fill="black"/>
</svg>
