<svg width="1139" height="1110" viewBox="0 0 1139 1110" fill="none" xmlns="http://www.w3.org/2000/svg">
<rect width="1139" height="1110" fill="black"/>
<mask id="path-1-outside-1" maskUnits="userSpaceOnUse" x="69" y="595.96" width="1002" height="183" fill="black">
<rect fill="white" x="69" y="595.96" width="1002" height="183"/>
<path d="M70 651.92C70 656.24 71.44 660.72 74.32 665.36C77.36 669.84 81.04 674.4 85.36 679.04C89.84 683.68 94.64 688.32 99.76 692.96C105.04 697.44 109.84 701.76 114.16 705.92C118.64 710.08 122.32 714.08 125.2 717.92C128.24 721.6 129.76 724.88 129.76 727.76V757.04H111.52C105.12 757.04 99.92 755.12 95.92 751.28C92.08 747.44 90.16 742.48 90.16 736.4H70C70 742 71.04 747.28 73.12 752.24C75.36 757.04 78.32 761.28 82 764.96C85.84 768.64 90.24 771.6 95.2 773.84C100.32 775.92 105.76 776.96 111.52 776.96H128.32C134.4 776.96 139.92 775.92 144.88 773.84C150 771.6 154.32 768.64 157.84 764.96C161.52 761.12 164.32 756.8 166.24 752C168.32 747.04 169.36 741.84 169.36 736.4V721.76C169.36 716.96 167.84 712.08 164.8 707.12C161.92 702 158.24 697.04 153.76 692.24C149.44 687.28 144.72 682.48 139.6 677.84C134.48 673.2 129.68 668.88 125.2 664.88C120.88 660.72 117.2 656.96 114.16 653.6C111.28 650.24 109.84 647.36 109.84 644.96V616.64H125.68C133.36 616.64 139.28 618.48 143.44 622.16C147.76 625.68 149.92 630.64 149.92 637.04H169.6C169.6 631.6 168.48 626.48 166.24 621.68C164.16 616.72 161.2 612.48 157.36 608.96C153.68 605.28 149.36 602.4 144.4 600.32C139.44 598.08 134.16 596.96 128.56 596.96H111.52C105.76 596.96 100.32 598 95.2 600.08C90.24 602.16 85.84 605.04 82 608.72C78.32 612.4 75.36 616.72 73.12 621.68C71.04 626.48 70 631.76 70 637.52V651.92Z"/>
<path d="M309.293 596.96H189.293V616.88H229.373V776.96H269.213V616.88H309.293V596.96Z"/>
<path d="M370.253 776.96H408.413C413.853 776.96 418.973 775.92 423.773 773.84C428.733 771.6 433.053 768.64 436.733 764.96C440.573 761.12 443.613 756.8 445.853 752C448.093 747.04 449.213 741.84 449.213 736.4V637.52C449.213 632.4 448.093 627.44 445.853 622.64C443.773 617.68 440.893 613.36 437.213 609.68C433.533 605.84 429.213 602.8 424.253 600.56C419.293 598.16 414.013 596.96 408.413 596.96H370.253C364.653 596.96 359.373 598.16 354.413 600.56C349.453 602.8 345.133 605.84 341.453 609.68C337.773 613.36 334.813 617.68 332.573 622.64C330.493 627.44 329.453 632.4 329.453 637.52V736.4C329.453 741.84 330.573 747.04 332.813 752C335.053 756.8 338.013 761.12 341.693 764.96C345.533 768.64 349.853 771.6 354.653 773.84C359.613 775.92 364.813 776.96 370.253 776.96ZM409.373 756.8H369.293V616.88H409.373V756.8Z"/>
<path d="M529.371 676.64V616.64H569.451V676.64H529.371ZM489.531 776.96H529.371V697.04H569.451V776.96H609.291V721.28C609.291 714.4 608.171 708.8 605.931 704.48C603.691 700 601.211 696.48 598.491 693.92C595.931 691.2 593.531 689.36 591.291 688.4C589.051 687.28 587.931 686.72 587.931 686.72C587.931 686.72 589.051 686.32 591.291 685.52C593.531 684.72 595.931 683.2 598.491 680.96C601.211 678.56 603.691 675.28 605.931 671.12C608.171 666.8 609.291 661.2 609.291 654.32V637.04C609.291 631.12 608.331 625.68 606.411 620.72C604.651 615.76 602.011 611.52 598.491 608C594.971 604.48 590.731 601.76 585.771 599.84C580.971 597.92 575.531 596.96 569.451 596.96H489.531V776.96Z"/>
<path d="M691.129 596.96C686.489 596.96 681.689 598.08 676.729 600.32C671.929 602.56 667.529 605.52 663.529 609.2C659.689 612.88 656.489 617.2 653.929 622.16C651.529 627.12 650.329 632.24 650.329 637.52V776.96H690.169V697.04H729.529V776.96C730.809 777.12 733.289 777.2 736.969 777.2C740.649 777.2 744.569 777.2 748.729 777.2C753.049 777.2 757.129 777.12 760.969 776.96C764.969 776.96 767.849 776.96 769.609 776.96V637.52C769.609 632.24 768.329 627.2 765.769 622.4C763.209 617.44 759.929 613.12 755.929 609.44C752.089 605.6 747.689 602.56 742.729 600.32C737.769 598.08 732.889 596.96 728.089 596.96H691.129ZM690.169 676.64V616.64H729.529V676.64H690.169Z"/>
<path d="M869.448 696.8H889.608V756.8H849.528V616.88H893.688C898.648 616.88 902.568 618.72 905.448 622.4C908.328 625.92 909.768 630.96 909.768 637.52H929.448C929.448 632.4 928.328 627.44 926.088 622.64C923.848 617.68 920.808 613.36 916.968 609.68C913.128 605.84 908.728 602.8 903.768 600.56C898.807 598.16 893.688 596.96 888.408 596.96H850.248C844.648 596.96 839.368 598.16 834.408 600.56C829.448 602.8 825.128 605.84 821.448 609.68C817.768 613.52 814.888 617.92 812.808 622.88C810.728 627.68 809.688 632.64 809.688 637.76V736.16C809.688 741.76 810.728 747.04 812.808 752C814.888 756.96 817.768 761.28 821.448 764.96C825.128 768.64 829.368 771.6 834.168 773.84C839.128 775.92 844.488 776.96 850.248 776.96H888.648C894.728 776.96 900.247 775.84 905.208 773.6C910.168 771.36 914.408 768.4 917.928 764.72C921.608 761.04 924.408 756.72 926.328 751.76C928.408 746.8 929.448 741.6 929.448 736.16V676.4H869.448V696.8Z"/>
<path d="M1049.69 697.04V676.64H1009.61V616.88H1069.61V596.96H969.766V776.96H1069.61V756.8H1009.61V697.04H1049.69Z"/>
</mask>
<path d="M70 651.92C70 656.24 71.44 660.72 74.32 665.36C77.36 669.84 81.04 674.4 85.36 679.04C89.84 683.68 94.64 688.32 99.76 692.96C105.04 697.44 109.84 701.76 114.16 705.92C118.64 710.08 122.32 714.08 125.2 717.92C128.24 721.6 129.76 724.88 129.76 727.76V757.04H111.52C105.12 757.04 99.92 755.12 95.92 751.28C92.08 747.44 90.16 742.48 90.16 736.4H70C70 742 71.04 747.28 73.12 752.24C75.36 757.04 78.32 761.28 82 764.96C85.84 768.64 90.24 771.6 95.2 773.84C100.32 775.92 105.76 776.96 111.52 776.96H128.32C134.4 776.96 139.92 775.92 144.88 773.84C150 771.6 154.32 768.64 157.84 764.96C161.52 761.12 164.32 756.8 166.24 752C168.32 747.04 169.36 741.84 169.36 736.4V721.76C169.36 716.96 167.84 712.08 164.8 707.12C161.92 702 158.24 697.04 153.76 692.24C149.44 687.28 144.72 682.48 139.6 677.84C134.48 673.2 129.68 668.88 125.2 664.88C120.88 660.72 117.2 656.96 114.16 653.6C111.28 650.24 109.84 647.36 109.84 644.96V616.64H125.68C133.36 616.64 139.28 618.48 143.44 622.16C147.76 625.68 149.92 630.64 149.92 637.04H169.6C169.6 631.6 168.48 626.48 166.24 621.68C164.16 616.72 161.2 612.48 157.36 608.96C153.68 605.28 149.36 602.4 144.4 600.32C139.44 598.08 134.16 596.96 128.56 596.96H111.52C105.76 596.96 100.32 598 95.2 600.08C90.24 602.16 85.84 605.04 82 608.72C78.32 612.4 75.36 616.72 73.12 621.68C71.04 626.48 70 631.76 70 637.52V651.92Z" fill="#F5C32C"/>
<path d="M309.293 596.96H189.293V616.88H229.373V776.96H269.213V616.88H309.293V596.96Z" fill="#F5C32C"/>
<path d="M370.253 776.96H408.413C413.853 776.96 418.973 775.92 423.773 773.84C428.733 771.6 433.053 768.64 436.733 764.96C440.573 761.12 443.613 756.8 445.853 752C448.093 747.04 449.213 741.84 449.213 736.4V637.52C449.213 632.4 448.093 627.44 445.853 622.64C443.773 617.68 440.893 613.36 437.213 609.68C433.533 605.84 429.213 602.8 424.253 600.56C419.293 598.16 414.013 596.96 408.413 596.96H370.253C364.653 596.96 359.373 598.16 354.413 600.56C349.453 602.8 345.133 605.84 341.453 609.68C337.773 613.36 334.813 617.68 332.573 622.64C330.493 627.44 329.453 632.4 329.453 637.52V736.4C329.453 741.84 330.573 747.04 332.813 752C335.053 756.8 338.013 761.12 341.693 764.96C345.533 768.64 349.853 771.6 354.653 773.84C359.613 775.92 364.813 776.96 370.253 776.96ZM409.373 756.8H369.293V616.88H409.373V756.8Z" fill="#F5C32C"/>
<path d="M529.371 676.64V616.64H569.451V676.64H529.371ZM489.531 776.96H529.371V697.04H569.451V776.96H609.291V721.28C609.291 714.4 608.171 708.8 605.931 704.48C603.691 700 601.211 696.48 598.491 693.92C595.931 691.2 593.531 689.36 591.291 688.4C589.051 687.28 587.931 686.72 587.931 686.72C587.931 686.72 589.051 686.32 591.291 685.52C593.531 684.72 595.931 683.2 598.491 680.96C601.211 678.56 603.691 675.28 605.931 671.12C608.171 666.8 609.291 661.2 609.291 654.32V637.04C609.291 631.12 608.331 625.68 606.411 620.72C604.651 615.76 602.011 611.52 598.491 608C594.971 604.48 590.731 601.76 585.771 599.84C580.971 597.92 575.531 596.96 569.451 596.96H489.531V776.96Z" fill="#F5C32C"/>
<path d="M691.129 596.96C686.489 596.96 681.689 598.08 676.729 600.32C671.929 602.56 667.529 605.52 663.529 609.2C659.689 612.88 656.489 617.2 653.929 622.16C651.529 627.12 650.329 632.24 650.329 637.52V776.96H690.169V697.04H729.529V776.96C730.809 777.12 733.289 777.2 736.969 777.2C740.649 777.2 744.569 777.2 748.729 777.2C753.049 777.2 757.129 777.12 760.969 776.96C764.969 776.96 767.849 776.96 769.609 776.96V637.52C769.609 632.24 768.329 627.2 765.769 622.4C763.209 617.44 759.929 613.12 755.929 609.44C752.089 605.6 747.689 602.56 742.729 600.32C737.769 598.08 732.889 596.96 728.089 596.96H691.129ZM690.169 676.64V616.64H729.529V676.64H690.169Z" fill="#F5C32C"/>
<path d="M869.448 696.8H889.608V756.8H849.528V616.88H893.688C898.648 616.88 902.568 618.72 905.448 622.4C908.328 625.92 909.768 630.96 909.768 637.52H929.448C929.448 632.4 928.328 627.44 926.088 622.64C923.848 617.68 920.808 613.36 916.968 609.68C913.128 605.84 908.728 602.8 903.768 600.56C898.807 598.16 893.688 596.96 888.408 596.96H850.248C844.648 596.96 839.368 598.16 834.408 600.56C829.448 602.8 825.128 605.84 821.448 609.68C817.768 613.52 814.888 617.92 812.808 622.88C810.728 627.68 809.688 632.64 809.688 637.76V736.16C809.688 741.76 810.728 747.04 812.808 752C814.888 756.96 817.768 761.28 821.448 764.96C825.128 768.64 829.368 771.6 834.168 773.84C839.128 775.92 844.488 776.96 850.248 776.96H888.648C894.728 776.96 900.247 775.84 905.208 773.6C910.168 771.36 914.408 768.4 917.928 764.72C921.608 761.04 924.408 756.72 926.328 751.76C928.408 746.8 929.448 741.6 929.448 736.16V676.4H869.448V696.8Z" fill="#F5C32C"/>
<path d="M1049.69 697.04V676.64H1009.61V616.88H1069.61V596.96H969.766V776.96H1069.61V756.8H1009.61V697.04H1049.69Z" fill="#F5C32C"/>
<path d="M70 651.92C70 656.24 71.44 660.72 74.32 665.36C77.36 669.84 81.04 674.4 85.36 679.04C89.84 683.68 94.64 688.32 99.76 692.96C105.04 697.44 109.84 701.76 114.16 705.92C118.64 710.08 122.32 714.08 125.2 717.92C128.24 721.6 129.76 724.88 129.76 727.76V757.04H111.52C105.12 757.04 99.92 755.12 95.92 751.28C92.08 747.44 90.16 742.48 90.16 736.4H70C70 742 71.04 747.28 73.12 752.24C75.36 757.04 78.32 761.28 82 764.96C85.84 768.64 90.24 771.6 95.2 773.84C100.32 775.92 105.76 776.96 111.52 776.96H128.32C134.4 776.96 139.92 775.92 144.88 773.84C150 771.6 154.32 768.64 157.84 764.96C161.52 761.12 164.32 756.8 166.24 752C168.32 747.04 169.36 741.84 169.36 736.4V721.76C169.36 716.96 167.84 712.08 164.8 707.12C161.92 702 158.24 697.04 153.76 692.24C149.44 687.28 144.72 682.48 139.6 677.84C134.48 673.2 129.68 668.88 125.2 664.88C120.88 660.72 117.2 656.96 114.16 653.6C111.28 650.24 109.84 647.36 109.84 644.96V616.64H125.68C133.36 616.64 139.28 618.48 143.44 622.16C147.76 625.68 149.92 630.64 149.92 637.04H169.6C169.6 631.6 168.48 626.48 166.24 621.68C164.16 616.72 161.2 612.48 157.36 608.96C153.68 605.28 149.36 602.4 144.4 600.32C139.44 598.08 134.16 596.96 128.56 596.96H111.52C105.76 596.96 100.32 598 95.2 600.08C90.24 602.16 85.84 605.04 82 608.72C78.32 612.4 75.36 616.72 73.12 621.68C71.04 626.48 70 631.76 70 637.52V651.92Z" stroke="black" stroke-width="2" mask="url(#path-1-outside-1)"/>
<path d="M309.293 596.96H189.293V616.88H229.373V776.96H269.213V616.88H309.293V596.96Z" stroke="black" stroke-width="2" mask="url(#path-1-outside-1)"/>
<path d="M370.253 776.96H408.413C413.853 776.96 418.973 775.92 423.773 773.84C428.733 771.6 433.053 768.64 436.733 764.96C440.573 761.12 443.613 756.8 445.853 752C448.093 747.04 449.213 741.84 449.213 736.4V637.52C449.213 632.4 448.093 627.44 445.853 622.64C443.773 617.68 440.893 613.36 437.213 609.68C433.533 605.84 429.213 602.8 424.253 600.56C419.293 598.16 414.013 596.96 408.413 596.96H370.253C364.653 596.96 359.373 598.16 354.413 600.56C349.453 602.8 345.133 605.84 341.453 609.68C337.773 613.36 334.813 617.68 332.573 622.64C330.493 627.44 329.453 632.4 329.453 637.52V736.4C329.453 741.84 330.573 747.04 332.813 752C335.053 756.8 338.013 761.12 341.693 764.96C345.533 768.64 349.853 771.6 354.653 773.84C359.613 775.92 364.813 776.96 370.253 776.96ZM409.373 756.8H369.293V616.88H409.373V756.8Z" stroke="black" stroke-width="2" mask="url(#path-1-outside-1)"/>
<path d="M529.371 676.64V616.64H569.451V676.64H529.371ZM489.531 776.96H529.371V697.04H569.451V776.96H609.291V721.28C609.291 714.4 608.171 708.8 605.931 704.48C603.691 700 601.211 696.48 598.491 693.92C595.931 691.2 593.531 689.36 591.291 688.4C589.051 687.28 587.931 686.72 587.931 686.72C587.931 686.72 589.051 686.32 591.291 685.52C593.531 684.72 595.931 683.2 598.491 680.96C601.211 678.56 603.691 675.28 605.931 671.12C608.171 666.8 609.291 661.2 609.291 654.32V637.04C609.291 631.12 608.331 625.68 606.411 620.72C604.651 615.76 602.011 611.52 598.491 608C594.971 604.48 590.731 601.76 585.771 599.84C580.971 597.92 575.531 596.96 569.451 596.96H489.531V776.96Z" stroke="black" stroke-width="2" mask="url(#path-1-outside-1)"/>
<path d="M691.129 596.96C686.489 596.96 681.689 598.08 676.729 600.32C671.929 602.56 667.529 605.52 663.529 609.2C659.689 612.88 656.489 617.2 653.929 622.16C651.529 627.12 650.329 632.24 650.329 637.52V776.96H690.169V697.04H729.529V776.96C730.809 777.12 733.289 777.2 736.969 777.2C740.649 777.2 744.569 777.2 748.729 777.2C753.049 777.2 757.129 777.12 760.969 776.96C764.969 776.96 767.849 776.96 769.609 776.96V637.52C769.609 632.24 768.329 627.2 765.769 622.4C763.209 617.44 759.929 613.12 755.929 609.44C752.089 605.6 747.689 602.56 742.729 600.32C737.769 598.08 732.889 596.96 728.089 596.96H691.129ZM690.169 676.64V616.64H729.529V676.64H690.169Z" stroke="black" stroke-width="2" mask="url(#path-1-outside-1)"/>
<path d="M869.448 696.8H889.608V756.8H849.528V616.88H893.688C898.648 616.88 902.568 618.72 905.448 622.4C908.328 625.92 909.768 630.96 909.768 637.52H929.448C929.448 632.4 928.328 627.44 926.088 622.64C923.848 617.68 920.808 613.36 916.968 609.68C913.128 605.84 908.728 602.8 903.768 600.56C898.807 598.16 893.688 596.96 888.408 596.96H850.248C844.648 596.96 839.368 598.16 834.408 600.56C829.448 602.8 825.128 605.84 821.448 609.68C817.768 613.52 814.888 617.92 812.808 622.88C810.728 627.68 809.688 632.64 809.688 637.76V736.16C809.688 741.76 810.728 747.04 812.808 752C814.888 756.96 817.768 761.28 821.448 764.96C825.128 768.64 829.368 771.6 834.168 773.84C839.128 775.92 844.488 776.96 850.248 776.96H888.648C894.728 776.96 900.247 775.84 905.208 773.6C910.168 771.36 914.408 768.4 917.928 764.72C921.608 761.04 924.408 756.72 926.328 751.76C928.408 746.8 929.448 741.6 929.448 736.16V676.4H869.448V696.8Z" stroke="black" stroke-width="2" mask="url(#path-1-outside-1)"/>
<path d="M1049.69 697.04V676.64H1009.61V616.88H1069.61V596.96H969.766V776.96H1069.61V756.8H1009.61V697.04H1049.69Z" stroke="black" stroke-width="2" mask="url(#path-1-outside-1)"/>
<mask id="path-2-outside-2" maskUnits="userSpaceOnUse" x="69" y="585.72" width="1002" height="183" fill="black">
<rect fill="white" x="69" y="585.72" width="1002" height="183"/>
<path d="M70 641.68C70 646 71.44 650.48 74.32 655.12C77.36 659.6 81.04 664.16 85.36 668.8C89.84 673.44 94.64 678.08 99.76 682.72C105.04 687.2 109.84 691.52 114.16 695.68C118.64 699.84 122.32 703.84 125.2 707.68C128.24 711.36 129.76 714.64 129.76 717.52V746.8H111.52C105.12 746.8 99.92 744.88 95.92 741.04C92.08 737.2 90.16 732.24 90.16 726.16H70C70 731.76 71.04 737.04 73.12 742C75.36 746.8 78.32 751.04 82 754.72C85.84 758.4 90.24 761.36 95.2 763.6C100.32 765.68 105.76 766.72 111.52 766.72H128.32C134.4 766.72 139.92 765.68 144.88 763.6C150 761.36 154.32 758.4 157.84 754.72C161.52 750.88 164.32 746.56 166.24 741.76C168.32 736.8 169.36 731.6 169.36 726.16V711.52C169.36 706.72 167.84 701.84 164.8 696.88C161.92 691.76 158.24 686.8 153.76 682C149.44 677.04 144.72 672.24 139.6 667.6C134.48 662.96 129.68 658.64 125.2 654.64C120.88 650.48 117.2 646.72 114.16 643.36C111.28 640 109.84 637.12 109.84 634.72V606.4H125.68C133.36 606.4 139.28 608.24 143.44 611.92C147.76 615.44 149.92 620.4 149.92 626.8H169.6C169.6 621.36 168.48 616.24 166.24 611.44C164.16 606.48 161.2 602.24 157.36 598.72C153.68 595.04 149.36 592.16 144.4 590.08C139.44 587.84 134.16 586.72 128.56 586.72H111.52C105.76 586.72 100.32 587.76 95.2 589.84C90.24 591.92 85.84 594.8 82 598.48C78.32 602.16 75.36 606.48 73.12 611.44C71.04 616.24 70 621.52 70 627.28V641.68Z"/>
<path d="M309.293 586.72H189.293V606.64H229.373V766.72H269.213V606.64H309.293V586.72Z"/>
<path d="M370.253 766.72H408.413C413.853 766.72 418.973 765.68 423.773 763.6C428.733 761.36 433.053 758.4 436.733 754.72C440.573 750.88 443.613 746.56 445.853 741.76C448.093 736.8 449.213 731.6 449.213 726.16V627.28C449.213 622.16 448.093 617.2 445.853 612.4C443.773 607.44 440.893 603.12 437.213 599.44C433.533 595.6 429.213 592.56 424.253 590.32C419.293 587.92 414.013 586.72 408.413 586.72H370.253C364.653 586.72 359.373 587.92 354.413 590.32C349.453 592.56 345.133 595.6 341.453 599.44C337.773 603.12 334.813 607.44 332.573 612.4C330.493 617.2 329.453 622.16 329.453 627.28V726.16C329.453 731.6 330.573 736.8 332.813 741.76C335.053 746.56 338.013 750.88 341.693 754.72C345.533 758.4 349.853 761.36 354.653 763.6C359.613 765.68 364.813 766.72 370.253 766.72ZM409.373 746.56H369.293V606.64H409.373V746.56Z"/>
<path d="M529.371 666.4V606.4H569.451V666.4H529.371ZM489.531 766.72H529.371V686.8H569.451V766.72H609.291V711.04C609.291 704.16 608.171 698.56 605.931 694.24C603.691 689.76 601.211 686.24 598.491 683.68C595.931 680.96 593.531 679.12 591.291 678.16C589.051 677.04 587.931 676.48 587.931 676.48C587.931 676.48 589.051 676.08 591.291 675.28C593.531 674.48 595.931 672.96 598.491 670.72C601.211 668.32 603.691 665.04 605.931 660.88C608.171 656.56 609.291 650.96 609.291 644.08V626.8C609.291 620.88 608.331 615.44 606.411 610.48C604.651 605.52 602.011 601.28 598.491 597.76C594.971 594.24 590.731 591.52 585.771 589.6C580.971 587.68 575.531 586.72 569.451 586.72H489.531V766.72Z"/>
<path d="M691.129 586.72C686.489 586.72 681.689 587.84 676.729 590.08C671.929 592.32 667.529 595.28 663.529 598.96C659.689 602.64 656.489 606.96 653.929 611.92C651.529 616.88 650.329 622 650.329 627.28V766.72H690.169V686.8H729.529V766.72C730.809 766.88 733.289 766.96 736.969 766.96C740.649 766.96 744.569 766.96 748.729 766.96C753.049 766.96 757.129 766.88 760.969 766.72C764.969 766.72 767.849 766.72 769.609 766.72V627.28C769.609 622 768.329 616.96 765.769 612.16C763.209 607.2 759.929 602.88 755.929 599.2C752.089 595.36 747.689 592.32 742.729 590.08C737.769 587.84 732.889 586.72 728.089 586.72H691.129ZM690.169 666.4V606.4H729.529V666.4H690.169Z"/>
<path d="M869.448 686.56H889.608V746.56H849.528V606.64H893.688C898.648 606.64 902.568 608.48 905.448 612.16C908.328 615.68 909.768 620.72 909.768 627.28H929.448C929.448 622.16 928.328 617.2 926.088 612.4C923.848 607.44 920.808 603.12 916.968 599.44C913.128 595.6 908.728 592.56 903.768 590.32C898.807 587.92 893.688 586.72 888.408 586.72H850.248C844.648 586.72 839.368 587.92 834.408 590.32C829.448 592.56 825.128 595.6 821.448 599.44C817.768 603.28 814.888 607.68 812.808 612.64C810.728 617.44 809.688 622.4 809.688 627.52V725.92C809.688 731.52 810.728 736.8 812.808 741.76C814.888 746.72 817.768 751.04 821.448 754.72C825.128 758.4 829.368 761.36 834.168 763.6C839.128 765.68 844.488 766.72 850.248 766.72H888.648C894.728 766.72 900.247 765.6 905.208 763.36C910.168 761.12 914.408 758.16 917.928 754.48C921.608 750.8 924.408 746.48 926.328 741.52C928.408 736.56 929.448 731.36 929.448 725.92V666.16H869.448V686.56Z"/>
<path d="M1049.69 686.8V666.4H1009.61V606.64H1069.61V586.72H969.766V766.72H1069.61V746.56H1009.61V686.8H1049.69Z"/>
</mask>
<path d="M70 641.68C70 646 71.44 650.48 74.32 655.12C77.36 659.6 81.04 664.16 85.36 668.8C89.84 673.44 94.64 678.08 99.76 682.72C105.04 687.2 109.84 691.52 114.16 695.68C118.64 699.84 122.32 703.84 125.2 707.68C128.24 711.36 129.76 714.64 129.76 717.52V746.8H111.52C105.12 746.8 99.92 744.88 95.92 741.04C92.08 737.2 90.16 732.24 90.16 726.16H70C70 731.76 71.04 737.04 73.12 742C75.36 746.8 78.32 751.04 82 754.72C85.84 758.4 90.24 761.36 95.2 763.6C100.32 765.68 105.76 766.72 111.52 766.72H128.32C134.4 766.72 139.92 765.68 144.88 763.6C150 761.36 154.32 758.4 157.84 754.72C161.52 750.88 164.32 746.56 166.24 741.76C168.32 736.8 169.36 731.6 169.36 726.16V711.52C169.36 706.72 167.84 701.84 164.8 696.88C161.92 691.76 158.24 686.8 153.76 682C149.44 677.04 144.72 672.24 139.6 667.6C134.48 662.96 129.68 658.64 125.2 654.64C120.88 650.48 117.2 646.72 114.16 643.36C111.28 640 109.84 637.12 109.84 634.72V606.4H125.68C133.36 606.4 139.28 608.24 143.44 611.92C147.76 615.44 149.92 620.4 149.92 626.8H169.6C169.6 621.36 168.48 616.24 166.24 611.44C164.16 606.48 161.2 602.24 157.36 598.72C153.68 595.04 149.36 592.16 144.4 590.08C139.44 587.84 134.16 586.72 128.56 586.72H111.52C105.76 586.72 100.32 587.76 95.2 589.84C90.24 591.92 85.84 594.8 82 598.48C78.32 602.16 75.36 606.48 73.12 611.44C71.04 616.24 70 621.52 70 627.28V641.68Z" fill="#F5C32C"/>
<path d="M309.293 586.72H189.293V606.64H229.373V766.72H269.213V606.64H309.293V586.72Z" fill="#F5C32C"/>
<path d="M370.253 766.72H408.413C413.853 766.72 418.973 765.68 423.773 763.6C428.733 761.36 433.053 758.4 436.733 754.72C440.573 750.88 443.613 746.56 445.853 741.76C448.093 736.8 449.213 731.6 449.213 726.16V627.28C449.213 622.16 448.093 617.2 445.853 612.4C443.773 607.44 440.893 603.12 437.213 599.44C433.533 595.6 429.213 592.56 424.253 590.32C419.293 587.92 414.013 586.72 408.413 586.72H370.253C364.653 586.72 359.373 587.92 354.413 590.32C349.453 592.56 345.133 595.6 341.453 599.44C337.773 603.12 334.813 607.44 332.573 612.4C330.493 617.2 329.453 622.16 329.453 627.28V726.16C329.453 731.6 330.573 736.8 332.813 741.76C335.053 746.56 338.013 750.88 341.693 754.72C345.533 758.4 349.853 761.36 354.653 763.6C359.613 765.68 364.813 766.72 370.253 766.72ZM409.373 746.56H369.293V606.64H409.373V746.56Z" fill="#F5C32C"/>
<path d="M529.371 666.4V606.4H569.451V666.4H529.371ZM489.531 766.72H529.371V686.8H569.451V766.72H609.291V711.04C609.291 704.16 608.171 698.56 605.931 694.24C603.691 689.76 601.211 686.24 598.491 683.68C595.931 680.96 593.531 679.12 591.291 678.16C589.051 677.04 587.931 676.48 587.931 676.48C587.931 676.48 589.051 676.08 591.291 675.28C593.531 674.48 595.931 672.96 598.491 670.72C601.211 668.32 603.691 665.04 605.931 660.88C608.171 656.56 609.291 650.96 609.291 644.08V626.8C609.291 620.88 608.331 615.44 606.411 610.48C604.651 605.52 602.011 601.28 598.491 597.76C594.971 594.24 590.731 591.52 585.771 589.6C580.971 587.68 575.531 586.72 569.451 586.72H489.531V766.72Z" fill="#F5C32C"/>
<path d="M691.129 586.72C686.489 586.72 681.689 587.84 676.729 590.08C671.929 592.32 667.529 595.28 663.529 598.96C659.689 602.64 656.489 606.96 653.929 611.92C651.529 616.88 650.329 622 650.329 627.28V766.72H690.169V686.8H729.529V766.72C730.809 766.88 733.289 766.96 736.969 766.96C740.649 766.96 744.569 766.96 748.729 766.96C753.049 766.96 757.129 766.88 760.969 766.72C764.969 766.72 767.849 766.72 769.609 766.72V627.28C769.609 622 768.329 616.96 765.769 612.16C763.209 607.2 759.929 602.88 755.929 599.2C752.089 595.36 747.689 592.32 742.729 590.08C737.769 587.84 732.889 586.72 728.089 586.72H691.129ZM690.169 666.4V606.4H729.529V666.4H690.169Z" fill="#F5C32C"/>
<path d="M869.448 686.56H889.608V746.56H849.528V606.64H893.688C898.648 606.64 902.568 608.48 905.448 612.16C908.328 615.68 909.768 620.72 909.768 627.28H929.448C929.448 622.16 928.328 617.2 926.088 612.4C923.848 607.44 920.808 603.12 916.968 599.44C913.128 595.6 908.728 592.56 903.768 590.32C898.807 587.92 893.688 586.72 888.408 586.72H850.248C844.648 586.72 839.368 587.92 834.408 590.32C829.448 592.56 825.128 595.6 821.448 599.44C817.768 603.28 814.888 607.68 812.808 612.64C810.728 617.44 809.688 622.4 809.688 627.52V725.92C809.688 731.52 810.728 736.8 812.808 741.76C814.888 746.72 817.768 751.04 821.448 754.72C825.128 758.4 829.368 761.36 834.168 763.6C839.128 765.68 844.488 766.72 850.248 766.72H888.648C894.728 766.72 900.247 765.6 905.208 763.36C910.168 761.12 914.408 758.16 917.928 754.48C921.608 750.8 924.408 746.48 926.328 741.52C928.408 736.56 929.448 731.36 929.448 725.92V666.16H869.448V686.56Z" fill="#F5C32C"/>
<path d="M1049.69 686.8V666.4H1009.61V606.64H1069.61V586.72H969.766V766.72H1069.61V746.56H1009.61V686.8H1049.69Z" fill="#F5C32C"/>
<path d="M70 641.68C70 646 71.44 650.48 74.32 655.12C77.36 659.6 81.04 664.16 85.36 668.8C89.84 673.44 94.64 678.08 99.76 682.72C105.04 687.2 109.84 691.52 114.16 695.68C118.64 699.84 122.32 703.84 125.2 707.68C128.24 711.36 129.76 714.64 129.76 717.52V746.8H111.52C105.12 746.8 99.92 744.88 95.92 741.04C92.08 737.2 90.16 732.24 90.16 726.16H70C70 731.76 71.04 737.04 73.12 742C75.36 746.8 78.32 751.04 82 754.72C85.84 758.4 90.24 761.36 95.2 763.6C100.32 765.68 105.76 766.72 111.52 766.72H128.32C134.4 766.72 139.92 765.68 144.88 763.6C150 761.36 154.32 758.4 157.84 754.72C161.52 750.88 164.32 746.56 166.24 741.76C168.32 736.8 169.36 731.6 169.36 726.16V711.52C169.36 706.72 167.84 701.84 164.8 696.88C161.92 691.76 158.24 686.8 153.76 682C149.44 677.04 144.72 672.24 139.6 667.6C134.48 662.96 129.68 658.64 125.2 654.64C120.88 650.48 117.2 646.72 114.16 643.36C111.28 640 109.84 637.12 109.84 634.72V606.4H125.68C133.36 606.4 139.28 608.24 143.44 611.92C147.76 615.44 149.92 620.4 149.92 626.8H169.6C169.6 621.36 168.48 616.24 166.24 611.44C164.16 606.48 161.2 602.24 157.36 598.72C153.68 595.04 149.36 592.16 144.4 590.08C139.44 587.84 134.16 586.72 128.56 586.72H111.52C105.76 586.72 100.32 587.76 95.2 589.84C90.24 591.92 85.84 594.8 82 598.48C78.32 602.16 75.36 606.48 73.12 611.44C71.04 616.24 70 621.52 70 627.28V641.68Z" stroke="black" stroke-width="2" mask="url(#path-2-outside-2)"/>
<path d="M309.293 586.72H189.293V606.64H229.373V766.72H269.213V606.64H309.293V586.72Z" stroke="black" stroke-width="2" mask="url(#path-2-outside-2)"/>
<path d="M370.253 766.72H408.413C413.853 766.72 418.973 765.68 423.773 763.6C428.733 761.36 433.053 758.4 436.733 754.72C440.573 750.88 443.613 746.56 445.853 741.76C448.093 736.8 449.213 731.6 449.213 726.16V627.28C449.213 622.16 448.093 617.2 445.853 612.4C443.773 607.44 440.893 603.12 437.213 599.44C433.533 595.6 429.213 592.56 424.253 590.32C419.293 587.92 414.013 586.72 408.413 586.72H370.253C364.653 586.72 359.373 587.92 354.413 590.32C349.453 592.56 345.133 595.6 341.453 599.44C337.773 603.12 334.813 607.44 332.573 612.4C330.493 617.2 329.453 622.16 329.453 627.28V726.16C329.453 731.6 330.573 736.8 332.813 741.76C335.053 746.56 338.013 750.88 341.693 754.72C345.533 758.4 349.853 761.36 354.653 763.6C359.613 765.68 364.813 766.72 370.253 766.72ZM409.373 746.56H369.293V606.64H409.373V746.56Z" stroke="black" stroke-width="2" mask="url(#path-2-outside-2)"/>
<path d="M529.371 666.4V606.4H569.451V666.4H529.371ZM489.531 766.72H529.371V686.8H569.451V766.72H609.291V711.04C609.291 704.16 608.171 698.56 605.931 694.24C603.691 689.76 601.211 686.24 598.491 683.68C595.931 680.96 593.531 679.12 591.291 678.16C589.051 677.04 587.931 676.48 587.931 676.48C587.931 676.48 589.051 676.08 591.291 675.28C593.531 674.48 595.931 672.96 598.491 670.72C601.211 668.32 603.691 665.04 605.931 660.88C608.171 656.56 609.291 650.96 609.291 644.08V626.8C609.291 620.88 608.331 615.44 606.411 610.48C604.651 605.52 602.011 601.28 598.491 597.76C594.971 594.24 590.731 591.52 585.771 589.6C580.971 587.68 575.531 586.72 569.451 586.72H489.531V766.72Z" stroke="black" stroke-width="2" mask="url(#path-2-outside-2)"/>
<path d="M691.129 586.72C686.489 586.72 681.689 587.84 676.729 590.08C671.929 592.32 667.529 595.28 663.529 598.96C659.689 602.64 656.489 606.96 653.929 611.92C651.529 616.88 650.329 622 650.329 627.28V766.72H690.169V686.8H729.529V766.72C730.809 766.88 733.289 766.96 736.969 766.96C740.649 766.96 744.569 766.96 748.729 766.96C753.049 766.96 757.129 766.88 760.969 766.72C764.969 766.72 767.849 766.72 769.609 766.72V627.28C769.609 622 768.329 616.96 765.769 612.16C763.209 607.2 759.929 602.88 755.929 599.2C752.089 595.36 747.689 592.32 742.729 590.08C737.769 587.84 732.889 586.72 728.089 586.72H691.129ZM690.169 666.4V606.4H729.529V666.4H690.169Z" stroke="black" stroke-width="2" mask="url(#path-2-outside-2)"/>
<path d="M869.448 686.56H889.608V746.56H849.528V606.64H893.688C898.648 606.64 902.568 608.48 905.448 612.16C908.328 615.68 909.768 620.72 909.768 627.28H929.448C929.448 622.16 928.328 617.2 926.088 612.4C923.848 607.44 920.808 603.12 916.968 599.44C913.128 595.6 908.728 592.56 903.768 590.32C898.807 587.92 893.688 586.72 888.408 586.72H850.248C844.648 586.72 839.368 587.92 834.408 590.32C829.448 592.56 825.128 595.6 821.448 599.44C817.768 603.28 814.888 607.68 812.808 612.64C810.728 617.44 809.688 622.4 809.688 627.52V725.92C809.688 731.52 810.728 736.8 812.808 741.76C814.888 746.72 817.768 751.04 821.448 754.72C825.128 758.4 829.368 761.36 834.168 763.6C839.128 765.68 844.488 766.72 850.248 766.72H888.648C894.728 766.72 900.247 765.6 905.208 763.36C910.168 761.12 914.408 758.16 917.928 754.48C921.608 750.8 924.408 746.48 926.328 741.52C928.408 736.56 929.448 731.36 929.448 725.92V666.16H869.448V686.56Z" stroke="black" stroke-width="2" mask="url(#path-2-outside-2)"/>
<path d="M1049.69 686.8V666.4H1009.61V606.64H1069.61V586.72H969.766V766.72H1069.61V746.56H1009.61V686.8H1049.69Z" stroke="black" stroke-width="2" mask="url(#path-2-outside-2)"/>
<mask id="path-3-outside-3" maskUnits="userSpaceOnUse" x="69" y="575.48" width="1002" height="183" fill="black">
<rect fill="white" x="69" y="575.48" width="1002" height="183"/>
<path d="M70 631.44C70 635.76 71.44 640.24 74.32 644.88C77.36 649.36 81.04 653.92 85.36 658.56C89.84 663.2 94.64 667.84 99.76 672.48C105.04 676.96 109.84 681.28 114.16 685.44C118.64 689.6 122.32 693.6 125.2 697.44C128.24 701.12 129.76 704.4 129.76 707.28V736.56H111.52C105.12 736.56 99.92 734.64 95.92 730.8C92.08 726.96 90.16 722 90.16 715.92H70C70 721.52 71.04 726.8 73.12 731.76C75.36 736.56 78.32 740.8 82 744.48C85.84 748.16 90.24 751.12 95.2 753.36C100.32 755.44 105.76 756.48 111.52 756.48H128.32C134.4 756.48 139.92 755.44 144.88 753.36C150 751.12 154.32 748.16 157.84 744.48C161.52 740.64 164.32 736.32 166.24 731.52C168.32 726.56 169.36 721.36 169.36 715.92V701.28C169.36 696.48 167.84 691.6 164.8 686.64C161.92 681.52 158.24 676.56 153.76 671.76C149.44 666.8 144.72 662 139.6 657.36C134.48 652.72 129.68 648.4 125.2 644.4C120.88 640.24 117.2 636.48 114.16 633.12C111.28 629.76 109.84 626.88 109.84 624.48V596.16H125.68C133.36 596.16 139.28 598 143.44 601.68C147.76 605.2 149.92 610.16 149.92 616.56H169.6C169.6 611.12 168.48 606 166.24 601.2C164.16 596.24 161.2 592 157.36 588.48C153.68 584.8 149.36 581.92 144.4 579.84C139.44 577.6 134.16 576.48 128.56 576.48H111.52C105.76 576.48 100.32 577.52 95.2 579.6C90.24 581.68 85.84 584.56 82 588.24C78.32 591.92 75.36 596.24 73.12 601.2C71.04 606 70 611.28 70 617.04V631.44Z"/>
<path d="M309.293 576.48H189.293V596.4H229.373V756.48H269.213V596.4H309.293V576.48Z"/>
<path d="M370.253 756.48H408.413C413.853 756.48 418.973 755.44 423.773 753.36C428.733 751.12 433.053 748.16 436.733 744.48C440.573 740.64 443.613 736.32 445.853 731.52C448.093 726.56 449.213 721.36 449.213 715.92V617.04C449.213 611.92 448.093 606.96 445.853 602.16C443.773 597.2 440.893 592.88 437.213 589.2C433.533 585.36 429.213 582.32 424.253 580.08C419.293 577.68 414.013 576.48 408.413 576.48H370.253C364.653 576.48 359.373 577.68 354.413 580.08C349.453 582.32 345.133 585.36 341.453 589.2C337.773 592.88 334.813 597.2 332.573 602.16C330.493 606.96 329.453 611.92 329.453 617.04V715.92C329.453 721.36 330.573 726.56 332.813 731.52C335.053 736.32 338.013 740.64 341.693 744.48C345.533 748.16 349.853 751.12 354.653 753.36C359.613 755.44 364.813 756.48 370.253 756.48ZM409.373 736.32H369.293V596.4H409.373V736.32Z"/>
<path d="M529.371 656.16V596.16H569.451V656.16H529.371ZM489.531 756.48H529.371V676.56H569.451V756.48H609.291V700.8C609.291 693.92 608.171 688.32 605.931 684C603.691 679.52 601.211 676 598.491 673.44C595.931 670.72 593.531 668.88 591.291 667.92C589.051 666.8 587.931 666.24 587.931 666.24C587.931 666.24 589.051 665.84 591.291 665.04C593.531 664.24 595.931 662.72 598.491 660.48C601.211 658.08 603.691 654.8 605.931 650.64C608.171 646.32 609.291 640.72 609.291 633.84V616.56C609.291 610.64 608.331 605.2 606.411 600.24C604.651 595.28 602.011 591.04 598.491 587.52C594.971 584 590.731 581.28 585.771 579.36C580.971 577.44 575.531 576.48 569.451 576.48H489.531V756.48Z"/>
<path d="M691.129 576.48C686.489 576.48 681.689 577.6 676.729 579.84C671.929 582.08 667.529 585.04 663.529 588.72C659.689 592.4 656.489 596.72 653.929 601.68C651.529 606.64 650.329 611.76 650.329 617.04V756.48H690.169V676.56H729.529V756.48C730.809 756.64 733.289 756.72 736.969 756.72C740.649 756.72 744.569 756.72 748.729 756.72C753.049 756.72 757.129 756.64 760.969 756.48C764.969 756.48 767.849 756.48 769.609 756.48V617.04C769.609 611.76 768.329 606.72 765.769 601.92C763.209 596.96 759.929 592.64 755.929 588.96C752.089 585.12 747.689 582.08 742.729 579.84C737.769 577.6 732.889 576.48 728.089 576.48H691.129ZM690.169 656.16V596.16H729.529V656.16H690.169Z"/>
<path d="M869.448 676.32H889.608V736.32H849.528V596.4H893.688C898.648 596.4 902.568 598.24 905.448 601.92C908.328 605.44 909.768 610.48 909.768 617.04H929.448C929.448 611.92 928.328 606.96 926.088 602.16C923.848 597.2 920.808 592.88 916.968 589.2C913.128 585.36 908.728 582.32 903.768 580.08C898.807 577.68 893.688 576.48 888.408 576.48H850.248C844.648 576.48 839.368 577.68 834.408 580.08C829.448 582.32 825.128 585.36 821.448 589.2C817.768 593.04 814.888 597.44 812.808 602.4C810.728 607.2 809.688 612.16 809.688 617.28V715.68C809.688 721.28 810.728 726.56 812.808 731.52C814.888 736.48 817.768 740.8 821.448 744.48C825.128 748.16 829.368 751.12 834.168 753.36C839.128 755.44 844.488 756.48 850.248 756.48H888.648C894.728 756.48 900.247 755.36 905.208 753.12C910.168 750.88 914.408 747.92 917.928 744.24C921.608 740.56 924.408 736.24 926.328 731.28C928.408 726.32 929.448 721.12 929.448 715.68V655.92H869.448V676.32Z"/>
<path d="M1049.69 676.56V656.16H1009.61V596.4H1069.61V576.48H969.766V756.48H1069.61V736.32H1009.61V676.56H1049.69Z"/>
</mask>
<path d="M70 631.44C70 635.76 71.44 640.24 74.32 644.88C77.36 649.36 81.04 653.92 85.36 658.56C89.84 663.2 94.64 667.84 99.76 672.48C105.04 676.96 109.84 681.28 114.16 685.44C118.64 689.6 122.32 693.6 125.2 697.44C128.24 701.12 129.76 704.4 129.76 707.28V736.56H111.52C105.12 736.56 99.92 734.64 95.92 730.8C92.08 726.96 90.16 722 90.16 715.92H70C70 721.52 71.04 726.8 73.12 731.76C75.36 736.56 78.32 740.8 82 744.48C85.84 748.16 90.24 751.12 95.2 753.36C100.32 755.44 105.76 756.48 111.52 756.48H128.32C134.4 756.48 139.92 755.44 144.88 753.36C150 751.12 154.32 748.16 157.84 744.48C161.52 740.64 164.32 736.32 166.24 731.52C168.32 726.56 169.36 721.36 169.36 715.92V701.28C169.36 696.48 167.84 691.6 164.8 686.64C161.92 681.52 158.24 676.56 153.76 671.76C149.44 666.8 144.72 662 139.6 657.36C134.48 652.72 129.68 648.4 125.2 644.4C120.88 640.24 117.2 636.48 114.16 633.12C111.28 629.76 109.84 626.88 109.84 624.48V596.16H125.68C133.36 596.16 139.28 598 143.44 601.68C147.76 605.2 149.92 610.16 149.92 616.56H169.6C169.6 611.12 168.48 606 166.24 601.2C164.16 596.24 161.2 592 157.36 588.48C153.68 584.8 149.36 581.92 144.4 579.84C139.44 577.6 134.16 576.48 128.56 576.48H111.52C105.76 576.48 100.32 577.52 95.2 579.6C90.24 581.68 85.84 584.56 82 588.24C78.32 591.92 75.36 596.24 73.12 601.2C71.04 606 70 611.28 70 617.04V631.44Z" fill="#F5C32C"/>
<path d="M309.293 576.48H189.293V596.4H229.373V756.48H269.213V596.4H309.293V576.48Z" fill="#F5C32C"/>
<path d="M370.253 756.48H408.413C413.853 756.48 418.973 755.44 423.773 753.36C428.733 751.12 433.053 748.16 436.733 744.48C440.573 740.64 443.613 736.32 445.853 731.52C448.093 726.56 449.213 721.36 449.213 715.92V617.04C449.213 611.92 448.093 606.96 445.853 602.16C443.773 597.2 440.893 592.88 437.213 589.2C433.533 585.36 429.213 582.32 424.253 580.08C419.293 577.68 414.013 576.48 408.413 576.48H370.253C364.653 576.48 359.373 577.68 354.413 580.08C349.453 582.32 345.133 585.36 341.453 589.2C337.773 592.88 334.813 597.2 332.573 602.16C330.493 606.96 329.453 611.92 329.453 617.04V715.92C329.453 721.36 330.573 726.56 332.813 731.52C335.053 736.32 338.013 740.64 341.693 744.48C345.533 748.16 349.853 751.12 354.653 753.36C359.613 755.44 364.813 756.48 370.253 756.48ZM409.373 736.32H369.293V596.4H409.373V736.32Z" fill="#F5C32C"/>
<path d="M529.371 656.16V596.16H569.451V656.16H529.371ZM489.531 756.48H529.371V676.56H569.451V756.48H609.291V700.8C609.291 693.92 608.171 688.32 605.931 684C603.691 679.52 601.211 676 598.491 673.44C595.931 670.72 593.531 668.88 591.291 667.92C589.051 666.8 587.931 666.24 587.931 666.24C587.931 666.24 589.051 665.84 591.291 665.04C593.531 664.24 595.931 662.72 598.491 660.48C601.211 658.08 603.691 654.8 605.931 650.64C608.171 646.32 609.291 640.72 609.291 633.84V616.56C609.291 610.64 608.331 605.2 606.411 600.24C604.651 595.28 602.011 591.04 598.491 587.52C594.971 584 590.731 581.28 585.771 579.36C580.971 577.44 575.531 576.48 569.451 576.48H489.531V756.48Z" fill="#F5C32C"/>
<path d="M691.129 576.48C686.489 576.48 681.689 577.6 676.729 579.84C671.929 582.08 667.529 585.04 663.529 588.72C659.689 592.4 656.489 596.72 653.929 601.68C651.529 606.64 650.329 611.76 650.329 617.04V756.48H690.169V676.56H729.529V756.48C730.809 756.64 733.289 756.72 736.969 756.72C740.649 756.72 744.569 756.72 748.729 756.72C753.049 756.72 757.129 756.64 760.969 756.48C764.969 756.48 767.849 756.48 769.609 756.48V617.04C769.609 611.76 768.329 606.72 765.769 601.92C763.209 596.96 759.929 592.64 755.929 588.96C752.089 585.12 747.689 582.08 742.729 579.84C737.769 577.6 732.889 576.48 728.089 576.48H691.129ZM690.169 656.16V596.16H729.529V656.16H690.169Z" fill="#F5C32C"/>
<path d="M869.448 676.32H889.608V736.32H849.528V596.4H893.688C898.648 596.4 902.568 598.24 905.448 601.92C908.328 605.44 909.768 610.48 909.768 617.04H929.448C929.448 611.92 928.328 606.96 926.088 602.16C923.848 597.2 920.808 592.88 916.968 589.2C913.128 585.36 908.728 582.32 903.768 580.08C898.807 577.68 893.688 576.48 888.408 576.48H850.248C844.648 576.48 839.368 577.68 834.408 580.08C829.448 582.32 825.128 585.36 821.448 589.2C817.768 593.04 814.888 597.44 812.808 602.4C810.728 607.2 809.688 612.16 809.688 617.28V715.68C809.688 721.28 810.728 726.56 812.808 731.52C814.888 736.48 817.768 740.8 821.448 744.48C825.128 748.16 829.368 751.12 834.168 753.36C839.128 755.44 844.488 756.48 850.248 756.48H888.648C894.728 756.48 900.247 755.36 905.208 753.12C910.168 750.88 914.408 747.92 917.928 744.24C921.608 740.56 924.408 736.24 926.328 731.28C928.408 726.32 929.448 721.12 929.448 715.68V655.92H869.448V676.32Z" fill="#F5C32C"/>
<path d="M1049.69 676.56V656.16H1009.61V596.4H1069.61V576.48H969.766V756.48H1069.61V736.32H1009.61V676.56H1049.69Z" fill="#F5C32C"/>
<path d="M70 631.44C70 635.76 71.44 640.24 74.32 644.88C77.36 649.36 81.04 653.92 85.36 658.56C89.84 663.2 94.64 667.84 99.76 672.48C105.04 676.96 109.84 681.28 114.16 685.44C118.64 689.6 122.32 693.6 125.2 697.44C128.24 701.12 129.76 704.4 129.76 707.28V736.56H111.52C105.12 736.56 99.92 734.64 95.92 730.8C92.08 726.96 90.16 722 90.16 715.92H70C70 721.52 71.04 726.8 73.12 731.76C75.36 736.56 78.32 740.8 82 744.48C85.84 748.16 90.24 751.12 95.2 753.36C100.32 755.44 105.76 756.48 111.52 756.48H128.32C134.4 756.48 139.92 755.44 144.88 753.36C150 751.12 154.32 748.16 157.84 744.48C161.52 740.64 164.32 736.32 166.24 731.52C168.32 726.56 169.36 721.36 169.36 715.92V701.28C169.36 696.48 167.84 691.6 164.8 686.64C161.92 681.52 158.24 676.56 153.76 671.76C149.44 666.8 144.72 662 139.6 657.36C134.48 652.72 129.68 648.4 125.2 644.4C120.88 640.24 117.2 636.48 114.16 633.12C111.28 629.76 109.84 626.88 109.84 624.48V596.16H125.68C133.36 596.16 139.28 598 143.44 601.68C147.76 605.2 149.92 610.16 149.92 616.56H169.6C169.6 611.12 168.48 606 166.24 601.2C164.16 596.24 161.2 592 157.36 588.48C153.68 584.8 149.36 581.92 144.4 579.84C139.44 577.6 134.16 576.48 128.56 576.48H111.52C105.76 576.48 100.32 577.52 95.2 579.6C90.24 581.68 85.84 584.56 82 588.24C78.32 591.92 75.36 596.24 73.12 601.2C71.04 606 70 611.28 70 617.04V631.44Z" stroke="black" stroke-width="2" mask="url(#path-3-outside-3)"/>
<path d="M309.293 576.48H189.293V596.4H229.373V756.48H269.213V596.4H309.293V576.48Z" stroke="black" stroke-width="2" mask="url(#path-3-outside-3)"/>
<path d="M370.253 756.48H408.413C413.853 756.48 418.973 755.44 423.773 753.36C428.733 751.12 433.053 748.16 436.733 744.48C440.573 740.64 443.613 736.32 445.853 731.52C448.093 726.56 449.213 721.36 449.213 715.92V617.04C449.213 611.92 448.093 606.96 445.853 602.16C443.773 597.2 440.893 592.88 437.213 589.2C433.533 585.36 429.213 582.32 424.253 580.08C419.293 577.68 414.013 576.48 408.413 576.48H370.253C364.653 576.48 359.373 577.68 354.413 580.08C349.453 582.32 345.133 585.36 341.453 589.2C337.773 592.88 334.813 597.2 332.573 602.16C330.493 606.96 329.453 611.92 329.453 617.04V715.92C329.453 721.36 330.573 726.56 332.813 731.52C335.053 736.32 338.013 740.64 341.693 744.48C345.533 748.16 349.853 751.12 354.653 753.36C359.613 755.44 364.813 756.48 370.253 756.48ZM409.373 736.32H369.293V596.4H409.373V736.32Z" stroke="black" stroke-width="2" mask="url(#path-3-outside-3)"/>
<path d="M529.371 656.16V596.16H569.451V656.16H529.371ZM489.531 756.48H529.371V676.56H569.451V756.48H609.291V700.8C609.291 693.92 608.171 688.32 605.931 684C603.691 679.52 601.211 676 598.491 673.44C595.931 670.72 593.531 668.88 591.291 667.92C589.051 666.8 587.931 666.24 587.931 666.24C587.931 666.24 589.051 665.84 591.291 665.04C593.531 664.24 595.931 662.72 598.491 660.48C601.211 658.08 603.691 654.8 605.931 650.64C608.171 646.32 609.291 640.72 609.291 633.84V616.56C609.291 610.64 608.331 605.2 606.411 600.24C604.651 595.28 602.011 591.04 598.491 587.52C594.971 584 590.731 581.28 585.771 579.36C580.971 577.44 575.531 576.48 569.451 576.48H489.531V756.48Z" stroke="black" stroke-width="2" mask="url(#path-3-outside-3)"/>
<path d="M691.129 576.48C686.489 576.48 681.689 577.6 676.729 579.84C671.929 582.08 667.529 585.04 663.529 588.72C659.689 592.4 656.489 596.72 653.929 601.68C651.529 606.64 650.329 611.76 650.329 617.04V756.48H690.169V676.56H729.529V756.48C730.809 756.64 733.289 756.72 736.969 756.72C740.649 756.72 744.569 756.72 748.729 756.72C753.049 756.72 757.129 756.64 760.969 756.48C764.969 756.48 767.849 756.48 769.609 756.48V617.04C769.609 611.76 768.329 606.72 765.769 601.92C763.209 596.96 759.929 592.64 755.929 588.96C752.089 585.12 747.689 582.08 742.729 579.84C737.769 577.6 732.889 576.48 728.089 576.48H691.129ZM690.169 656.16V596.16H729.529V656.16H690.169Z" stroke="black" stroke-width="2" mask="url(#path-3-outside-3)"/>
<path d="M869.448 676.32H889.608V736.32H849.528V596.4H893.688C898.648 596.4 902.568 598.24 905.448 601.92C908.328 605.44 909.768 610.48 909.768 617.04H929.448C929.448 611.92 928.328 606.96 926.088 602.16C923.848 597.2 920.808 592.88 916.968 589.2C913.128 585.36 908.728 582.32 903.768 580.08C898.807 577.68 893.688 576.48 888.408 576.48H850.248C844.648 576.48 839.368 577.68 834.408 580.08C829.448 582.32 825.128 585.36 821.448 589.2C817.768 593.04 814.888 597.44 812.808 602.4C810.728 607.2 809.688 612.16 809.688 617.28V715.68C809.688 721.28 810.728 726.56 812.808 731.52C814.888 736.48 817.768 740.8 821.448 744.48C825.128 748.16 829.368 751.12 834.168 753.36C839.128 755.44 844.488 756.48 850.248 756.48H888.648C894.728 756.48 900.247 755.36 905.208 753.12C910.168 750.88 914.408 747.92 917.928 744.24C921.608 740.56 924.408 736.24 926.328 731.28C928.408 726.32 929.448 721.12 929.448 715.68V655.92H869.448V676.32Z" stroke="black" stroke-width="2" mask="url(#path-3-outside-3)"/>
<path d="M1049.69 676.56V656.16H1009.61V596.4H1069.61V576.48H969.766V756.48H1069.61V736.32H1009.61V676.56H1049.69Z" stroke="black" stroke-width="2" mask="url(#path-3-outside-3)"/>
<mask id="path-4-outside-4" maskUnits="userSpaceOnUse" x="69" y="565.24" width="1002" height="183" fill="black">
<rect fill="white" x="69" y="565.24" width="1002" height="183"/>
<path d="M70 621.2C70 625.52 71.44 630 74.32 634.64C77.36 639.12 81.04 643.68 85.36 648.32C89.84 652.96 94.64 657.6 99.76 662.24C105.04 666.72 109.84 671.04 114.16 675.2C118.64 679.36 122.32 683.36 125.2 687.2C128.24 690.88 129.76 694.16 129.76 697.04V726.32H111.52C105.12 726.32 99.92 724.4 95.92 720.56C92.08 716.72 90.16 711.76 90.16 705.68H70C70 711.28 71.04 716.56 73.12 721.52C75.36 726.32 78.32 730.56 82 734.24C85.84 737.92 90.24 740.88 95.2 743.12C100.32 745.2 105.76 746.24 111.52 746.24H128.32C134.4 746.24 139.92 745.2 144.88 743.12C150 740.88 154.32 737.92 157.84 734.24C161.52 730.4 164.32 726.08 166.24 721.28C168.32 716.32 169.36 711.12 169.36 705.68V691.04C169.36 686.24 167.84 681.36 164.8 676.4C161.92 671.28 158.24 666.32 153.76 661.52C149.44 656.56 144.72 651.76 139.6 647.12C134.48 642.48 129.68 638.16 125.2 634.16C120.88 630 117.2 626.24 114.16 622.88C111.28 619.52 109.84 616.64 109.84 614.24V585.92H125.68C133.36 585.92 139.28 587.76 143.44 591.44C147.76 594.96 149.92 599.92 149.92 606.32H169.6C169.6 600.88 168.48 595.76 166.24 590.96C164.16 586 161.2 581.76 157.36 578.24C153.68 574.56 149.36 571.68 144.4 569.6C139.44 567.36 134.16 566.24 128.56 566.24H111.52C105.76 566.24 100.32 567.28 95.2 569.36C90.24 571.44 85.84 574.32 82 578C78.32 581.68 75.36 586 73.12 590.96C71.04 595.76 70 601.04 70 606.8V621.2Z"/>
<path d="M309.293 566.24H189.293V586.16H229.373V746.24H269.213V586.16H309.293V566.24Z"/>
<path d="M370.253 746.24H408.413C413.853 746.24 418.973 745.2 423.773 743.12C428.733 740.88 433.053 737.92 436.733 734.24C440.573 730.4 443.613 726.08 445.853 721.28C448.093 716.32 449.213 711.12 449.213 705.68V606.8C449.213 601.68 448.093 596.72 445.853 591.92C443.773 586.96 440.893 582.64 437.213 578.96C433.533 575.12 429.213 572.08 424.253 569.84C419.293 567.44 414.013 566.24 408.413 566.24H370.253C364.653 566.24 359.373 567.44 354.413 569.84C349.453 572.08 345.133 575.12 341.453 578.96C337.773 582.64 334.813 586.96 332.573 591.92C330.493 596.72 329.453 601.68 329.453 606.8V705.68C329.453 711.12 330.573 716.32 332.813 721.28C335.053 726.08 338.013 730.4 341.693 734.24C345.533 737.92 349.853 740.88 354.653 743.12C359.613 745.2 364.813 746.24 370.253 746.24ZM409.373 726.08H369.293V586.16H409.373V726.08Z"/>
<path d="M529.371 645.92V585.92H569.451V645.92H529.371ZM489.531 746.24H529.371V666.32H569.451V746.24H609.291V690.56C609.291 683.68 608.171 678.08 605.931 673.76C603.691 669.28 601.211 665.76 598.491 663.2C595.931 660.48 593.531 658.64 591.291 657.68C589.051 656.56 587.931 656 587.931 656C587.931 656 589.051 655.6 591.291 654.8C593.531 654 595.931 652.48 598.491 650.24C601.211 647.84 603.691 644.56 605.931 640.4C608.171 636.08 609.291 630.48 609.291 623.6V606.32C609.291 600.4 608.331 594.96 606.411 590C604.651 585.04 602.011 580.8 598.491 577.28C594.971 573.76 590.731 571.04 585.771 569.12C580.971 567.2 575.531 566.24 569.451 566.24H489.531V746.24Z"/>
<path d="M691.129 566.24C686.489 566.24 681.689 567.36 676.729 569.6C671.929 571.84 667.529 574.8 663.529 578.48C659.689 582.16 656.489 586.48 653.929 591.44C651.529 596.4 650.329 601.52 650.329 606.8V746.24H690.169V666.32H729.529V746.24C730.809 746.4 733.289 746.48 736.969 746.48C740.649 746.48 744.569 746.48 748.729 746.48C753.049 746.48 757.129 746.4 760.969 746.24C764.969 746.24 767.849 746.24 769.609 746.24V606.8C769.609 601.52 768.329 596.48 765.769 591.68C763.209 586.72 759.929 582.4 755.929 578.72C752.089 574.88 747.689 571.84 742.729 569.6C737.769 567.36 732.889 566.24 728.089 566.24H691.129ZM690.169 645.92V585.92H729.529V645.92H690.169Z"/>
<path d="M869.448 666.08H889.608V726.08H849.528V586.16H893.688C898.648 586.16 902.568 588 905.448 591.68C908.328 595.2 909.768 600.24 909.768 606.8H929.448C929.448 601.68 928.328 596.72 926.088 591.92C923.848 586.96 920.808 582.64 916.968 578.96C913.128 575.12 908.728 572.08 903.768 569.84C898.807 567.44 893.688 566.24 888.408 566.24H850.248C844.648 566.24 839.368 567.44 834.408 569.84C829.448 572.08 825.128 575.12 821.448 578.96C817.768 582.8 814.888 587.2 812.808 592.16C810.728 596.96 809.688 601.92 809.688 607.04V705.44C809.688 711.04 810.728 716.32 812.808 721.28C814.888 726.24 817.768 730.56 821.448 734.24C825.128 737.92 829.368 740.88 834.168 743.12C839.128 745.2 844.488 746.24 850.248 746.24H888.648C894.728 746.24 900.247 745.12 905.208 742.88C910.168 740.64 914.408 737.68 917.928 734C921.608 730.32 924.408 726 926.328 721.04C928.408 716.08 929.448 710.88 929.448 705.44V645.68H869.448V666.08Z"/>
<path d="M1049.69 666.32V645.92H1009.61V586.16H1069.61V566.24H969.766V746.24H1069.61V726.08H1009.61V666.32H1049.69Z"/>
</mask>
<path d="M70 621.2C70 625.52 71.44 630 74.32 634.64C77.36 639.12 81.04 643.68 85.36 648.32C89.84 652.96 94.64 657.6 99.76 662.24C105.04 666.72 109.84 671.04 114.16 675.2C118.64 679.36 122.32 683.36 125.2 687.2C128.24 690.88 129.76 694.16 129.76 697.04V726.32H111.52C105.12 726.32 99.92 724.4 95.92 720.56C92.08 716.72 90.16 711.76 90.16 705.68H70C70 711.28 71.04 716.56 73.12 721.52C75.36 726.32 78.32 730.56 82 734.24C85.84 737.92 90.24 740.88 95.2 743.12C100.32 745.2 105.76 746.24 111.52 746.24H128.32C134.4 746.24 139.92 745.2 144.88 743.12C150 740.88 154.32 737.92 157.84 734.24C161.52 730.4 164.32 726.08 166.24 721.28C168.32 716.32 169.36 711.12 169.36 705.68V691.04C169.36 686.24 167.84 681.36 164.8 676.4C161.92 671.28 158.24 666.32 153.76 661.52C149.44 656.56 144.72 651.76 139.6 647.12C134.48 642.48 129.68 638.16 125.2 634.16C120.88 630 117.2 626.24 114.16 622.88C111.28 619.52 109.84 616.64 109.84 614.24V585.92H125.68C133.36 585.92 139.28 587.76 143.44 591.44C147.76 594.96 149.92 599.92 149.92 606.32H169.6C169.6 600.88 168.48 595.76 166.24 590.96C164.16 586 161.2 581.76 157.36 578.24C153.68 574.56 149.36 571.68 144.4 569.6C139.44 567.36 134.16 566.24 128.56 566.24H111.52C105.76 566.24 100.32 567.28 95.2 569.36C90.24 571.44 85.84 574.32 82 578C78.32 581.68 75.36 586 73.12 590.96C71.04 595.76 70 601.04 70 606.8V621.2Z" fill="#F5C32C"/>
<path d="M309.293 566.24H189.293V586.16H229.373V746.24H269.213V586.16H309.293V566.24Z" fill="#F5C32C"/>
<path d="M370.253 746.24H408.413C413.853 746.24 418.973 745.2 423.773 743.12C428.733 740.88 433.053 737.92 436.733 734.24C440.573 730.4 443.613 726.08 445.853 721.28C448.093 716.32 449.213 711.12 449.213 705.68V606.8C449.213 601.68 448.093 596.72 445.853 591.92C443.773 586.96 440.893 582.64 437.213 578.96C433.533 575.12 429.213 572.08 424.253 569.84C419.293 567.44 414.013 566.24 408.413 566.24H370.253C364.653 566.24 359.373 567.44 354.413 569.84C349.453 572.08 345.133 575.12 341.453 578.96C337.773 582.64 334.813 586.96 332.573 591.92C330.493 596.72 329.453 601.68 329.453 606.8V705.68C329.453 711.12 330.573 716.32 332.813 721.28C335.053 726.08 338.013 730.4 341.693 734.24C345.533 737.92 349.853 740.88 354.653 743.12C359.613 745.2 364.813 746.24 370.253 746.24ZM409.373 726.08H369.293V586.16H409.373V726.08Z" fill="#F5C32C"/>
<path d="M529.371 645.92V585.92H569.451V645.92H529.371ZM489.531 746.24H529.371V666.32H569.451V746.24H609.291V690.56C609.291 683.68 608.171 678.08 605.931 673.76C603.691 669.28 601.211 665.76 598.491 663.2C595.931 660.48 593.531 658.64 591.291 657.68C589.051 656.56 587.931 656 587.931 656C587.931 656 589.051 655.6 591.291 654.8C593.531 654 595.931 652.48 598.491 650.24C601.211 647.84 603.691 644.56 605.931 640.4C608.171 636.08 609.291 630.48 609.291 623.6V606.32C609.291 600.4 608.331 594.96 606.411 590C604.651 585.04 602.011 580.8 598.491 577.28C594.971 573.76 590.731 571.04 585.771 569.12C580.971 567.2 575.531 566.24 569.451 566.24H489.531V746.24Z" fill="#F5C32C"/>
<path d="M691.129 566.24C686.489 566.24 681.689 567.36 676.729 569.6C671.929 571.84 667.529 574.8 663.529 578.48C659.689 582.16 656.489 586.48 653.929 591.44C651.529 596.4 650.329 601.52 650.329 606.8V746.24H690.169V666.32H729.529V746.24C730.809 746.4 733.289 746.48 736.969 746.48C740.649 746.48 744.569 746.48 748.729 746.48C753.049 746.48 757.129 746.4 760.969 746.24C764.969 746.24 767.849 746.24 769.609 746.24V606.8C769.609 601.52 768.329 596.48 765.769 591.68C763.209 586.72 759.929 582.4 755.929 578.72C752.089 574.88 747.689 571.84 742.729 569.6C737.769 567.36 732.889 566.24 728.089 566.24H691.129ZM690.169 645.92V585.92H729.529V645.92H690.169Z" fill="#F5C32C"/>
<path d="M869.448 666.08H889.608V726.08H849.528V586.16H893.688C898.648 586.16 902.568 588 905.448 591.68C908.328 595.2 909.768 600.24 909.768 606.8H929.448C929.448 601.68 928.328 596.72 926.088 591.92C923.848 586.96 920.808 582.64 916.968 578.96C913.128 575.12 908.728 572.08 903.768 569.84C898.807 567.44 893.688 566.24 888.408 566.24H850.248C844.648 566.24 839.368 567.44 834.408 569.84C829.448 572.08 825.128 575.12 821.448 578.96C817.768 582.8 814.888 587.2 812.808 592.16C810.728 596.96 809.688 601.92 809.688 607.04V705.44C809.688 711.04 810.728 716.32 812.808 721.28C814.888 726.24 817.768 730.56 821.448 734.24C825.128 737.92 829.368 740.88 834.168 743.12C839.128 745.2 844.488 746.24 850.248 746.24H888.648C894.728 746.24 900.247 745.12 905.208 742.88C910.168 740.64 914.408 737.68 917.928 734C921.608 730.32 924.408 726 926.328 721.04C928.408 716.08 929.448 710.88 929.448 705.44V645.68H869.448V666.08Z" fill="#F5C32C"/>
<path d="M1049.69 666.32V645.92H1009.61V586.16H1069.61V566.24H969.766V746.24H1069.61V726.08H1009.61V666.32H1049.69Z" fill="#F5C32C"/>
<path d="M70 621.2C70 625.52 71.44 630 74.32 634.64C77.36 639.12 81.04 643.68 85.36 648.32C89.84 652.96 94.64 657.6 99.76 662.24C105.04 666.72 109.84 671.04 114.16 675.2C118.64 679.36 122.32 683.36 125.2 687.2C128.24 690.88 129.76 694.16 129.76 697.04V726.32H111.52C105.12 726.32 99.92 724.4 95.92 720.56C92.08 716.72 90.16 711.76 90.16 705.68H70C70 711.28 71.04 716.56 73.12 721.52C75.36 726.32 78.32 730.56 82 734.24C85.84 737.92 90.24 740.88 95.2 743.12C100.32 745.2 105.76 746.24 111.52 746.24H128.32C134.4 746.24 139.92 745.2 144.88 743.12C150 740.88 154.32 737.92 157.84 734.24C161.52 730.4 164.32 726.08 166.24 721.28C168.32 716.32 169.36 711.12 169.36 705.68V691.04C169.36 686.24 167.84 681.36 164.8 676.4C161.92 671.28 158.24 666.32 153.76 661.52C149.44 656.56 144.72 651.76 139.6 647.12C134.48 642.48 129.68 638.16 125.2 634.16C120.88 630 117.2 626.24 114.16 622.88C111.28 619.52 109.84 616.64 109.84 614.24V585.92H125.68C133.36 585.92 139.28 587.76 143.44 591.44C147.76 594.96 149.92 599.92 149.92 606.32H169.6C169.6 600.88 168.48 595.76 166.24 590.96C164.16 586 161.2 581.76 157.36 578.24C153.68 574.56 149.36 571.68 144.4 569.6C139.44 567.36 134.16 566.24 128.56 566.24H111.52C105.76 566.24 100.32 567.28 95.2 569.36C90.24 571.44 85.84 574.32 82 578C78.32 581.68 75.36 586 73.12 590.96C71.04 595.76 70 601.04 70 606.8V621.2Z" stroke="black" stroke-width="2" mask="url(#path-4-outside-4)"/>
<path d="M309.293 566.24H189.293V586.16H229.373V746.24H269.213V586.16H309.293V566.24Z" stroke="black" stroke-width="2" mask="url(#path-4-outside-4)"/>
<path d="M370.253 746.24H408.413C413.853 746.24 418.973 745.2 423.773 743.12C428.733 740.88 433.053 737.92 436.733 734.24C440.573 730.4 443.613 726.08 445.853 721.28C448.093 716.32 449.213 711.12 449.213 705.68V606.8C449.213 601.68 448.093 596.72 445.853 591.92C443.773 586.96 440.893 582.64 437.213 578.96C433.533 575.12 429.213 572.08 424.253 569.84C419.293 567.44 414.013 566.24 408.413 566.24H370.253C364.653 566.24 359.373 567.44 354.413 569.84C349.453 572.08 345.133 575.12 341.453 578.96C337.773 582.64 334.813 586.96 332.573 591.92C330.493 596.72 329.453 601.68 329.453 606.8V705.68C329.453 711.12 330.573 716.32 332.813 721.28C335.053 726.08 338.013 730.4 341.693 734.24C345.533 737.92 349.853 740.88 354.653 743.12C359.613 745.2 364.813 746.24 370.253 746.24ZM409.373 726.08H369.293V586.16H409.373V726.08Z" stroke="black" stroke-width="2" mask="url(#path-4-outside-4)"/>
<path d="M529.371 645.92V585.92H569.451V645.92H529.371ZM489.531 746.24H529.371V666.32H569.451V746.24H609.291V690.56C609.291 683.68 608.171 678.08 605.931 673.76C603.691 669.28 601.211 665.76 598.491 663.2C595.931 660.48 593.531 658.64 591.291 657.68C589.051 656.56 587.931 656 587.931 656C587.931 656 589.051 655.6 591.291 654.8C593.531 654 595.931 652.48 598.491 650.24C601.211 647.84 603.691 644.56 605.931 640.4C608.171 636.08 609.291 630.48 609.291 623.6V606.32C609.291 600.4 608.331 594.96 606.411 590C604.651 585.04 602.011 580.8 598.491 577.28C594.971 573.76 590.731 571.04 585.771 569.12C580.971 567.2 575.531 566.24 569.451 566.24H489.531V746.24Z" stroke="black" stroke-width="2" mask="url(#path-4-outside-4)"/>
<path d="M691.129 566.24C686.489 566.24 681.689 567.36 676.729 569.6C671.929 571.84 667.529 574.8 663.529 578.48C659.689 582.16 656.489 586.48 653.929 591.44C651.529 596.4 650.329 601.52 650.329 606.8V746.24H690.169V666.32H729.529V746.24C730.809 746.4 733.289 746.48 736.969 746.48C740.649 746.48 744.569 746.48 748.729 746.48C753.049 746.48 757.129 746.4 760.969 746.24C764.969 746.24 767.849 746.24 769.609 746.24V606.8C769.609 601.52 768.329 596.48 765.769 591.68C763.209 586.72 759.929 582.4 755.929 578.72C752.089 574.88 747.689 571.84 742.729 569.6C737.769 567.36 732.889 566.24 728.089 566.24H691.129ZM690.169 645.92V585.92H729.529V645.92H690.169Z" stroke="black" stroke-width="2" mask="url(#path-4-outside-4)"/>
<path d="M869.448 666.08H889.608V726.08H849.528V586.16H893.688C898.648 586.16 902.568 588 905.448 591.68C908.328 595.2 909.768 600.24 909.768 606.8H929.448C929.448 601.68 928.328 596.72 926.088 591.92C923.848 586.96 920.808 582.64 916.968 578.96C913.128 575.12 908.728 572.08 903.768 569.84C898.807 567.44 893.688 566.24 888.408 566.24H850.248C844.648 566.24 839.368 567.44 834.408 569.84C829.448 572.08 825.128 575.12 821.448 578.96C817.768 582.8 814.888 587.2 812.808 592.16C810.728 596.96 809.688 601.92 809.688 607.04V705.44C809.688 711.04 810.728 716.32 812.808 721.28C814.888 726.24 817.768 730.56 821.448 734.24C825.128 737.92 829.368 740.88 834.168 743.12C839.128 745.2 844.488 746.24 850.248 746.24H888.648C894.728 746.24 900.247 745.12 905.208 742.88C910.168 740.64 914.408 737.68 917.928 734C921.608 730.32 924.408 726 926.328 721.04C928.408 716.08 929.448 710.88 929.448 705.44V645.68H869.448V666.08Z" stroke="black" stroke-width="2" mask="url(#path-4-outside-4)"/>
<path d="M1049.69 666.32V645.92H1009.61V586.16H1069.61V566.24H969.766V746.24H1069.61V726.08H1009.61V666.32H1049.69Z" stroke="black" stroke-width="2" mask="url(#path-4-outside-4)"/>
<mask id="path-5-outside-5" maskUnits="userSpaceOnUse" x="69" y="555" width="1002" height="183" fill="black">
<rect fill="white" x="69" y="555" width="1002" height="183"/>
<path d="M70 610.96C70 615.28 71.44 619.76 74.32 624.4C77.36 628.88 81.04 633.44 85.36 638.08C89.84 642.72 94.64 647.36 99.76 652C105.04 656.48 109.84 660.8 114.16 664.96C118.64 669.12 122.32 673.12 125.2 676.96C128.24 680.64 129.76 683.92 129.76 686.8V716.08H111.52C105.12 716.08 99.92 714.16 95.92 710.32C92.08 706.48 90.16 701.52 90.16 695.44H70C70 701.04 71.04 706.32 73.12 711.28C75.36 716.08 78.32 720.32 82 724C85.84 727.68 90.24 730.64 95.2 732.88C100.32 734.96 105.76 736 111.52 736H128.32C134.4 736 139.92 734.96 144.88 732.88C150 730.64 154.32 727.68 157.84 724C161.52 720.16 164.32 715.84 166.24 711.04C168.32 706.08 169.36 700.88 169.36 695.44V680.8C169.36 676 167.84 671.12 164.8 666.16C161.92 661.04 158.24 656.08 153.76 651.28C149.44 646.32 144.72 641.52 139.6 636.88C134.48 632.24 129.68 627.92 125.2 623.92C120.88 619.76 117.2 616 114.16 612.64C111.28 609.28 109.84 606.4 109.84 604V575.68H125.68C133.36 575.68 139.28 577.52 143.44 581.2C147.76 584.72 149.92 589.68 149.92 596.08H169.6C169.6 590.64 168.48 585.52 166.24 580.72C164.16 575.76 161.2 571.52 157.36 568C153.68 564.32 149.36 561.44 144.4 559.36C139.44 557.12 134.16 556 128.56 556H111.52C105.76 556 100.32 557.04 95.2 559.12C90.24 561.2 85.84 564.08 82 567.76C78.32 571.44 75.36 575.76 73.12 580.72C71.04 585.52 70 590.8 70 596.56V610.96Z"/>
<path d="M309.293 556H189.293V575.92H229.373V736H269.213V575.92H309.293V556Z"/>
<path d="M370.253 736H408.413C413.853 736 418.973 734.96 423.773 732.88C428.733 730.64 433.053 727.68 436.733 724C440.573 720.16 443.613 715.84 445.853 711.04C448.093 706.08 449.213 700.88 449.213 695.44V596.56C449.213 591.44 448.093 586.48 445.853 581.68C443.773 576.72 440.893 572.4 437.213 568.72C433.533 564.88 429.213 561.84 424.253 559.6C419.293 557.2 414.013 556 408.413 556H370.253C364.653 556 359.373 557.2 354.413 559.6C349.453 561.84 345.133 564.88 341.453 568.72C337.773 572.4 334.813 576.72 332.573 581.68C330.493 586.48 329.453 591.44 329.453 596.56V695.44C329.453 700.88 330.573 706.08 332.813 711.04C335.053 715.84 338.013 720.16 341.693 724C345.533 727.68 349.853 730.64 354.653 732.88C359.613 734.96 364.813 736 370.253 736ZM409.373 715.84H369.293V575.92H409.373V715.84Z"/>
<path d="M529.371 635.68V575.68H569.451V635.68H529.371ZM489.531 736H529.371V656.08H569.451V736H609.291V680.32C609.291 673.44 608.171 667.84 605.931 663.52C603.691 659.04 601.211 655.52 598.491 652.96C595.931 650.24 593.531 648.4 591.291 647.44C589.051 646.32 587.931 645.76 587.931 645.76C587.931 645.76 589.051 645.36 591.291 644.56C593.531 643.76 595.931 642.24 598.491 640C601.211 637.6 603.691 634.32 605.931 630.16C608.171 625.84 609.291 620.24 609.291 613.36V596.08C609.291 590.16 608.331 584.72 606.411 579.76C604.651 574.8 602.011 570.56 598.491 567.04C594.971 563.52 590.731 560.8 585.771 558.88C580.971 556.96 575.531 556 569.451 556H489.531V736Z"/>
<path d="M691.129 556C686.489 556 681.689 557.12 676.729 559.36C671.929 561.6 667.529 564.56 663.529 568.24C659.689 571.92 656.489 576.24 653.929 581.2C651.529 586.16 650.329 591.28 650.329 596.56V736H690.169V656.08H729.529V736C730.809 736.16 733.289 736.24 736.969 736.24C740.649 736.24 744.569 736.24 748.729 736.24C753.049 736.24 757.129 736.16 760.969 736C764.969 736 767.849 736 769.609 736V596.56C769.609 591.28 768.329 586.24 765.769 581.44C763.209 576.48 759.929 572.16 755.929 568.48C752.089 564.64 747.689 561.6 742.729 559.36C737.769 557.12 732.889 556 728.089 556H691.129ZM690.169 635.68V575.68H729.529V635.68H690.169Z"/>
<path d="M869.448 655.84H889.608V715.84H849.528V575.92H893.688C898.648 575.92 902.568 577.76 905.448 581.44C908.328 584.96 909.768 590 909.768 596.56H929.448C929.448 591.44 928.328 586.48 926.088 581.68C923.848 576.72 920.808 572.4 916.968 568.72C913.128 564.88 908.728 561.84 903.768 559.6C898.807 557.2 893.688 556 888.408 556H850.248C844.648 556 839.368 557.2 834.408 559.6C829.448 561.84 825.128 564.88 821.448 568.72C817.768 572.56 814.888 576.96 812.808 581.92C810.728 586.72 809.688 591.68 809.688 596.8V695.2C809.688 700.8 810.728 706.08 812.808 711.04C814.888 716 817.768 720.32 821.448 724C825.128 727.68 829.368 730.64 834.168 732.88C839.128 734.96 844.488 736 850.248 736H888.648C894.728 736 900.247 734.88 905.208 732.64C910.168 730.4 914.408 727.44 917.928 723.76C921.608 720.08 924.408 715.76 926.328 710.8C928.408 705.84 929.448 700.64 929.448 695.2V635.44H869.448V655.84Z"/>
<path d="M1049.69 656.08V635.68H1009.61V575.92H1069.61V556H969.766V736H1069.61V715.84H1009.61V656.08H1049.69Z"/>
</mask>
<path d="M70 610.96C70 615.28 71.44 619.76 74.32 624.4C77.36 628.88 81.04 633.44 85.36 638.08C89.84 642.72 94.64 647.36 99.76 652C105.04 656.48 109.84 660.8 114.16 664.96C118.64 669.12 122.32 673.12 125.2 676.96C128.24 680.64 129.76 683.92 129.76 686.8V716.08H111.52C105.12 716.08 99.92 714.16 95.92 710.32C92.08 706.48 90.16 701.52 90.16 695.44H70C70 701.04 71.04 706.32 73.12 711.28C75.36 716.08 78.32 720.32 82 724C85.84 727.68 90.24 730.64 95.2 732.88C100.32 734.96 105.76 736 111.52 736H128.32C134.4 736 139.92 734.96 144.88 732.88C150 730.64 154.32 727.68 157.84 724C161.52 720.16 164.32 715.84 166.24 711.04C168.32 706.08 169.36 700.88 169.36 695.44V680.8C169.36 676 167.84 671.12 164.8 666.16C161.92 661.04 158.24 656.08 153.76 651.28C149.44 646.32 144.72 641.52 139.6 636.88C134.48 632.24 129.68 627.92 125.2 623.92C120.88 619.76 117.2 616 114.16 612.64C111.28 609.28 109.84 606.4 109.84 604V575.68H125.68C133.36 575.68 139.28 577.52 143.44 581.2C147.76 584.72 149.92 589.68 149.92 596.08H169.6C169.6 590.64 168.48 585.52 166.24 580.72C164.16 575.76 161.2 571.52 157.36 568C153.68 564.32 149.36 561.44 144.4 559.36C139.44 557.12 134.16 556 128.56 556H111.52C105.76 556 100.32 557.04 95.2 559.12C90.24 561.2 85.84 564.08 82 567.76C78.32 571.44 75.36 575.76 73.12 580.72C71.04 585.52 70 590.8 70 596.56V610.96Z" fill="white"/>
<path d="M309.293 556H189.293V575.92H229.373V736H269.213V575.92H309.293V556Z" fill="white"/>
<path d="M370.253 736H408.413C413.853 736 418.973 734.96 423.773 732.88C428.733 730.64 433.053 727.68 436.733 724C440.573 720.16 443.613 715.84 445.853 711.04C448.093 706.08 449.213 700.88 449.213 695.44V596.56C449.213 591.44 448.093 586.48 445.853 581.68C443.773 576.72 440.893 572.4 437.213 568.72C433.533 564.88 429.213 561.84 424.253 559.6C419.293 557.2 414.013 556 408.413 556H370.253C364.653 556 359.373 557.2 354.413 559.6C349.453 561.84 345.133 564.88 341.453 568.72C337.773 572.4 334.813 576.72 332.573 581.68C330.493 586.48 329.453 591.44 329.453 596.56V695.44C329.453 700.88 330.573 706.08 332.813 711.04C335.053 715.84 338.013 720.16 341.693 724C345.533 727.68 349.853 730.64 354.653 732.88C359.613 734.96 364.813 736 370.253 736ZM409.373 715.84H369.293V575.92H409.373V715.84Z" fill="white"/>
<path d="M529.371 635.68V575.68H569.451V635.68H529.371ZM489.531 736H529.371V656.08H569.451V736H609.291V680.32C609.291 673.44 608.171 667.84 605.931 663.52C603.691 659.04 601.211 655.52 598.491 652.96C595.931 650.24 593.531 648.4 591.291 647.44C589.051 646.32 587.931 645.76 587.931 645.76C587.931 645.76 589.051 645.36 591.291 644.56C593.531 643.76 595.931 642.24 598.491 640C601.211 637.6 603.691 634.32 605.931 630.16C608.171 625.84 609.291 620.24 609.291 613.36V596.08C609.291 590.16 608.331 584.72 606.411 579.76C604.651 574.8 602.011 570.56 598.491 567.04C594.971 563.52 590.731 560.8 585.771 558.88C580.971 556.96 575.531 556 569.451 556H489.531V736Z" fill="white"/>
<path d="M691.129 556C686.489 556 681.689 557.12 676.729 559.36C671.929 561.6 667.529 564.56 663.529 568.24C659.689 571.92 656.489 576.24 653.929 581.2C651.529 586.16 650.329 591.28 650.329 596.56V736H690.169V656.08H729.529V736C730.809 736.16 733.289 736.24 736.969 736.24C740.649 736.24 744.569 736.24 748.729 736.24C753.049 736.24 757.129 736.16 760.969 736C764.969 736 767.849 736 769.609 736V596.56C769.609 591.28 768.329 586.24 765.769 581.44C763.209 576.48 759.929 572.16 755.929 568.48C752.089 564.64 747.689 561.6 742.729 559.36C737.769 557.12 732.889 556 728.089 556H691.129ZM690.169 635.68V575.68H729.529V635.68H690.169Z" fill="white"/>
<path d="M869.448 655.84H889.608V715.84H849.528V575.92H893.688C898.648 575.92 902.568 577.76 905.448 581.44C908.328 584.96 909.768 590 909.768 596.56H929.448C929.448 591.44 928.328 586.48 926.088 581.68C923.848 576.72 920.808 572.4 916.968 568.72C913.128 564.88 908.728 561.84 903.768 559.6C898.807 557.2 893.688 556 888.408 556H850.248C844.648 556 839.368 557.2 834.408 559.6C829.448 561.84 825.128 564.88 821.448 568.72C817.768 572.56 814.888 576.96 812.808 581.92C810.728 586.72 809.688 591.68 809.688 596.8V695.2C809.688 700.8 810.728 706.08 812.808 711.04C814.888 716 817.768 720.32 821.448 724C825.128 727.68 829.368 730.64 834.168 732.88C839.128 734.96 844.488 736 850.248 736H888.648C894.728 736 900.247 734.88 905.208 732.64C910.168 730.4 914.408 727.44 917.928 723.76C921.608 720.08 924.408 715.76 926.328 710.8C928.408 705.84 929.448 700.64 929.448 695.2V635.44H869.448V655.84Z" fill="white"/>
<path d="M1049.69 656.08V635.68H1009.61V575.92H1069.61V556H969.766V736H1069.61V715.84H1009.61V656.08H1049.69Z" fill="white"/>
<path d="M70 610.96C70 615.28 71.44 619.76 74.32 624.4C77.36 628.88 81.04 633.44 85.36 638.08C89.84 642.72 94.64 647.36 99.76 652C105.04 656.48 109.84 660.8 114.16 664.96C118.64 669.12 122.32 673.12 125.2 676.96C128.24 680.64 129.76 683.92 129.76 686.8V716.08H111.52C105.12 716.08 99.92 714.16 95.92 710.32C92.08 706.48 90.16 701.52 90.16 695.44H70C70 701.04 71.04 706.32 73.12 711.28C75.36 716.08 78.32 720.32 82 724C85.84 727.68 90.24 730.64 95.2 732.88C100.32 734.96 105.76 736 111.52 736H128.32C134.4 736 139.92 734.96 144.88 732.88C150 730.64 154.32 727.68 157.84 724C161.52 720.16 164.32 715.84 166.24 711.04C168.32 706.08 169.36 700.88 169.36 695.44V680.8C169.36 676 167.84 671.12 164.8 666.16C161.92 661.04 158.24 656.08 153.76 651.28C149.44 646.32 144.72 641.52 139.6 636.88C134.48 632.24 129.68 627.92 125.2 623.92C120.88 619.76 117.2 616 114.16 612.64C111.28 609.28 109.84 606.4 109.84 604V575.68H125.68C133.36 575.68 139.28 577.52 143.44 581.2C147.76 584.72 149.92 589.68 149.92 596.08H169.6C169.6 590.64 168.48 585.52 166.24 580.72C164.16 575.76 161.2 571.52 157.36 568C153.68 564.32 149.36 561.44 144.4 559.36C139.44 557.12 134.16 556 128.56 556H111.52C105.76 556 100.32 557.04 95.2 559.12C90.24 561.2 85.84 564.08 82 567.76C78.32 571.44 75.36 575.76 73.12 580.72C71.04 585.52 70 590.8 70 596.56V610.96Z" stroke="black" stroke-width="2" mask="url(#path-5-outside-5)"/>
<path d="M309.293 556H189.293V575.92H229.373V736H269.213V575.92H309.293V556Z" stroke="black" stroke-width="2" mask="url(#path-5-outside-5)"/>
<path d="M370.253 736H408.413C413.853 736 418.973 734.96 423.773 732.88C428.733 730.64 433.053 727.68 436.733 724C440.573 720.16 443.613 715.84 445.853 711.04C448.093 706.08 449.213 700.88 449.213 695.44V596.56C449.213 591.44 448.093 586.48 445.853 581.68C443.773 576.72 440.893 572.4 437.213 568.72C433.533 564.88 429.213 561.84 424.253 559.6C419.293 557.2 414.013 556 408.413 556H370.253C364.653 556 359.373 557.2 354.413 559.6C349.453 561.84 345.133 564.88 341.453 568.72C337.773 572.4 334.813 576.72 332.573 581.68C330.493 586.48 329.453 591.44 329.453 596.56V695.44C329.453 700.88 330.573 706.08 332.813 711.04C335.053 715.84 338.013 720.16 341.693 724C345.533 727.68 349.853 730.64 354.653 732.88C359.613 734.96 364.813 736 370.253 736ZM409.373 715.84H369.293V575.92H409.373V715.84Z" stroke="black" stroke-width="2" mask="url(#path-5-outside-5)"/>
<path d="M529.371 635.68V575.68H569.451V635.68H529.371ZM489.531 736H529.371V656.08H569.451V736H609.291V680.32C609.291 673.44 608.171 667.84 605.931 663.52C603.691 659.04 601.211 655.52 598.491 652.96C595.931 650.24 593.531 648.4 591.291 647.44C589.051 646.32 587.931 645.76 587.931 645.76C587.931 645.76 589.051 645.36 591.291 644.56C593.531 643.76 595.931 642.24 598.491 640C601.211 637.6 603.691 634.32 605.931 630.16C608.171 625.84 609.291 620.24 609.291 613.36V596.08C609.291 590.16 608.331 584.72 606.411 579.76C604.651 574.8 602.011 570.56 598.491 567.04C594.971 563.52 590.731 560.8 585.771 558.88C580.971 556.96 575.531 556 569.451 556H489.531V736Z" stroke="black" stroke-width="2" mask="url(#path-5-outside-5)"/>
<path d="M691.129 556C686.489 556 681.689 557.12 676.729 559.36C671.929 561.6 667.529 564.56 663.529 568.24C659.689 571.92 656.489 576.24 653.929 581.2C651.529 586.16 650.329 591.28 650.329 596.56V736H690.169V656.08H729.529V736C730.809 736.16 733.289 736.24 736.969 736.24C740.649 736.24 744.569 736.24 748.729 736.24C753.049 736.24 757.129 736.16 760.969 736C764.969 736 767.849 736 769.609 736V596.56C769.609 591.28 768.329 586.24 765.769 581.44C763.209 576.48 759.929 572.16 755.929 568.48C752.089 564.64 747.689 561.6 742.729 559.36C737.769 557.12 732.889 556 728.089 556H691.129ZM690.169 635.68V575.68H729.529V635.68H690.169Z" stroke="black" stroke-width="2" mask="url(#path-5-outside-5)"/>
<path d="M869.448 655.84H889.608V715.84H849.528V575.92H893.688C898.648 575.92 902.568 577.76 905.448 581.44C908.328 584.96 909.768 590 909.768 596.56H929.448C929.448 591.44 928.328 586.48 926.088 581.68C923.848 576.72 920.808 572.4 916.968 568.72C913.128 564.88 908.728 561.84 903.768 559.6C898.807 557.2 893.688 556 888.408 556H850.248C844.648 556 839.368 557.2 834.408 559.6C829.448 561.84 825.128 564.88 821.448 568.72C817.768 572.56 814.888 576.96 812.808 581.92C810.728 586.72 809.688 591.68 809.688 596.8V695.2C809.688 700.8 810.728 706.08 812.808 711.04C814.888 716 817.768 720.32 821.448 724C825.128 727.68 829.368 730.64 834.168 732.88C839.128 734.96 844.488 736 850.248 736H888.648C894.728 736 900.247 734.88 905.208 732.64C910.168 730.4 914.408 727.44 917.928 723.76C921.608 720.08 924.408 715.76 926.328 710.8C928.408 705.84 929.448 700.64 929.448 695.2V635.44H869.448V655.84Z" stroke="black" stroke-width="2" mask="url(#path-5-outside-5)"/>
<path d="M1049.69 656.08V635.68H1009.61V575.92H1069.61V556H969.766V736H1069.61V715.84H1009.61V656.08H1049.69Z" stroke="black" stroke-width="2" mask="url(#path-5-outside-5)"/>
<ellipse cx="389" cy="645.5" rx="53" ry="79.5" fill="white"/>
<ellipse cx="374.5" cy="607" rx="4.5" ry="10" fill="black"/>
<ellipse cx="403.5" cy="607" rx="4.5" ry="10" fill="black"/>
<path d="M428 629C428 650.539 410.763 668 389.5 668C368.237 668 351 650.539 351 629" stroke="black"/>
<path d="M376.42 530V426.046L485.975 530.362L486.12 530.5H486.32H495.92H496.42V530V350V349.5H495.92H475.76H475.26V350V453.001L365.703 349.636L365.559 349.5H365.36H356H355.5V350V530V530.5H356H375.92H376.42V530ZM615.92 450.58H616.42V450.08V429.92V429.42H615.92H576.34V370.42H635.84H636.34V369.92V350V349.5H635.84H536H535.5V350V530V530.5H536H575.84H576.34V530V450.58H615.92ZM776.262 350V349.5H775.762H655.762H655.262V350V369.92V370.42H655.762H695.342V530V530.5H695.842H735.682H736.182V530V370.42H775.762H776.262V369.92V350Z" fill="#F5C32C" stroke="black"/>
<path d="M376.42 520V416.046L485.975 520.362L486.12 520.5H486.32H495.92H496.42V520V340V339.5H495.92H475.76H475.26V340V443.001L365.703 339.636L365.559 339.5H365.36H356H355.5V340V520V520.5H356H375.92H376.42V520ZM615.92 440.58H616.42V440.08V419.92V419.42H615.92H576.34V360.42H635.84H636.34V359.92V340V339.5H635.84H536H535.5V340V520V520.5H536H575.84H576.34V520V440.58H615.92ZM776.262 340V339.5H775.762H655.762H655.262V340V359.92V360.42H655.762H695.342V520V520.5H695.842H735.682H736.182V520V360.42H775.762H776.262V359.92V340Z" fill="#F5C32C" stroke="black"/>
<path d="M376.42 510V406.046L485.975 510.362L486.12 510.5H486.32H495.92H496.42V510V330V329.5H495.92H475.76H475.26V330V433.001L365.703 329.636L365.559 329.5H365.36H356H355.5V330V510V510.5H356H375.92H376.42V510ZM615.92 430.58H616.42V430.08V409.92V409.42H615.92H576.34V350.42H635.84H636.34V349.92V330V329.5H635.84H536H535.5V330V510V510.5H536H575.84H576.34V510V430.58H615.92ZM776.262 330V329.5H775.762H655.762H655.262V330V349.92V350.42H655.762H695.342V510V510.5H695.842H735.682H736.182V510V350.42H775.762H776.262V349.92V330Z" fill="#F5C32C" stroke="black"/>
<path d="M376.42 500V396.046L485.975 500.362L486.12 500.5H486.32H495.92H496.42V500V320V319.5H495.92H475.76H475.26V320V423.001L365.703 319.636L365.559 319.5H365.36H356H355.5V320V500V500.5H356H375.92H376.42V500ZM615.92 420.58H616.42V420.08V399.92V399.42H615.92H576.34V340.42H635.84H636.34V339.92V320V319.5H635.84H536H535.5V320V500V500.5H536H575.84H576.34V500V420.58H615.92ZM776.262 320V319.5H775.762H655.762H655.262V320V339.92V340.42H655.762H695.342V500V500.5H695.842H735.682H736.182V500V340.42H775.762H776.262V339.92V320Z" fill="#F5C32C" stroke="black"/>
<path d="M376.42 490V386.046L485.975 490.362L486.12 490.5H486.32H495.92H496.42V490V310V309.5H495.92H475.76H475.26V310V413.001L365.703 309.636L365.559 309.5H365.36H356H355.5V310V490V490.5H356H375.92H376.42V490ZM615.92 410.58H616.42V410.08V389.92V389.42H615.92H576.34V330.42H635.84H636.34V329.92V310V309.5H635.84H536H535.5V310V490V490.5H536H575.84H576.34V490V410.58H615.92ZM776.262 310V309.5H775.762H655.762H655.262V310V329.92V330.42H655.762H695.342V490V490.5H695.842H735.682H736.182V490V330.42H775.762H776.262V329.92V310Z" fill="white" stroke="black"/>
</svg>
