<svg width="1002" height="470" viewBox="0 0 1002 470" fill="none" xmlns="http://www.w3.org/2000/svg">
<mask id="path-1-outside-1" maskUnits="userSpaceOnUse" x="0" y="286.96" width="1002" height="183" fill="black">
<rect fill="white" y="286.96" width="1002" height="183"/>
<path d="M1 342.92C1 347.24 2.44 351.72 5.32 356.36C8.36 360.84 12.04 365.4 16.36 370.04C20.84 374.68 25.64 379.32 30.76 383.96C36.04 388.44 40.84 392.76 45.16 396.92C49.64 401.08 53.32 405.08 56.2 408.92C59.24 412.6 60.76 415.88 60.76 418.76V448.04H42.52C36.12 448.04 30.92 446.12 26.92 442.28C23.08 438.44 21.16 433.48 21.16 427.4H1C1 433 2.04 438.28 4.12 443.24C6.36 448.04 9.32 452.28 13 455.96C16.84 459.64 21.24 462.6 26.2 464.84C31.32 466.92 36.76 467.96 42.52 467.96H59.32C65.4 467.96 70.92 466.92 75.88 464.84C81 462.6 85.32 459.64 88.84 455.96C92.52 452.12 95.32 447.8 97.24 443C99.32 438.04 100.36 432.84 100.36 427.4V412.76C100.36 407.96 98.84 403.08 95.8 398.12C92.92 393 89.24 388.04 84.76 383.24C80.44 378.28 75.72 373.48 70.6 368.84C65.48 364.2 60.68 359.88 56.2 355.88C51.88 351.72 48.2 347.96 45.16 344.6C42.28 341.24 40.84 338.36 40.84 335.96V307.64H56.68C64.36 307.64 70.28 309.48 74.44 313.16C78.76 316.68 80.92 321.64 80.92 328.04H100.6C100.6 322.6 99.48 317.48 97.24 312.68C95.16 307.72 92.2 303.48 88.36 299.96C84.68 296.28 80.36 293.4 75.4 291.32C70.44 289.08 65.16 287.96 59.56 287.96H42.52C36.76 287.96 31.32 289 26.2 291.08C21.24 293.16 16.84 296.04 13 299.72C9.32 303.4 6.36 307.72 4.12 312.68C2.04 317.48 1 322.76 1 328.52V342.92Z"/>
<path d="M240.293 287.96H120.293V307.88H160.373V467.96H200.213V307.88H240.293V287.96Z"/>
<path d="M301.253 467.96H339.413C344.853 467.96 349.973 466.92 354.773 464.84C359.733 462.6 364.053 459.64 367.733 455.96C371.573 452.12 374.613 447.8 376.853 443C379.093 438.04 380.213 432.84 380.213 427.4V328.52C380.213 323.4 379.093 318.44 376.853 313.64C374.773 308.68 371.893 304.36 368.213 300.68C364.533 296.84 360.213 293.8 355.253 291.56C350.293 289.16 345.013 287.96 339.413 287.96H301.253C295.653 287.96 290.373 289.16 285.413 291.56C280.453 293.8 276.133 296.84 272.453 300.68C268.773 304.36 265.813 308.68 263.573 313.64C261.493 318.44 260.453 323.4 260.453 328.52V427.4C260.453 432.84 261.573 438.04 263.813 443C266.053 447.8 269.013 452.12 272.693 455.96C276.533 459.64 280.853 462.6 285.653 464.84C290.613 466.92 295.813 467.96 301.253 467.96ZM340.373 447.8H300.293V307.88H340.373V447.8Z"/>
<path d="M460.371 367.64V307.64H500.451V367.64H460.371ZM420.531 467.96H460.371V388.04H500.451V467.96H540.291V412.28C540.291 405.4 539.171 399.8 536.931 395.48C534.691 391 532.211 387.48 529.491 384.92C526.931 382.2 524.531 380.36 522.291 379.4C520.051 378.28 518.931 377.72 518.931 377.72C518.931 377.72 520.051 377.32 522.291 376.52C524.531 375.72 526.931 374.2 529.491 371.96C532.211 369.56 534.691 366.28 536.931 362.12C539.171 357.8 540.291 352.2 540.291 345.32V328.04C540.291 322.12 539.331 316.68 537.411 311.72C535.651 306.76 533.011 302.52 529.491 299C525.971 295.48 521.731 292.76 516.771 290.84C511.971 288.92 506.531 287.96 500.451 287.96H420.531V467.96Z"/>
<path d="M622.129 287.96C617.489 287.96 612.689 289.08 607.729 291.32C602.929 293.56 598.529 296.52 594.529 300.2C590.689 303.88 587.489 308.2 584.929 313.16C582.529 318.12 581.329 323.24 581.329 328.52V467.96H621.169V388.04H660.529V467.96C661.809 468.12 664.289 468.2 667.969 468.2C671.649 468.2 675.569 468.2 679.729 468.2C684.049 468.2 688.129 468.12 691.969 467.96C695.969 467.96 698.849 467.96 700.609 467.96V328.52C700.609 323.24 699.329 318.2 696.769 313.4C694.209 308.44 690.929 304.12 686.929 300.44C683.089 296.6 678.689 293.56 673.729 291.32C668.769 289.08 663.889 287.96 659.089 287.96H622.129ZM621.169 367.64V307.64H660.529V367.64H621.169Z"/>
<path d="M800.448 387.8H820.608V447.8H780.528V307.88H824.688C829.648 307.88 833.568 309.72 836.448 313.4C839.328 316.92 840.768 321.96 840.768 328.52H860.448C860.448 323.4 859.328 318.44 857.088 313.64C854.848 308.68 851.808 304.36 847.968 300.68C844.128 296.84 839.728 293.8 834.768 291.56C829.807 289.16 824.688 287.96 819.408 287.96H781.248C775.648 287.96 770.368 289.16 765.408 291.56C760.448 293.8 756.128 296.84 752.448 300.68C748.768 304.52 745.888 308.92 743.808 313.88C741.728 318.68 740.688 323.64 740.688 328.76V427.16C740.688 432.76 741.728 438.04 743.808 443C745.888 447.96 748.768 452.28 752.448 455.96C756.128 459.64 760.368 462.6 765.168 464.84C770.128 466.92 775.488 467.96 781.248 467.96H819.648C825.728 467.96 831.247 466.84 836.208 464.6C841.168 462.36 845.408 459.4 848.928 455.72C852.608 452.04 855.408 447.72 857.328 442.76C859.408 437.8 860.448 432.6 860.448 427.16V367.4H800.448V387.8Z"/>
<path d="M980.686 388.04V367.64H940.606V307.88H1000.61V287.96H900.766V467.96H1000.61V447.8H940.606V388.04H980.686Z"/>
</mask>
<path d="M1 342.92C1 347.24 2.44 351.72 5.32 356.36C8.36 360.84 12.04 365.4 16.36 370.04C20.84 374.68 25.64 379.32 30.76 383.96C36.04 388.44 40.84 392.76 45.16 396.92C49.64 401.08 53.32 405.08 56.2 408.92C59.24 412.6 60.76 415.88 60.76 418.76V448.04H42.52C36.12 448.04 30.92 446.12 26.92 442.28C23.08 438.44 21.16 433.48 21.16 427.4H1C1 433 2.04 438.28 4.12 443.24C6.36 448.04 9.32 452.28 13 455.96C16.84 459.64 21.24 462.6 26.2 464.84C31.32 466.92 36.76 467.96 42.52 467.96H59.32C65.4 467.96 70.92 466.92 75.88 464.84C81 462.6 85.32 459.64 88.84 455.96C92.52 452.12 95.32 447.8 97.24 443C99.32 438.04 100.36 432.84 100.36 427.4V412.76C100.36 407.96 98.84 403.08 95.8 398.12C92.92 393 89.24 388.04 84.76 383.24C80.44 378.28 75.72 373.48 70.6 368.84C65.48 364.2 60.68 359.88 56.2 355.88C51.88 351.72 48.2 347.96 45.16 344.6C42.28 341.24 40.84 338.36 40.84 335.96V307.64H56.68C64.36 307.64 70.28 309.48 74.44 313.16C78.76 316.68 80.92 321.64 80.92 328.04H100.6C100.6 322.6 99.48 317.48 97.24 312.68C95.16 307.72 92.2 303.48 88.36 299.96C84.68 296.28 80.36 293.4 75.4 291.32C70.44 289.08 65.16 287.96 59.56 287.96H42.52C36.76 287.96 31.32 289 26.2 291.08C21.24 293.16 16.84 296.04 13 299.72C9.32 303.4 6.36 307.72 4.12 312.68C2.04 317.48 1 322.76 1 328.52V342.92Z" fill="#F5C32C"/>
<path d="M240.293 287.96H120.293V307.88H160.373V467.96H200.213V307.88H240.293V287.96Z" fill="#F5C32C"/>
<path d="M301.253 467.96H339.413C344.853 467.96 349.973 466.92 354.773 464.84C359.733 462.6 364.053 459.64 367.733 455.96C371.573 452.12 374.613 447.8 376.853 443C379.093 438.04 380.213 432.84 380.213 427.4V328.52C380.213 323.4 379.093 318.44 376.853 313.64C374.773 308.68 371.893 304.36 368.213 300.68C364.533 296.84 360.213 293.8 355.253 291.56C350.293 289.16 345.013 287.96 339.413 287.96H301.253C295.653 287.96 290.373 289.16 285.413 291.56C280.453 293.8 276.133 296.84 272.453 300.68C268.773 304.36 265.813 308.68 263.573 313.64C261.493 318.44 260.453 323.4 260.453 328.52V427.4C260.453 432.84 261.573 438.04 263.813 443C266.053 447.8 269.013 452.12 272.693 455.96C276.533 459.64 280.853 462.6 285.653 464.84C290.613 466.92 295.813 467.96 301.253 467.96ZM340.373 447.8H300.293V307.88H340.373V447.8Z" fill="#F5C32C"/>
<path d="M460.371 367.64V307.64H500.451V367.64H460.371ZM420.531 467.96H460.371V388.04H500.451V467.96H540.291V412.28C540.291 405.4 539.171 399.8 536.931 395.48C534.691 391 532.211 387.48 529.491 384.92C526.931 382.2 524.531 380.36 522.291 379.4C520.051 378.28 518.931 377.72 518.931 377.72C518.931 377.72 520.051 377.32 522.291 376.52C524.531 375.72 526.931 374.2 529.491 371.96C532.211 369.56 534.691 366.28 536.931 362.12C539.171 357.8 540.291 352.2 540.291 345.32V328.04C540.291 322.12 539.331 316.68 537.411 311.72C535.651 306.76 533.011 302.52 529.491 299C525.971 295.48 521.731 292.76 516.771 290.84C511.971 288.92 506.531 287.96 500.451 287.96H420.531V467.96Z" fill="#F5C32C"/>
<path d="M622.129 287.96C617.489 287.96 612.689 289.08 607.729 291.32C602.929 293.56 598.529 296.52 594.529 300.2C590.689 303.88 587.489 308.2 584.929 313.16C582.529 318.12 581.329 323.24 581.329 328.52V467.96H621.169V388.04H660.529V467.96C661.809 468.12 664.289 468.2 667.969 468.2C671.649 468.2 675.569 468.2 679.729 468.2C684.049 468.2 688.129 468.12 691.969 467.96C695.969 467.96 698.849 467.96 700.609 467.96V328.52C700.609 323.24 699.329 318.2 696.769 313.4C694.209 308.44 690.929 304.12 686.929 300.44C683.089 296.6 678.689 293.56 673.729 291.32C668.769 289.08 663.889 287.96 659.089 287.96H622.129ZM621.169 367.64V307.64H660.529V367.64H621.169Z" fill="#F5C32C"/>
<path d="M800.448 387.8H820.608V447.8H780.528V307.88H824.688C829.648 307.88 833.568 309.72 836.448 313.4C839.328 316.92 840.768 321.96 840.768 328.52H860.448C860.448 323.4 859.328 318.44 857.088 313.64C854.848 308.68 851.808 304.36 847.968 300.68C844.128 296.84 839.728 293.8 834.768 291.56C829.807 289.16 824.688 287.96 819.408 287.96H781.248C775.648 287.96 770.368 289.16 765.408 291.56C760.448 293.8 756.128 296.84 752.448 300.68C748.768 304.52 745.888 308.92 743.808 313.88C741.728 318.68 740.688 323.64 740.688 328.76V427.16C740.688 432.76 741.728 438.04 743.808 443C745.888 447.96 748.768 452.28 752.448 455.96C756.128 459.64 760.368 462.6 765.168 464.84C770.128 466.92 775.488 467.96 781.248 467.96H819.648C825.728 467.96 831.247 466.84 836.208 464.6C841.168 462.36 845.408 459.4 848.928 455.72C852.608 452.04 855.408 447.72 857.328 442.76C859.408 437.8 860.448 432.6 860.448 427.16V367.4H800.448V387.8Z" fill="#F5C32C"/>
<path d="M980.686 388.04V367.64H940.606V307.88H1000.61V287.96H900.766V467.96H1000.61V447.8H940.606V388.04H980.686Z" fill="#F5C32C"/>
<path d="M1 342.92C1 347.24 2.44 351.72 5.32 356.36C8.36 360.84 12.04 365.4 16.36 370.04C20.84 374.68 25.64 379.32 30.76 383.96C36.04 388.44 40.84 392.76 45.16 396.92C49.64 401.08 53.32 405.08 56.2 408.92C59.24 412.6 60.76 415.88 60.76 418.76V448.04H42.52C36.12 448.04 30.92 446.12 26.92 442.28C23.08 438.44 21.16 433.48 21.16 427.4H1C1 433 2.04 438.28 4.12 443.24C6.36 448.04 9.32 452.28 13 455.96C16.84 459.64 21.24 462.6 26.2 464.84C31.32 466.92 36.76 467.96 42.52 467.96H59.32C65.4 467.96 70.92 466.92 75.88 464.84C81 462.6 85.32 459.64 88.84 455.96C92.52 452.12 95.32 447.8 97.24 443C99.32 438.04 100.36 432.84 100.36 427.4V412.76C100.36 407.96 98.84 403.08 95.8 398.12C92.92 393 89.24 388.04 84.76 383.24C80.44 378.28 75.72 373.48 70.6 368.84C65.48 364.2 60.68 359.88 56.2 355.88C51.88 351.72 48.2 347.96 45.16 344.6C42.28 341.24 40.84 338.36 40.84 335.96V307.64H56.68C64.36 307.64 70.28 309.48 74.44 313.16C78.76 316.68 80.92 321.64 80.92 328.04H100.6C100.6 322.6 99.48 317.48 97.24 312.68C95.16 307.72 92.2 303.48 88.36 299.96C84.68 296.28 80.36 293.4 75.4 291.32C70.44 289.08 65.16 287.96 59.56 287.96H42.52C36.76 287.96 31.32 289 26.2 291.08C21.24 293.16 16.84 296.04 13 299.72C9.32 303.4 6.36 307.72 4.12 312.68C2.04 317.48 1 322.76 1 328.52V342.92Z" stroke="black" stroke-width="2" mask="url(#path-1-outside-1)"/>
<path d="M240.293 287.96H120.293V307.88H160.373V467.96H200.213V307.88H240.293V287.96Z" stroke="black" stroke-width="2" mask="url(#path-1-outside-1)"/>
<path d="M301.253 467.96H339.413C344.853 467.96 349.973 466.92 354.773 464.84C359.733 462.6 364.053 459.64 367.733 455.96C371.573 452.12 374.613 447.8 376.853 443C379.093 438.04 380.213 432.84 380.213 427.4V328.52C380.213 323.4 379.093 318.44 376.853 313.64C374.773 308.68 371.893 304.36 368.213 300.68C364.533 296.84 360.213 293.8 355.253 291.56C350.293 289.16 345.013 287.96 339.413 287.96H301.253C295.653 287.96 290.373 289.16 285.413 291.56C280.453 293.8 276.133 296.84 272.453 300.68C268.773 304.36 265.813 308.68 263.573 313.64C261.493 318.44 260.453 323.4 260.453 328.52V427.4C260.453 432.84 261.573 438.04 263.813 443C266.053 447.8 269.013 452.12 272.693 455.96C276.533 459.64 280.853 462.6 285.653 464.84C290.613 466.92 295.813 467.96 301.253 467.96ZM340.373 447.8H300.293V307.88H340.373V447.8Z" stroke="black" stroke-width="2" mask="url(#path-1-outside-1)"/>
<path d="M460.371 367.64V307.64H500.451V367.64H460.371ZM420.531 467.96H460.371V388.04H500.451V467.96H540.291V412.28C540.291 405.4 539.171 399.8 536.931 395.48C534.691 391 532.211 387.48 529.491 384.92C526.931 382.2 524.531 380.36 522.291 379.4C520.051 378.28 518.931 377.72 518.931 377.72C518.931 377.72 520.051 377.32 522.291 376.52C524.531 375.72 526.931 374.2 529.491 371.96C532.211 369.56 534.691 366.28 536.931 362.12C539.171 357.8 540.291 352.2 540.291 345.32V328.04C540.291 322.12 539.331 316.68 537.411 311.72C535.651 306.76 533.011 302.52 529.491 299C525.971 295.48 521.731 292.76 516.771 290.84C511.971 288.92 506.531 287.96 500.451 287.96H420.531V467.96Z" stroke="black" stroke-width="2" mask="url(#path-1-outside-1)"/>
<path d="M622.129 287.96C617.489 287.96 612.689 289.08 607.729 291.32C602.929 293.56 598.529 296.52 594.529 300.2C590.689 303.88 587.489 308.2 584.929 313.16C582.529 318.12 581.329 323.24 581.329 328.52V467.96H621.169V388.04H660.529V467.96C661.809 468.12 664.289 468.2 667.969 468.2C671.649 468.2 675.569 468.2 679.729 468.2C684.049 468.2 688.129 468.12 691.969 467.96C695.969 467.96 698.849 467.96 700.609 467.96V328.52C700.609 323.24 699.329 318.2 696.769 313.4C694.209 308.44 690.929 304.12 686.929 300.44C683.089 296.6 678.689 293.56 673.729 291.32C668.769 289.08 663.889 287.96 659.089 287.96H622.129ZM621.169 367.64V307.64H660.529V367.64H621.169Z" stroke="black" stroke-width="2" mask="url(#path-1-outside-1)"/>
<path d="M800.448 387.8H820.608V447.8H780.528V307.88H824.688C829.648 307.88 833.568 309.72 836.448 313.4C839.328 316.92 840.768 321.96 840.768 328.52H860.448C860.448 323.4 859.328 318.44 857.088 313.64C854.848 308.68 851.808 304.36 847.968 300.68C844.128 296.84 839.728 293.8 834.768 291.56C829.807 289.16 824.688 287.96 819.408 287.96H781.248C775.648 287.96 770.368 289.16 765.408 291.56C760.448 293.8 756.128 296.84 752.448 300.68C748.768 304.52 745.888 308.92 743.808 313.88C741.728 318.68 740.688 323.64 740.688 328.76V427.16C740.688 432.76 741.728 438.04 743.808 443C745.888 447.96 748.768 452.28 752.448 455.96C756.128 459.64 760.368 462.6 765.168 464.84C770.128 466.92 775.488 467.96 781.248 467.96H819.648C825.728 467.96 831.247 466.84 836.208 464.6C841.168 462.36 845.408 459.4 848.928 455.72C852.608 452.04 855.408 447.72 857.328 442.76C859.408 437.8 860.448 432.6 860.448 427.16V367.4H800.448V387.8Z" stroke="black" stroke-width="2" mask="url(#path-1-outside-1)"/>
<path d="M980.686 388.04V367.64H940.606V307.88H1000.61V287.96H900.766V467.96H1000.61V447.8H940.606V388.04H980.686Z" stroke="black" stroke-width="2" mask="url(#path-1-outside-1)"/>
<mask id="path-2-outside-2" maskUnits="userSpaceOnUse" x="0" y="276.72" width="1002" height="183" fill="black">
<rect fill="white" y="276.72" width="1002" height="183"/>
<path d="M1 332.68C1 337 2.44 341.48 5.32 346.12C8.36 350.6 12.04 355.16 16.36 359.8C20.84 364.44 25.64 369.08 30.76 373.72C36.04 378.2 40.84 382.52 45.16 386.68C49.64 390.84 53.32 394.84 56.2 398.68C59.24 402.36 60.76 405.64 60.76 408.52V437.8H42.52C36.12 437.8 30.92 435.88 26.92 432.04C23.08 428.2 21.16 423.24 21.16 417.16H1C1 422.76 2.04 428.04 4.12 433C6.36 437.8 9.32 442.04 13 445.72C16.84 449.4 21.24 452.36 26.2 454.6C31.32 456.68 36.76 457.72 42.52 457.72H59.32C65.4 457.72 70.92 456.68 75.88 454.6C81 452.36 85.32 449.4 88.84 445.72C92.52 441.88 95.32 437.56 97.24 432.76C99.32 427.8 100.36 422.6 100.36 417.16V402.52C100.36 397.72 98.84 392.84 95.8 387.88C92.92 382.76 89.24 377.8 84.76 373C80.44 368.04 75.72 363.24 70.6 358.6C65.48 353.96 60.68 349.64 56.2 345.64C51.88 341.48 48.2 337.72 45.16 334.36C42.28 331 40.84 328.12 40.84 325.72V297.4H56.68C64.36 297.4 70.28 299.24 74.44 302.92C78.76 306.44 80.92 311.4 80.92 317.8H100.6C100.6 312.36 99.48 307.24 97.24 302.44C95.16 297.48 92.2 293.24 88.36 289.72C84.68 286.04 80.36 283.16 75.4 281.08C70.44 278.84 65.16 277.72 59.56 277.72H42.52C36.76 277.72 31.32 278.76 26.2 280.84C21.24 282.92 16.84 285.8 13 289.48C9.32 293.16 6.36 297.48 4.12 302.44C2.04 307.24 1 312.52 1 318.28V332.68Z"/>
<path d="M240.293 277.72H120.293V297.64H160.373V457.72H200.213V297.64H240.293V277.72Z"/>
<path d="M301.253 457.72H339.413C344.853 457.72 349.973 456.68 354.773 454.6C359.733 452.36 364.053 449.4 367.733 445.72C371.573 441.88 374.613 437.56 376.853 432.76C379.093 427.8 380.213 422.6 380.213 417.16V318.28C380.213 313.16 379.093 308.2 376.853 303.4C374.773 298.44 371.893 294.12 368.213 290.44C364.533 286.6 360.213 283.56 355.253 281.32C350.293 278.92 345.013 277.72 339.413 277.72H301.253C295.653 277.72 290.373 278.92 285.413 281.32C280.453 283.56 276.133 286.6 272.453 290.44C268.773 294.12 265.813 298.44 263.573 303.4C261.493 308.2 260.453 313.16 260.453 318.28V417.16C260.453 422.6 261.573 427.8 263.813 432.76C266.053 437.56 269.013 441.88 272.693 445.72C276.533 449.4 280.853 452.36 285.653 454.6C290.613 456.68 295.813 457.72 301.253 457.72ZM340.373 437.56H300.293V297.64H340.373V437.56Z"/>
<path d="M460.371 357.4V297.4H500.451V357.4H460.371ZM420.531 457.72H460.371V377.8H500.451V457.72H540.291V402.04C540.291 395.16 539.171 389.56 536.931 385.24C534.691 380.76 532.211 377.24 529.491 374.68C526.931 371.96 524.531 370.12 522.291 369.16C520.051 368.04 518.931 367.48 518.931 367.48C518.931 367.48 520.051 367.08 522.291 366.28C524.531 365.48 526.931 363.96 529.491 361.72C532.211 359.32 534.691 356.04 536.931 351.88C539.171 347.56 540.291 341.96 540.291 335.08V317.8C540.291 311.88 539.331 306.44 537.411 301.48C535.651 296.52 533.011 292.28 529.491 288.76C525.971 285.24 521.731 282.52 516.771 280.6C511.971 278.68 506.531 277.72 500.451 277.72H420.531V457.72Z"/>
<path d="M622.129 277.72C617.489 277.72 612.689 278.84 607.729 281.08C602.929 283.32 598.529 286.28 594.529 289.96C590.689 293.64 587.489 297.96 584.929 302.92C582.529 307.88 581.329 313 581.329 318.28V457.72H621.169V377.8H660.529V457.72C661.809 457.88 664.289 457.96 667.969 457.96C671.649 457.96 675.569 457.96 679.729 457.96C684.049 457.96 688.129 457.88 691.969 457.72C695.969 457.72 698.849 457.72 700.609 457.72V318.28C700.609 313 699.329 307.96 696.769 303.16C694.209 298.2 690.929 293.88 686.929 290.2C683.089 286.36 678.689 283.32 673.729 281.08C668.769 278.84 663.889 277.72 659.089 277.72H622.129ZM621.169 357.4V297.4H660.529V357.4H621.169Z"/>
<path d="M800.448 377.56H820.608V437.56H780.528V297.64H824.688C829.648 297.64 833.568 299.48 836.448 303.16C839.328 306.68 840.768 311.72 840.768 318.28H860.448C860.448 313.16 859.328 308.2 857.088 303.4C854.848 298.44 851.808 294.12 847.968 290.44C844.128 286.6 839.728 283.56 834.768 281.32C829.807 278.92 824.688 277.72 819.408 277.72H781.248C775.648 277.72 770.368 278.92 765.408 281.32C760.448 283.56 756.128 286.6 752.448 290.44C748.768 294.28 745.888 298.68 743.808 303.64C741.728 308.44 740.688 313.4 740.688 318.52V416.92C740.688 422.52 741.728 427.8 743.808 432.76C745.888 437.72 748.768 442.04 752.448 445.72C756.128 449.4 760.368 452.36 765.168 454.6C770.128 456.68 775.488 457.72 781.248 457.72H819.648C825.728 457.72 831.247 456.6 836.208 454.36C841.168 452.12 845.408 449.16 848.928 445.48C852.608 441.8 855.408 437.48 857.328 432.52C859.408 427.56 860.448 422.36 860.448 416.92V357.16H800.448V377.56Z"/>
<path d="M980.686 377.8V357.4H940.606V297.64H1000.61V277.72H900.766V457.72H1000.61V437.56H940.606V377.8H980.686Z"/>
</mask>
<path d="M1 332.68C1 337 2.44 341.48 5.32 346.12C8.36 350.6 12.04 355.16 16.36 359.8C20.84 364.44 25.64 369.08 30.76 373.72C36.04 378.2 40.84 382.52 45.16 386.68C49.64 390.84 53.32 394.84 56.2 398.68C59.24 402.36 60.76 405.64 60.76 408.52V437.8H42.52C36.12 437.8 30.92 435.88 26.92 432.04C23.08 428.2 21.16 423.24 21.16 417.16H1C1 422.76 2.04 428.04 4.12 433C6.36 437.8 9.32 442.04 13 445.72C16.84 449.4 21.24 452.36 26.2 454.6C31.32 456.68 36.76 457.72 42.52 457.72H59.32C65.4 457.72 70.92 456.68 75.88 454.6C81 452.36 85.32 449.4 88.84 445.72C92.52 441.88 95.32 437.56 97.24 432.76C99.32 427.8 100.36 422.6 100.36 417.16V402.52C100.36 397.72 98.84 392.84 95.8 387.88C92.92 382.76 89.24 377.8 84.76 373C80.44 368.04 75.72 363.24 70.6 358.6C65.48 353.96 60.68 349.64 56.2 345.64C51.88 341.48 48.2 337.72 45.16 334.36C42.28 331 40.84 328.12 40.84 325.72V297.4H56.68C64.36 297.4 70.28 299.24 74.44 302.92C78.76 306.44 80.92 311.4 80.92 317.8H100.6C100.6 312.36 99.48 307.24 97.24 302.44C95.16 297.48 92.2 293.24 88.36 289.72C84.68 286.04 80.36 283.16 75.4 281.08C70.44 278.84 65.16 277.72 59.56 277.72H42.52C36.76 277.72 31.32 278.76 26.2 280.84C21.24 282.92 16.84 285.8 13 289.48C9.32 293.16 6.36 297.48 4.12 302.44C2.04 307.24 1 312.52 1 318.28V332.68Z" fill="#F5C32C"/>
<path d="M240.293 277.72H120.293V297.64H160.373V457.72H200.213V297.64H240.293V277.72Z" fill="#F5C32C"/>
<path d="M301.253 457.72H339.413C344.853 457.72 349.973 456.68 354.773 454.6C359.733 452.36 364.053 449.4 367.733 445.72C371.573 441.88 374.613 437.56 376.853 432.76C379.093 427.8 380.213 422.6 380.213 417.16V318.28C380.213 313.16 379.093 308.2 376.853 303.4C374.773 298.44 371.893 294.12 368.213 290.44C364.533 286.6 360.213 283.56 355.253 281.32C350.293 278.92 345.013 277.72 339.413 277.72H301.253C295.653 277.72 290.373 278.92 285.413 281.32C280.453 283.56 276.133 286.6 272.453 290.44C268.773 294.12 265.813 298.44 263.573 303.4C261.493 308.2 260.453 313.16 260.453 318.28V417.16C260.453 422.6 261.573 427.8 263.813 432.76C266.053 437.56 269.013 441.88 272.693 445.72C276.533 449.4 280.853 452.36 285.653 454.6C290.613 456.68 295.813 457.72 301.253 457.72ZM340.373 437.56H300.293V297.64H340.373V437.56Z" fill="#F5C32C"/>
<path d="M460.371 357.4V297.4H500.451V357.4H460.371ZM420.531 457.72H460.371V377.8H500.451V457.72H540.291V402.04C540.291 395.16 539.171 389.56 536.931 385.24C534.691 380.76 532.211 377.24 529.491 374.68C526.931 371.96 524.531 370.12 522.291 369.16C520.051 368.04 518.931 367.48 518.931 367.48C518.931 367.48 520.051 367.08 522.291 366.28C524.531 365.48 526.931 363.96 529.491 361.72C532.211 359.32 534.691 356.04 536.931 351.88C539.171 347.56 540.291 341.96 540.291 335.08V317.8C540.291 311.88 539.331 306.44 537.411 301.48C535.651 296.52 533.011 292.28 529.491 288.76C525.971 285.24 521.731 282.52 516.771 280.6C511.971 278.68 506.531 277.72 500.451 277.72H420.531V457.72Z" fill="#F5C32C"/>
<path d="M622.129 277.72C617.489 277.72 612.689 278.84 607.729 281.08C602.929 283.32 598.529 286.28 594.529 289.96C590.689 293.64 587.489 297.96 584.929 302.92C582.529 307.88 581.329 313 581.329 318.28V457.72H621.169V377.8H660.529V457.72C661.809 457.88 664.289 457.96 667.969 457.96C671.649 457.96 675.569 457.96 679.729 457.96C684.049 457.96 688.129 457.88 691.969 457.72C695.969 457.72 698.849 457.72 700.609 457.72V318.28C700.609 313 699.329 307.96 696.769 303.16C694.209 298.2 690.929 293.88 686.929 290.2C683.089 286.36 678.689 283.32 673.729 281.08C668.769 278.84 663.889 277.72 659.089 277.72H622.129ZM621.169 357.4V297.4H660.529V357.4H621.169Z" fill="#F5C32C"/>
<path d="M800.448 377.56H820.608V437.56H780.528V297.64H824.688C829.648 297.64 833.568 299.48 836.448 303.16C839.328 306.68 840.768 311.72 840.768 318.28H860.448C860.448 313.16 859.328 308.2 857.088 303.4C854.848 298.44 851.808 294.12 847.968 290.44C844.128 286.6 839.728 283.56 834.768 281.32C829.807 278.92 824.688 277.72 819.408 277.72H781.248C775.648 277.72 770.368 278.92 765.408 281.32C760.448 283.56 756.128 286.6 752.448 290.44C748.768 294.28 745.888 298.68 743.808 303.64C741.728 308.44 740.688 313.4 740.688 318.52V416.92C740.688 422.52 741.728 427.8 743.808 432.76C745.888 437.72 748.768 442.04 752.448 445.72C756.128 449.4 760.368 452.36 765.168 454.6C770.128 456.68 775.488 457.72 781.248 457.72H819.648C825.728 457.72 831.247 456.6 836.208 454.36C841.168 452.12 845.408 449.16 848.928 445.48C852.608 441.8 855.408 437.48 857.328 432.52C859.408 427.56 860.448 422.36 860.448 416.92V357.16H800.448V377.56Z" fill="#F5C32C"/>
<path d="M980.686 377.8V357.4H940.606V297.64H1000.61V277.72H900.766V457.72H1000.61V437.56H940.606V377.8H980.686Z" fill="#F5C32C"/>
<path d="M1 332.68C1 337 2.44 341.48 5.32 346.12C8.36 350.6 12.04 355.16 16.36 359.8C20.84 364.44 25.64 369.08 30.76 373.72C36.04 378.2 40.84 382.52 45.16 386.68C49.64 390.84 53.32 394.84 56.2 398.68C59.24 402.36 60.76 405.64 60.76 408.52V437.8H42.52C36.12 437.8 30.92 435.88 26.92 432.04C23.08 428.2 21.16 423.24 21.16 417.16H1C1 422.76 2.04 428.04 4.12 433C6.36 437.8 9.32 442.04 13 445.72C16.84 449.4 21.24 452.36 26.2 454.6C31.32 456.68 36.76 457.72 42.52 457.72H59.32C65.4 457.72 70.92 456.68 75.88 454.6C81 452.36 85.32 449.4 88.84 445.72C92.52 441.88 95.32 437.56 97.24 432.76C99.32 427.8 100.36 422.6 100.36 417.16V402.52C100.36 397.72 98.84 392.84 95.8 387.88C92.92 382.76 89.24 377.8 84.76 373C80.44 368.04 75.72 363.24 70.6 358.6C65.48 353.96 60.68 349.64 56.2 345.64C51.88 341.48 48.2 337.72 45.16 334.36C42.28 331 40.84 328.12 40.84 325.72V297.4H56.68C64.36 297.4 70.28 299.24 74.44 302.92C78.76 306.44 80.92 311.4 80.92 317.8H100.6C100.6 312.36 99.48 307.24 97.24 302.44C95.16 297.48 92.2 293.24 88.36 289.72C84.68 286.04 80.36 283.16 75.4 281.08C70.44 278.84 65.16 277.72 59.56 277.72H42.52C36.76 277.72 31.32 278.76 26.2 280.84C21.24 282.92 16.84 285.8 13 289.48C9.32 293.16 6.36 297.48 4.12 302.44C2.04 307.24 1 312.52 1 318.28V332.68Z" stroke="black" stroke-width="2" mask="url(#path-2-outside-2)"/>
<path d="M240.293 277.72H120.293V297.64H160.373V457.72H200.213V297.64H240.293V277.72Z" stroke="black" stroke-width="2" mask="url(#path-2-outside-2)"/>
<path d="M301.253 457.72H339.413C344.853 457.72 349.973 456.68 354.773 454.6C359.733 452.36 364.053 449.4 367.733 445.72C371.573 441.88 374.613 437.56 376.853 432.76C379.093 427.8 380.213 422.6 380.213 417.16V318.28C380.213 313.16 379.093 308.2 376.853 303.4C374.773 298.44 371.893 294.12 368.213 290.44C364.533 286.6 360.213 283.56 355.253 281.32C350.293 278.92 345.013 277.72 339.413 277.72H301.253C295.653 277.72 290.373 278.92 285.413 281.32C280.453 283.56 276.133 286.6 272.453 290.44C268.773 294.12 265.813 298.44 263.573 303.4C261.493 308.2 260.453 313.16 260.453 318.28V417.16C260.453 422.6 261.573 427.8 263.813 432.76C266.053 437.56 269.013 441.88 272.693 445.72C276.533 449.4 280.853 452.36 285.653 454.6C290.613 456.68 295.813 457.72 301.253 457.72ZM340.373 437.56H300.293V297.64H340.373V437.56Z" stroke="black" stroke-width="2" mask="url(#path-2-outside-2)"/>
<path d="M460.371 357.4V297.4H500.451V357.4H460.371ZM420.531 457.72H460.371V377.8H500.451V457.72H540.291V402.04C540.291 395.16 539.171 389.56 536.931 385.24C534.691 380.76 532.211 377.24 529.491 374.68C526.931 371.96 524.531 370.12 522.291 369.16C520.051 368.04 518.931 367.48 518.931 367.48C518.931 367.48 520.051 367.08 522.291 366.28C524.531 365.48 526.931 363.96 529.491 361.72C532.211 359.32 534.691 356.04 536.931 351.88C539.171 347.56 540.291 341.96 540.291 335.08V317.8C540.291 311.88 539.331 306.44 537.411 301.48C535.651 296.52 533.011 292.28 529.491 288.76C525.971 285.24 521.731 282.52 516.771 280.6C511.971 278.68 506.531 277.72 500.451 277.72H420.531V457.72Z" stroke="black" stroke-width="2" mask="url(#path-2-outside-2)"/>
<path d="M622.129 277.72C617.489 277.72 612.689 278.84 607.729 281.08C602.929 283.32 598.529 286.28 594.529 289.96C590.689 293.64 587.489 297.96 584.929 302.92C582.529 307.88 581.329 313 581.329 318.28V457.72H621.169V377.8H660.529V457.72C661.809 457.88 664.289 457.96 667.969 457.96C671.649 457.96 675.569 457.96 679.729 457.96C684.049 457.96 688.129 457.88 691.969 457.72C695.969 457.72 698.849 457.72 700.609 457.72V318.28C700.609 313 699.329 307.96 696.769 303.16C694.209 298.2 690.929 293.88 686.929 290.2C683.089 286.36 678.689 283.32 673.729 281.08C668.769 278.84 663.889 277.72 659.089 277.72H622.129ZM621.169 357.4V297.4H660.529V357.4H621.169Z" stroke="black" stroke-width="2" mask="url(#path-2-outside-2)"/>
<path d="M800.448 377.56H820.608V437.56H780.528V297.64H824.688C829.648 297.64 833.568 299.48 836.448 303.16C839.328 306.68 840.768 311.72 840.768 318.28H860.448C860.448 313.16 859.328 308.2 857.088 303.4C854.848 298.44 851.808 294.12 847.968 290.44C844.128 286.6 839.728 283.56 834.768 281.32C829.807 278.92 824.688 277.72 819.408 277.72H781.248C775.648 277.72 770.368 278.92 765.408 281.32C760.448 283.56 756.128 286.6 752.448 290.44C748.768 294.28 745.888 298.68 743.808 303.64C741.728 308.44 740.688 313.4 740.688 318.52V416.92C740.688 422.52 741.728 427.8 743.808 432.76C745.888 437.72 748.768 442.04 752.448 445.72C756.128 449.4 760.368 452.36 765.168 454.6C770.128 456.68 775.488 457.72 781.248 457.72H819.648C825.728 457.72 831.247 456.6 836.208 454.36C841.168 452.12 845.408 449.16 848.928 445.48C852.608 441.8 855.408 437.48 857.328 432.52C859.408 427.56 860.448 422.36 860.448 416.92V357.16H800.448V377.56Z" stroke="black" stroke-width="2" mask="url(#path-2-outside-2)"/>
<path d="M980.686 377.8V357.4H940.606V297.64H1000.61V277.72H900.766V457.72H1000.61V437.56H940.606V377.8H980.686Z" stroke="black" stroke-width="2" mask="url(#path-2-outside-2)"/>
<mask id="path-3-outside-3" maskUnits="userSpaceOnUse" x="0" y="266.48" width="1002" height="183" fill="black">
<rect fill="white" y="266.48" width="1002" height="183"/>
<path d="M1 322.44C1 326.76 2.44 331.24 5.32 335.88C8.36 340.36 12.04 344.92 16.36 349.56C20.84 354.2 25.64 358.84 30.76 363.48C36.04 367.96 40.84 372.28 45.16 376.44C49.64 380.6 53.32 384.6 56.2 388.44C59.24 392.12 60.76 395.4 60.76 398.28V427.56H42.52C36.12 427.56 30.92 425.64 26.92 421.8C23.08 417.96 21.16 413 21.16 406.92H1C1 412.52 2.04 417.8 4.12 422.76C6.36 427.56 9.32 431.8 13 435.48C16.84 439.16 21.24 442.12 26.2 444.36C31.32 446.44 36.76 447.48 42.52 447.48H59.32C65.4 447.48 70.92 446.44 75.88 444.36C81 442.12 85.32 439.16 88.84 435.48C92.52 431.64 95.32 427.32 97.24 422.52C99.32 417.56 100.36 412.36 100.36 406.92V392.28C100.36 387.48 98.84 382.6 95.8 377.64C92.92 372.52 89.24 367.56 84.76 362.76C80.44 357.8 75.72 353 70.6 348.36C65.48 343.72 60.68 339.4 56.2 335.4C51.88 331.24 48.2 327.48 45.16 324.12C42.28 320.76 40.84 317.88 40.84 315.48V287.16H56.68C64.36 287.16 70.28 289 74.44 292.68C78.76 296.2 80.92 301.16 80.92 307.56H100.6C100.6 302.12 99.48 297 97.24 292.2C95.16 287.24 92.2 283 88.36 279.48C84.68 275.8 80.36 272.92 75.4 270.84C70.44 268.6 65.16 267.48 59.56 267.48H42.52C36.76 267.48 31.32 268.52 26.2 270.6C21.24 272.68 16.84 275.56 13 279.24C9.32 282.92 6.36 287.24 4.12 292.2C2.04 297 1 302.28 1 308.04V322.44Z"/>
<path d="M240.293 267.48H120.293V287.4H160.373V447.48H200.213V287.4H240.293V267.48Z"/>
<path d="M301.253 447.48H339.413C344.853 447.48 349.973 446.44 354.773 444.36C359.733 442.12 364.053 439.16 367.733 435.48C371.573 431.64 374.613 427.32 376.853 422.52C379.093 417.56 380.213 412.36 380.213 406.92V308.04C380.213 302.92 379.093 297.96 376.853 293.16C374.773 288.2 371.893 283.88 368.213 280.2C364.533 276.36 360.213 273.32 355.253 271.08C350.293 268.68 345.013 267.48 339.413 267.48H301.253C295.653 267.48 290.373 268.68 285.413 271.08C280.453 273.32 276.133 276.36 272.453 280.2C268.773 283.88 265.813 288.2 263.573 293.16C261.493 297.96 260.453 302.92 260.453 308.04V406.92C260.453 412.36 261.573 417.56 263.813 422.52C266.053 427.32 269.013 431.64 272.693 435.48C276.533 439.16 280.853 442.12 285.653 444.36C290.613 446.44 295.813 447.48 301.253 447.48ZM340.373 427.32H300.293V287.4H340.373V427.32Z"/>
<path d="M460.371 347.16V287.16H500.451V347.16H460.371ZM420.531 447.48H460.371V367.56H500.451V447.48H540.291V391.8C540.291 384.92 539.171 379.32 536.931 375C534.691 370.52 532.211 367 529.491 364.44C526.931 361.72 524.531 359.88 522.291 358.92C520.051 357.8 518.931 357.24 518.931 357.24C518.931 357.24 520.051 356.84 522.291 356.04C524.531 355.24 526.931 353.72 529.491 351.48C532.211 349.08 534.691 345.8 536.931 341.64C539.171 337.32 540.291 331.72 540.291 324.84V307.56C540.291 301.64 539.331 296.2 537.411 291.24C535.651 286.28 533.011 282.04 529.491 278.52C525.971 275 521.731 272.28 516.771 270.36C511.971 268.44 506.531 267.48 500.451 267.48H420.531V447.48Z"/>
<path d="M622.129 267.48C617.489 267.48 612.689 268.6 607.729 270.84C602.929 273.08 598.529 276.04 594.529 279.72C590.689 283.4 587.489 287.72 584.929 292.68C582.529 297.64 581.329 302.76 581.329 308.04V447.48H621.169V367.56H660.529V447.48C661.809 447.64 664.289 447.72 667.969 447.72C671.649 447.72 675.569 447.72 679.729 447.72C684.049 447.72 688.129 447.64 691.969 447.48C695.969 447.48 698.849 447.48 700.609 447.48V308.04C700.609 302.76 699.329 297.72 696.769 292.92C694.209 287.96 690.929 283.64 686.929 279.96C683.089 276.12 678.689 273.08 673.729 270.84C668.769 268.6 663.889 267.48 659.089 267.48H622.129ZM621.169 347.16V287.16H660.529V347.16H621.169Z"/>
<path d="M800.448 367.32H820.608V427.32H780.528V287.4H824.688C829.648 287.4 833.568 289.24 836.448 292.92C839.328 296.44 840.768 301.48 840.768 308.04H860.448C860.448 302.92 859.328 297.96 857.088 293.16C854.848 288.2 851.808 283.88 847.968 280.2C844.128 276.36 839.728 273.32 834.768 271.08C829.807 268.68 824.688 267.48 819.408 267.48H781.248C775.648 267.48 770.368 268.68 765.408 271.08C760.448 273.32 756.128 276.36 752.448 280.2C748.768 284.04 745.888 288.44 743.808 293.4C741.728 298.2 740.688 303.16 740.688 308.28V406.68C740.688 412.28 741.728 417.56 743.808 422.52C745.888 427.48 748.768 431.8 752.448 435.48C756.128 439.16 760.368 442.12 765.168 444.36C770.128 446.44 775.488 447.48 781.248 447.48H819.648C825.728 447.48 831.247 446.36 836.208 444.12C841.168 441.88 845.408 438.92 848.928 435.24C852.608 431.56 855.408 427.24 857.328 422.28C859.408 417.32 860.448 412.12 860.448 406.68V346.92H800.448V367.32Z"/>
<path d="M980.686 367.56V347.16H940.606V287.4H1000.61V267.48H900.766V447.48H1000.61V427.32H940.606V367.56H980.686Z"/>
</mask>
<path d="M1 322.44C1 326.76 2.44 331.24 5.32 335.88C8.36 340.36 12.04 344.92 16.36 349.56C20.84 354.2 25.64 358.84 30.76 363.48C36.04 367.96 40.84 372.28 45.16 376.44C49.64 380.6 53.32 384.6 56.2 388.44C59.24 392.12 60.76 395.4 60.76 398.28V427.56H42.52C36.12 427.56 30.92 425.64 26.92 421.8C23.08 417.96 21.16 413 21.16 406.92H1C1 412.52 2.04 417.8 4.12 422.76C6.36 427.56 9.32 431.8 13 435.48C16.84 439.16 21.24 442.12 26.2 444.36C31.32 446.44 36.76 447.48 42.52 447.48H59.32C65.4 447.48 70.92 446.44 75.88 444.36C81 442.12 85.32 439.16 88.84 435.48C92.52 431.64 95.32 427.32 97.24 422.52C99.32 417.56 100.36 412.36 100.36 406.92V392.28C100.36 387.48 98.84 382.6 95.8 377.64C92.92 372.52 89.24 367.56 84.76 362.76C80.44 357.8 75.72 353 70.6 348.36C65.48 343.72 60.68 339.4 56.2 335.4C51.88 331.24 48.2 327.48 45.16 324.12C42.28 320.76 40.84 317.88 40.84 315.48V287.16H56.68C64.36 287.16 70.28 289 74.44 292.68C78.76 296.2 80.92 301.16 80.92 307.56H100.6C100.6 302.12 99.48 297 97.24 292.2C95.16 287.24 92.2 283 88.36 279.48C84.68 275.8 80.36 272.92 75.4 270.84C70.44 268.6 65.16 267.48 59.56 267.48H42.52C36.76 267.48 31.32 268.52 26.2 270.6C21.24 272.68 16.84 275.56 13 279.24C9.32 282.92 6.36 287.24 4.12 292.2C2.04 297 1 302.28 1 308.04V322.44Z" fill="#F5C32C"/>
<path d="M240.293 267.48H120.293V287.4H160.373V447.48H200.213V287.4H240.293V267.48Z" fill="#F5C32C"/>
<path d="M301.253 447.48H339.413C344.853 447.48 349.973 446.44 354.773 444.36C359.733 442.12 364.053 439.16 367.733 435.48C371.573 431.64 374.613 427.32 376.853 422.52C379.093 417.56 380.213 412.36 380.213 406.92V308.04C380.213 302.92 379.093 297.96 376.853 293.16C374.773 288.2 371.893 283.88 368.213 280.2C364.533 276.36 360.213 273.32 355.253 271.08C350.293 268.68 345.013 267.48 339.413 267.48H301.253C295.653 267.48 290.373 268.68 285.413 271.08C280.453 273.32 276.133 276.36 272.453 280.2C268.773 283.88 265.813 288.2 263.573 293.16C261.493 297.96 260.453 302.92 260.453 308.04V406.92C260.453 412.36 261.573 417.56 263.813 422.52C266.053 427.32 269.013 431.64 272.693 435.48C276.533 439.16 280.853 442.12 285.653 444.36C290.613 446.44 295.813 447.48 301.253 447.48ZM340.373 427.32H300.293V287.4H340.373V427.32Z" fill="#F5C32C"/>
<path d="M460.371 347.16V287.16H500.451V347.16H460.371ZM420.531 447.48H460.371V367.56H500.451V447.48H540.291V391.8C540.291 384.92 539.171 379.32 536.931 375C534.691 370.52 532.211 367 529.491 364.44C526.931 361.72 524.531 359.88 522.291 358.92C520.051 357.8 518.931 357.24 518.931 357.24C518.931 357.24 520.051 356.84 522.291 356.04C524.531 355.24 526.931 353.72 529.491 351.48C532.211 349.08 534.691 345.8 536.931 341.64C539.171 337.32 540.291 331.72 540.291 324.84V307.56C540.291 301.64 539.331 296.2 537.411 291.24C535.651 286.28 533.011 282.04 529.491 278.52C525.971 275 521.731 272.28 516.771 270.36C511.971 268.44 506.531 267.48 500.451 267.48H420.531V447.48Z" fill="#F5C32C"/>
<path d="M622.129 267.48C617.489 267.48 612.689 268.6 607.729 270.84C602.929 273.08 598.529 276.04 594.529 279.72C590.689 283.4 587.489 287.72 584.929 292.68C582.529 297.64 581.329 302.76 581.329 308.04V447.48H621.169V367.56H660.529V447.48C661.809 447.64 664.289 447.72 667.969 447.72C671.649 447.72 675.569 447.72 679.729 447.72C684.049 447.72 688.129 447.64 691.969 447.48C695.969 447.48 698.849 447.48 700.609 447.48V308.04C700.609 302.76 699.329 297.72 696.769 292.92C694.209 287.96 690.929 283.64 686.929 279.96C683.089 276.12 678.689 273.08 673.729 270.84C668.769 268.6 663.889 267.48 659.089 267.48H622.129ZM621.169 347.16V287.16H660.529V347.16H621.169Z" fill="#F5C32C"/>
<path d="M800.448 367.32H820.608V427.32H780.528V287.4H824.688C829.648 287.4 833.568 289.24 836.448 292.92C839.328 296.44 840.768 301.48 840.768 308.04H860.448C860.448 302.92 859.328 297.96 857.088 293.16C854.848 288.2 851.808 283.88 847.968 280.2C844.128 276.36 839.728 273.32 834.768 271.08C829.807 268.68 824.688 267.48 819.408 267.48H781.248C775.648 267.48 770.368 268.68 765.408 271.08C760.448 273.32 756.128 276.36 752.448 280.2C748.768 284.04 745.888 288.44 743.808 293.4C741.728 298.2 740.688 303.16 740.688 308.28V406.68C740.688 412.28 741.728 417.56 743.808 422.52C745.888 427.48 748.768 431.8 752.448 435.48C756.128 439.16 760.368 442.12 765.168 444.36C770.128 446.44 775.488 447.48 781.248 447.48H819.648C825.728 447.48 831.247 446.36 836.208 444.12C841.168 441.88 845.408 438.92 848.928 435.24C852.608 431.56 855.408 427.24 857.328 422.28C859.408 417.32 860.448 412.12 860.448 406.68V346.92H800.448V367.32Z" fill="#F5C32C"/>
<path d="M980.686 367.56V347.16H940.606V287.4H1000.61V267.48H900.766V447.48H1000.61V427.32H940.606V367.56H980.686Z" fill="#F5C32C"/>
<path d="M1 322.44C1 326.76 2.44 331.24 5.32 335.88C8.36 340.36 12.04 344.92 16.36 349.56C20.84 354.2 25.64 358.84 30.76 363.48C36.04 367.96 40.84 372.28 45.16 376.44C49.64 380.6 53.32 384.6 56.2 388.44C59.24 392.12 60.76 395.4 60.76 398.28V427.56H42.52C36.12 427.56 30.92 425.64 26.92 421.8C23.08 417.96 21.16 413 21.16 406.92H1C1 412.52 2.04 417.8 4.12 422.76C6.36 427.56 9.32 431.8 13 435.48C16.84 439.16 21.24 442.12 26.2 444.36C31.32 446.44 36.76 447.48 42.52 447.48H59.32C65.4 447.48 70.92 446.44 75.88 444.36C81 442.12 85.32 439.16 88.84 435.48C92.52 431.64 95.32 427.32 97.24 422.52C99.32 417.56 100.36 412.36 100.36 406.92V392.28C100.36 387.48 98.84 382.6 95.8 377.64C92.92 372.52 89.24 367.56 84.76 362.76C80.44 357.8 75.72 353 70.6 348.36C65.48 343.72 60.68 339.4 56.2 335.4C51.88 331.24 48.2 327.48 45.16 324.12C42.28 320.76 40.84 317.88 40.84 315.48V287.16H56.68C64.36 287.16 70.28 289 74.44 292.68C78.76 296.2 80.92 301.16 80.92 307.56H100.6C100.6 302.12 99.48 297 97.24 292.2C95.16 287.24 92.2 283 88.36 279.48C84.68 275.8 80.36 272.92 75.4 270.84C70.44 268.6 65.16 267.48 59.56 267.48H42.52C36.76 267.48 31.32 268.52 26.2 270.6C21.24 272.68 16.84 275.56 13 279.24C9.32 282.92 6.36 287.24 4.12 292.2C2.04 297 1 302.28 1 308.04V322.44Z" stroke="black" stroke-width="2" mask="url(#path-3-outside-3)"/>
<path d="M240.293 267.48H120.293V287.4H160.373V447.48H200.213V287.4H240.293V267.48Z" stroke="black" stroke-width="2" mask="url(#path-3-outside-3)"/>
<path d="M301.253 447.48H339.413C344.853 447.48 349.973 446.44 354.773 444.36C359.733 442.12 364.053 439.16 367.733 435.48C371.573 431.64 374.613 427.32 376.853 422.52C379.093 417.56 380.213 412.36 380.213 406.92V308.04C380.213 302.92 379.093 297.96 376.853 293.16C374.773 288.2 371.893 283.88 368.213 280.2C364.533 276.36 360.213 273.32 355.253 271.08C350.293 268.68 345.013 267.48 339.413 267.48H301.253C295.653 267.48 290.373 268.68 285.413 271.08C280.453 273.32 276.133 276.36 272.453 280.2C268.773 283.88 265.813 288.2 263.573 293.16C261.493 297.96 260.453 302.92 260.453 308.04V406.92C260.453 412.36 261.573 417.56 263.813 422.52C266.053 427.32 269.013 431.64 272.693 435.48C276.533 439.16 280.853 442.12 285.653 444.36C290.613 446.44 295.813 447.48 301.253 447.48ZM340.373 427.32H300.293V287.4H340.373V427.32Z" stroke="black" stroke-width="2" mask="url(#path-3-outside-3)"/>
<path d="M460.371 347.16V287.16H500.451V347.16H460.371ZM420.531 447.48H460.371V367.56H500.451V447.48H540.291V391.8C540.291 384.92 539.171 379.32 536.931 375C534.691 370.52 532.211 367 529.491 364.44C526.931 361.72 524.531 359.88 522.291 358.92C520.051 357.8 518.931 357.24 518.931 357.24C518.931 357.24 520.051 356.84 522.291 356.04C524.531 355.24 526.931 353.72 529.491 351.48C532.211 349.08 534.691 345.8 536.931 341.64C539.171 337.32 540.291 331.72 540.291 324.84V307.56C540.291 301.64 539.331 296.2 537.411 291.24C535.651 286.28 533.011 282.04 529.491 278.52C525.971 275 521.731 272.28 516.771 270.36C511.971 268.44 506.531 267.48 500.451 267.48H420.531V447.48Z" stroke="black" stroke-width="2" mask="url(#path-3-outside-3)"/>
<path d="M622.129 267.48C617.489 267.48 612.689 268.6 607.729 270.84C602.929 273.08 598.529 276.04 594.529 279.72C590.689 283.4 587.489 287.72 584.929 292.68C582.529 297.64 581.329 302.76 581.329 308.04V447.48H621.169V367.56H660.529V447.48C661.809 447.64 664.289 447.72 667.969 447.72C671.649 447.72 675.569 447.72 679.729 447.72C684.049 447.72 688.129 447.64 691.969 447.48C695.969 447.48 698.849 447.48 700.609 447.48V308.04C700.609 302.76 699.329 297.72 696.769 292.92C694.209 287.96 690.929 283.64 686.929 279.96C683.089 276.12 678.689 273.08 673.729 270.84C668.769 268.6 663.889 267.48 659.089 267.48H622.129ZM621.169 347.16V287.16H660.529V347.16H621.169Z" stroke="black" stroke-width="2" mask="url(#path-3-outside-3)"/>
<path d="M800.448 367.32H820.608V427.32H780.528V287.4H824.688C829.648 287.4 833.568 289.24 836.448 292.92C839.328 296.44 840.768 301.48 840.768 308.04H860.448C860.448 302.92 859.328 297.96 857.088 293.16C854.848 288.2 851.808 283.88 847.968 280.2C844.128 276.36 839.728 273.32 834.768 271.08C829.807 268.68 824.688 267.48 819.408 267.48H781.248C775.648 267.48 770.368 268.68 765.408 271.08C760.448 273.32 756.128 276.36 752.448 280.2C748.768 284.04 745.888 288.44 743.808 293.4C741.728 298.2 740.688 303.16 740.688 308.28V406.68C740.688 412.28 741.728 417.56 743.808 422.52C745.888 427.48 748.768 431.8 752.448 435.48C756.128 439.16 760.368 442.12 765.168 444.36C770.128 446.44 775.488 447.48 781.248 447.48H819.648C825.728 447.48 831.247 446.36 836.208 444.12C841.168 441.88 845.408 438.92 848.928 435.24C852.608 431.56 855.408 427.24 857.328 422.28C859.408 417.32 860.448 412.12 860.448 406.68V346.92H800.448V367.32Z" stroke="black" stroke-width="2" mask="url(#path-3-outside-3)"/>
<path d="M980.686 367.56V347.16H940.606V287.4H1000.61V267.48H900.766V447.48H1000.61V427.32H940.606V367.56H980.686Z" stroke="black" stroke-width="2" mask="url(#path-3-outside-3)"/>
<mask id="path-4-outside-4" maskUnits="userSpaceOnUse" x="0" y="256.24" width="1002" height="183" fill="black">
<rect fill="white" y="256.24" width="1002" height="183"/>
<path d="M1 312.2C1 316.52 2.44 321 5.32 325.64C8.36 330.12 12.04 334.68 16.36 339.32C20.84 343.96 25.64 348.6 30.76 353.24C36.04 357.72 40.84 362.04 45.16 366.2C49.64 370.36 53.32 374.36 56.2 378.2C59.24 381.88 60.76 385.16 60.76 388.04V417.32H42.52C36.12 417.32 30.92 415.4 26.92 411.56C23.08 407.72 21.16 402.76 21.16 396.68H1C1 402.28 2.04 407.56 4.12 412.52C6.36 417.32 9.32 421.56 13 425.24C16.84 428.92 21.24 431.88 26.2 434.12C31.32 436.2 36.76 437.24 42.52 437.24H59.32C65.4 437.24 70.92 436.2 75.88 434.12C81 431.88 85.32 428.92 88.84 425.24C92.52 421.4 95.32 417.08 97.24 412.28C99.32 407.32 100.36 402.12 100.36 396.68V382.04C100.36 377.24 98.84 372.36 95.8 367.4C92.92 362.28 89.24 357.32 84.76 352.52C80.44 347.56 75.72 342.76 70.6 338.12C65.48 333.48 60.68 329.16 56.2 325.16C51.88 321 48.2 317.24 45.16 313.88C42.28 310.52 40.84 307.64 40.84 305.24V276.92H56.68C64.36 276.92 70.28 278.76 74.44 282.44C78.76 285.96 80.92 290.92 80.92 297.32H100.6C100.6 291.88 99.48 286.76 97.24 281.96C95.16 277 92.2 272.76 88.36 269.24C84.68 265.56 80.36 262.68 75.4 260.6C70.44 258.36 65.16 257.24 59.56 257.24H42.52C36.76 257.24 31.32 258.28 26.2 260.36C21.24 262.44 16.84 265.32 13 269C9.32 272.68 6.36 277 4.12 281.96C2.04 286.76 1 292.04 1 297.8V312.2Z"/>
<path d="M240.293 257.24H120.293V277.16H160.373V437.24H200.213V277.16H240.293V257.24Z"/>
<path d="M301.253 437.24H339.413C344.853 437.24 349.973 436.2 354.773 434.12C359.733 431.88 364.053 428.92 367.733 425.24C371.573 421.4 374.613 417.08 376.853 412.28C379.093 407.32 380.213 402.12 380.213 396.68V297.8C380.213 292.68 379.093 287.72 376.853 282.92C374.773 277.96 371.893 273.64 368.213 269.96C364.533 266.12 360.213 263.08 355.253 260.84C350.293 258.44 345.013 257.24 339.413 257.24H301.253C295.653 257.24 290.373 258.44 285.413 260.84C280.453 263.08 276.133 266.12 272.453 269.96C268.773 273.64 265.813 277.96 263.573 282.92C261.493 287.72 260.453 292.68 260.453 297.8V396.68C260.453 402.12 261.573 407.32 263.813 412.28C266.053 417.08 269.013 421.4 272.693 425.24C276.533 428.92 280.853 431.88 285.653 434.12C290.613 436.2 295.813 437.24 301.253 437.24ZM340.373 417.08H300.293V277.16H340.373V417.08Z"/>
<path d="M460.371 336.92V276.92H500.451V336.92H460.371ZM420.531 437.24H460.371V357.32H500.451V437.24H540.291V381.56C540.291 374.68 539.171 369.08 536.931 364.76C534.691 360.28 532.211 356.76 529.491 354.2C526.931 351.48 524.531 349.64 522.291 348.68C520.051 347.56 518.931 347 518.931 347C518.931 347 520.051 346.6 522.291 345.8C524.531 345 526.931 343.48 529.491 341.24C532.211 338.84 534.691 335.56 536.931 331.4C539.171 327.08 540.291 321.48 540.291 314.6V297.32C540.291 291.4 539.331 285.96 537.411 281C535.651 276.04 533.011 271.8 529.491 268.28C525.971 264.76 521.731 262.04 516.771 260.12C511.971 258.2 506.531 257.24 500.451 257.24H420.531V437.24Z"/>
<path d="M622.129 257.24C617.489 257.24 612.689 258.36 607.729 260.6C602.929 262.84 598.529 265.8 594.529 269.48C590.689 273.16 587.489 277.48 584.929 282.44C582.529 287.4 581.329 292.52 581.329 297.8V437.24H621.169V357.32H660.529V437.24C661.809 437.4 664.289 437.48 667.969 437.48C671.649 437.48 675.569 437.48 679.729 437.48C684.049 437.48 688.129 437.4 691.969 437.24C695.969 437.24 698.849 437.24 700.609 437.24V297.8C700.609 292.52 699.329 287.48 696.769 282.68C694.209 277.72 690.929 273.4 686.929 269.72C683.089 265.88 678.689 262.84 673.729 260.6C668.769 258.36 663.889 257.24 659.089 257.24H622.129ZM621.169 336.92V276.92H660.529V336.92H621.169Z"/>
<path d="M800.448 357.08H820.608V417.08H780.528V277.16H824.688C829.648 277.16 833.568 279 836.448 282.68C839.328 286.2 840.768 291.24 840.768 297.8H860.448C860.448 292.68 859.328 287.72 857.088 282.92C854.848 277.96 851.808 273.64 847.968 269.96C844.128 266.12 839.728 263.08 834.768 260.84C829.807 258.44 824.688 257.24 819.408 257.24H781.248C775.648 257.24 770.368 258.44 765.408 260.84C760.448 263.08 756.128 266.12 752.448 269.96C748.768 273.8 745.888 278.2 743.808 283.16C741.728 287.96 740.688 292.92 740.688 298.04V396.44C740.688 402.04 741.728 407.32 743.808 412.28C745.888 417.24 748.768 421.56 752.448 425.24C756.128 428.92 760.368 431.88 765.168 434.12C770.128 436.2 775.488 437.24 781.248 437.24H819.648C825.728 437.24 831.247 436.12 836.208 433.88C841.168 431.64 845.408 428.68 848.928 425C852.608 421.32 855.408 417 857.328 412.04C859.408 407.08 860.448 401.88 860.448 396.44V336.68H800.448V357.08Z"/>
<path d="M980.686 357.32V336.92H940.606V277.16H1000.61V257.24H900.766V437.24H1000.61V417.08H940.606V357.32H980.686Z"/>
</mask>
<path d="M1 312.2C1 316.52 2.44 321 5.32 325.64C8.36 330.12 12.04 334.68 16.36 339.32C20.84 343.96 25.64 348.6 30.76 353.24C36.04 357.72 40.84 362.04 45.16 366.2C49.64 370.36 53.32 374.36 56.2 378.2C59.24 381.88 60.76 385.16 60.76 388.04V417.32H42.52C36.12 417.32 30.92 415.4 26.92 411.56C23.08 407.72 21.16 402.76 21.16 396.68H1C1 402.28 2.04 407.56 4.12 412.52C6.36 417.32 9.32 421.56 13 425.24C16.84 428.92 21.24 431.88 26.2 434.12C31.32 436.2 36.76 437.24 42.52 437.24H59.32C65.4 437.24 70.92 436.2 75.88 434.12C81 431.88 85.32 428.92 88.84 425.24C92.52 421.4 95.32 417.08 97.24 412.28C99.32 407.32 100.36 402.12 100.36 396.68V382.04C100.36 377.24 98.84 372.36 95.8 367.4C92.92 362.28 89.24 357.32 84.76 352.52C80.44 347.56 75.72 342.76 70.6 338.12C65.48 333.48 60.68 329.16 56.2 325.16C51.88 321 48.2 317.24 45.16 313.88C42.28 310.52 40.84 307.64 40.84 305.24V276.92H56.68C64.36 276.92 70.28 278.76 74.44 282.44C78.76 285.96 80.92 290.92 80.92 297.32H100.6C100.6 291.88 99.48 286.76 97.24 281.96C95.16 277 92.2 272.76 88.36 269.24C84.68 265.56 80.36 262.68 75.4 260.6C70.44 258.36 65.16 257.24 59.56 257.24H42.52C36.76 257.24 31.32 258.28 26.2 260.36C21.24 262.44 16.84 265.32 13 269C9.32 272.68 6.36 277 4.12 281.96C2.04 286.76 1 292.04 1 297.8V312.2Z" fill="#F5C32C"/>
<path d="M240.293 257.24H120.293V277.16H160.373V437.24H200.213V277.16H240.293V257.24Z" fill="#F5C32C"/>
<path d="M301.253 437.24H339.413C344.853 437.24 349.973 436.2 354.773 434.12C359.733 431.88 364.053 428.92 367.733 425.24C371.573 421.4 374.613 417.08 376.853 412.28C379.093 407.32 380.213 402.12 380.213 396.68V297.8C380.213 292.68 379.093 287.72 376.853 282.92C374.773 277.96 371.893 273.64 368.213 269.96C364.533 266.12 360.213 263.08 355.253 260.84C350.293 258.44 345.013 257.24 339.413 257.24H301.253C295.653 257.24 290.373 258.44 285.413 260.84C280.453 263.08 276.133 266.12 272.453 269.96C268.773 273.64 265.813 277.96 263.573 282.92C261.493 287.72 260.453 292.68 260.453 297.8V396.68C260.453 402.12 261.573 407.32 263.813 412.28C266.053 417.08 269.013 421.4 272.693 425.24C276.533 428.92 280.853 431.88 285.653 434.12C290.613 436.2 295.813 437.24 301.253 437.24ZM340.373 417.08H300.293V277.16H340.373V417.08Z" fill="#F5C32C"/>
<path d="M460.371 336.92V276.92H500.451V336.92H460.371ZM420.531 437.24H460.371V357.32H500.451V437.24H540.291V381.56C540.291 374.68 539.171 369.08 536.931 364.76C534.691 360.28 532.211 356.76 529.491 354.2C526.931 351.48 524.531 349.64 522.291 348.68C520.051 347.56 518.931 347 518.931 347C518.931 347 520.051 346.6 522.291 345.8C524.531 345 526.931 343.48 529.491 341.24C532.211 338.84 534.691 335.56 536.931 331.4C539.171 327.08 540.291 321.48 540.291 314.6V297.32C540.291 291.4 539.331 285.96 537.411 281C535.651 276.04 533.011 271.8 529.491 268.28C525.971 264.76 521.731 262.04 516.771 260.12C511.971 258.2 506.531 257.24 500.451 257.24H420.531V437.24Z" fill="#F5C32C"/>
<path d="M622.129 257.24C617.489 257.24 612.689 258.36 607.729 260.6C602.929 262.84 598.529 265.8 594.529 269.48C590.689 273.16 587.489 277.48 584.929 282.44C582.529 287.4 581.329 292.52 581.329 297.8V437.24H621.169V357.32H660.529V437.24C661.809 437.4 664.289 437.48 667.969 437.48C671.649 437.48 675.569 437.48 679.729 437.48C684.049 437.48 688.129 437.4 691.969 437.24C695.969 437.24 698.849 437.24 700.609 437.24V297.8C700.609 292.52 699.329 287.48 696.769 282.68C694.209 277.72 690.929 273.4 686.929 269.72C683.089 265.88 678.689 262.84 673.729 260.6C668.769 258.36 663.889 257.24 659.089 257.24H622.129ZM621.169 336.92V276.92H660.529V336.92H621.169Z" fill="#F5C32C"/>
<path d="M800.448 357.08H820.608V417.08H780.528V277.16H824.688C829.648 277.16 833.568 279 836.448 282.68C839.328 286.2 840.768 291.24 840.768 297.8H860.448C860.448 292.68 859.328 287.72 857.088 282.92C854.848 277.96 851.808 273.64 847.968 269.96C844.128 266.12 839.728 263.08 834.768 260.84C829.807 258.44 824.688 257.24 819.408 257.24H781.248C775.648 257.24 770.368 258.44 765.408 260.84C760.448 263.08 756.128 266.12 752.448 269.96C748.768 273.8 745.888 278.2 743.808 283.16C741.728 287.96 740.688 292.92 740.688 298.04V396.44C740.688 402.04 741.728 407.32 743.808 412.28C745.888 417.24 748.768 421.56 752.448 425.24C756.128 428.92 760.368 431.88 765.168 434.12C770.128 436.2 775.488 437.24 781.248 437.24H819.648C825.728 437.24 831.247 436.12 836.208 433.88C841.168 431.64 845.408 428.68 848.928 425C852.608 421.32 855.408 417 857.328 412.04C859.408 407.08 860.448 401.88 860.448 396.44V336.68H800.448V357.08Z" fill="#F5C32C"/>
<path d="M980.686 357.32V336.92H940.606V277.16H1000.61V257.24H900.766V437.24H1000.61V417.08H940.606V357.32H980.686Z" fill="#F5C32C"/>
<path d="M1 312.2C1 316.52 2.44 321 5.32 325.64C8.36 330.12 12.04 334.68 16.36 339.32C20.84 343.96 25.64 348.6 30.76 353.24C36.04 357.72 40.84 362.04 45.16 366.2C49.64 370.36 53.32 374.36 56.2 378.2C59.24 381.88 60.76 385.16 60.76 388.04V417.32H42.52C36.12 417.32 30.92 415.4 26.92 411.56C23.08 407.72 21.16 402.76 21.16 396.68H1C1 402.28 2.04 407.56 4.12 412.52C6.36 417.32 9.32 421.56 13 425.24C16.84 428.92 21.24 431.88 26.2 434.12C31.32 436.2 36.76 437.24 42.52 437.24H59.32C65.4 437.24 70.92 436.2 75.88 434.12C81 431.88 85.32 428.92 88.84 425.24C92.52 421.4 95.32 417.08 97.24 412.28C99.32 407.32 100.36 402.12 100.36 396.68V382.04C100.36 377.24 98.84 372.36 95.8 367.4C92.92 362.28 89.24 357.32 84.76 352.52C80.44 347.56 75.72 342.76 70.6 338.12C65.48 333.48 60.68 329.16 56.2 325.16C51.88 321 48.2 317.24 45.16 313.88C42.28 310.52 40.84 307.64 40.84 305.24V276.92H56.68C64.36 276.92 70.28 278.76 74.44 282.44C78.76 285.96 80.92 290.92 80.92 297.32H100.6C100.6 291.88 99.48 286.76 97.24 281.96C95.16 277 92.2 272.76 88.36 269.24C84.68 265.56 80.36 262.68 75.4 260.6C70.44 258.36 65.16 257.24 59.56 257.24H42.52C36.76 257.24 31.32 258.28 26.2 260.36C21.24 262.44 16.84 265.32 13 269C9.32 272.68 6.36 277 4.12 281.96C2.04 286.76 1 292.04 1 297.8V312.2Z" stroke="black" stroke-width="2" mask="url(#path-4-outside-4)"/>
<path d="M240.293 257.24H120.293V277.16H160.373V437.24H200.213V277.16H240.293V257.24Z" stroke="black" stroke-width="2" mask="url(#path-4-outside-4)"/>
<path d="M301.253 437.24H339.413C344.853 437.24 349.973 436.2 354.773 434.12C359.733 431.88 364.053 428.92 367.733 425.24C371.573 421.4 374.613 417.08 376.853 412.28C379.093 407.32 380.213 402.12 380.213 396.68V297.8C380.213 292.68 379.093 287.72 376.853 282.92C374.773 277.96 371.893 273.64 368.213 269.96C364.533 266.12 360.213 263.08 355.253 260.84C350.293 258.44 345.013 257.24 339.413 257.24H301.253C295.653 257.24 290.373 258.44 285.413 260.84C280.453 263.08 276.133 266.12 272.453 269.96C268.773 273.64 265.813 277.96 263.573 282.92C261.493 287.72 260.453 292.68 260.453 297.8V396.68C260.453 402.12 261.573 407.32 263.813 412.28C266.053 417.08 269.013 421.4 272.693 425.24C276.533 428.92 280.853 431.88 285.653 434.12C290.613 436.2 295.813 437.24 301.253 437.24ZM340.373 417.08H300.293V277.16H340.373V417.08Z" stroke="black" stroke-width="2" mask="url(#path-4-outside-4)"/>
<path d="M460.371 336.92V276.92H500.451V336.92H460.371ZM420.531 437.24H460.371V357.32H500.451V437.24H540.291V381.56C540.291 374.68 539.171 369.08 536.931 364.76C534.691 360.28 532.211 356.76 529.491 354.2C526.931 351.48 524.531 349.64 522.291 348.68C520.051 347.56 518.931 347 518.931 347C518.931 347 520.051 346.6 522.291 345.8C524.531 345 526.931 343.48 529.491 341.24C532.211 338.84 534.691 335.56 536.931 331.4C539.171 327.08 540.291 321.48 540.291 314.6V297.32C540.291 291.4 539.331 285.96 537.411 281C535.651 276.04 533.011 271.8 529.491 268.28C525.971 264.76 521.731 262.04 516.771 260.12C511.971 258.2 506.531 257.24 500.451 257.24H420.531V437.24Z" stroke="black" stroke-width="2" mask="url(#path-4-outside-4)"/>
<path d="M622.129 257.24C617.489 257.24 612.689 258.36 607.729 260.6C602.929 262.84 598.529 265.8 594.529 269.48C590.689 273.16 587.489 277.48 584.929 282.44C582.529 287.4 581.329 292.52 581.329 297.8V437.24H621.169V357.32H660.529V437.24C661.809 437.4 664.289 437.48 667.969 437.48C671.649 437.48 675.569 437.48 679.729 437.48C684.049 437.48 688.129 437.4 691.969 437.24C695.969 437.24 698.849 437.24 700.609 437.24V297.8C700.609 292.52 699.329 287.48 696.769 282.68C694.209 277.72 690.929 273.4 686.929 269.72C683.089 265.88 678.689 262.84 673.729 260.6C668.769 258.36 663.889 257.24 659.089 257.24H622.129ZM621.169 336.92V276.92H660.529V336.92H621.169Z" stroke="black" stroke-width="2" mask="url(#path-4-outside-4)"/>
<path d="M800.448 357.08H820.608V417.08H780.528V277.16H824.688C829.648 277.16 833.568 279 836.448 282.68C839.328 286.2 840.768 291.24 840.768 297.8H860.448C860.448 292.68 859.328 287.72 857.088 282.92C854.848 277.96 851.808 273.64 847.968 269.96C844.128 266.12 839.728 263.08 834.768 260.84C829.807 258.44 824.688 257.24 819.408 257.24H781.248C775.648 257.24 770.368 258.44 765.408 260.84C760.448 263.08 756.128 266.12 752.448 269.96C748.768 273.8 745.888 278.2 743.808 283.16C741.728 287.96 740.688 292.92 740.688 298.04V396.44C740.688 402.04 741.728 407.32 743.808 412.28C745.888 417.24 748.768 421.56 752.448 425.24C756.128 428.92 760.368 431.88 765.168 434.12C770.128 436.2 775.488 437.24 781.248 437.24H819.648C825.728 437.24 831.247 436.12 836.208 433.88C841.168 431.64 845.408 428.68 848.928 425C852.608 421.32 855.408 417 857.328 412.04C859.408 407.08 860.448 401.88 860.448 396.44V336.68H800.448V357.08Z" stroke="black" stroke-width="2" mask="url(#path-4-outside-4)"/>
<path d="M980.686 357.32V336.92H940.606V277.16H1000.61V257.24H900.766V437.24H1000.61V417.08H940.606V357.32H980.686Z" stroke="black" stroke-width="2" mask="url(#path-4-outside-4)"/>
<mask id="path-5-outside-5" maskUnits="userSpaceOnUse" x="0" y="246" width="1002" height="183" fill="black">
<rect fill="white" y="246" width="1002" height="183"/>
<path d="M1 301.96C1 306.28 2.44 310.76 5.32 315.4C8.36 319.88 12.04 324.44 16.36 329.08C20.84 333.72 25.64 338.36 30.76 343C36.04 347.48 40.84 351.8 45.16 355.96C49.64 360.12 53.32 364.12 56.2 367.96C59.24 371.64 60.76 374.92 60.76 377.8V407.08H42.52C36.12 407.08 30.92 405.16 26.92 401.32C23.08 397.48 21.16 392.52 21.16 386.44H1C1 392.04 2.04 397.32 4.12 402.28C6.36 407.08 9.32 411.32 13 415C16.84 418.68 21.24 421.64 26.2 423.88C31.32 425.96 36.76 427 42.52 427H59.32C65.4 427 70.92 425.96 75.88 423.88C81 421.64 85.32 418.68 88.84 415C92.52 411.16 95.32 406.84 97.24 402.04C99.32 397.08 100.36 391.88 100.36 386.44V371.8C100.36 367 98.84 362.12 95.8 357.16C92.92 352.04 89.24 347.08 84.76 342.28C80.44 337.32 75.72 332.52 70.6 327.88C65.48 323.24 60.68 318.92 56.2 314.92C51.88 310.76 48.2 307 45.16 303.64C42.28 300.28 40.84 297.4 40.84 295V266.68H56.68C64.36 266.68 70.28 268.52 74.44 272.2C78.76 275.72 80.92 280.68 80.92 287.08H100.6C100.6 281.64 99.48 276.52 97.24 271.72C95.16 266.76 92.2 262.52 88.36 259C84.68 255.32 80.36 252.44 75.4 250.36C70.44 248.12 65.16 247 59.56 247H42.52C36.76 247 31.32 248.04 26.2 250.12C21.24 252.2 16.84 255.08 13 258.76C9.32 262.44 6.36 266.76 4.12 271.72C2.04 276.52 1 281.8 1 287.56V301.96Z"/>
<path d="M240.293 247H120.293V266.92H160.373V427H200.213V266.92H240.293V247Z"/>
<path d="M301.253 427H339.413C344.853 427 349.973 425.96 354.773 423.88C359.733 421.64 364.053 418.68 367.733 415C371.573 411.16 374.613 406.84 376.853 402.04C379.093 397.08 380.213 391.88 380.213 386.44V287.56C380.213 282.44 379.093 277.48 376.853 272.68C374.773 267.72 371.893 263.4 368.213 259.72C364.533 255.88 360.213 252.84 355.253 250.6C350.293 248.2 345.013 247 339.413 247H301.253C295.653 247 290.373 248.2 285.413 250.6C280.453 252.84 276.133 255.88 272.453 259.72C268.773 263.4 265.813 267.72 263.573 272.68C261.493 277.48 260.453 282.44 260.453 287.56V386.44C260.453 391.88 261.573 397.08 263.813 402.04C266.053 406.84 269.013 411.16 272.693 415C276.533 418.68 280.853 421.64 285.653 423.88C290.613 425.96 295.813 427 301.253 427ZM340.373 406.84H300.293V266.92H340.373V406.84Z"/>
<path d="M460.371 326.68V266.68H500.451V326.68H460.371ZM420.531 427H460.371V347.08H500.451V427H540.291V371.32C540.291 364.44 539.171 358.84 536.931 354.52C534.691 350.04 532.211 346.52 529.491 343.96C526.931 341.24 524.531 339.4 522.291 338.44C520.051 337.32 518.931 336.76 518.931 336.76C518.931 336.76 520.051 336.36 522.291 335.56C524.531 334.76 526.931 333.24 529.491 331C532.211 328.6 534.691 325.32 536.931 321.16C539.171 316.84 540.291 311.24 540.291 304.36V287.08C540.291 281.16 539.331 275.72 537.411 270.76C535.651 265.8 533.011 261.56 529.491 258.04C525.971 254.52 521.731 251.8 516.771 249.88C511.971 247.96 506.531 247 500.451 247H420.531V427Z"/>
<path d="M622.129 247C617.489 247 612.689 248.12 607.729 250.36C602.929 252.6 598.529 255.56 594.529 259.24C590.689 262.92 587.489 267.24 584.929 272.2C582.529 277.16 581.329 282.28 581.329 287.56V427H621.169V347.08H660.529V427C661.809 427.16 664.289 427.24 667.969 427.24C671.649 427.24 675.569 427.24 679.729 427.24C684.049 427.24 688.129 427.16 691.969 427C695.969 427 698.849 427 700.609 427V287.56C700.609 282.28 699.329 277.24 696.769 272.44C694.209 267.48 690.929 263.16 686.929 259.48C683.089 255.64 678.689 252.6 673.729 250.36C668.769 248.12 663.889 247 659.089 247H622.129ZM621.169 326.68V266.68H660.529V326.68H621.169Z"/>
<path d="M800.448 346.84H820.608V406.84H780.528V266.92H824.688C829.648 266.92 833.568 268.76 836.448 272.44C839.328 275.96 840.768 281 840.768 287.56H860.448C860.448 282.44 859.328 277.48 857.088 272.68C854.848 267.72 851.808 263.4 847.968 259.72C844.128 255.88 839.728 252.84 834.768 250.6C829.807 248.2 824.688 247 819.408 247H781.248C775.648 247 770.368 248.2 765.408 250.6C760.448 252.84 756.128 255.88 752.448 259.72C748.768 263.56 745.888 267.96 743.808 272.92C741.728 277.72 740.688 282.68 740.688 287.8V386.2C740.688 391.8 741.728 397.08 743.808 402.04C745.888 407 748.768 411.32 752.448 415C756.128 418.68 760.368 421.64 765.168 423.88C770.128 425.96 775.488 427 781.248 427H819.648C825.728 427 831.247 425.88 836.208 423.64C841.168 421.4 845.408 418.44 848.928 414.76C852.608 411.08 855.408 406.76 857.328 401.8C859.408 396.84 860.448 391.64 860.448 386.2V326.44H800.448V346.84Z"/>
<path d="M980.686 347.08V326.68H940.606V266.92H1000.61V247H900.766V427H1000.61V406.84H940.606V347.08H980.686Z"/>
</mask>
<path d="M1 301.96C1 306.28 2.44 310.76 5.32 315.4C8.36 319.88 12.04 324.44 16.36 329.08C20.84 333.72 25.64 338.36 30.76 343C36.04 347.48 40.84 351.8 45.16 355.96C49.64 360.12 53.32 364.12 56.2 367.96C59.24 371.64 60.76 374.92 60.76 377.8V407.08H42.52C36.12 407.08 30.92 405.16 26.92 401.32C23.08 397.48 21.16 392.52 21.16 386.44H1C1 392.04 2.04 397.32 4.12 402.28C6.36 407.08 9.32 411.32 13 415C16.84 418.68 21.24 421.64 26.2 423.88C31.32 425.96 36.76 427 42.52 427H59.32C65.4 427 70.92 425.96 75.88 423.88C81 421.64 85.32 418.68 88.84 415C92.52 411.16 95.32 406.84 97.24 402.04C99.32 397.08 100.36 391.88 100.36 386.44V371.8C100.36 367 98.84 362.12 95.8 357.16C92.92 352.04 89.24 347.08 84.76 342.28C80.44 337.32 75.72 332.52 70.6 327.88C65.48 323.24 60.68 318.92 56.2 314.92C51.88 310.76 48.2 307 45.16 303.64C42.28 300.28 40.84 297.4 40.84 295V266.68H56.68C64.36 266.68 70.28 268.52 74.44 272.2C78.76 275.72 80.92 280.68 80.92 287.08H100.6C100.6 281.64 99.48 276.52 97.24 271.72C95.16 266.76 92.2 262.52 88.36 259C84.68 255.32 80.36 252.44 75.4 250.36C70.44 248.12 65.16 247 59.56 247H42.52C36.76 247 31.32 248.04 26.2 250.12C21.24 252.2 16.84 255.08 13 258.76C9.32 262.44 6.36 266.76 4.12 271.72C2.04 276.52 1 281.8 1 287.56V301.96Z" fill="white"/>
<path d="M240.293 247H120.293V266.92H160.373V427H200.213V266.92H240.293V247Z" fill="white"/>
<path d="M301.253 427H339.413C344.853 427 349.973 425.96 354.773 423.88C359.733 421.64 364.053 418.68 367.733 415C371.573 411.16 374.613 406.84 376.853 402.04C379.093 397.08 380.213 391.88 380.213 386.44V287.56C380.213 282.44 379.093 277.48 376.853 272.68C374.773 267.72 371.893 263.4 368.213 259.72C364.533 255.88 360.213 252.84 355.253 250.6C350.293 248.2 345.013 247 339.413 247H301.253C295.653 247 290.373 248.2 285.413 250.6C280.453 252.84 276.133 255.88 272.453 259.72C268.773 263.4 265.813 267.72 263.573 272.68C261.493 277.48 260.453 282.44 260.453 287.56V386.44C260.453 391.88 261.573 397.08 263.813 402.04C266.053 406.84 269.013 411.16 272.693 415C276.533 418.68 280.853 421.64 285.653 423.88C290.613 425.96 295.813 427 301.253 427ZM340.373 406.84H300.293V266.92H340.373V406.84Z" fill="white"/>
<path d="M460.371 326.68V266.68H500.451V326.68H460.371ZM420.531 427H460.371V347.08H500.451V427H540.291V371.32C540.291 364.44 539.171 358.84 536.931 354.52C534.691 350.04 532.211 346.52 529.491 343.96C526.931 341.24 524.531 339.4 522.291 338.44C520.051 337.32 518.931 336.76 518.931 336.76C518.931 336.76 520.051 336.36 522.291 335.56C524.531 334.76 526.931 333.24 529.491 331C532.211 328.6 534.691 325.32 536.931 321.16C539.171 316.84 540.291 311.24 540.291 304.36V287.08C540.291 281.16 539.331 275.72 537.411 270.76C535.651 265.8 533.011 261.56 529.491 258.04C525.971 254.52 521.731 251.8 516.771 249.88C511.971 247.96 506.531 247 500.451 247H420.531V427Z" fill="white"/>
<path d="M622.129 247C617.489 247 612.689 248.12 607.729 250.36C602.929 252.6 598.529 255.56 594.529 259.24C590.689 262.92 587.489 267.24 584.929 272.2C582.529 277.16 581.329 282.28 581.329 287.56V427H621.169V347.08H660.529V427C661.809 427.16 664.289 427.24 667.969 427.24C671.649 427.24 675.569 427.24 679.729 427.24C684.049 427.24 688.129 427.16 691.969 427C695.969 427 698.849 427 700.609 427V287.56C700.609 282.28 699.329 277.24 696.769 272.44C694.209 267.48 690.929 263.16 686.929 259.48C683.089 255.64 678.689 252.6 673.729 250.36C668.769 248.12 663.889 247 659.089 247H622.129ZM621.169 326.68V266.68H660.529V326.68H621.169Z" fill="white"/>
<path d="M800.448 346.84H820.608V406.84H780.528V266.92H824.688C829.648 266.92 833.568 268.76 836.448 272.44C839.328 275.96 840.768 281 840.768 287.56H860.448C860.448 282.44 859.328 277.48 857.088 272.68C854.848 267.72 851.808 263.4 847.968 259.72C844.128 255.88 839.728 252.84 834.768 250.6C829.807 248.2 824.688 247 819.408 247H781.248C775.648 247 770.368 248.2 765.408 250.6C760.448 252.84 756.128 255.88 752.448 259.72C748.768 263.56 745.888 267.96 743.808 272.92C741.728 277.72 740.688 282.68 740.688 287.8V386.2C740.688 391.8 741.728 397.08 743.808 402.04C745.888 407 748.768 411.32 752.448 415C756.128 418.68 760.368 421.64 765.168 423.88C770.128 425.96 775.488 427 781.248 427H819.648C825.728 427 831.247 425.88 836.208 423.64C841.168 421.4 845.408 418.44 848.928 414.76C852.608 411.08 855.408 406.76 857.328 401.8C859.408 396.84 860.448 391.64 860.448 386.2V326.44H800.448V346.84Z" fill="white"/>
<path d="M980.686 347.08V326.68H940.606V266.92H1000.61V247H900.766V427H1000.61V406.84H940.606V347.08H980.686Z" fill="white"/>
<path d="M1 301.96C1 306.28 2.44 310.76 5.32 315.4C8.36 319.88 12.04 324.44 16.36 329.08C20.84 333.72 25.64 338.36 30.76 343C36.04 347.48 40.84 351.8 45.16 355.96C49.64 360.12 53.32 364.12 56.2 367.96C59.24 371.64 60.76 374.92 60.76 377.8V407.08H42.52C36.12 407.08 30.92 405.16 26.92 401.32C23.08 397.48 21.16 392.52 21.16 386.44H1C1 392.04 2.04 397.32 4.12 402.28C6.36 407.08 9.32 411.32 13 415C16.84 418.68 21.24 421.64 26.2 423.88C31.32 425.96 36.76 427 42.52 427H59.32C65.4 427 70.92 425.96 75.88 423.88C81 421.64 85.32 418.68 88.84 415C92.52 411.16 95.32 406.84 97.24 402.04C99.32 397.08 100.36 391.88 100.36 386.44V371.8C100.36 367 98.84 362.12 95.8 357.16C92.92 352.04 89.24 347.08 84.76 342.28C80.44 337.32 75.72 332.52 70.6 327.88C65.48 323.24 60.68 318.92 56.2 314.92C51.88 310.76 48.2 307 45.16 303.64C42.28 300.28 40.84 297.4 40.84 295V266.68H56.68C64.36 266.68 70.28 268.52 74.44 272.2C78.76 275.72 80.92 280.68 80.92 287.08H100.6C100.6 281.64 99.48 276.52 97.24 271.72C95.16 266.76 92.2 262.52 88.36 259C84.68 255.32 80.36 252.44 75.4 250.36C70.44 248.12 65.16 247 59.56 247H42.52C36.76 247 31.32 248.04 26.2 250.12C21.24 252.2 16.84 255.08 13 258.76C9.32 262.44 6.36 266.76 4.12 271.72C2.04 276.52 1 281.8 1 287.56V301.96Z" stroke="black" stroke-width="2" mask="url(#path-5-outside-5)"/>
<path d="M240.293 247H120.293V266.92H160.373V427H200.213V266.92H240.293V247Z" stroke="black" stroke-width="2" mask="url(#path-5-outside-5)"/>
<path d="M301.253 427H339.413C344.853 427 349.973 425.96 354.773 423.88C359.733 421.64 364.053 418.68 367.733 415C371.573 411.16 374.613 406.84 376.853 402.04C379.093 397.08 380.213 391.88 380.213 386.44V287.56C380.213 282.44 379.093 277.48 376.853 272.68C374.773 267.72 371.893 263.4 368.213 259.72C364.533 255.88 360.213 252.84 355.253 250.6C350.293 248.2 345.013 247 339.413 247H301.253C295.653 247 290.373 248.2 285.413 250.6C280.453 252.84 276.133 255.88 272.453 259.72C268.773 263.4 265.813 267.72 263.573 272.68C261.493 277.48 260.453 282.44 260.453 287.56V386.44C260.453 391.88 261.573 397.08 263.813 402.04C266.053 406.84 269.013 411.16 272.693 415C276.533 418.68 280.853 421.64 285.653 423.88C290.613 425.96 295.813 427 301.253 427ZM340.373 406.84H300.293V266.92H340.373V406.84Z" stroke="black" stroke-width="2" mask="url(#path-5-outside-5)"/>
<path d="M460.371 326.68V266.68H500.451V326.68H460.371ZM420.531 427H460.371V347.08H500.451V427H540.291V371.32C540.291 364.44 539.171 358.84 536.931 354.52C534.691 350.04 532.211 346.52 529.491 343.96C526.931 341.24 524.531 339.4 522.291 338.44C520.051 337.32 518.931 336.76 518.931 336.76C518.931 336.76 520.051 336.36 522.291 335.56C524.531 334.76 526.931 333.24 529.491 331C532.211 328.6 534.691 325.32 536.931 321.16C539.171 316.84 540.291 311.24 540.291 304.36V287.08C540.291 281.16 539.331 275.72 537.411 270.76C535.651 265.8 533.011 261.56 529.491 258.04C525.971 254.52 521.731 251.8 516.771 249.88C511.971 247.96 506.531 247 500.451 247H420.531V427Z" stroke="black" stroke-width="2" mask="url(#path-5-outside-5)"/>
<path d="M622.129 247C617.489 247 612.689 248.12 607.729 250.36C602.929 252.6 598.529 255.56 594.529 259.24C590.689 262.92 587.489 267.24 584.929 272.2C582.529 277.16 581.329 282.28 581.329 287.56V427H621.169V347.08H660.529V427C661.809 427.16 664.289 427.24 667.969 427.24C671.649 427.24 675.569 427.24 679.729 427.24C684.049 427.24 688.129 427.16 691.969 427C695.969 427 698.849 427 700.609 427V287.56C700.609 282.28 699.329 277.24 696.769 272.44C694.209 267.48 690.929 263.16 686.929 259.48C683.089 255.64 678.689 252.6 673.729 250.36C668.769 248.12 663.889 247 659.089 247H622.129ZM621.169 326.68V266.68H660.529V326.68H621.169Z" stroke="black" stroke-width="2" mask="url(#path-5-outside-5)"/>
<path d="M800.448 346.84H820.608V406.84H780.528V266.92H824.688C829.648 266.92 833.568 268.76 836.448 272.44C839.328 275.96 840.768 281 840.768 287.56H860.448C860.448 282.44 859.328 277.48 857.088 272.68C854.848 267.72 851.808 263.4 847.968 259.72C844.128 255.88 839.728 252.84 834.768 250.6C829.807 248.2 824.688 247 819.408 247H781.248C775.648 247 770.368 248.2 765.408 250.6C760.448 252.84 756.128 255.88 752.448 259.72C748.768 263.56 745.888 267.96 743.808 272.92C741.728 277.72 740.688 282.68 740.688 287.8V386.2C740.688 391.8 741.728 397.08 743.808 402.04C745.888 407 748.768 411.32 752.448 415C756.128 418.68 760.368 421.64 765.168 423.88C770.128 425.96 775.488 427 781.248 427H819.648C825.728 427 831.247 425.88 836.208 423.64C841.168 421.4 845.408 418.44 848.928 414.76C852.608 411.08 855.408 406.76 857.328 401.8C859.408 396.84 860.448 391.64 860.448 386.2V326.44H800.448V346.84Z" stroke="black" stroke-width="2" mask="url(#path-5-outside-5)"/>
<path d="M980.686 347.08V326.68H940.606V266.92H1000.61V247H900.766V427H1000.61V406.84H940.606V347.08H980.686Z" stroke="black" stroke-width="2" mask="url(#path-5-outside-5)"/>
<ellipse cx="320" cy="336.5" rx="53" ry="79.5" fill="white"/>
<ellipse cx="305.5" cy="298" rx="4.5" ry="10" fill="black"/>
<ellipse cx="334.5" cy="298" rx="4.5" ry="10" fill="black"/>
<path d="M359 320C359 341.539 341.763 359 320.5 359C299.237 359 282 341.539 282 320" stroke="black"/>
<path d="M307.42 221V117.046L416.975 221.362L417.12 221.5H417.32H426.92H427.42V221V41V40.5H426.92H406.76H406.26V41V144.001L296.703 40.6363L296.559 40.5H296.36H287H286.5V41V221V221.5H287H306.92H307.42V221ZM546.92 141.58H547.42V141.08V120.92V120.42H546.92H507.34V61.42H566.84H567.34V60.92V41V40.5H566.84H467H466.5V41V221V221.5H467H506.84H507.34V221V141.58H546.92ZM707.262 41V40.5H706.762H586.762H586.262V41V60.92V61.42H586.762H626.342V221V221.5H626.842H666.682H667.182V221V61.42H706.762H707.262V60.92V41Z" fill="#F5C32C" stroke="black"/>
<path d="M307.42 211V107.046L416.975 211.362L417.12 211.5H417.32H426.92H427.42V211V31V30.5H426.92H406.76H406.26V31V134.001L296.703 30.6363L296.559 30.5H296.36H287H286.5V31V211V211.5H287H306.92H307.42V211ZM546.92 131.58H547.42V131.08V110.92V110.42H546.92H507.34V51.42H566.84H567.34V50.92V31V30.5H566.84H467H466.5V31V211V211.5H467H506.84H507.34V211V131.58H546.92ZM707.262 31V30.5H706.762H586.762H586.262V31V50.92V51.42H586.762H626.342V211V211.5H626.842H666.682H667.182V211V51.42H706.762H707.262V50.92V31Z" fill="#F5C32C" stroke="black"/>
<path d="M307.42 201V97.0465L416.975 201.362L417.12 201.5H417.32H426.92H427.42V201V21V20.5H426.92H406.76H406.26V21V124.001L296.703 20.6363L296.559 20.5H296.36H287H286.5V21V201V201.5H287H306.92H307.42V201ZM546.92 121.58H547.42V121.08V100.92V100.42H546.92H507.34V41.42H566.84H567.34V40.92V21V20.5H566.84H467H466.5V21V201V201.5H467H506.84H507.34V201V121.58H546.92ZM707.262 21V20.5H706.762H586.762H586.262V21V40.92V41.42H586.762H626.342V201V201.5H626.842H666.682H667.182V201V41.42H706.762H707.262V40.92V21Z" fill="#F5C32C" stroke="black"/>
<path d="M307.42 191V87.0465L416.975 191.362L417.12 191.5H417.32H426.92H427.42V191V11V10.5H426.92H406.76H406.26V11V114.001L296.703 10.6363L296.559 10.5H296.36H287H286.5V11V191V191.5H287H306.92H307.42V191ZM546.92 111.58H547.42V111.08V90.92V90.42H546.92H507.34V31.42H566.84H567.34V30.92V11V10.5H566.84H467H466.5V11V191V191.5H467H506.84H507.34V191V111.58H546.92ZM707.262 11V10.5H706.762H586.762H586.262V11V30.92V31.42H586.762H626.342V191V191.5H626.842H666.682H667.182V191V31.42H706.762H707.262V30.92V11Z" fill="#F5C32C" stroke="black"/>
<path d="M307.42 181V77.0465L416.975 181.362L417.12 181.5H417.32H426.92H427.42V181V1V0.5H426.92H406.76H406.26V1V104.001L296.703 0.636318L296.559 0.5H296.36H287H286.5V1V181V181.5H287H306.92H307.42V181ZM546.92 101.58H547.42V101.08V80.92V80.42H546.92H507.34V21.42H566.84H567.34V20.92V1V0.5H566.84H467H466.5V1V181V181.5H467H506.84H507.34V181V101.58H546.92ZM707.262 1V0.5H706.762H586.762H586.262V1V20.92V21.42H586.762H626.342V181V181.5H626.842H666.682H667.182V181V21.42H706.762H707.262V20.92V1Z" fill="white" stroke="black"/>
</svg>
