<svg fill="none" height="470" viewBox="0 0 1002 470" width="1002" xmlns="http://www.w3.org/2000/svg" xmlns:xlink="http://www.w3.org/1999/xlink"><mask id="a" fill="#000" height="183" maskUnits="userSpaceOnUse" width="1002" x="0" y="286.96"><path d="m0 286.96h1002v183h-1002z" fill="#fff"/><path d="m1 342.92c0 4.32 1.44 8.8 4.32 13.44 3.04 4.48 6.72 9.04 11.04 13.68 4.48 4.64 9.28 9.28 14.4 13.92 5.28 4.48 10.08 8.8 14.4 12.96 4.48 4.16 8.16 8.16 11.04 12 3.04 3.68 4.56 6.96 4.56 9.84v29.28h-18.24c-6.4 0-11.6-1.92-15.6-5.76-3.84-3.84-5.76-8.8-5.76-14.88h-20.16c0 5.6 1.04 10.88 3.12 15.84 2.24 4.8 5.2 9.04 8.88 12.72 3.84 3.68 8.24 6.64 13.2 8.88 5.12 2.08 10.56 3.12 16.32 3.12h16.8c6.08 0 11.6-1.04 16.56-3.12 5.12-2.24 9.44-5.2 12.96-8.88 3.68-3.84 6.48-8.16 8.4-12.96 2.08-4.96 3.12-10.16 3.12-15.6v-14.64c0-4.8-1.52-9.68-4.56-14.64-2.88-5.12-6.56-10.08-11.04-14.88-4.32-4.96-9.04-9.76-14.16-14.4s-9.92-8.96-14.4-12.96c-4.32-4.16-8-7.92-11.04-11.28-2.88-3.36-4.32-6.24-4.32-8.64v-28.32h15.84c7.68 0 13.6 1.84 17.76 5.52 4.32 3.52 6.48 8.48 6.48 14.88h19.68c0-5.44-1.12-10.56-3.36-15.36-2.08-4.96-5.04-9.2-8.88-12.72-3.68-3.68-8-6.56-12.96-8.64-4.96-2.24-10.24-3.36-15.84-3.36h-17.04c-5.76 0-11.2 1.04-16.32 3.12-4.96 2.08-9.36 4.96-13.2 8.64-3.68 3.68-6.64 8-8.88 12.96-2.08 4.8-3.12 10.08-3.12 15.84z" fill="#000"/><path d="m240.293 287.96h-120v19.92h40.08v160.08h39.84v-160.08h40.08z" fill="#000"/><path d="m301.253 467.96h38.16c5.44 0 10.56-1.04 15.36-3.12 4.96-2.24 9.28-5.2 12.96-8.88 3.84-3.84 6.88-8.16 9.12-12.96 2.24-4.96 3.36-10.16 3.36-15.6v-98.88c0-5.12-1.12-10.08-3.36-14.88-2.08-4.96-4.96-9.28-8.64-12.96-3.68-3.84-8-6.88-12.96-9.12-4.96-2.4-10.24-3.6-15.84-3.6h-38.16c-5.6 0-10.88 1.2-15.84 3.6-4.96 2.24-9.28 5.28-12.96 9.12-3.68 3.68-6.64 8-8.88 12.96-2.08 4.8-3.12 9.76-3.12 14.88v98.88c0 5.44 1.12 10.64 3.36 15.6 2.24 4.8 5.2 9.12 8.88 12.96 3.84 3.68 8.16 6.64 12.96 8.88 4.96 2.08 10.16 3.12 15.6 3.12zm39.12-20.16h-40.08v-139.92h40.08z" fill="#000"/><path d="m460.371 367.64v-60h40.08v60zm-39.84 100.32h39.84v-79.92h40.08v79.92h39.84v-55.68c0-6.88-1.12-12.48-3.36-16.8-2.24-4.48-4.72-8-7.44-10.56-2.56-2.72-4.96-4.56-7.2-5.52-2.24-1.12-3.36-1.68-3.36-1.68s1.12-.4 3.36-1.2 4.64-2.32 7.2-4.56c2.72-2.4 5.2-5.68 7.44-9.84 2.24-4.32 3.36-9.92 3.36-16.8v-17.28c0-5.92-.96-11.36-2.88-16.32-1.76-4.96-4.4-9.2-7.92-12.72s-7.76-6.24-12.72-8.16c-4.8-1.92-10.24-2.88-16.32-2.88h-79.92z" fill="#000"/><path d="m622.129 287.96c-4.64 0-9.44 1.12-14.4 3.36-4.8 2.24-9.2 5.2-13.2 8.88-3.84 3.68-7.04 8-9.6 12.96-2.4 4.96-3.6 10.08-3.6 15.36v139.44h39.84v-79.92h39.36v79.92c1.28.16 3.76.24 7.44.24h11.76c4.32 0 8.4-.08 12.24-.24h8.64v-139.44c0-5.28-1.28-10.32-3.84-15.12-2.56-4.96-5.84-9.28-9.84-12.96-3.84-3.84-8.24-6.88-13.2-9.12s-9.84-3.36-14.64-3.36zm-.96 79.68v-60h39.36v60z" fill="#000"/><path d="m800.448 387.8h20.16v60h-40.08v-139.92h44.16c4.96 0 8.88 1.84 11.76 5.52 2.88 3.52 4.32 8.56 4.32 15.12h19.68c0-5.12-1.12-10.08-3.36-14.88-2.24-4.96-5.28-9.28-9.12-12.96-3.84-3.84-8.24-6.88-13.2-9.12-4.961-2.4-10.08-3.6-15.36-3.6h-38.16c-5.6 0-10.88 1.2-15.84 3.6-4.96 2.24-9.28 5.28-12.96 9.12s-6.56 8.24-8.64 13.2c-2.08 4.8-3.12 9.76-3.12 14.88v98.4c0 5.6 1.04 10.88 3.12 15.84s4.96 9.28 8.64 12.96 7.92 6.64 12.72 8.88c4.96 2.08 10.32 3.12 16.08 3.12h38.4c6.08 0 11.599-1.12 16.56-3.36 4.96-2.24 9.2-5.2 12.72-8.88 3.68-3.68 6.48-8 8.4-12.96 2.08-4.96 3.12-10.16 3.12-15.6v-59.76h-60z" fill="#000"/><path d="m980.686 388.04v-20.4h-40.08v-59.76h60.004v-19.92h-99.844v180h99.844v-20.16h-60.004v-59.76z" fill="#000"/></mask><mask id="b" fill="#000" height="183" maskUnits="userSpaceOnUse" width="1002" x="0" y="276.72"><path d="m0 276.72h1002v183h-1002z" fill="#fff"/><path d="m1 332.68c0 4.32 1.44 8.8 4.32 13.44 3.04 4.48 6.72 9.04 11.04 13.68 4.48 4.64 9.28 9.28 14.4 13.92 5.28 4.48 10.08 8.8 14.4 12.96 4.48 4.16 8.16 8.16 11.04 12 3.04 3.68 4.56 6.96 4.56 9.84v29.28h-18.24c-6.4 0-11.6-1.92-15.6-5.76-3.84-3.84-5.76-8.8-5.76-14.88h-20.16c0 5.6 1.04 10.88 3.12 15.84 2.24 4.8 5.2 9.04 8.88 12.72 3.84 3.68 8.24 6.64 13.2 8.88 5.12 2.08 10.56 3.12 16.32 3.12h16.8c6.08 0 11.6-1.04 16.56-3.12 5.12-2.24 9.44-5.2 12.96-8.88 3.68-3.84 6.48-8.16 8.4-12.96 2.08-4.96 3.12-10.16 3.12-15.6v-14.64c0-4.8-1.52-9.68-4.56-14.64-2.88-5.12-6.56-10.08-11.04-14.88-4.32-4.96-9.04-9.76-14.16-14.4s-9.92-8.96-14.4-12.96c-4.32-4.16-8-7.92-11.04-11.28-2.88-3.36-4.32-6.24-4.32-8.64v-28.32h15.84c7.68 0 13.6 1.84 17.76 5.52 4.32 3.52 6.48 8.48 6.48 14.88h19.68c0-5.44-1.12-10.56-3.36-15.36-2.08-4.96-5.04-9.2-8.88-12.72-3.68-3.68-8-6.56-12.96-8.64-4.96-2.24-10.24-3.36-15.84-3.36h-17.04c-5.76 0-11.2 1.04-16.32 3.12-4.96 2.08-9.36 4.96-13.2 8.64-3.68 3.68-6.64 8-8.88 12.96-2.08 4.8-3.12 10.08-3.12 15.84z" fill="#000"/><path d="m240.293 277.72h-120v19.92h40.08v160.08h39.84v-160.08h40.08z" fill="#000"/><path d="m301.253 457.72h38.16c5.44 0 10.56-1.04 15.36-3.12 4.96-2.24 9.28-5.2 12.96-8.88 3.84-3.84 6.88-8.16 9.12-12.96 2.24-4.96 3.36-10.16 3.36-15.6v-98.88c0-5.12-1.12-10.08-3.36-14.88-2.08-4.96-4.96-9.28-8.64-12.96-3.68-3.84-8-6.88-12.96-9.12-4.96-2.4-10.24-3.6-15.84-3.6h-38.16c-5.6 0-10.88 1.2-15.84 3.6-4.96 2.24-9.28 5.28-12.96 9.12-3.68 3.68-6.64 8-8.88 12.96-2.08 4.8-3.12 9.76-3.12 14.88v98.88c0 5.44 1.12 10.64 3.36 15.6 2.24 4.8 5.2 9.12 8.88 12.96 3.84 3.68 8.16 6.64 12.96 8.88 4.96 2.08 10.16 3.12 15.6 3.12zm39.12-20.16h-40.08v-139.92h40.08z" fill="#000"/><path d="m460.371 357.4v-60h40.08v60zm-39.84 100.32h39.84v-79.92h40.08v79.92h39.84v-55.68c0-6.88-1.12-12.48-3.36-16.8-2.24-4.48-4.72-8-7.44-10.56-2.56-2.72-4.96-4.56-7.2-5.52-2.24-1.12-3.36-1.68-3.36-1.68s1.12-.4 3.36-1.2 4.64-2.32 7.2-4.56c2.72-2.4 5.2-5.68 7.44-9.84 2.24-4.32 3.36-9.92 3.36-16.8v-17.28c0-5.92-.96-11.36-2.88-16.32-1.76-4.96-4.4-9.2-7.92-12.72s-7.76-6.24-12.72-8.16c-4.8-1.92-10.24-2.88-16.32-2.88h-79.92z" fill="#000"/><path d="m622.129 277.72c-4.64 0-9.44 1.12-14.4 3.36-4.8 2.24-9.2 5.2-13.2 8.88-3.84 3.68-7.04 8-9.6 12.96-2.4 4.96-3.6 10.08-3.6 15.36v139.44h39.84v-79.92h39.36v79.92c1.28.16 3.76.24 7.44.24h11.76c4.32 0 8.4-.08 12.24-.24h8.64v-139.44c0-5.28-1.28-10.32-3.84-15.12-2.56-4.96-5.84-9.28-9.84-12.96-3.84-3.84-8.24-6.88-13.2-9.12s-9.84-3.36-14.64-3.36zm-.96 79.68v-60h39.36v60z" fill="#000"/><path d="m800.448 377.56h20.16v60h-40.08v-139.92h44.16c4.96 0 8.88 1.84 11.76 5.52 2.88 3.52 4.32 8.56 4.32 15.12h19.68c0-5.12-1.12-10.08-3.36-14.88-2.24-4.96-5.28-9.28-9.12-12.96-3.84-3.84-8.24-6.88-13.2-9.12-4.961-2.4-10.08-3.6-15.36-3.6h-38.16c-5.6 0-10.88 1.2-15.84 3.6-4.96 2.24-9.28 5.28-12.96 9.12s-6.56 8.24-8.64 13.2c-2.08 4.8-3.12 9.76-3.12 14.88v98.4c0 5.6 1.04 10.88 3.12 15.84s4.96 9.28 8.64 12.96 7.92 6.64 12.72 8.88c4.96 2.08 10.32 3.12 16.08 3.12h38.4c6.08 0 11.599-1.12 16.56-3.36 4.96-2.24 9.2-5.2 12.72-8.88 3.68-3.68 6.48-8 8.4-12.96 2.08-4.96 3.12-10.16 3.12-15.6v-59.76h-60z" fill="#000"/><path d="m980.686 377.8v-20.4h-40.08v-59.76h60.004v-19.92h-99.844v180h99.844v-20.16h-60.004v-59.76z" fill="#000"/></mask><mask id="c" fill="#000" height="183" maskUnits="userSpaceOnUse" width="1002" x="0" y="266.48"><path d="m0 266.48h1002v183h-1002z" fill="#fff"/><path d="m1 322.44c0 4.32 1.44 8.8 4.32 13.44 3.04 4.48 6.72 9.04 11.04 13.68 4.48 4.64 9.28 9.28 14.4 13.92 5.28 4.48 10.08 8.8 14.4 12.96 4.48 4.16 8.16 8.16 11.04 12 3.04 3.68 4.56 6.96 4.56 9.84v29.28h-18.24c-6.4 0-11.6-1.92-15.6-5.76-3.84-3.84-5.76-8.8-5.76-14.88h-20.16c0 5.6 1.04 10.88 3.12 15.84 2.24 4.8 5.2 9.04 8.88 12.72 3.84 3.68 8.24 6.64 13.2 8.88 5.12 2.08 10.56 3.12 16.32 3.12h16.8c6.08 0 11.6-1.04 16.56-3.12 5.12-2.24 9.44-5.2 12.96-8.88 3.68-3.84 6.48-8.16 8.4-12.96 2.08-4.96 3.12-10.16 3.12-15.6v-14.64c0-4.8-1.52-9.68-4.56-14.64-2.88-5.12-6.56-10.08-11.04-14.88-4.32-4.96-9.04-9.76-14.16-14.4s-9.92-8.96-14.4-12.96c-4.32-4.16-8-7.92-11.04-11.28-2.88-3.36-4.32-6.24-4.32-8.64v-28.32h15.84c7.68 0 13.6 1.84 17.76 5.52 4.32 3.52 6.48 8.48 6.48 14.88h19.68c0-5.44-1.12-10.56-3.36-15.36-2.08-4.96-5.04-9.2-8.88-12.72-3.68-3.68-8-6.56-12.96-8.64-4.96-2.24-10.24-3.36-15.84-3.36h-17.04c-5.76 0-11.2 1.04-16.32 3.12-4.96 2.08-9.36 4.96-13.2 8.64-3.68 3.68-6.64 8-8.88 12.96-2.08 4.8-3.12 10.08-3.12 15.84z" fill="#000"/><path d="m240.293 267.48h-120v19.92h40.08v160.08h39.84v-160.08h40.08z" fill="#000"/><path d="m301.253 447.48h38.16c5.44 0 10.56-1.04 15.36-3.12 4.96-2.24 9.28-5.2 12.96-8.88 3.84-3.84 6.88-8.16 9.12-12.96 2.24-4.96 3.36-10.16 3.36-15.6v-98.88c0-5.12-1.12-10.08-3.36-14.88-2.08-4.96-4.96-9.28-8.64-12.96-3.68-3.84-8-6.88-12.96-9.12-4.96-2.4-10.24-3.6-15.84-3.6h-38.16c-5.6 0-10.88 1.2-15.84 3.6-4.96 2.24-9.28 5.28-12.96 9.12-3.68 3.68-6.64 8-8.88 12.96-2.08 4.8-3.12 9.76-3.12 14.88v98.88c0 5.44 1.12 10.64 3.36 15.6 2.24 4.8 5.2 9.12 8.88 12.96 3.84 3.68 8.16 6.64 12.96 8.88 4.96 2.08 10.16 3.12 15.6 3.12zm39.12-20.16h-40.08v-139.92h40.08z" fill="#000"/><path d="m460.371 347.16v-60h40.08v60zm-39.84 100.32h39.84v-79.92h40.08v79.92h39.84v-55.68c0-6.88-1.12-12.48-3.36-16.8-2.24-4.48-4.72-8-7.44-10.56-2.56-2.72-4.96-4.56-7.2-5.52-2.24-1.12-3.36-1.68-3.36-1.68s1.12-.4 3.36-1.2 4.64-2.32 7.2-4.56c2.72-2.4 5.2-5.68 7.44-9.84 2.24-4.32 3.36-9.92 3.36-16.8v-17.28c0-5.92-.96-11.36-2.88-16.32-1.76-4.96-4.4-9.2-7.92-12.72s-7.76-6.24-12.72-8.16c-4.8-1.92-10.24-2.88-16.32-2.88h-79.92z" fill="#000"/><path d="m622.129 267.48c-4.64 0-9.44 1.12-14.4 3.36-4.8 2.24-9.2 5.2-13.2 8.88-3.84 3.68-7.04 8-9.6 12.96-2.4 4.96-3.6 10.08-3.6 15.36v139.44h39.84v-79.92h39.36v79.92c1.28.16 3.76.24 7.44.24h11.76c4.32 0 8.4-.08 12.24-.24h8.64v-139.44c0-5.28-1.28-10.32-3.84-15.12-2.56-4.96-5.84-9.28-9.84-12.96-3.84-3.84-8.24-6.88-13.2-9.12s-9.84-3.36-14.64-3.36zm-.96 79.68v-60h39.36v60z" fill="#000"/><path d="m800.448 367.32h20.16v60h-40.08v-139.92h44.16c4.96 0 8.88 1.84 11.76 5.52 2.88 3.52 4.32 8.56 4.32 15.12h19.68c0-5.12-1.12-10.08-3.36-14.88-2.24-4.96-5.28-9.28-9.12-12.96-3.84-3.84-8.24-6.88-13.2-9.12-4.961-2.4-10.08-3.6-15.36-3.6h-38.16c-5.6 0-10.88 1.2-15.84 3.6-4.96 2.24-9.28 5.28-12.96 9.12s-6.56 8.24-8.64 13.2c-2.08 4.8-3.12 9.76-3.12 14.88v98.4c0 5.6 1.04 10.88 3.12 15.84s4.96 9.28 8.64 12.96 7.92 6.64 12.72 8.88c4.96 2.08 10.32 3.12 16.08 3.12h38.4c6.08 0 11.599-1.12 16.56-3.36 4.96-2.24 9.2-5.2 12.72-8.88 3.68-3.68 6.48-8 8.4-12.96 2.08-4.96 3.12-10.16 3.12-15.6v-59.76h-60z" fill="#000"/><path d="m980.686 367.56v-20.4h-40.08v-59.76h60.004v-19.92h-99.844v180h99.844v-20.16h-60.004v-59.76z" fill="#000"/></mask><mask id="d" fill="#000" height="183" maskUnits="userSpaceOnUse" width="1002" x="0" y="256.24"><path d="m0 256.24h1002v183h-1002z" fill="#fff"/><path d="m1 312.2c0 4.32 1.44 8.8 4.32 13.44 3.04 4.48 6.72 9.04 11.04 13.68 4.48 4.64 9.28 9.28 14.4 13.92 5.28 4.48 10.08 8.8 14.4 12.96 4.48 4.16 8.16 8.16 11.04 12 3.04 3.68 4.56 6.96 4.56 9.84v29.28h-18.24c-6.4 0-11.6-1.92-15.6-5.76-3.84-3.84-5.76-8.8-5.76-14.88h-20.16c0 5.6 1.04 10.88 3.12 15.84 2.24 4.8 5.2 9.04 8.88 12.72 3.84 3.68 8.24 6.64 13.2 8.88 5.12 2.08 10.56 3.12 16.32 3.12h16.8c6.08 0 11.6-1.04 16.56-3.12 5.12-2.24 9.44-5.2 12.96-8.88 3.68-3.84 6.48-8.16 8.4-12.96 2.08-4.96 3.12-10.16 3.12-15.6v-14.64c0-4.8-1.52-9.68-4.56-14.64-2.88-5.12-6.56-10.08-11.04-14.88-4.32-4.96-9.04-9.76-14.16-14.4s-9.92-8.96-14.4-12.96c-4.32-4.16-8-7.92-11.04-11.28-2.88-3.36-4.32-6.24-4.32-8.64v-28.32h15.84c7.68 0 13.6 1.84 17.76 5.52 4.32 3.52 6.48 8.48 6.48 14.88h19.68c0-5.44-1.12-10.56-3.36-15.36-2.08-4.96-5.04-9.2-8.88-12.72-3.68-3.68-8-6.56-12.96-8.64-4.96-2.24-10.24-3.36-15.84-3.36h-17.04c-5.76 0-11.2 1.04-16.32 3.12-4.96 2.08-9.36 4.96-13.2 8.64-3.68 3.68-6.64 8-8.88 12.96-2.08 4.8-3.12 10.08-3.12 15.84z" fill="#000"/><path d="m240.293 257.24h-120v19.92h40.08v160.08h39.84v-160.08h40.08z" fill="#000"/><path d="m301.253 437.24h38.16c5.44 0 10.56-1.04 15.36-3.12 4.96-2.24 9.28-5.2 12.96-8.88 3.84-3.84 6.88-8.16 9.12-12.96 2.24-4.96 3.36-10.16 3.36-15.6v-98.88c0-5.12-1.12-10.08-3.36-14.88-2.08-4.96-4.96-9.28-8.64-12.96-3.68-3.84-8-6.88-12.96-9.12-4.96-2.4-10.24-3.6-15.84-3.6h-38.16c-5.6 0-10.88 1.2-15.84 3.6-4.96 2.24-9.28 5.28-12.96 9.12-3.68 3.68-6.64 8-8.88 12.96-2.08 4.8-3.12 9.76-3.12 14.88v98.88c0 5.44 1.12 10.64 3.36 15.6 2.24 4.8 5.2 9.12 8.88 12.96 3.84 3.68 8.16 6.64 12.96 8.88 4.96 2.08 10.16 3.12 15.6 3.12zm39.12-20.16h-40.08v-139.92h40.08z" fill="#000"/><path d="m460.371 336.92v-60h40.08v60zm-39.84 100.32h39.84v-79.92h40.08v79.92h39.84v-55.68c0-6.88-1.12-12.48-3.36-16.8-2.24-4.48-4.72-8-7.44-10.56-2.56-2.72-4.96-4.56-7.2-5.52-2.24-1.12-3.36-1.68-3.36-1.68s1.12-.4 3.36-1.2 4.64-2.32 7.2-4.56c2.72-2.4 5.2-5.68 7.44-9.84 2.24-4.32 3.36-9.92 3.36-16.8v-17.28c0-5.92-.96-11.36-2.88-16.32-1.76-4.96-4.4-9.2-7.92-12.72s-7.76-6.24-12.72-8.16c-4.8-1.92-10.24-2.88-16.32-2.88h-79.92z" fill="#000"/><path d="m622.129 257.24c-4.64 0-9.44 1.12-14.4 3.36-4.8 2.24-9.2 5.2-13.2 8.88-3.84 3.68-7.04 8-9.6 12.96-2.4 4.96-3.6 10.08-3.6 15.36v139.44h39.84v-79.92h39.36v79.92c1.28.16 3.76.24 7.44.24h11.76c4.32 0 8.4-.08 12.24-.24h8.64v-139.44c0-5.28-1.28-10.32-3.84-15.12-2.56-4.96-5.84-9.28-9.84-12.96-3.84-3.84-8.24-6.88-13.2-9.12s-9.84-3.36-14.64-3.36zm-.96 79.68v-60h39.36v60z" fill="#000"/><path d="m800.448 357.08h20.16v60h-40.08v-139.92h44.16c4.96 0 8.88 1.84 11.76 5.52 2.88 3.52 4.32 8.56 4.32 15.12h19.68c0-5.12-1.12-10.08-3.36-14.88-2.24-4.96-5.28-9.28-9.12-12.96-3.84-3.84-8.24-6.88-13.2-9.12-4.961-2.4-10.08-3.6-15.36-3.6h-38.16c-5.6 0-10.88 1.2-15.84 3.6-4.96 2.24-9.28 5.28-12.96 9.12s-6.56 8.24-8.64 13.2c-2.08 4.8-3.12 9.76-3.12 14.88v98.4c0 5.6 1.04 10.88 3.12 15.84s4.96 9.28 8.64 12.96 7.92 6.64 12.72 8.88c4.96 2.08 10.32 3.12 16.08 3.12h38.4c6.08 0 11.599-1.12 16.56-3.36 4.96-2.24 9.2-5.2 12.72-8.88 3.68-3.68 6.48-8 8.4-12.96 2.08-4.96 3.12-10.16 3.12-15.6v-59.76h-60z" fill="#000"/><path d="m980.686 357.32v-20.4h-40.08v-59.76h60.004v-19.92h-99.844v180h99.844v-20.16h-60.004v-59.76z" fill="#000"/></mask><mask id="e" fill="#000" height="183" maskUnits="userSpaceOnUse" width="1002" x="0" y="246"><path d="m0 246h1002v183h-1002z" fill="#fff"/><path d="m1 301.96c0 4.32 1.44 8.8 4.32 13.44 3.04 4.48 6.72 9.04 11.04 13.68 4.48 4.64 9.28 9.28 14.4 13.92 5.28 4.48 10.08 8.8 14.4 12.96 4.48 4.16 8.16 8.16 11.04 12 3.04 3.68 4.56 6.96 4.56 9.84v29.28h-18.24c-6.4 0-11.6-1.92-15.6-5.76-3.84-3.84-5.76-8.8-5.76-14.88h-20.16c0 5.6 1.04 10.88 3.12 15.84 2.24 4.8 5.2 9.04 8.88 12.72 3.84 3.68 8.24 6.64 13.2 8.88 5.12 2.08 10.56 3.12 16.32 3.12h16.8c6.08 0 11.6-1.04 16.56-3.12 5.12-2.24 9.44-5.2 12.96-8.88 3.68-3.84 6.48-8.16 8.4-12.96 2.08-4.96 3.12-10.16 3.12-15.6v-14.64c0-4.8-1.52-9.68-4.56-14.64-2.88-5.12-6.56-10.08-11.04-14.88-4.32-4.96-9.04-9.76-14.16-14.4s-9.92-8.96-14.4-12.96c-4.32-4.16-8-7.92-11.04-11.28-2.88-3.36-4.32-6.24-4.32-8.64v-28.32h15.84c7.68 0 13.6 1.84 17.76 5.52 4.32 3.52 6.48 8.48 6.48 14.88h19.68c0-5.44-1.12-10.56-3.36-15.36-2.08-4.96-5.04-9.2-8.88-12.72-3.68-3.68-8-6.56-12.96-8.64-4.96-2.24-10.24-3.36-15.84-3.36h-17.04c-5.76 0-11.2 1.04-16.32 3.12-4.96 2.08-9.36 4.96-13.2 8.64-3.68 3.68-6.64 8-8.88 12.96-2.08 4.8-3.12 10.08-3.12 15.84z" fill="#000"/><path d="m240.293 247h-120v19.92h40.08v160.08h39.84v-160.08h40.08z" fill="#000"/><path d="m301.253 427h38.16c5.44 0 10.56-1.04 15.36-3.12 4.96-2.24 9.28-5.2 12.96-8.88 3.84-3.84 6.88-8.16 9.12-12.96 2.24-4.96 3.36-10.16 3.36-15.6v-98.88c0-5.12-1.12-10.08-3.36-14.88-2.08-4.96-4.96-9.28-8.64-12.96-3.68-3.84-8-6.88-12.96-9.12-4.96-2.4-10.24-3.6-15.84-3.6h-38.16c-5.6 0-10.88 1.2-15.84 3.6-4.96 2.24-9.28 5.28-12.96 9.12-3.68 3.68-6.64 8-8.88 12.96-2.08 4.8-3.12 9.76-3.12 14.88v98.88c0 5.44 1.12 10.64 3.36 15.6 2.24 4.8 5.2 9.12 8.88 12.96 3.84 3.68 8.16 6.64 12.96 8.88 4.96 2.08 10.16 3.12 15.6 3.12zm39.12-20.16h-40.08v-139.92h40.08z" fill="#000"/><path d="m460.371 326.68v-60h40.08v60zm-39.84 100.32h39.84v-79.92h40.08v79.92h39.84v-55.68c0-6.88-1.12-12.48-3.36-16.8-2.24-4.48-4.72-8-7.44-10.56-2.56-2.72-4.96-4.56-7.2-5.52-2.24-1.12-3.36-1.68-3.36-1.68s1.12-.4 3.36-1.2 4.64-2.32 7.2-4.56c2.72-2.4 5.2-5.68 7.44-9.84 2.24-4.32 3.36-9.92 3.36-16.8v-17.28c0-5.92-.96-11.36-2.88-16.32-1.76-4.96-4.4-9.2-7.92-12.72s-7.76-6.24-12.72-8.16c-4.8-1.92-10.24-2.88-16.32-2.88h-79.92z" fill="#000"/><path d="m622.129 247c-4.64 0-9.44 1.12-14.4 3.36-4.8 2.24-9.2 5.2-13.2 8.88-3.84 3.68-7.04 8-9.6 12.96-2.4 4.96-3.6 10.08-3.6 15.36v139.44h39.84v-79.92h39.36v79.92c1.28.16 3.76.24 7.44.24h11.76c4.32 0 8.4-.08 12.24-.24h8.64v-139.44c0-5.28-1.28-10.32-3.84-15.12-2.56-4.96-5.84-9.28-9.84-12.96-3.84-3.84-8.24-6.88-13.2-9.12s-9.84-3.36-14.64-3.36zm-.96 79.68v-60h39.36v60z" fill="#000"/><path d="m800.448 346.84h20.16v60h-40.08v-139.92h44.16c4.96 0 8.88 1.84 11.76 5.52 2.88 3.52 4.32 8.56 4.32 15.12h19.68c0-5.12-1.12-10.08-3.36-14.88-2.24-4.96-5.28-9.28-9.12-12.96-3.84-3.84-8.24-6.88-13.2-9.12-4.961-2.4-10.08-3.6-15.36-3.6h-38.16c-5.6 0-10.88 1.2-15.84 3.6-4.96 2.24-9.28 5.28-12.96 9.12s-6.56 8.24-8.64 13.2c-2.08 4.8-3.12 9.76-3.12 14.88v98.4c0 5.6 1.04 10.88 3.12 15.84s4.96 9.28 8.64 12.96 7.92 6.64 12.72 8.88c4.96 2.08 10.32 3.12 16.08 3.12h38.4c6.08 0 11.599-1.12 16.56-3.36 4.96-2.24 9.2-5.2 12.72-8.88 3.68-3.68 6.48-8 8.4-12.96 2.08-4.96 3.12-10.16 3.12-15.6v-59.76h-60z" fill="#000"/><path d="m980.686 347.08v-20.4h-40.08v-59.76h60.004v-19.92h-99.844v180h99.844v-20.16h-60.004v-59.76z" fill="#000"/></mask><g fill="#f5c32c"><path d="m1 342.92c0 4.32 1.44 8.8 4.32 13.44 3.04 4.48 6.72 9.04 11.04 13.68 4.48 4.64 9.28 9.28 14.4 13.92 5.28 4.48 10.08 8.8 14.4 12.96 4.48 4.16 8.16 8.16 11.04 12 3.04 3.68 4.56 6.96 4.56 9.84v29.28h-18.24c-6.4 0-11.6-1.92-15.6-5.76-3.84-3.84-5.76-8.8-5.76-14.88h-20.16c0 5.6 1.04 10.88 3.12 15.84 2.24 4.8 5.2 9.04 8.88 12.72 3.84 3.68 8.24 6.64 13.2 8.88 5.12 2.08 10.56 3.12 16.32 3.12h16.8c6.08 0 11.6-1.04 16.56-3.12 5.12-2.24 9.44-5.2 12.96-8.88 3.68-3.84 6.48-8.16 8.4-12.96 2.08-4.96 3.12-10.16 3.12-15.6v-14.64c0-4.8-1.52-9.68-4.56-14.64-2.88-5.12-6.56-10.08-11.04-14.88-4.32-4.96-9.04-9.76-14.16-14.4s-9.92-8.96-14.4-12.96c-4.32-4.16-8-7.92-11.04-11.28-2.88-3.36-4.32-6.24-4.32-8.64v-28.32h15.84c7.68 0 13.6 1.84 17.76 5.52 4.32 3.52 6.48 8.48 6.48 14.88h19.68c0-5.44-1.12-10.56-3.36-15.36-2.08-4.96-5.04-9.2-8.88-12.72-3.68-3.68-8-6.56-12.96-8.64-4.96-2.24-10.24-3.36-15.84-3.36h-17.04c-5.76 0-11.2 1.04-16.32 3.12-4.96 2.08-9.36 4.96-13.2 8.64-3.68 3.68-6.64 8-8.88 12.96-2.08 4.8-3.12 10.08-3.12 15.84z"/><path d="m240.293 287.96h-120v19.92h40.08v160.08h39.84v-160.08h40.08z"/><path d="m301.253 467.96h38.16c5.44 0 10.56-1.04 15.36-3.12 4.96-2.24 9.28-5.2 12.96-8.88 3.84-3.84 6.88-8.16 9.12-12.96 2.24-4.96 3.36-10.16 3.36-15.6v-98.88c0-5.12-1.12-10.08-3.36-14.88-2.08-4.96-4.96-9.28-8.64-12.96-3.68-3.84-8-6.88-12.96-9.12-4.96-2.4-10.24-3.6-15.84-3.6h-38.16c-5.6 0-10.88 1.2-15.84 3.6-4.96 2.24-9.28 5.28-12.96 9.12-3.68 3.68-6.64 8-8.88 12.96-2.08 4.8-3.12 9.76-3.12 14.88v98.88c0 5.44 1.12 10.64 3.36 15.6 2.24 4.8 5.2 9.12 8.88 12.96 3.84 3.68 8.16 6.64 12.96 8.88 4.96 2.08 10.16 3.12 15.6 3.12zm39.12-20.16h-40.08v-139.92h40.08z"/><path d="m460.371 367.64v-60h40.08v60zm-39.84 100.32h39.84v-79.92h40.08v79.92h39.84v-55.68c0-6.88-1.12-12.48-3.36-16.8-2.24-4.48-4.72-8-7.44-10.56-2.56-2.72-4.96-4.56-7.2-5.52-2.24-1.12-3.36-1.68-3.36-1.68s1.12-.4 3.36-1.2 4.64-2.32 7.2-4.56c2.72-2.4 5.2-5.68 7.44-9.84 2.24-4.32 3.36-9.92 3.36-16.8v-17.28c0-5.92-.96-11.36-2.88-16.32-1.76-4.96-4.4-9.2-7.92-12.72s-7.76-6.24-12.72-8.16c-4.8-1.92-10.24-2.88-16.32-2.88h-79.92z"/><path d="m622.129 287.96c-4.64 0-9.44 1.12-14.4 3.36-4.8 2.24-9.2 5.2-13.2 8.88-3.84 3.68-7.04 8-9.6 12.96-2.4 4.96-3.6 10.08-3.6 15.36v139.44h39.84v-79.92h39.36v79.92c1.28.16 3.76.24 7.44.24h11.76c4.32 0 8.4-.08 12.24-.24h8.64v-139.44c0-5.28-1.28-10.32-3.84-15.12-2.56-4.96-5.84-9.28-9.84-12.96-3.84-3.84-8.24-6.88-13.2-9.12s-9.84-3.36-14.64-3.36zm-.96 79.68v-60h39.36v60z"/><path d="m800.448 387.8h20.16v60h-40.08v-139.92h44.16c4.96 0 8.88 1.84 11.76 5.52 2.88 3.52 4.32 8.56 4.32 15.12h19.68c0-5.12-1.12-10.08-3.36-14.88-2.24-4.96-5.28-9.28-9.12-12.96-3.84-3.84-8.24-6.88-13.2-9.12-4.961-2.4-10.08-3.6-15.36-3.6h-38.16c-5.6 0-10.88 1.2-15.84 3.6-4.96 2.24-9.28 5.28-12.96 9.12s-6.56 8.24-8.64 13.2c-2.08 4.8-3.12 9.76-3.12 14.88v98.4c0 5.6 1.04 10.88 3.12 15.84s4.96 9.28 8.64 12.96 7.92 6.64 12.72 8.88c4.96 2.08 10.32 3.12 16.08 3.12h38.4c6.08 0 11.599-1.12 16.56-3.36 4.96-2.24 9.2-5.2 12.72-8.88 3.68-3.68 6.48-8 8.4-12.96 2.08-4.96 3.12-10.16 3.12-15.6v-59.76h-60z"/><path d="m980.686 388.04v-20.4h-40.08v-59.76h60.004v-19.92h-99.844v180h99.844v-20.16h-60.004v-59.76z"/></g><path d="m1 342.92c0 4.32 1.44 8.8 4.32 13.44 3.04 4.48 6.72 9.04 11.04 13.68 4.48 4.64 9.28 9.28 14.4 13.92 5.28 4.48 10.08 8.8 14.4 12.96 4.48 4.16 8.16 8.16 11.04 12 3.04 3.68 4.56 6.96 4.56 9.84v29.28h-18.24c-6.4 0-11.6-1.92-15.6-5.76-3.84-3.84-5.76-8.8-5.76-14.88h-20.16c0 5.6 1.04 10.88 3.12 15.84 2.24 4.8 5.2 9.04 8.88 12.72 3.84 3.68 8.24 6.64 13.2 8.88 5.12 2.08 10.56 3.12 16.32 3.12h16.8c6.08 0 11.6-1.04 16.56-3.12 5.12-2.24 9.44-5.2 12.96-8.88 3.68-3.84 6.48-8.16 8.4-12.96 2.08-4.96 3.12-10.16 3.12-15.6v-14.64c0-4.8-1.52-9.68-4.56-14.64-2.88-5.12-6.56-10.08-11.04-14.88-4.32-4.96-9.04-9.76-14.16-14.4s-9.92-8.96-14.4-12.96c-4.32-4.16-8-7.92-11.04-11.28-2.88-3.36-4.32-6.24-4.32-8.64v-28.32h15.84c7.68 0 13.6 1.84 17.76 5.52 4.32 3.52 6.48 8.48 6.48 14.88h19.68c0-5.44-1.12-10.56-3.36-15.36-2.08-4.96-5.04-9.2-8.88-12.72-3.68-3.68-8-6.56-12.96-8.64-4.96-2.24-10.24-3.36-15.84-3.36h-17.04c-5.76 0-11.2 1.04-16.32 3.12-4.96 2.08-9.36 4.96-13.2 8.64-3.68 3.68-6.64 8-8.88 12.96-2.08 4.8-3.12 10.08-3.12 15.84z" mask="url(#a)" stroke="#000" stroke-width="2"/><path d="m240.293 287.96h-120v19.92h40.08v160.08h39.84v-160.08h40.08z" mask="url(#a)" stroke="#000" stroke-width="2"/><path d="m301.253 467.96h38.16c5.44 0 10.56-1.04 15.36-3.12 4.96-2.24 9.28-5.2 12.96-8.88 3.84-3.84 6.88-8.16 9.12-12.96 2.24-4.96 3.36-10.16 3.36-15.6v-98.88c0-5.12-1.12-10.08-3.36-14.88-2.08-4.96-4.96-9.28-8.64-12.96-3.68-3.84-8-6.88-12.96-9.12-4.96-2.4-10.24-3.6-15.84-3.6h-38.16c-5.6 0-10.88 1.2-15.84 3.6-4.96 2.24-9.28 5.28-12.96 9.12-3.68 3.68-6.64 8-8.88 12.96-2.08 4.8-3.12 9.76-3.12 14.88v98.88c0 5.44 1.12 10.64 3.36 15.6 2.24 4.8 5.2 9.12 8.88 12.96 3.84 3.68 8.16 6.64 12.96 8.88 4.96 2.08 10.16 3.12 15.6 3.12zm39.12-20.16h-40.08v-139.92h40.08z" mask="url(#a)" stroke="#000" stroke-width="2"/><path d="m460.371 367.64v-60h40.08v60zm-39.84 100.32h39.84v-79.92h40.08v79.92h39.84v-55.68c0-6.88-1.12-12.48-3.36-16.8-2.24-4.48-4.72-8-7.44-10.56-2.56-2.72-4.96-4.56-7.2-5.52-2.24-1.12-3.36-1.68-3.36-1.68s1.12-.4 3.36-1.2 4.64-2.32 7.2-4.56c2.72-2.4 5.2-5.68 7.44-9.84 2.24-4.32 3.36-9.92 3.36-16.8v-17.28c0-5.92-.96-11.36-2.88-16.32-1.76-4.96-4.4-9.2-7.92-12.72s-7.76-6.24-12.72-8.16c-4.8-1.92-10.24-2.88-16.32-2.88h-79.92z" mask="url(#a)" stroke="#000" stroke-width="2"/><path d="m622.129 287.96c-4.64 0-9.44 1.12-14.4 3.36-4.8 2.24-9.2 5.2-13.2 8.88-3.84 3.68-7.04 8-9.6 12.96-2.4 4.96-3.6 10.08-3.6 15.36v139.44h39.84v-79.92h39.36v79.92c1.28.16 3.76.24 7.44.24h11.76c4.32 0 8.4-.08 12.24-.24h8.64v-139.44c0-5.28-1.28-10.32-3.84-15.12-2.56-4.96-5.84-9.28-9.84-12.96-3.84-3.84-8.24-6.88-13.2-9.12s-9.84-3.36-14.64-3.36zm-.96 79.68v-60h39.36v60z" mask="url(#a)" stroke="#000" stroke-width="2"/><path d="m800.448 387.8h20.16v60h-40.08v-139.92h44.16c4.96 0 8.88 1.84 11.76 5.52 2.88 3.52 4.32 8.56 4.32 15.12h19.68c0-5.12-1.12-10.08-3.36-14.88-2.24-4.96-5.28-9.28-9.12-12.96-3.84-3.84-8.24-6.88-13.2-9.12-4.961-2.4-10.08-3.6-15.36-3.6h-38.16c-5.6 0-10.88 1.2-15.84 3.6-4.96 2.24-9.28 5.28-12.96 9.12s-6.56 8.24-8.64 13.2c-2.08 4.8-3.12 9.76-3.12 14.88v98.4c0 5.6 1.04 10.88 3.12 15.84s4.96 9.28 8.64 12.96 7.92 6.64 12.72 8.88c4.96 2.08 10.32 3.12 16.08 3.12h38.4c6.08 0 11.599-1.12 16.56-3.36 4.96-2.24 9.2-5.2 12.72-8.88 3.68-3.68 6.48-8 8.4-12.96 2.08-4.96 3.12-10.16 3.12-15.6v-59.76h-60z" mask="url(#a)" stroke="#000" stroke-width="2"/><path d="m980.686 388.04v-20.4h-40.08v-59.76h60.004v-19.92h-99.844v180h99.844v-20.16h-60.004v-59.76z" mask="url(#a)" stroke="#000" stroke-width="2"/><path d="m1 332.68c0 4.32 1.44 8.8 4.32 13.44 3.04 4.48 6.72 9.04 11.04 13.68 4.48 4.64 9.28 9.28 14.4 13.92 5.28 4.48 10.08 8.8 14.4 12.96 4.48 4.16 8.16 8.16 11.04 12 3.04 3.68 4.56 6.96 4.56 9.84v29.28h-18.24c-6.4 0-11.6-1.92-15.6-5.76-3.84-3.84-5.76-8.8-5.76-14.88h-20.16c0 5.6 1.04 10.88 3.12 15.84 2.24 4.8 5.2 9.04 8.88 12.72 3.84 3.68 8.24 6.64 13.2 8.88 5.12 2.08 10.56 3.12 16.32 3.12h16.8c6.08 0 11.6-1.04 16.56-3.12 5.12-2.24 9.44-5.2 12.96-8.88 3.68-3.84 6.48-8.16 8.4-12.96 2.08-4.96 3.12-10.16 3.12-15.6v-14.64c0-4.8-1.52-9.68-4.56-14.64-2.88-5.12-6.56-10.08-11.04-14.88-4.32-4.96-9.04-9.76-14.16-14.4s-9.92-8.96-14.4-12.96c-4.32-4.16-8-7.92-11.04-11.28-2.88-3.36-4.32-6.24-4.32-8.64v-28.32h15.84c7.68 0 13.6 1.84 17.76 5.52 4.32 3.52 6.48 8.48 6.48 14.88h19.68c0-5.44-1.12-10.56-3.36-15.36-2.08-4.96-5.04-9.2-8.88-12.72-3.68-3.68-8-6.56-12.96-8.64-4.96-2.24-10.24-3.36-15.84-3.36h-17.04c-5.76 0-11.2 1.04-16.32 3.12-4.96 2.08-9.36 4.96-13.2 8.64-3.68 3.68-6.64 8-8.88 12.96-2.08 4.8-3.12 10.08-3.12 15.84z" fill="#f5c32c"/><path d="m240.293 277.72h-120v19.92h40.08v160.08h39.84v-160.08h40.08z" fill="#f5c32c"/><path d="m301.253 457.72h38.16c5.44 0 10.56-1.04 15.36-3.12 4.96-2.24 9.28-5.2 12.96-8.88 3.84-3.84 6.88-8.16 9.12-12.96 2.24-4.96 3.36-10.16 3.36-15.6v-98.88c0-5.12-1.12-10.08-3.36-14.88-2.08-4.96-4.96-9.28-8.64-12.96-3.68-3.84-8-6.88-12.96-9.12-4.96-2.4-10.24-3.6-15.84-3.6h-38.16c-5.6 0-10.88 1.2-15.84 3.6-4.96 2.24-9.28 5.28-12.96 9.12-3.68 3.68-6.64 8-8.88 12.96-2.08 4.8-3.12 9.76-3.12 14.88v98.88c0 5.44 1.12 10.64 3.36 15.6 2.24 4.8 5.2 9.12 8.88 12.96 3.84 3.68 8.16 6.64 12.96 8.88 4.96 2.08 10.16 3.12 15.6 3.12zm39.12-20.16h-40.08v-139.92h40.08z" fill="#f5c32c"/><path d="m460.371 357.4v-60h40.08v60zm-39.84 100.32h39.84v-79.92h40.08v79.92h39.84v-55.68c0-6.88-1.12-12.48-3.36-16.8-2.24-4.48-4.72-8-7.44-10.56-2.56-2.72-4.96-4.56-7.2-5.52-2.24-1.12-3.36-1.68-3.36-1.68s1.12-.4 3.36-1.2 4.64-2.32 7.2-4.56c2.72-2.4 5.2-5.68 7.44-9.84 2.24-4.32 3.36-9.92 3.36-16.8v-17.28c0-5.92-.96-11.36-2.88-16.32-1.76-4.96-4.4-9.2-7.92-12.72s-7.76-6.24-12.72-8.16c-4.8-1.92-10.24-2.88-16.32-2.88h-79.92z" fill="#f5c32c"/><path d="m622.129 277.72c-4.64 0-9.44 1.12-14.4 3.36-4.8 2.24-9.2 5.2-13.2 8.88-3.84 3.68-7.04 8-9.6 12.96-2.4 4.96-3.6 10.08-3.6 15.36v139.44h39.84v-79.92h39.36v79.92c1.28.16 3.76.24 7.44.24h11.76c4.32 0 8.4-.08 12.24-.24h8.64v-139.44c0-5.28-1.28-10.32-3.84-15.12-2.56-4.96-5.84-9.28-9.84-12.96-3.84-3.84-8.24-6.88-13.2-9.12s-9.84-3.36-14.64-3.36zm-.96 79.68v-60h39.36v60z" fill="#f5c32c"/><path d="m800.448 377.56h20.16v60h-40.08v-139.92h44.16c4.96 0 8.88 1.84 11.76 5.52 2.88 3.52 4.32 8.56 4.32 15.12h19.68c0-5.12-1.12-10.08-3.36-14.88-2.24-4.96-5.28-9.28-9.12-12.96-3.84-3.84-8.24-6.88-13.2-9.12-4.961-2.4-10.08-3.6-15.36-3.6h-38.16c-5.6 0-10.88 1.2-15.84 3.6-4.96 2.24-9.28 5.28-12.96 9.12s-6.56 8.24-8.64 13.2c-2.08 4.8-3.12 9.76-3.12 14.88v98.4c0 5.6 1.04 10.88 3.12 15.84s4.96 9.28 8.64 12.96 7.92 6.64 12.72 8.88c4.96 2.08 10.32 3.12 16.08 3.12h38.4c6.08 0 11.599-1.12 16.56-3.36 4.96-2.24 9.2-5.2 12.72-8.88 3.68-3.68 6.48-8 8.4-12.96 2.08-4.96 3.12-10.16 3.12-15.6v-59.76h-60z" fill="#f5c32c"/><path d="m980.686 377.8v-20.4h-40.08v-59.76h60.004v-19.92h-99.844v180h99.844v-20.16h-60.004v-59.76z" fill="#f5c32c"/><path d="m1 332.68c0 4.32 1.44 8.8 4.32 13.44 3.04 4.48 6.72 9.04 11.04 13.68 4.48 4.64 9.28 9.28 14.4 13.92 5.28 4.48 10.08 8.8 14.4 12.96 4.48 4.16 8.16 8.16 11.04 12 3.04 3.68 4.56 6.96 4.56 9.84v29.28h-18.24c-6.4 0-11.6-1.92-15.6-5.76-3.84-3.84-5.76-8.8-5.76-14.88h-20.16c0 5.6 1.04 10.88 3.12 15.84 2.24 4.8 5.2 9.04 8.88 12.72 3.84 3.68 8.24 6.64 13.2 8.88 5.12 2.08 10.56 3.12 16.32 3.12h16.8c6.08 0 11.6-1.04 16.56-3.12 5.12-2.24 9.44-5.2 12.96-8.88 3.68-3.84 6.48-8.16 8.4-12.96 2.08-4.96 3.12-10.16 3.12-15.6v-14.64c0-4.8-1.52-9.68-4.56-14.64-2.88-5.12-6.56-10.08-11.04-14.88-4.32-4.96-9.04-9.76-14.16-14.4s-9.92-8.96-14.4-12.96c-4.32-4.16-8-7.92-11.04-11.28-2.88-3.36-4.32-6.24-4.32-8.64v-28.32h15.84c7.68 0 13.6 1.84 17.76 5.52 4.32 3.52 6.48 8.48 6.48 14.88h19.68c0-5.44-1.12-10.56-3.36-15.36-2.08-4.96-5.04-9.2-8.88-12.72-3.68-3.68-8-6.56-12.96-8.64-4.96-2.24-10.24-3.36-15.84-3.36h-17.04c-5.76 0-11.2 1.04-16.32 3.12-4.96 2.08-9.36 4.96-13.2 8.64-3.68 3.68-6.64 8-8.88 12.96-2.08 4.8-3.12 10.08-3.12 15.84z" mask="url(#b)" stroke="#000" stroke-width="2"/><path d="m240.293 277.72h-120v19.92h40.08v160.08h39.84v-160.08h40.08z" mask="url(#b)" stroke="#000" stroke-width="2"/><path d="m301.253 457.72h38.16c5.44 0 10.56-1.04 15.36-3.12 4.96-2.24 9.28-5.2 12.96-8.88 3.84-3.84 6.88-8.16 9.12-12.96 2.24-4.96 3.36-10.16 3.36-15.6v-98.88c0-5.12-1.12-10.08-3.36-14.88-2.08-4.96-4.96-9.28-8.64-12.96-3.68-3.84-8-6.88-12.96-9.12-4.96-2.4-10.24-3.6-15.84-3.6h-38.16c-5.6 0-10.88 1.2-15.84 3.6-4.96 2.24-9.28 5.28-12.96 9.12-3.68 3.68-6.64 8-8.88 12.96-2.08 4.8-3.12 9.76-3.12 14.88v98.88c0 5.44 1.12 10.64 3.36 15.6 2.24 4.8 5.2 9.12 8.88 12.96 3.84 3.68 8.16 6.64 12.96 8.88 4.96 2.08 10.16 3.12 15.6 3.12zm39.12-20.16h-40.08v-139.92h40.08z" mask="url(#b)" stroke="#000" stroke-width="2"/><path d="m460.371 357.4v-60h40.08v60zm-39.84 100.32h39.84v-79.92h40.08v79.92h39.84v-55.68c0-6.88-1.12-12.48-3.36-16.8-2.24-4.48-4.72-8-7.44-10.56-2.56-2.72-4.96-4.56-7.2-5.52-2.24-1.12-3.36-1.68-3.36-1.68s1.12-.4 3.36-1.2 4.64-2.32 7.2-4.56c2.72-2.4 5.2-5.68 7.44-9.84 2.24-4.32 3.36-9.92 3.36-16.8v-17.28c0-5.92-.96-11.36-2.88-16.32-1.76-4.96-4.4-9.2-7.92-12.72s-7.76-6.24-12.72-8.16c-4.8-1.92-10.24-2.88-16.32-2.88h-79.92z" mask="url(#b)" stroke="#000" stroke-width="2"/><path d="m622.129 277.72c-4.64 0-9.44 1.12-14.4 3.36-4.8 2.24-9.2 5.2-13.2 8.88-3.84 3.68-7.04 8-9.6 12.96-2.4 4.96-3.6 10.08-3.6 15.36v139.44h39.84v-79.92h39.36v79.92c1.28.16 3.76.24 7.44.24h11.76c4.32 0 8.4-.08 12.24-.24h8.64v-139.44c0-5.28-1.28-10.32-3.84-15.12-2.56-4.96-5.84-9.28-9.84-12.96-3.84-3.84-8.24-6.88-13.2-9.12s-9.84-3.36-14.64-3.36zm-.96 79.68v-60h39.36v60z" mask="url(#b)" stroke="#000" stroke-width="2"/><path d="m800.448 377.56h20.16v60h-40.08v-139.92h44.16c4.96 0 8.88 1.84 11.76 5.52 2.88 3.52 4.32 8.56 4.32 15.12h19.68c0-5.12-1.12-10.08-3.36-14.88-2.24-4.96-5.28-9.28-9.12-12.96-3.84-3.84-8.24-6.88-13.2-9.12-4.961-2.4-10.08-3.6-15.36-3.6h-38.16c-5.6 0-10.88 1.2-15.84 3.6-4.96 2.24-9.28 5.28-12.96 9.12s-6.56 8.24-8.64 13.2c-2.08 4.8-3.12 9.76-3.12 14.88v98.4c0 5.6 1.04 10.88 3.12 15.84s4.96 9.28 8.64 12.96 7.92 6.64 12.72 8.88c4.96 2.08 10.32 3.12 16.08 3.12h38.4c6.08 0 11.599-1.12 16.56-3.36 4.96-2.24 9.2-5.2 12.72-8.88 3.68-3.68 6.48-8 8.4-12.96 2.08-4.96 3.12-10.16 3.12-15.6v-59.76h-60z" mask="url(#b)" stroke="#000" stroke-width="2"/><path d="m980.686 377.8v-20.4h-40.08v-59.76h60.004v-19.92h-99.844v180h99.844v-20.16h-60.004v-59.76z" mask="url(#b)" stroke="#000" stroke-width="2"/><path d="m1 322.44c0 4.32 1.44 8.8 4.32 13.44 3.04 4.48 6.72 9.04 11.04 13.68 4.48 4.64 9.28 9.28 14.4 13.92 5.28 4.48 10.08 8.8 14.4 12.96 4.48 4.16 8.16 8.16 11.04 12 3.04 3.68 4.56 6.96 4.56 9.84v29.28h-18.24c-6.4 0-11.6-1.92-15.6-5.76-3.84-3.84-5.76-8.8-5.76-14.88h-20.16c0 5.6 1.04 10.88 3.12 15.84 2.24 4.8 5.2 9.04 8.88 12.72 3.84 3.68 8.24 6.64 13.2 8.88 5.12 2.08 10.56 3.12 16.32 3.12h16.8c6.08 0 11.6-1.04 16.56-3.12 5.12-2.24 9.44-5.2 12.96-8.88 3.68-3.84 6.48-8.16 8.4-12.96 2.08-4.96 3.12-10.16 3.12-15.6v-14.64c0-4.8-1.52-9.68-4.56-14.64-2.88-5.12-6.56-10.08-11.04-14.88-4.32-4.96-9.04-9.76-14.16-14.4s-9.92-8.96-14.4-12.96c-4.32-4.16-8-7.92-11.04-11.28-2.88-3.36-4.32-6.24-4.32-8.64v-28.32h15.84c7.68 0 13.6 1.84 17.76 5.52 4.32 3.52 6.48 8.48 6.48 14.88h19.68c0-5.44-1.12-10.56-3.36-15.36-2.08-4.96-5.04-9.2-8.88-12.72-3.68-3.68-8-6.56-12.96-8.64-4.96-2.24-10.24-3.36-15.84-3.36h-17.04c-5.76 0-11.2 1.04-16.32 3.12-4.96 2.08-9.36 4.96-13.2 8.64-3.68 3.68-6.64 8-8.88 12.96-2.08 4.8-3.12 10.08-3.12 15.84z" fill="#f5c32c"/><path d="m240.293 267.48h-120v19.92h40.08v160.08h39.84v-160.08h40.08z" fill="#f5c32c"/><path d="m301.253 447.48h38.16c5.44 0 10.56-1.04 15.36-3.12 4.96-2.24 9.28-5.2 12.96-8.88 3.84-3.84 6.88-8.16 9.12-12.96 2.24-4.96 3.36-10.16 3.36-15.6v-98.88c0-5.12-1.12-10.08-3.36-14.88-2.08-4.96-4.96-9.28-8.64-12.96-3.68-3.84-8-6.88-12.96-9.12-4.96-2.4-10.24-3.6-15.84-3.6h-38.16c-5.6 0-10.88 1.2-15.84 3.6-4.96 2.24-9.28 5.28-12.96 9.12-3.68 3.68-6.64 8-8.88 12.96-2.08 4.8-3.12 9.76-3.12 14.88v98.88c0 5.44 1.12 10.64 3.36 15.6 2.24 4.8 5.2 9.12 8.88 12.96 3.84 3.68 8.16 6.64 12.96 8.88 4.96 2.08 10.16 3.12 15.6 3.12zm39.12-20.16h-40.08v-139.92h40.08z" fill="#f5c32c"/><path d="m460.371 347.16v-60h40.08v60zm-39.84 100.32h39.84v-79.92h40.08v79.92h39.84v-55.68c0-6.88-1.12-12.48-3.36-16.8-2.24-4.48-4.72-8-7.44-10.56-2.56-2.72-4.96-4.56-7.2-5.52-2.24-1.12-3.36-1.68-3.36-1.68s1.12-.4 3.36-1.2 4.64-2.32 7.2-4.56c2.72-2.4 5.2-5.68 7.44-9.84 2.24-4.32 3.36-9.92 3.36-16.8v-17.28c0-5.92-.96-11.36-2.88-16.32-1.76-4.96-4.4-9.2-7.92-12.72s-7.76-6.24-12.72-8.16c-4.8-1.92-10.24-2.88-16.32-2.88h-79.92z" fill="#f5c32c"/><path d="m622.129 267.48c-4.64 0-9.44 1.12-14.4 3.36-4.8 2.24-9.2 5.2-13.2 8.88-3.84 3.68-7.04 8-9.6 12.96-2.4 4.96-3.6 10.08-3.6 15.36v139.44h39.84v-79.92h39.36v79.92c1.28.16 3.76.24 7.44.24h11.76c4.32 0 8.4-.08 12.24-.24h8.64v-139.44c0-5.28-1.28-10.32-3.84-15.12-2.56-4.96-5.84-9.28-9.84-12.96-3.84-3.84-8.24-6.88-13.2-9.12s-9.84-3.36-14.64-3.36zm-.96 79.68v-60h39.36v60z" fill="#f5c32c"/><path d="m800.448 367.32h20.16v60h-40.08v-139.92h44.16c4.96 0 8.88 1.84 11.76 5.52 2.88 3.52 4.32 8.56 4.32 15.12h19.68c0-5.12-1.12-10.08-3.36-14.88-2.24-4.96-5.28-9.28-9.12-12.96-3.84-3.84-8.24-6.88-13.2-9.12-4.961-2.4-10.08-3.6-15.36-3.6h-38.16c-5.6 0-10.88 1.2-15.84 3.6-4.96 2.24-9.28 5.28-12.96 9.12s-6.56 8.24-8.64 13.2c-2.08 4.8-3.12 9.76-3.12 14.88v98.4c0 5.6 1.04 10.88 3.12 15.84s4.96 9.28 8.64 12.96 7.92 6.64 12.72 8.88c4.96 2.08 10.32 3.12 16.08 3.12h38.4c6.08 0 11.599-1.12 16.56-3.36 4.96-2.24 9.2-5.2 12.72-8.88 3.68-3.68 6.48-8 8.4-12.96 2.08-4.96 3.12-10.16 3.12-15.6v-59.76h-60z" fill="#f5c32c"/><path d="m980.686 367.56v-20.4h-40.08v-59.76h60.004v-19.92h-99.844v180h99.844v-20.16h-60.004v-59.76z" fill="#f5c32c"/><path d="m1 322.44c0 4.32 1.44 8.8 4.32 13.44 3.04 4.48 6.72 9.04 11.04 13.68 4.48 4.64 9.28 9.28 14.4 13.92 5.28 4.48 10.08 8.8 14.4 12.96 4.48 4.16 8.16 8.16 11.04 12 3.04 3.68 4.56 6.96 4.56 9.84v29.28h-18.24c-6.4 0-11.6-1.92-15.6-5.76-3.84-3.84-5.76-8.8-5.76-14.88h-20.16c0 5.6 1.04 10.88 3.12 15.84 2.24 4.8 5.2 9.04 8.88 12.72 3.84 3.68 8.24 6.64 13.2 8.88 5.12 2.08 10.56 3.12 16.32 3.12h16.8c6.08 0 11.6-1.04 16.56-3.12 5.12-2.24 9.44-5.2 12.96-8.88 3.68-3.84 6.48-8.16 8.4-12.96 2.08-4.96 3.12-10.16 3.12-15.6v-14.64c0-4.8-1.52-9.68-4.56-14.64-2.88-5.12-6.56-10.08-11.04-14.88-4.32-4.96-9.04-9.76-14.16-14.4s-9.92-8.96-14.4-12.96c-4.32-4.16-8-7.92-11.04-11.28-2.88-3.36-4.32-6.24-4.32-8.64v-28.32h15.84c7.68 0 13.6 1.84 17.76 5.52 4.32 3.52 6.48 8.48 6.48 14.88h19.68c0-5.44-1.12-10.56-3.36-15.36-2.08-4.96-5.04-9.2-8.88-12.72-3.68-3.68-8-6.56-12.96-8.64-4.96-2.24-10.24-3.36-15.84-3.36h-17.04c-5.76 0-11.2 1.04-16.32 3.12-4.96 2.08-9.36 4.96-13.2 8.64-3.68 3.68-6.64 8-8.88 12.96-2.08 4.8-3.12 10.08-3.12 15.84z" mask="url(#c)" stroke="#000" stroke-width="2"/><path d="m240.293 267.48h-120v19.92h40.08v160.08h39.84v-160.08h40.08z" mask="url(#c)" stroke="#000" stroke-width="2"/><path d="m301.253 447.48h38.16c5.44 0 10.56-1.04 15.36-3.12 4.96-2.24 9.28-5.2 12.96-8.88 3.84-3.84 6.88-8.16 9.12-12.96 2.24-4.96 3.36-10.16 3.36-15.6v-98.88c0-5.12-1.12-10.08-3.36-14.88-2.08-4.96-4.96-9.28-8.64-12.96-3.68-3.84-8-6.88-12.96-9.12-4.96-2.4-10.24-3.6-15.84-3.6h-38.16c-5.6 0-10.88 1.2-15.84 3.6-4.96 2.24-9.28 5.28-12.96 9.12-3.68 3.68-6.64 8-8.88 12.96-2.08 4.8-3.12 9.76-3.12 14.88v98.88c0 5.44 1.12 10.64 3.36 15.6 2.24 4.8 5.2 9.12 8.88 12.96 3.84 3.68 8.16 6.64 12.96 8.88 4.96 2.08 10.16 3.12 15.6 3.12zm39.12-20.16h-40.08v-139.92h40.08z" mask="url(#c)" stroke="#000" stroke-width="2"/><path d="m460.371 347.16v-60h40.08v60zm-39.84 100.32h39.84v-79.92h40.08v79.92h39.84v-55.68c0-6.88-1.12-12.48-3.36-16.8-2.24-4.48-4.72-8-7.44-10.56-2.56-2.72-4.96-4.56-7.2-5.52-2.24-1.12-3.36-1.68-3.36-1.68s1.12-.4 3.36-1.2 4.64-2.32 7.2-4.56c2.72-2.4 5.2-5.68 7.44-9.84 2.24-4.32 3.36-9.92 3.36-16.8v-17.28c0-5.92-.96-11.36-2.88-16.32-1.76-4.96-4.4-9.2-7.92-12.72s-7.76-6.24-12.72-8.16c-4.8-1.92-10.24-2.88-16.32-2.88h-79.92z" mask="url(#c)" stroke="#000" stroke-width="2"/><path d="m622.129 267.48c-4.64 0-9.44 1.12-14.4 3.36-4.8 2.24-9.2 5.2-13.2 8.88-3.84 3.68-7.04 8-9.6 12.96-2.4 4.96-3.6 10.08-3.6 15.36v139.44h39.84v-79.92h39.36v79.92c1.28.16 3.76.24 7.44.24h11.76c4.32 0 8.4-.08 12.24-.24h8.64v-139.44c0-5.28-1.28-10.32-3.84-15.12-2.56-4.96-5.84-9.28-9.84-12.96-3.84-3.84-8.24-6.88-13.2-9.12s-9.84-3.36-14.64-3.36zm-.96 79.68v-60h39.36v60z" mask="url(#c)" stroke="#000" stroke-width="2"/><path d="m800.448 367.32h20.16v60h-40.08v-139.92h44.16c4.96 0 8.88 1.84 11.76 5.52 2.88 3.52 4.32 8.56 4.32 15.12h19.68c0-5.12-1.12-10.08-3.36-14.88-2.24-4.96-5.28-9.28-9.12-12.96-3.84-3.84-8.24-6.88-13.2-9.12-4.961-2.4-10.08-3.6-15.36-3.6h-38.16c-5.6 0-10.88 1.2-15.84 3.6-4.96 2.24-9.28 5.28-12.96 9.12s-6.56 8.24-8.64 13.2c-2.08 4.8-3.12 9.76-3.12 14.88v98.4c0 5.6 1.04 10.88 3.12 15.84s4.96 9.28 8.64 12.96 7.92 6.64 12.72 8.88c4.96 2.08 10.32 3.12 16.08 3.12h38.4c6.08 0 11.599-1.12 16.56-3.36 4.96-2.24 9.2-5.2 12.72-8.88 3.68-3.68 6.48-8 8.4-12.96 2.08-4.96 3.12-10.16 3.12-15.6v-59.76h-60z" mask="url(#c)" stroke="#000" stroke-width="2"/><path d="m980.686 367.56v-20.4h-40.08v-59.76h60.004v-19.92h-99.844v180h99.844v-20.16h-60.004v-59.76z" mask="url(#c)" stroke="#000" stroke-width="2"/><path d="m1 312.2c0 4.32 1.44 8.8 4.32 13.44 3.04 4.48 6.72 9.04 11.04 13.68 4.48 4.64 9.28 9.28 14.4 13.92 5.28 4.48 10.08 8.8 14.4 12.96 4.48 4.16 8.16 8.16 11.04 12 3.04 3.68 4.56 6.96 4.56 9.84v29.28h-18.24c-6.4 0-11.6-1.92-15.6-5.76-3.84-3.84-5.76-8.8-5.76-14.88h-20.16c0 5.6 1.04 10.88 3.12 15.84 2.24 4.8 5.2 9.04 8.88 12.72 3.84 3.68 8.24 6.64 13.2 8.88 5.12 2.08 10.56 3.12 16.32 3.12h16.8c6.08 0 11.6-1.04 16.56-3.12 5.12-2.24 9.44-5.2 12.96-8.88 3.68-3.84 6.48-8.16 8.4-12.96 2.08-4.96 3.12-10.16 3.12-15.6v-14.64c0-4.8-1.52-9.68-4.56-14.64-2.88-5.12-6.56-10.08-11.04-14.88-4.32-4.96-9.04-9.76-14.16-14.4s-9.92-8.96-14.4-12.96c-4.32-4.16-8-7.92-11.04-11.28-2.88-3.36-4.32-6.24-4.32-8.64v-28.32h15.84c7.68 0 13.6 1.84 17.76 5.52 4.32 3.52 6.48 8.48 6.48 14.88h19.68c0-5.44-1.12-10.56-3.36-15.36-2.08-4.96-5.04-9.2-8.88-12.72-3.68-3.68-8-6.56-12.96-8.64-4.96-2.24-10.24-3.36-15.84-3.36h-17.04c-5.76 0-11.2 1.04-16.32 3.12-4.96 2.08-9.36 4.96-13.2 8.64-3.68 3.68-6.64 8-8.88 12.96-2.08 4.8-3.12 10.08-3.12 15.84z" fill="#f5c32c"/><path d="m240.293 257.24h-120v19.92h40.08v160.08h39.84v-160.08h40.08z" fill="#f5c32c"/><path d="m301.253 437.24h38.16c5.44 0 10.56-1.04 15.36-3.12 4.96-2.24 9.28-5.2 12.96-8.88 3.84-3.84 6.88-8.16 9.12-12.96 2.24-4.96 3.36-10.16 3.36-15.6v-98.88c0-5.12-1.12-10.08-3.36-14.88-2.08-4.96-4.96-9.28-8.64-12.96-3.68-3.84-8-6.88-12.96-9.12-4.96-2.4-10.24-3.6-15.84-3.6h-38.16c-5.6 0-10.88 1.2-15.84 3.6-4.96 2.24-9.28 5.28-12.96 9.12-3.68 3.68-6.64 8-8.88 12.96-2.08 4.8-3.12 9.76-3.12 14.88v98.88c0 5.44 1.12 10.64 3.36 15.6 2.24 4.8 5.2 9.12 8.88 12.96 3.84 3.68 8.16 6.64 12.96 8.88 4.96 2.08 10.16 3.12 15.6 3.12zm39.12-20.16h-40.08v-139.92h40.08z" fill="#f5c32c"/><path d="m460.371 336.92v-60h40.08v60zm-39.84 100.32h39.84v-79.92h40.08v79.92h39.84v-55.68c0-6.88-1.12-12.48-3.36-16.8-2.24-4.48-4.72-8-7.44-10.56-2.56-2.72-4.96-4.56-7.2-5.52-2.24-1.12-3.36-1.68-3.36-1.68s1.12-.4 3.36-1.2 4.64-2.32 7.2-4.56c2.72-2.4 5.2-5.68 7.44-9.84 2.24-4.32 3.36-9.92 3.36-16.8v-17.28c0-5.92-.96-11.36-2.88-16.32-1.76-4.96-4.4-9.2-7.92-12.72s-7.76-6.24-12.72-8.16c-4.8-1.92-10.24-2.88-16.32-2.88h-79.92z" fill="#f5c32c"/><path d="m622.129 257.24c-4.64 0-9.44 1.12-14.4 3.36-4.8 2.24-9.2 5.2-13.2 8.88-3.84 3.68-7.04 8-9.6 12.96-2.4 4.96-3.6 10.08-3.6 15.36v139.44h39.84v-79.92h39.36v79.92c1.28.16 3.76.24 7.44.24h11.76c4.32 0 8.4-.08 12.24-.24h8.64v-139.44c0-5.28-1.28-10.32-3.84-15.12-2.56-4.96-5.84-9.28-9.84-12.96-3.84-3.84-8.24-6.88-13.2-9.12s-9.84-3.36-14.64-3.36zm-.96 79.68v-60h39.36v60z" fill="#f5c32c"/><path d="m800.448 357.08h20.16v60h-40.08v-139.92h44.16c4.96 0 8.88 1.84 11.76 5.52 2.88 3.52 4.32 8.56 4.32 15.12h19.68c0-5.12-1.12-10.08-3.36-14.88-2.24-4.96-5.28-9.28-9.12-12.96-3.84-3.84-8.24-6.88-13.2-9.12-4.961-2.4-10.08-3.6-15.36-3.6h-38.16c-5.6 0-10.88 1.2-15.84 3.6-4.96 2.24-9.28 5.28-12.96 9.12s-6.56 8.24-8.64 13.2c-2.08 4.8-3.12 9.76-3.12 14.88v98.4c0 5.6 1.04 10.88 3.12 15.84s4.96 9.28 8.64 12.96 7.92 6.64 12.72 8.88c4.96 2.08 10.32 3.12 16.08 3.12h38.4c6.08 0 11.599-1.12 16.56-3.36 4.96-2.24 9.2-5.2 12.72-8.88 3.68-3.68 6.48-8 8.4-12.96 2.08-4.96 3.12-10.16 3.12-15.6v-59.76h-60z" fill="#f5c32c"/><path d="m980.686 357.32v-20.4h-40.08v-59.76h60.004v-19.92h-99.844v180h99.844v-20.16h-60.004v-59.76z" fill="#f5c32c"/><path d="m1 312.2c0 4.32 1.44 8.8 4.32 13.44 3.04 4.48 6.72 9.04 11.04 13.68 4.48 4.64 9.28 9.28 14.4 13.92 5.28 4.48 10.08 8.8 14.4 12.96 4.48 4.16 8.16 8.16 11.04 12 3.04 3.68 4.56 6.96 4.56 9.84v29.28h-18.24c-6.4 0-11.6-1.92-15.6-5.76-3.84-3.84-5.76-8.8-5.76-14.88h-20.16c0 5.6 1.04 10.88 3.12 15.84 2.24 4.8 5.2 9.04 8.88 12.72 3.84 3.68 8.24 6.64 13.2 8.88 5.12 2.08 10.56 3.12 16.32 3.12h16.8c6.08 0 11.6-1.04 16.56-3.12 5.12-2.24 9.44-5.2 12.96-8.88 3.68-3.84 6.48-8.16 8.4-12.96 2.08-4.96 3.12-10.16 3.12-15.6v-14.64c0-4.8-1.52-9.68-4.56-14.64-2.88-5.12-6.56-10.08-11.04-14.88-4.32-4.96-9.04-9.76-14.16-14.4s-9.92-8.96-14.4-12.96c-4.32-4.16-8-7.92-11.04-11.28-2.88-3.36-4.32-6.24-4.32-8.64v-28.32h15.84c7.68 0 13.6 1.84 17.76 5.52 4.32 3.52 6.48 8.48 6.48 14.88h19.68c0-5.44-1.12-10.56-3.36-15.36-2.08-4.96-5.04-9.2-8.88-12.72-3.68-3.68-8-6.56-12.96-8.64-4.96-2.24-10.24-3.36-15.84-3.36h-17.04c-5.76 0-11.2 1.04-16.32 3.12-4.96 2.08-9.36 4.96-13.2 8.64-3.68 3.68-6.64 8-8.88 12.96-2.08 4.8-3.12 10.08-3.12 15.84z" mask="url(#d)" stroke="#000" stroke-width="2"/><path d="m240.293 257.24h-120v19.92h40.08v160.08h39.84v-160.08h40.08z" mask="url(#d)" stroke="#000" stroke-width="2"/><path d="m301.253 437.24h38.16c5.44 0 10.56-1.04 15.36-3.12 4.96-2.24 9.28-5.2 12.96-8.88 3.84-3.84 6.88-8.16 9.12-12.96 2.24-4.96 3.36-10.16 3.36-15.6v-98.88c0-5.12-1.12-10.08-3.36-14.88-2.08-4.96-4.96-9.28-8.64-12.96-3.68-3.84-8-6.88-12.96-9.12-4.96-2.4-10.24-3.6-15.84-3.6h-38.16c-5.6 0-10.88 1.2-15.84 3.6-4.96 2.24-9.28 5.28-12.96 9.12-3.68 3.68-6.64 8-8.88 12.96-2.08 4.8-3.12 9.76-3.12 14.88v98.88c0 5.44 1.12 10.64 3.36 15.6 2.24 4.8 5.2 9.12 8.88 12.96 3.84 3.68 8.16 6.64 12.96 8.88 4.96 2.08 10.16 3.12 15.6 3.12zm39.12-20.16h-40.08v-139.92h40.08z" mask="url(#d)" stroke="#000" stroke-width="2"/><path d="m460.371 336.92v-60h40.08v60zm-39.84 100.32h39.84v-79.92h40.08v79.92h39.84v-55.68c0-6.88-1.12-12.48-3.36-16.8-2.24-4.48-4.72-8-7.44-10.56-2.56-2.72-4.96-4.56-7.2-5.52-2.24-1.12-3.36-1.68-3.36-1.68s1.12-.4 3.36-1.2 4.64-2.32 7.2-4.56c2.72-2.4 5.2-5.68 7.44-9.84 2.24-4.32 3.36-9.92 3.36-16.8v-17.28c0-5.92-.96-11.36-2.88-16.32-1.76-4.96-4.4-9.2-7.92-12.72s-7.76-6.24-12.72-8.16c-4.8-1.92-10.24-2.88-16.32-2.88h-79.92z" mask="url(#d)" stroke="#000" stroke-width="2"/><path d="m622.129 257.24c-4.64 0-9.44 1.12-14.4 3.36-4.8 2.24-9.2 5.2-13.2 8.88-3.84 3.68-7.04 8-9.6 12.96-2.4 4.96-3.6 10.08-3.6 15.36v139.44h39.84v-79.92h39.36v79.92c1.28.16 3.76.24 7.44.24h11.76c4.32 0 8.4-.08 12.24-.24h8.64v-139.44c0-5.28-1.28-10.32-3.84-15.12-2.56-4.96-5.84-9.28-9.84-12.96-3.84-3.84-8.24-6.88-13.2-9.12s-9.84-3.36-14.64-3.36zm-.96 79.68v-60h39.36v60z" mask="url(#d)" stroke="#000" stroke-width="2"/><path d="m800.448 357.08h20.16v60h-40.08v-139.92h44.16c4.96 0 8.88 1.84 11.76 5.52 2.88 3.52 4.32 8.56 4.32 15.12h19.68c0-5.12-1.12-10.08-3.36-14.88-2.24-4.96-5.28-9.28-9.12-12.96-3.84-3.84-8.24-6.88-13.2-9.12-4.961-2.4-10.08-3.6-15.36-3.6h-38.16c-5.6 0-10.88 1.2-15.84 3.6-4.96 2.24-9.28 5.28-12.96 9.12s-6.56 8.24-8.64 13.2c-2.08 4.8-3.12 9.76-3.12 14.88v98.4c0 5.6 1.04 10.88 3.12 15.84s4.96 9.28 8.64 12.96 7.92 6.64 12.72 8.88c4.96 2.08 10.32 3.12 16.08 3.12h38.4c6.08 0 11.599-1.12 16.56-3.36 4.96-2.24 9.2-5.2 12.72-8.88 3.68-3.68 6.48-8 8.4-12.96 2.08-4.96 3.12-10.16 3.12-15.6v-59.76h-60z" mask="url(#d)" stroke="#000" stroke-width="2"/><path d="m980.686 357.32v-20.4h-40.08v-59.76h60.004v-19.92h-99.844v180h99.844v-20.16h-60.004v-59.76z" mask="url(#d)" stroke="#000" stroke-width="2"/><path d="m1 301.96c0 4.32 1.44 8.8 4.32 13.44 3.04 4.48 6.72 9.04 11.04 13.68 4.48 4.64 9.28 9.28 14.4 13.92 5.28 4.48 10.08 8.8 14.4 12.96 4.48 4.16 8.16 8.16 11.04 12 3.04 3.68 4.56 6.96 4.56 9.84v29.28h-18.24c-6.4 0-11.6-1.92-15.6-5.76-3.84-3.84-5.76-8.8-5.76-14.88h-20.16c0 5.6 1.04 10.88 3.12 15.84 2.24 4.8 5.2 9.04 8.88 12.72 3.84 3.68 8.24 6.64 13.2 8.88 5.12 2.08 10.56 3.12 16.32 3.12h16.8c6.08 0 11.6-1.04 16.56-3.12 5.12-2.24 9.44-5.2 12.96-8.88 3.68-3.84 6.48-8.16 8.4-12.96 2.08-4.96 3.12-10.16 3.12-15.6v-14.64c0-4.8-1.52-9.68-4.56-14.64-2.88-5.12-6.56-10.08-11.04-14.88-4.32-4.96-9.04-9.76-14.16-14.4s-9.92-8.96-14.4-12.96c-4.32-4.16-8-7.92-11.04-11.28-2.88-3.36-4.32-6.24-4.32-8.64v-28.32h15.84c7.68 0 13.6 1.84 17.76 5.52 4.32 3.52 6.48 8.48 6.48 14.88h19.68c0-5.44-1.12-10.56-3.36-15.36-2.08-4.96-5.04-9.2-8.88-12.72-3.68-3.68-8-6.56-12.96-8.64-4.96-2.24-10.24-3.36-15.84-3.36h-17.04c-5.76 0-11.2 1.04-16.32 3.12-4.96 2.08-9.36 4.96-13.2 8.64-3.68 3.68-6.64 8-8.88 12.96-2.08 4.8-3.12 10.08-3.12 15.84z" fill="#fff"/><path d="m240.293 247h-120v19.92h40.08v160.08h39.84v-160.08h40.08z" fill="#fff"/><path d="m301.253 427h38.16c5.44 0 10.56-1.04 15.36-3.12 4.96-2.24 9.28-5.2 12.96-8.88 3.84-3.84 6.88-8.16 9.12-12.96 2.24-4.96 3.36-10.16 3.36-15.6v-98.88c0-5.12-1.12-10.08-3.36-14.88-2.08-4.96-4.96-9.28-8.64-12.96-3.68-3.84-8-6.88-12.96-9.12-4.96-2.4-10.24-3.6-15.84-3.6h-38.16c-5.6 0-10.88 1.2-15.84 3.6-4.96 2.24-9.28 5.28-12.96 9.12-3.68 3.68-6.64 8-8.88 12.96-2.08 4.8-3.12 9.76-3.12 14.88v98.88c0 5.44 1.12 10.64 3.36 15.6 2.24 4.8 5.2 9.12 8.88 12.96 3.84 3.68 8.16 6.64 12.96 8.88 4.96 2.08 10.16 3.12 15.6 3.12zm39.12-20.16h-40.08v-139.92h40.08z" fill="#fff"/><path d="m460.371 326.68v-60h40.08v60zm-39.84 100.32h39.84v-79.92h40.08v79.92h39.84v-55.68c0-6.88-1.12-12.48-3.36-16.8-2.24-4.48-4.72-8-7.44-10.56-2.56-2.72-4.96-4.56-7.2-5.52-2.24-1.12-3.36-1.68-3.36-1.68s1.12-.4 3.36-1.2 4.64-2.32 7.2-4.56c2.72-2.4 5.2-5.68 7.44-9.84 2.24-4.32 3.36-9.92 3.36-16.8v-17.28c0-5.92-.96-11.36-2.88-16.32-1.76-4.96-4.4-9.2-7.92-12.72s-7.76-6.24-12.72-8.16c-4.8-1.92-10.24-2.88-16.32-2.88h-79.92z" fill="#fff"/><path d="m622.129 247c-4.64 0-9.44 1.12-14.4 3.36-4.8 2.24-9.2 5.2-13.2 8.88-3.84 3.68-7.04 8-9.6 12.96-2.4 4.96-3.6 10.08-3.6 15.36v139.44h39.84v-79.92h39.36v79.92c1.28.16 3.76.24 7.44.24h11.76c4.32 0 8.4-.08 12.24-.24h8.64v-139.44c0-5.28-1.28-10.32-3.84-15.12-2.56-4.96-5.84-9.28-9.84-12.96-3.84-3.84-8.24-6.88-13.2-9.12s-9.84-3.36-14.64-3.36zm-.96 79.68v-60h39.36v60z" fill="#fff"/><path d="m800.448 346.84h20.16v60h-40.08v-139.92h44.16c4.96 0 8.88 1.84 11.76 5.52 2.88 3.52 4.32 8.56 4.32 15.12h19.68c0-5.12-1.12-10.08-3.36-14.88-2.24-4.96-5.28-9.28-9.12-12.96-3.84-3.84-8.24-6.88-13.2-9.12-4.961-2.4-10.08-3.6-15.36-3.6h-38.16c-5.6 0-10.88 1.2-15.84 3.6-4.96 2.24-9.28 5.28-12.96 9.12s-6.56 8.24-8.64 13.2c-2.08 4.8-3.12 9.76-3.12 14.88v98.4c0 5.6 1.04 10.88 3.12 15.84s4.96 9.28 8.64 12.96 7.92 6.64 12.72 8.88c4.96 2.08 10.32 3.12 16.08 3.12h38.4c6.08 0 11.599-1.12 16.56-3.36 4.96-2.24 9.2-5.2 12.72-8.88 3.68-3.68 6.48-8 8.4-12.96 2.08-4.96 3.12-10.16 3.12-15.6v-59.76h-60z" fill="#fff"/><path d="m980.686 347.08v-20.4h-40.08v-59.76h60.004v-19.92h-99.844v180h99.844v-20.16h-60.004v-59.76z" fill="#fff"/><path d="m1 301.96c0 4.32 1.44 8.8 4.32 13.44 3.04 4.48 6.72 9.04 11.04 13.68 4.48 4.64 9.28 9.28 14.4 13.92 5.28 4.48 10.08 8.8 14.4 12.96 4.48 4.16 8.16 8.16 11.04 12 3.04 3.68 4.56 6.96 4.56 9.84v29.28h-18.24c-6.4 0-11.6-1.92-15.6-5.76-3.84-3.84-5.76-8.8-5.76-14.88h-20.16c0 5.6 1.04 10.88 3.12 15.84 2.24 4.8 5.2 9.04 8.88 12.72 3.84 3.68 8.24 6.64 13.2 8.88 5.12 2.08 10.56 3.12 16.32 3.12h16.8c6.08 0 11.6-1.04 16.56-3.12 5.12-2.24 9.44-5.2 12.96-8.88 3.68-3.84 6.48-8.16 8.4-12.96 2.08-4.96 3.12-10.16 3.12-15.6v-14.64c0-4.8-1.52-9.68-4.56-14.64-2.88-5.12-6.56-10.08-11.04-14.88-4.32-4.96-9.04-9.76-14.16-14.4s-9.92-8.96-14.4-12.96c-4.32-4.16-8-7.92-11.04-11.28-2.88-3.36-4.32-6.24-4.32-8.64v-28.32h15.84c7.68 0 13.6 1.84 17.76 5.52 4.32 3.52 6.48 8.48 6.48 14.88h19.68c0-5.44-1.12-10.56-3.36-15.36-2.08-4.96-5.04-9.2-8.88-12.72-3.68-3.68-8-6.56-12.96-8.64-4.96-2.24-10.24-3.36-15.84-3.36h-17.04c-5.76 0-11.2 1.04-16.32 3.12-4.96 2.08-9.36 4.96-13.2 8.64-3.68 3.68-6.64 8-8.88 12.96-2.08 4.8-3.12 10.08-3.12 15.84z" mask="url(#e)" stroke="#000" stroke-width="2"/><path d="m240.293 247h-120v19.92h40.08v160.08h39.84v-160.08h40.08z" mask="url(#e)" stroke="#000" stroke-width="2"/><path d="m301.253 427h38.16c5.44 0 10.56-1.04 15.36-3.12 4.96-2.24 9.28-5.2 12.96-8.88 3.84-3.84 6.88-8.16 9.12-12.96 2.24-4.96 3.36-10.16 3.36-15.6v-98.88c0-5.12-1.12-10.08-3.36-14.88-2.08-4.96-4.96-9.28-8.64-12.96-3.68-3.84-8-6.88-12.96-9.12-4.96-2.4-10.24-3.6-15.84-3.6h-38.16c-5.6 0-10.88 1.2-15.84 3.6-4.96 2.24-9.28 5.28-12.96 9.12-3.68 3.68-6.64 8-8.88 12.96-2.08 4.8-3.12 9.76-3.12 14.88v98.88c0 5.44 1.12 10.64 3.36 15.6 2.24 4.8 5.2 9.12 8.88 12.96 3.84 3.68 8.16 6.64 12.96 8.88 4.96 2.08 10.16 3.12 15.6 3.12zm39.12-20.16h-40.08v-139.92h40.08z" mask="url(#e)" stroke="#000" stroke-width="2"/><path d="m460.371 326.68v-60h40.08v60zm-39.84 100.32h39.84v-79.92h40.08v79.92h39.84v-55.68c0-6.88-1.12-12.48-3.36-16.8-2.24-4.48-4.72-8-7.44-10.56-2.56-2.72-4.96-4.56-7.2-5.52-2.24-1.12-3.36-1.68-3.36-1.68s1.12-.4 3.36-1.2 4.64-2.32 7.2-4.56c2.72-2.4 5.2-5.68 7.44-9.84 2.24-4.32 3.36-9.92 3.36-16.8v-17.28c0-5.92-.96-11.36-2.88-16.32-1.76-4.96-4.4-9.2-7.92-12.72s-7.76-6.24-12.72-8.16c-4.8-1.92-10.24-2.88-16.32-2.88h-79.92z" mask="url(#e)" stroke="#000" stroke-width="2"/><path d="m622.129 247c-4.64 0-9.44 1.12-14.4 3.36-4.8 2.24-9.2 5.2-13.2 8.88-3.84 3.68-7.04 8-9.6 12.96-2.4 4.96-3.6 10.08-3.6 15.36v139.44h39.84v-79.92h39.36v79.92c1.28.16 3.76.24 7.44.24h11.76c4.32 0 8.4-.08 12.24-.24h8.64v-139.44c0-5.28-1.28-10.32-3.84-15.12-2.56-4.96-5.84-9.28-9.84-12.96-3.84-3.84-8.24-6.88-13.2-9.12s-9.84-3.36-14.64-3.36zm-.96 79.68v-60h39.36v60z" mask="url(#e)" stroke="#000" stroke-width="2"/><path d="m800.448 346.84h20.16v60h-40.08v-139.92h44.16c4.96 0 8.88 1.84 11.76 5.52 2.88 3.52 4.32 8.56 4.32 15.12h19.68c0-5.12-1.12-10.08-3.36-14.88-2.24-4.96-5.28-9.28-9.12-12.96-3.84-3.84-8.24-6.88-13.2-9.12-4.961-2.4-10.08-3.6-15.36-3.6h-38.16c-5.6 0-10.88 1.2-15.84 3.6-4.96 2.24-9.28 5.28-12.96 9.12s-6.56 8.24-8.64 13.2c-2.08 4.8-3.12 9.76-3.12 14.88v98.4c0 5.6 1.04 10.88 3.12 15.84s4.96 9.28 8.64 12.96 7.92 6.64 12.72 8.88c4.96 2.08 10.32 3.12 16.08 3.12h38.4c6.08 0 11.599-1.12 16.56-3.36 4.96-2.24 9.2-5.2 12.72-8.88 3.68-3.68 6.48-8 8.4-12.96 2.08-4.96 3.12-10.16 3.12-15.6v-59.76h-60z" mask="url(#e)" stroke="#000" stroke-width="2"/><path d="m980.686 347.08v-20.4h-40.08v-59.76h60.004v-19.92h-99.844v180h99.844v-20.16h-60.004v-59.76z" mask="url(#e)" stroke="#000" stroke-width="2"/><ellipse cx="320" cy="336.5" fill="#fff" rx="53" ry="79.5"/><ellipse cx="305.5" cy="298" fill="#000" rx="4.5" ry="10"/><ellipse cx="334.5" cy="298" fill="#000" rx="4.5" ry="10"/><path d="m359 320c0 21.539-17.237 39-38.5 39s-38.5-17.461-38.5-39" stroke="#000"/><path d="m307.42 221v-103.954l109.555 104.316.145.138h.2 9.6.5v-.5-180-.5h-.5-20.16-.5v.5 103.001l-109.557-103.3647-.144-.1363h-.199-9.36-.5v.5 180 .5h.5 19.92.5zm239.5-79.42h.5v-.5-20.16-.5h-.5-39.58v-59h59.5.5v-.5-19.92-.5h-.5-99.84-.5v.5 180 .5h.5 39.84.5v-.5-79.42zm160.342-100.58v-.5h-.5-120-.5v.5 19.92.5h.5 39.58v159.58.5h.5 39.84.5v-.5-159.58h39.58.5v-.5z" fill="#f5c32c" stroke="#000"/><path d="m307.42 211v-103.954l109.555 104.316.145.138h.2 9.6.5v-.5-180-.5h-.5-20.16-.5v.5 103.001l-109.557-103.3647-.144-.1363h-.199-9.36-.5v.5 180 .5h.5 19.92.5zm239.5-79.42h.5v-.5-20.16-.5h-.5-39.58v-59h59.5.5v-.5-19.92-.5h-.5-99.84-.5v.5 180 .5h.5 39.84.5v-.5-79.42zm160.342-100.58v-.5h-.5-120-.5v.5 19.92.5h.5 39.58v159.58.5h.5 39.84.5v-.5-159.58h39.58.5v-.5z" fill="#f5c32c" stroke="#000"/><path d="m307.42 201v-103.9535l109.555 104.3155.145.138h.2 9.6.5v-.5-180-.5h-.5-20.16-.5v.5 103.001l-109.557-103.3647-.144-.1363h-.199-9.36-.5v.5 180 .5h.5 19.92.5zm239.5-79.42h.5v-.5-20.16-.5h-.5-39.58v-59h59.5.5v-.5-19.92-.5h-.5-99.84-.5v.5 180 .5h.5 39.84.5v-.5-79.42zm160.342-100.58v-.5h-.5-120-.5v.5 19.92.5h.5 39.58v159.58.5h.5 39.84.5v-.5-159.58h39.58.5v-.5z" fill="#f5c32c" stroke="#000"/><path d="m307.42 191v-103.9535l109.555 104.3155.145.138h.2 9.6.5v-.5-180-.5h-.5-20.16-.5v.5 103.001l-109.557-103.3647-.144-.1363h-.199-9.36-.5v.5 180 .5h.5 19.92.5zm239.5-79.42h.5v-.5-20.16-.5h-.5-39.58v-59h59.5.5v-.5-19.92-.5h-.5-99.84-.5v.5 180 .5h.5 39.84.5v-.5-79.42zm160.342-100.58v-.5h-.5-120-.5v.5 19.92.5h.5 39.58v159.58.5h.5 39.84.5v-.5-159.58h39.58.5v-.5z" fill="#f5c32c" stroke="#000"/><path d="m307.42 181v-103.9535l109.555 104.3155.145.138h.2 9.6.5v-.5-180-.5h-.5-20.16-.5v.5 103.001l-109.557-103.364682-.144-.136318h-.199-9.36-.5v.5 180 .5h.5 19.92.5zm239.5-79.42h.5v-.5-20.16-.5h-.5-39.58v-59h59.5.5v-.5-19.92-.5h-.5-99.84-.5v.5 180 .5h.5 39.84.5v-.5-79.42zm160.342-100.58v-.5h-.5-120-.5v.5 19.92.5h.5 39.58v159.58.5h.5 39.84.5v-.5-159.58h39.58.5v-.5z" fill="#fff" stroke="#000"/></svg>