<svg fill="none" height="470" width="1002" xmlns="http://www.w3.org/2000/svg"><mask id="a" fill="#000" height="183" maskUnits="userSpaceOnUse" width="1002" x="0" y="286.96"><path d="M0 286.96h1002v183H0z" fill="#fff"/><path d="M1 342.92c0 4.32 1.44 8.8 4.32 13.44 3.04 4.48 6.72 9.04 11.04 13.68 4.48 4.64 9.28 9.28 14.4 13.92 5.28 4.48 10.08 8.8 14.4 12.96 4.48 4.16 8.16 8.16 11.04 12 3.04 3.68 4.56 6.96 4.56 9.84v29.28H42.52c-6.4 0-11.6-1.92-15.6-5.76-3.84-3.84-5.76-8.8-5.76-14.88H1c0 5.6 1.04 10.88 3.12 15.84 2.24 4.8 5.2 9.04 8.88 12.72 3.84 3.68 8.24 6.64 13.2 8.88 5.12 2.08 10.56 3.12 16.32 3.12h16.8c6.08 0 11.6-1.04 16.56-3.12 5.12-2.24 9.44-5.2 12.96-8.88 3.68-3.84 6.48-8.16 8.4-12.96 2.08-4.96 3.12-10.16 3.12-15.6v-14.64c0-4.8-1.52-9.68-4.56-14.64-2.88-5.12-6.56-10.08-11.04-14.88-4.32-4.96-9.04-9.76-14.16-14.4s-9.92-8.96-14.4-12.96c-4.32-4.16-8-7.92-11.04-11.28-2.88-3.36-4.32-6.24-4.32-8.64v-28.32h15.84c7.68 0 13.6 1.84 17.76 5.52 4.32 3.52 6.48 8.48 6.48 14.88h19.68c0-5.44-1.12-10.56-3.36-15.36-2.08-4.96-5.04-9.2-8.88-12.72-3.68-3.68-8-6.56-12.96-8.64-4.96-2.24-10.24-3.36-15.84-3.36H42.52c-5.76 0-11.2 1.04-16.32 3.12-4.96 2.08-9.36 4.96-13.2 8.64-3.68 3.68-6.64 8-8.88 12.96C2.04 317.48 1 322.76 1 328.52zm239.293-54.96h-120v19.92h40.08v160.08h39.84V307.88h40.08zm60.96 180h38.16c5.44 0 10.56-1.04 15.36-3.12 4.96-2.24 9.28-5.2 12.96-8.88 3.84-3.84 6.88-8.16 9.12-12.96a37.483 37.483 0 0 0 3.36-15.6v-98.88c0-5.12-1.12-10.08-3.36-14.88-2.08-4.96-4.96-9.28-8.64-12.96-3.68-3.84-8-6.88-12.96-9.12-4.96-2.4-10.24-3.6-15.84-3.6h-38.16c-5.6 0-10.88 1.2-15.84 3.6-4.96 2.24-9.28 5.28-12.96 9.12-3.68 3.68-6.64 8-8.88 12.96-2.08 4.8-3.12 9.76-3.12 14.88v98.88c0 5.44 1.12 10.64 3.36 15.6 2.24 4.8 5.2 9.12 8.88 12.96 3.84 3.68 8.16 6.64 12.96 8.88 4.96 2.08 10.16 3.12 15.6 3.12zm39.12-20.16h-40.08V307.88h40.08zm119.998-80.16v-60h40.08v60zm-39.84 100.32h39.84v-79.92h40.08v79.92h39.84v-55.68c0-6.88-1.12-12.48-3.36-16.8-2.24-4.48-4.72-8-7.44-10.56-2.56-2.72-4.96-4.56-7.2-5.52l-3.36-1.68 3.36-1.2c2.24-.8 4.64-2.32 7.2-4.56 2.72-2.4 5.2-5.68 7.44-9.84 2.24-4.32 3.36-9.92 3.36-16.8v-17.28c0-5.92-.96-11.36-2.88-16.32-1.76-4.96-4.4-9.2-7.92-12.72s-7.76-6.24-12.72-8.16c-4.8-1.92-10.24-2.88-16.32-2.88h-79.92zm201.598-180c-4.64 0-9.44 1.12-14.4 3.36-4.8 2.24-9.2 5.2-13.2 8.88-3.84 3.68-7.04 8-9.6 12.96-2.4 4.96-3.6 10.08-3.6 15.36v139.44h39.84v-79.92h39.36v79.92c1.28.16 3.76.24 7.44.24h11.76c4.32 0 8.4-.08 12.24-.24h8.64V328.52c0-5.28-1.28-10.32-3.84-15.12-2.56-4.96-5.84-9.28-9.84-12.96-3.84-3.84-8.24-6.88-13.2-9.12s-9.84-3.36-14.64-3.36zm-.96 79.68v-60h39.36v60zm179.279 20.16h20.16v60h-40.08V307.88h44.16c4.96 0 8.88 1.84 11.76 5.52 2.88 3.52 4.32 8.56 4.32 15.12h19.68c0-5.12-1.12-10.08-3.36-14.88-2.24-4.96-5.28-9.28-9.12-12.96a44.3 44.3 0 0 0-13.2-9.12c-4.961-2.4-10.08-3.6-15.36-3.6h-38.16c-5.6 0-10.88 1.2-15.84 3.6-4.96 2.24-9.28 5.28-12.96 9.12s-6.56 8.24-8.64 13.2c-2.08 4.8-3.12 9.76-3.12 14.88v98.4c0 5.6 1.04 10.88 3.12 15.84s4.96 9.28 8.64 12.96 7.92 6.64 12.72 8.88c4.96 2.08 10.32 3.12 16.08 3.12h38.4c6.08 0 11.599-1.12 16.56-3.36 4.96-2.24 9.2-5.2 12.72-8.88 3.68-3.68 6.48-8 8.4-12.96 2.08-4.96 3.12-10.16 3.12-15.6V367.4h-60zm180.238.24v-20.4h-40.08v-59.76h60.004v-19.92h-99.844v180h99.844V447.8h-60.004v-59.76z"/></mask><mask id="b" fill="#000" height="183" maskUnits="userSpaceOnUse" width="1002" x="0" y="276.72"><path d="M0 276.72h1002v183H0z" fill="#fff"/><path d="M1 332.68c0 4.32 1.44 8.8 4.32 13.44 3.04 4.48 6.72 9.04 11.04 13.68 4.48 4.64 9.28 9.28 14.4 13.92 5.28 4.48 10.08 8.8 14.4 12.96 4.48 4.16 8.16 8.16 11.04 12 3.04 3.68 4.56 6.96 4.56 9.84v29.28H42.52c-6.4 0-11.6-1.92-15.6-5.76-3.84-3.84-5.76-8.8-5.76-14.88H1c0 5.6 1.04 10.88 3.12 15.84 2.24 4.8 5.2 9.04 8.88 12.72 3.84 3.68 8.24 6.64 13.2 8.88 5.12 2.08 10.56 3.12 16.32 3.12h16.8c6.08 0 11.6-1.04 16.56-3.12 5.12-2.24 9.44-5.2 12.96-8.88 3.68-3.84 6.48-8.16 8.4-12.96 2.08-4.96 3.12-10.16 3.12-15.6v-14.64c0-4.8-1.52-9.68-4.56-14.64-2.88-5.12-6.56-10.08-11.04-14.88-4.32-4.96-9.04-9.76-14.16-14.4s-9.92-8.96-14.4-12.96c-4.32-4.16-8-7.92-11.04-11.28-2.88-3.36-4.32-6.24-4.32-8.64V297.4h15.84c7.68 0 13.6 1.84 17.76 5.52 4.32 3.52 6.48 8.48 6.48 14.88h19.68c0-5.44-1.12-10.56-3.36-15.36-2.08-4.96-5.04-9.2-8.88-12.72-3.68-3.68-8-6.56-12.96-8.64-4.96-2.24-10.24-3.36-15.84-3.36H42.52c-5.76 0-11.2 1.04-16.32 3.12-4.96 2.08-9.36 4.96-13.2 8.64-3.68 3.68-6.64 8-8.88 12.96C2.04 307.24 1 312.52 1 318.28zm239.293-54.96h-120v19.92h40.08v160.08h39.84V297.64h40.08zm60.96 180h38.16c5.44 0 10.56-1.04 15.36-3.12 4.96-2.24 9.28-5.2 12.96-8.88 3.84-3.84 6.88-8.16 9.12-12.96a37.483 37.483 0 0 0 3.36-15.6v-98.88c0-5.12-1.12-10.08-3.36-14.88-2.08-4.96-4.96-9.28-8.64-12.96-3.68-3.84-8-6.88-12.96-9.12-4.96-2.4-10.24-3.6-15.84-3.6h-38.16c-5.6 0-10.88 1.2-15.84 3.6-4.96 2.24-9.28 5.28-12.96 9.12-3.68 3.68-6.64 8-8.88 12.96-2.08 4.8-3.12 9.76-3.12 14.88v98.88c0 5.44 1.12 10.64 3.36 15.6 2.24 4.8 5.2 9.12 8.88 12.96 3.84 3.68 8.16 6.64 12.96 8.88 4.96 2.08 10.16 3.12 15.6 3.12zm39.12-20.16h-40.08V297.64h40.08zm119.998-80.16v-60h40.08v60zm-39.84 100.32h39.84V377.8h40.08v79.92h39.84v-55.68c0-6.88-1.12-12.48-3.36-16.8-2.24-4.48-4.72-8-7.44-10.56-2.56-2.72-4.96-4.56-7.2-5.52l-3.36-1.68 3.36-1.2c2.24-.8 4.64-2.32 7.2-4.56 2.72-2.4 5.2-5.68 7.44-9.84 2.24-4.32 3.36-9.92 3.36-16.8V317.8c0-5.92-.96-11.36-2.88-16.32-1.76-4.96-4.4-9.2-7.92-12.72s-7.76-6.24-12.72-8.16c-4.8-1.92-10.24-2.88-16.32-2.88h-79.92zm201.598-180c-4.64 0-9.44 1.12-14.4 3.36-4.8 2.24-9.2 5.2-13.2 8.88-3.84 3.68-7.04 8-9.6 12.96-2.4 4.96-3.6 10.08-3.6 15.36v139.44h39.84V377.8h39.36v79.92c1.28.16 3.76.24 7.44.24h11.76c4.32 0 8.4-.08 12.24-.24h8.64V318.28c0-5.28-1.28-10.32-3.84-15.12-2.56-4.96-5.84-9.28-9.84-12.96-3.84-3.84-8.24-6.88-13.2-9.12s-9.84-3.36-14.64-3.36zm-.96 79.68v-60h39.36v60zm179.279 20.16h20.16v60h-40.08V297.64h44.16c4.96 0 8.88 1.84 11.76 5.52 2.88 3.52 4.32 8.56 4.32 15.12h19.68c0-5.12-1.12-10.08-3.36-14.88-2.24-4.96-5.28-9.28-9.12-12.96a44.3 44.3 0 0 0-13.2-9.12c-4.961-2.4-10.08-3.6-15.36-3.6h-38.16c-5.6 0-10.88 1.2-15.84 3.6-4.96 2.24-9.28 5.28-12.96 9.12s-6.56 8.24-8.64 13.2c-2.08 4.8-3.12 9.76-3.12 14.88v98.4c0 5.6 1.04 10.88 3.12 15.84s4.96 9.28 8.64 12.96 7.92 6.64 12.72 8.88c4.96 2.08 10.32 3.12 16.08 3.12h38.4c6.08 0 11.599-1.12 16.56-3.36 4.96-2.24 9.2-5.2 12.72-8.88 3.68-3.68 6.48-8 8.4-12.96 2.08-4.96 3.12-10.16 3.12-15.6v-59.76h-60zm180.238.24v-20.4h-40.08v-59.76h60.004v-19.92h-99.844v180h99.844v-20.16h-60.004V377.8z"/></mask><mask id="c" fill="#000" height="183" maskUnits="userSpaceOnUse" width="1002" x="0" y="266.48"><path d="M0 266.48h1002v183H0z" fill="#fff"/><path d="M1 322.44c0 4.32 1.44 8.8 4.32 13.44 3.04 4.48 6.72 9.04 11.04 13.68 4.48 4.64 9.28 9.28 14.4 13.92 5.28 4.48 10.08 8.8 14.4 12.96 4.48 4.16 8.16 8.16 11.04 12 3.04 3.68 4.56 6.96 4.56 9.84v29.28H42.52c-6.4 0-11.6-1.92-15.6-5.76-3.84-3.84-5.76-8.8-5.76-14.88H1c0 5.6 1.04 10.88 3.12 15.84 2.24 4.8 5.2 9.04 8.88 12.72 3.84 3.68 8.24 6.64 13.2 8.88 5.12 2.08 10.56 3.12 16.32 3.12h16.8c6.08 0 11.6-1.04 16.56-3.12 5.12-2.24 9.44-5.2 12.96-8.88 3.68-3.84 6.48-8.16 8.4-12.96 2.08-4.96 3.12-10.16 3.12-15.6v-14.64c0-4.8-1.52-9.68-4.56-14.64-2.88-5.12-6.56-10.08-11.04-14.88-4.32-4.96-9.04-9.76-14.16-14.4s-9.92-8.96-14.4-12.96c-4.32-4.16-8-7.92-11.04-11.28-2.88-3.36-4.32-6.24-4.32-8.64v-28.32h15.84c7.68 0 13.6 1.84 17.76 5.52 4.32 3.52 6.48 8.48 6.48 14.88h19.68c0-5.44-1.12-10.56-3.36-15.36-2.08-4.96-5.04-9.2-8.88-12.72-3.68-3.68-8-6.56-12.96-8.64-4.96-2.24-10.24-3.36-15.84-3.36H42.52c-5.76 0-11.2 1.04-16.32 3.12-4.96 2.08-9.36 4.96-13.2 8.64-3.68 3.68-6.64 8-8.88 12.96C2.04 297 1 302.28 1 308.04zm239.293-54.96h-120v19.92h40.08v160.08h39.84V287.4h40.08zm60.96 180h38.16c5.44 0 10.56-1.04 15.36-3.12 4.96-2.24 9.28-5.2 12.96-8.88 3.84-3.84 6.88-8.16 9.12-12.96a37.483 37.483 0 0 0 3.36-15.6v-98.88c0-5.12-1.12-10.08-3.36-14.88-2.08-4.96-4.96-9.28-8.64-12.96-3.68-3.84-8-6.88-12.96-9.12-4.96-2.4-10.24-3.6-15.84-3.6h-38.16c-5.6 0-10.88 1.2-15.84 3.6-4.96 2.24-9.28 5.28-12.96 9.12-3.68 3.68-6.64 8-8.88 12.96-2.08 4.8-3.12 9.76-3.12 14.88v98.88c0 5.44 1.12 10.64 3.36 15.6 2.24 4.8 5.2 9.12 8.88 12.96 3.84 3.68 8.16 6.64 12.96 8.88 4.96 2.08 10.16 3.12 15.6 3.12zm39.12-20.16h-40.08V287.4h40.08zm119.998-80.16v-60h40.08v60zm-39.84 100.32h39.84v-79.92h40.08v79.92h39.84V391.8c0-6.88-1.12-12.48-3.36-16.8-2.24-4.48-4.72-8-7.44-10.56-2.56-2.72-4.96-4.56-7.2-5.52l-3.36-1.68 3.36-1.2c2.24-.8 4.64-2.32 7.2-4.56 2.72-2.4 5.2-5.68 7.44-9.84 2.24-4.32 3.36-9.92 3.36-16.8v-17.28c0-5.92-.96-11.36-2.88-16.32-1.76-4.96-4.4-9.2-7.92-12.72s-7.76-6.24-12.72-8.16c-4.8-1.92-10.24-2.88-16.32-2.88h-79.92zm201.598-180c-4.64 0-9.44 1.12-14.4 3.36-4.8 2.24-9.2 5.2-13.2 8.88-3.84 3.68-7.04 8-9.6 12.96-2.4 4.96-3.6 10.08-3.6 15.36v139.44h39.84v-79.92h39.36v79.92c1.28.16 3.76.24 7.44.24h11.76c4.32 0 8.4-.08 12.24-.24h8.64V308.04c0-5.28-1.28-10.32-3.84-15.12-2.56-4.96-5.84-9.28-9.84-12.96-3.84-3.84-8.24-6.88-13.2-9.12s-9.84-3.36-14.64-3.36zm-.96 79.68v-60h39.36v60zm179.279 20.16h20.16v60h-40.08V287.4h44.16c4.96 0 8.88 1.84 11.76 5.52 2.88 3.52 4.32 8.56 4.32 15.12h19.68c0-5.12-1.12-10.08-3.36-14.88-2.24-4.96-5.28-9.28-9.12-12.96a44.3 44.3 0 0 0-13.2-9.12c-4.961-2.4-10.08-3.6-15.36-3.6h-38.16c-5.6 0-10.88 1.2-15.84 3.6-4.96 2.24-9.28 5.28-12.96 9.12s-6.56 8.24-8.64 13.2c-2.08 4.8-3.12 9.76-3.12 14.88v98.4c0 5.6 1.04 10.88 3.12 15.84s4.96 9.28 8.64 12.96 7.92 6.64 12.72 8.88c4.96 2.08 10.32 3.12 16.08 3.12h38.4c6.08 0 11.599-1.12 16.56-3.36 4.96-2.24 9.2-5.2 12.72-8.88 3.68-3.68 6.48-8 8.4-12.96 2.08-4.96 3.12-10.16 3.12-15.6v-59.76h-60zm180.238.24v-20.4h-40.08V287.4h60.004v-19.92h-99.844v180h99.844v-20.16h-60.004v-59.76z"/></mask><mask id="d" fill="#000" height="183" maskUnits="userSpaceOnUse" width="1002" x="0" y="256.24"><path d="M0 256.24h1002v183H0z" fill="#fff"/><path d="M1 312.2c0 4.32 1.44 8.8 4.32 13.44 3.04 4.48 6.72 9.04 11.04 13.68 4.48 4.64 9.28 9.28 14.4 13.92 5.28 4.48 10.08 8.8 14.4 12.96 4.48 4.16 8.16 8.16 11.04 12 3.04 3.68 4.56 6.96 4.56 9.84v29.28H42.52c-6.4 0-11.6-1.92-15.6-5.76-3.84-3.84-5.76-8.8-5.76-14.88H1c0 5.6 1.04 10.88 3.12 15.84 2.24 4.8 5.2 9.04 8.88 12.72 3.84 3.68 8.24 6.64 13.2 8.88 5.12 2.08 10.56 3.12 16.32 3.12h16.8c6.08 0 11.6-1.04 16.56-3.12 5.12-2.24 9.44-5.2 12.96-8.88 3.68-3.84 6.48-8.16 8.4-12.96 2.08-4.96 3.12-10.16 3.12-15.6v-14.64c0-4.8-1.52-9.68-4.56-14.64-2.88-5.12-6.56-10.08-11.04-14.88-4.32-4.96-9.04-9.76-14.16-14.4s-9.92-8.96-14.4-12.96c-4.32-4.16-8-7.92-11.04-11.28-2.88-3.36-4.32-6.24-4.32-8.64v-28.32h15.84c7.68 0 13.6 1.84 17.76 5.52 4.32 3.52 6.48 8.48 6.48 14.88h19.68c0-5.44-1.12-10.56-3.36-15.36-2.08-4.96-5.04-9.2-8.88-12.72-3.68-3.68-8-6.56-12.96-8.64-4.96-2.24-10.24-3.36-15.84-3.36H42.52c-5.76 0-11.2 1.04-16.32 3.12-4.96 2.08-9.36 4.96-13.2 8.64-3.68 3.68-6.64 8-8.88 12.96C2.04 286.76 1 292.04 1 297.8zm239.293-54.96h-120v19.92h40.08v160.08h39.84V277.16h40.08zm60.96 180h38.16c5.44 0 10.56-1.04 15.36-3.12 4.96-2.24 9.28-5.2 12.96-8.88 3.84-3.84 6.88-8.16 9.12-12.96a37.483 37.483 0 0 0 3.36-15.6V297.8c0-5.12-1.12-10.08-3.36-14.88-2.08-4.96-4.96-9.28-8.64-12.96-3.68-3.84-8-6.88-12.96-9.12-4.96-2.4-10.24-3.6-15.84-3.6h-38.16c-5.6 0-10.88 1.2-15.84 3.6-4.96 2.24-9.28 5.28-12.96 9.12-3.68 3.68-6.64 8-8.88 12.96-2.08 4.8-3.12 9.76-3.12 14.88v98.88c0 5.44 1.12 10.64 3.36 15.6 2.24 4.8 5.2 9.12 8.88 12.96 3.84 3.68 8.16 6.64 12.96 8.88 4.96 2.08 10.16 3.12 15.6 3.12zm39.12-20.16h-40.08V277.16h40.08zm119.998-80.16v-60h40.08v60zm-39.84 100.32h39.84v-79.92h40.08v79.92h39.84v-55.68c0-6.88-1.12-12.48-3.36-16.8-2.24-4.48-4.72-8-7.44-10.56-2.56-2.72-4.96-4.56-7.2-5.52l-3.36-1.68 3.36-1.2c2.24-.8 4.64-2.32 7.2-4.56 2.72-2.4 5.2-5.68 7.44-9.84 2.24-4.32 3.36-9.92 3.36-16.8v-17.28c0-5.92-.96-11.36-2.88-16.32-1.76-4.96-4.4-9.2-7.92-12.72s-7.76-6.24-12.72-8.16c-4.8-1.92-10.24-2.88-16.32-2.88h-79.92zm201.598-180c-4.64 0-9.44 1.12-14.4 3.36-4.8 2.24-9.2 5.2-13.2 8.88-3.84 3.68-7.04 8-9.6 12.96-2.4 4.96-3.6 10.08-3.6 15.36v139.44h39.84v-79.92h39.36v79.92c1.28.16 3.76.24 7.44.24h11.76c4.32 0 8.4-.08 12.24-.24h8.64V297.8c0-5.28-1.28-10.32-3.84-15.12-2.56-4.96-5.84-9.28-9.84-12.96-3.84-3.84-8.24-6.88-13.2-9.12s-9.84-3.36-14.64-3.36zm-.96 79.68v-60h39.36v60zm179.279 20.16h20.16v60h-40.08V277.16h44.16c4.96 0 8.88 1.84 11.76 5.52 2.88 3.52 4.32 8.56 4.32 15.12h19.68c0-5.12-1.12-10.08-3.36-14.88-2.24-4.96-5.28-9.28-9.12-12.96a44.3 44.3 0 0 0-13.2-9.12c-4.961-2.4-10.08-3.6-15.36-3.6h-38.16c-5.6 0-10.88 1.2-15.84 3.6-4.96 2.24-9.28 5.28-12.96 9.12s-6.56 8.24-8.64 13.2c-2.08 4.8-3.12 9.76-3.12 14.88v98.4c0 5.6 1.04 10.88 3.12 15.84s4.96 9.28 8.64 12.96 7.92 6.64 12.72 8.88c4.96 2.08 10.32 3.12 16.08 3.12h38.4c6.08 0 11.599-1.12 16.56-3.36 4.96-2.24 9.2-5.2 12.72-8.88 3.68-3.68 6.48-8 8.4-12.96 2.08-4.96 3.12-10.16 3.12-15.6v-59.76h-60zm180.238.24v-20.4h-40.08v-59.76h60.004v-19.92h-99.844v180h99.844v-20.16h-60.004v-59.76z"/></mask><mask id="e" fill="#000" height="183" maskUnits="userSpaceOnUse" width="1002" x="0" y="246"><path d="M0 246h1002v183H0z" fill="#fff"/><path d="M1 301.96c0 4.32 1.44 8.8 4.32 13.44 3.04 4.48 6.72 9.04 11.04 13.68 4.48 4.64 9.28 9.28 14.4 13.92 5.28 4.48 10.08 8.8 14.4 12.96 4.48 4.16 8.16 8.16 11.04 12 3.04 3.68 4.56 6.96 4.56 9.84v29.28H42.52c-6.4 0-11.6-1.92-15.6-5.76-3.84-3.84-5.76-8.8-5.76-14.88H1c0 5.6 1.04 10.88 3.12 15.84 2.24 4.8 5.2 9.04 8.88 12.72 3.84 3.68 8.24 6.64 13.2 8.88 5.12 2.08 10.56 3.12 16.32 3.12h16.8c6.08 0 11.6-1.04 16.56-3.12 5.12-2.24 9.44-5.2 12.96-8.88 3.68-3.84 6.48-8.16 8.4-12.96 2.08-4.96 3.12-10.16 3.12-15.6V371.8c0-4.8-1.52-9.68-4.56-14.64-2.88-5.12-6.56-10.08-11.04-14.88-4.32-4.96-9.04-9.76-14.16-14.4s-9.92-8.96-14.4-12.96c-4.32-4.16-8-7.92-11.04-11.28-2.88-3.36-4.32-6.24-4.32-8.64v-28.32h15.84c7.68 0 13.6 1.84 17.76 5.52 4.32 3.52 6.48 8.48 6.48 14.88h19.68c0-5.44-1.12-10.56-3.36-15.36-2.08-4.96-5.04-9.2-8.88-12.72-3.68-3.68-8-6.56-12.96-8.64-4.96-2.24-10.24-3.36-15.84-3.36H42.52c-5.76 0-11.2 1.04-16.32 3.12-4.96 2.08-9.36 4.96-13.2 8.64-3.68 3.68-6.64 8-8.88 12.96C2.04 276.52 1 281.8 1 287.56zM240.293 247h-120v19.92h40.08V427h39.84V266.92h40.08zm60.96 180h38.16c5.44 0 10.56-1.04 15.36-3.12 4.96-2.24 9.28-5.2 12.96-8.88 3.84-3.84 6.88-8.16 9.12-12.96a37.483 37.483 0 0 0 3.36-15.6v-98.88c0-5.12-1.12-10.08-3.36-14.88-2.08-4.96-4.96-9.28-8.64-12.96-3.68-3.84-8-6.88-12.96-9.12-4.96-2.4-10.24-3.6-15.84-3.6h-38.16c-5.6 0-10.88 1.2-15.84 3.6-4.96 2.24-9.28 5.28-12.96 9.12-3.68 3.68-6.64 8-8.88 12.96-2.08 4.8-3.12 9.76-3.12 14.88v98.88c0 5.44 1.12 10.64 3.36 15.6 2.24 4.8 5.2 9.12 8.88 12.96 3.84 3.68 8.16 6.64 12.96 8.88 4.96 2.08 10.16 3.12 15.6 3.12zm39.12-20.16h-40.08V266.92h40.08zm119.998-80.16v-60h40.08v60zM420.531 427h39.84v-79.92h40.08V427h39.84v-55.68c0-6.88-1.12-12.48-3.36-16.8-2.24-4.48-4.72-8-7.44-10.56-2.56-2.72-4.96-4.56-7.2-5.52l-3.36-1.68 3.36-1.2c2.24-.8 4.64-2.32 7.2-4.56 2.72-2.4 5.2-5.68 7.44-9.84 2.24-4.32 3.36-9.92 3.36-16.8v-17.28c0-5.92-.96-11.36-2.88-16.32-1.76-4.96-4.4-9.2-7.92-12.72s-7.76-6.24-12.72-8.16c-4.8-1.92-10.24-2.88-16.32-2.88h-79.92zm201.598-180c-4.64 0-9.44 1.12-14.4 3.36-4.8 2.24-9.2 5.2-13.2 8.88-3.84 3.68-7.04 8-9.6 12.96-2.4 4.96-3.6 10.08-3.6 15.36V427h39.84v-79.92h39.36V427c1.28.16 3.76.24 7.44.24h11.76c4.32 0 8.4-.08 12.24-.24h8.64V287.56c0-5.28-1.28-10.32-3.84-15.12-2.56-4.96-5.84-9.28-9.84-12.96-3.84-3.84-8.24-6.88-13.2-9.12s-9.84-3.36-14.64-3.36zm-.96 79.68v-60h39.36v60zm179.279 20.16h20.16v60h-40.08V266.92h44.16c4.96 0 8.88 1.84 11.76 5.52 2.88 3.52 4.32 8.56 4.32 15.12h19.68c0-5.12-1.12-10.08-3.36-14.88-2.24-4.96-5.28-9.28-9.12-12.96a44.3 44.3 0 0 0-13.2-9.12c-4.961-2.4-10.08-3.6-15.36-3.6h-38.16c-5.6 0-10.88 1.2-15.84 3.6-4.96 2.24-9.28 5.28-12.96 9.12s-6.56 8.24-8.64 13.2c-2.08 4.8-3.12 9.76-3.12 14.88v98.4c0 5.6 1.04 10.88 3.12 15.84s4.96 9.28 8.64 12.96 7.92 6.64 12.72 8.88c4.96 2.08 10.32 3.12 16.08 3.12h38.4c6.08 0 11.599-1.12 16.56-3.36 4.96-2.24 9.2-5.2 12.72-8.88 3.68-3.68 6.48-8 8.4-12.96 2.08-4.96 3.12-10.16 3.12-15.6v-59.76h-60zm180.238.24v-20.4h-40.08v-59.76h60.004V247h-99.844v180h99.844v-20.16h-60.004v-59.76z"/></mask><path d="M1 342.92c0 4.32 1.44 8.8 4.32 13.44 3.04 4.48 6.72 9.04 11.04 13.68 4.48 4.64 9.28 9.28 14.4 13.92 5.28 4.48 10.08 8.8 14.4 12.96 4.48 4.16 8.16 8.16 11.04 12 3.04 3.68 4.56 6.96 4.56 9.84v29.28H42.52c-6.4 0-11.6-1.92-15.6-5.76-3.84-3.84-5.76-8.8-5.76-14.88H1c0 5.6 1.04 10.88 3.12 15.84 2.24 4.8 5.2 9.04 8.88 12.72 3.84 3.68 8.24 6.64 13.2 8.88 5.12 2.08 10.56 3.12 16.32 3.12h16.8c6.08 0 11.6-1.04 16.56-3.12 5.12-2.24 9.44-5.2 12.96-8.88 3.68-3.84 6.48-8.16 8.4-12.96 2.08-4.96 3.12-10.16 3.12-15.6v-14.64c0-4.8-1.52-9.68-4.56-14.64-2.88-5.12-6.56-10.08-11.04-14.88-4.32-4.96-9.04-9.76-14.16-14.4s-9.92-8.96-14.4-12.96c-4.32-4.16-8-7.92-11.04-11.28-2.88-3.36-4.32-6.24-4.32-8.64v-28.32h15.84c7.68 0 13.6 1.84 17.76 5.52 4.32 3.52 6.48 8.48 6.48 14.88h19.68c0-5.44-1.12-10.56-3.36-15.36-2.08-4.96-5.04-9.2-8.88-12.72-3.68-3.68-8-6.56-12.96-8.64-4.96-2.24-10.24-3.36-15.84-3.36H42.52c-5.76 0-11.2 1.04-16.32 3.12-4.96 2.08-9.36 4.96-13.2 8.64-3.68 3.68-6.64 8-8.88 12.96C2.04 317.48 1 322.76 1 328.52zm239.293-54.96h-120v19.92h40.08v160.08h39.84V307.88h40.08zm60.96 180h38.16c5.44 0 10.56-1.04 15.36-3.12 4.96-2.24 9.28-5.2 12.96-8.88 3.84-3.84 6.88-8.16 9.12-12.96a37.483 37.483 0 0 0 3.36-15.6v-98.88c0-5.12-1.12-10.08-3.36-14.88-2.08-4.96-4.96-9.28-8.64-12.96-3.68-3.84-8-6.88-12.96-9.12-4.96-2.4-10.24-3.6-15.84-3.6h-38.16c-5.6 0-10.88 1.2-15.84 3.6-4.96 2.24-9.28 5.28-12.96 9.12-3.68 3.68-6.64 8-8.88 12.96-2.08 4.8-3.12 9.76-3.12 14.88v98.88c0 5.44 1.12 10.64 3.36 15.6 2.24 4.8 5.2 9.12 8.88 12.96 3.84 3.68 8.16 6.64 12.96 8.88 4.96 2.08 10.16 3.12 15.6 3.12zm39.12-20.16h-40.08V307.88h40.08zm119.998-80.16v-60h40.08v60zm-39.84 100.32h39.84v-79.92h40.08v79.92h39.84v-55.68c0-6.88-1.12-12.48-3.36-16.8-2.24-4.48-4.72-8-7.44-10.56-2.56-2.72-4.96-4.56-7.2-5.52l-3.36-1.68 3.36-1.2c2.24-.8 4.64-2.32 7.2-4.56 2.72-2.4 5.2-5.68 7.44-9.84 2.24-4.32 3.36-9.92 3.36-16.8v-17.28c0-5.92-.96-11.36-2.88-16.32-1.76-4.96-4.4-9.2-7.92-12.72s-7.76-6.24-12.72-8.16c-4.8-1.92-10.24-2.88-16.32-2.88h-79.92zm201.598-180c-4.64 0-9.44 1.12-14.4 3.36-4.8 2.24-9.2 5.2-13.2 8.88-3.84 3.68-7.04 8-9.6 12.96-2.4 4.96-3.6 10.08-3.6 15.36v139.44h39.84v-79.92h39.36v79.92c1.28.16 3.76.24 7.44.24h11.76c4.32 0 8.4-.08 12.24-.24h8.64V328.52c0-5.28-1.28-10.32-3.84-15.12-2.56-4.96-5.84-9.28-9.84-12.96-3.84-3.84-8.24-6.88-13.2-9.12s-9.84-3.36-14.64-3.36zm-.96 79.68v-60h39.36v60zm179.279 20.16h20.16v60h-40.08V307.88h44.16c4.96 0 8.88 1.84 11.76 5.52 2.88 3.52 4.32 8.56 4.32 15.12h19.68c0-5.12-1.12-10.08-3.36-14.88-2.24-4.96-5.28-9.28-9.12-12.96a44.3 44.3 0 0 0-13.2-9.12c-4.961-2.4-10.08-3.6-15.36-3.6h-38.16c-5.6 0-10.88 1.2-15.84 3.6-4.96 2.24-9.28 5.28-12.96 9.12s-6.56 8.24-8.64 13.2c-2.08 4.8-3.12 9.76-3.12 14.88v98.4c0 5.6 1.04 10.88 3.12 15.84s4.96 9.28 8.64 12.96 7.92 6.64 12.72 8.88c4.96 2.08 10.32 3.12 16.08 3.12h38.4c6.08 0 11.599-1.12 16.56-3.36 4.96-2.24 9.2-5.2 12.72-8.88 3.68-3.68 6.48-8 8.4-12.96 2.08-4.96 3.12-10.16 3.12-15.6V367.4h-60zm180.238.24v-20.4h-40.08v-59.76h60.004v-19.92h-99.844v180h99.844V447.8h-60.004v-59.76z" fill="#f5c32c"/><path d="M1 342.92c0 4.32 1.44 8.8 4.32 13.44 3.04 4.48 6.72 9.04 11.04 13.68 4.48 4.64 9.28 9.28 14.4 13.92 5.28 4.48 10.08 8.8 14.4 12.96 4.48 4.16 8.16 8.16 11.04 12 3.04 3.68 4.56 6.96 4.56 9.84v29.28H42.52c-6.4 0-11.6-1.92-15.6-5.76-3.84-3.84-5.76-8.8-5.76-14.88H1c0 5.6 1.04 10.88 3.12 15.84 2.24 4.8 5.2 9.04 8.88 12.72 3.84 3.68 8.24 6.64 13.2 8.88 5.12 2.08 10.56 3.12 16.32 3.12h16.8c6.08 0 11.6-1.04 16.56-3.12 5.12-2.24 9.44-5.2 12.96-8.88 3.68-3.84 6.48-8.16 8.4-12.96 2.08-4.96 3.12-10.16 3.12-15.6v-14.64c0-4.8-1.52-9.68-4.56-14.64-2.88-5.12-6.56-10.08-11.04-14.88-4.32-4.96-9.04-9.76-14.16-14.4s-9.92-8.96-14.4-12.96c-4.32-4.16-8-7.92-11.04-11.28-2.88-3.36-4.32-6.24-4.32-8.64v-28.32h15.84c7.68 0 13.6 1.84 17.76 5.52 4.32 3.52 6.48 8.48 6.48 14.88h19.68c0-5.44-1.12-10.56-3.36-15.36-2.08-4.96-5.04-9.2-8.88-12.72-3.68-3.68-8-6.56-12.96-8.64-4.96-2.24-10.24-3.36-15.84-3.36H42.52c-5.76 0-11.2 1.04-16.32 3.12-4.96 2.08-9.36 4.96-13.2 8.64-3.68 3.68-6.64 8-8.88 12.96C2.04 317.48 1 322.76 1 328.52zm239.293-54.96h-120v19.92h40.08v160.08h39.84V307.88h40.08zm60.96 180h38.16c5.44 0 10.56-1.04 15.36-3.12 4.96-2.24 9.28-5.2 12.96-8.88 3.84-3.84 6.88-8.16 9.12-12.96a37.483 37.483 0 0 0 3.36-15.6v-98.88c0-5.12-1.12-10.08-3.36-14.88-2.08-4.96-4.96-9.28-8.64-12.96-3.68-3.84-8-6.88-12.96-9.12-4.96-2.4-10.24-3.6-15.84-3.6h-38.16c-5.6 0-10.88 1.2-15.84 3.6-4.96 2.24-9.28 5.28-12.96 9.12-3.68 3.68-6.64 8-8.88 12.96-2.08 4.8-3.12 9.76-3.12 14.88v98.88c0 5.44 1.12 10.64 3.36 15.6 2.24 4.8 5.2 9.12 8.88 12.96 3.84 3.68 8.16 6.64 12.96 8.88 4.96 2.08 10.16 3.12 15.6 3.12zm39.12-20.16h-40.08V307.88h40.08zm119.998-80.16v-60h40.08v60zm-39.84 100.32h39.84v-79.92h40.08v79.92h39.84v-55.68c0-6.88-1.12-12.48-3.36-16.8-2.24-4.48-4.72-8-7.44-10.56-2.56-2.72-4.96-4.56-7.2-5.52l-3.36-1.68 3.36-1.2c2.24-.8 4.64-2.32 7.2-4.56 2.72-2.4 5.2-5.68 7.44-9.84 2.24-4.32 3.36-9.92 3.36-16.8v-17.28c0-5.92-.96-11.36-2.88-16.32-1.76-4.96-4.4-9.2-7.92-12.72s-7.76-6.24-12.72-8.16c-4.8-1.92-10.24-2.88-16.32-2.88h-79.92zm201.598-180c-4.64 0-9.44 1.12-14.4 3.36-4.8 2.24-9.2 5.2-13.2 8.88-3.84 3.68-7.04 8-9.6 12.96-2.4 4.96-3.6 10.08-3.6 15.36v139.44h39.84v-79.92h39.36v79.92c1.28.16 3.76.24 7.44.24h11.76c4.32 0 8.4-.08 12.24-.24h8.64V328.52c0-5.28-1.28-10.32-3.84-15.12-2.56-4.96-5.84-9.28-9.84-12.96-3.84-3.84-8.24-6.88-13.2-9.12s-9.84-3.36-14.64-3.36zm-.96 79.68v-60h39.36v60zm179.279 20.16h20.16v60h-40.08V307.88h44.16c4.96 0 8.88 1.84 11.76 5.52 2.88 3.52 4.32 8.56 4.32 15.12h19.68c0-5.12-1.12-10.08-3.36-14.88-2.24-4.96-5.28-9.28-9.12-12.96a44.3 44.3 0 0 0-13.2-9.12c-4.961-2.4-10.08-3.6-15.36-3.6h-38.16c-5.6 0-10.88 1.2-15.84 3.6-4.96 2.24-9.28 5.28-12.96 9.12s-6.56 8.24-8.64 13.2c-2.08 4.8-3.12 9.76-3.12 14.88v98.4c0 5.6 1.04 10.88 3.12 15.84s4.96 9.28 8.64 12.96 7.92 6.64 12.72 8.88c4.96 2.08 10.32 3.12 16.08 3.12h38.4c6.08 0 11.599-1.12 16.56-3.36 4.96-2.24 9.2-5.2 12.72-8.88 3.68-3.68 6.48-8 8.4-12.96 2.08-4.96 3.12-10.16 3.12-15.6V367.4h-60zm180.238.24v-20.4h-40.08v-59.76h60.004v-19.92h-99.844v180h99.844V447.8h-60.004v-59.76z" mask="url(#a)" stroke="#000" stroke-width="2"/><path d="M1 332.68c0 4.32 1.44 8.8 4.32 13.44 3.04 4.48 6.72 9.04 11.04 13.68 4.48 4.64 9.28 9.28 14.4 13.92 5.28 4.48 10.08 8.8 14.4 12.96 4.48 4.16 8.16 8.16 11.04 12 3.04 3.68 4.56 6.96 4.56 9.84v29.28H42.52c-6.4 0-11.6-1.92-15.6-5.76-3.84-3.84-5.76-8.8-5.76-14.88H1c0 5.6 1.04 10.88 3.12 15.84 2.24 4.8 5.2 9.04 8.88 12.72 3.84 3.68 8.24 6.64 13.2 8.88 5.12 2.08 10.56 3.12 16.32 3.12h16.8c6.08 0 11.6-1.04 16.56-3.12 5.12-2.24 9.44-5.2 12.96-8.88 3.68-3.84 6.48-8.16 8.4-12.96 2.08-4.96 3.12-10.16 3.12-15.6v-14.64c0-4.8-1.52-9.68-4.56-14.64-2.88-5.12-6.56-10.08-11.04-14.88-4.32-4.96-9.04-9.76-14.16-14.4s-9.92-8.96-14.4-12.96c-4.32-4.16-8-7.92-11.04-11.28-2.88-3.36-4.32-6.24-4.32-8.64V297.4h15.84c7.68 0 13.6 1.84 17.76 5.52 4.32 3.52 6.48 8.48 6.48 14.88h19.68c0-5.44-1.12-10.56-3.36-15.36-2.08-4.96-5.04-9.2-8.88-12.72-3.68-3.68-8-6.56-12.96-8.64-4.96-2.24-10.24-3.36-15.84-3.36H42.52c-5.76 0-11.2 1.04-16.32 3.12-4.96 2.08-9.36 4.96-13.2 8.64-3.68 3.68-6.64 8-8.88 12.96C2.04 307.24 1 312.52 1 318.28zm239.293-54.96h-120v19.92h40.08v160.08h39.84V297.64h40.08zm60.96 180h38.16c5.44 0 10.56-1.04 15.36-3.12 4.96-2.24 9.28-5.2 12.96-8.88 3.84-3.84 6.88-8.16 9.12-12.96a37.483 37.483 0 0 0 3.36-15.6v-98.88c0-5.12-1.12-10.08-3.36-14.88-2.08-4.96-4.96-9.28-8.64-12.96-3.68-3.84-8-6.88-12.96-9.12-4.96-2.4-10.24-3.6-15.84-3.6h-38.16c-5.6 0-10.88 1.2-15.84 3.6-4.96 2.24-9.28 5.28-12.96 9.12-3.68 3.68-6.64 8-8.88 12.96-2.08 4.8-3.12 9.76-3.12 14.88v98.88c0 5.44 1.12 10.64 3.36 15.6 2.24 4.8 5.2 9.12 8.88 12.96 3.84 3.68 8.16 6.64 12.96 8.88 4.96 2.08 10.16 3.12 15.6 3.12zm39.12-20.16h-40.08V297.64h40.08zm119.998-80.16v-60h40.08v60zm-39.84 100.32h39.84V377.8h40.08v79.92h39.84v-55.68c0-6.88-1.12-12.48-3.36-16.8-2.24-4.48-4.72-8-7.44-10.56-2.56-2.72-4.96-4.56-7.2-5.52l-3.36-1.68 3.36-1.2c2.24-.8 4.64-2.32 7.2-4.56 2.72-2.4 5.2-5.68 7.44-9.84 2.24-4.32 3.36-9.92 3.36-16.8V317.8c0-5.92-.96-11.36-2.88-16.32-1.76-4.96-4.4-9.2-7.92-12.72s-7.76-6.24-12.72-8.16c-4.8-1.92-10.24-2.88-16.32-2.88h-79.92zm201.598-180c-4.64 0-9.44 1.12-14.4 3.36-4.8 2.24-9.2 5.2-13.2 8.88-3.84 3.68-7.04 8-9.6 12.96-2.4 4.96-3.6 10.08-3.6 15.36v139.44h39.84V377.8h39.36v79.92c1.28.16 3.76.24 7.44.24h11.76c4.32 0 8.4-.08 12.24-.24h8.64V318.28c0-5.28-1.28-10.32-3.84-15.12-2.56-4.96-5.84-9.28-9.84-12.96-3.84-3.84-8.24-6.88-13.2-9.12s-9.84-3.36-14.64-3.36zm-.96 79.68v-60h39.36v60zm179.279 20.16h20.16v60h-40.08V297.64h44.16c4.96 0 8.88 1.84 11.76 5.52 2.88 3.52 4.32 8.56 4.32 15.12h19.68c0-5.12-1.12-10.08-3.36-14.88-2.24-4.96-5.28-9.28-9.12-12.96a44.3 44.3 0 0 0-13.2-9.12c-4.961-2.4-10.08-3.6-15.36-3.6h-38.16c-5.6 0-10.88 1.2-15.84 3.6-4.96 2.24-9.28 5.28-12.96 9.12s-6.56 8.24-8.64 13.2c-2.08 4.8-3.12 9.76-3.12 14.88v98.4c0 5.6 1.04 10.88 3.12 15.84s4.96 9.28 8.64 12.96 7.92 6.64 12.72 8.88c4.96 2.08 10.32 3.12 16.08 3.12h38.4c6.08 0 11.599-1.12 16.56-3.36 4.96-2.24 9.2-5.2 12.72-8.88 3.68-3.68 6.48-8 8.4-12.96 2.08-4.96 3.12-10.16 3.12-15.6v-59.76h-60zm180.238.24v-20.4h-40.08v-59.76h60.004v-19.92h-99.844v180h99.844v-20.16h-60.004V377.8z" fill="#f5c32c"/><path d="M1 332.68c0 4.32 1.44 8.8 4.32 13.44 3.04 4.48 6.72 9.04 11.04 13.68 4.48 4.64 9.28 9.28 14.4 13.92 5.28 4.48 10.08 8.8 14.4 12.96 4.48 4.16 8.16 8.16 11.04 12 3.04 3.68 4.56 6.96 4.56 9.84v29.28H42.52c-6.4 0-11.6-1.92-15.6-5.76-3.84-3.84-5.76-8.8-5.76-14.88H1c0 5.6 1.04 10.88 3.12 15.84 2.24 4.8 5.2 9.04 8.88 12.72 3.84 3.68 8.24 6.64 13.2 8.88 5.12 2.08 10.56 3.12 16.32 3.12h16.8c6.08 0 11.6-1.04 16.56-3.12 5.12-2.24 9.44-5.2 12.96-8.88 3.68-3.84 6.48-8.16 8.4-12.96 2.08-4.96 3.12-10.16 3.12-15.6v-14.64c0-4.8-1.52-9.68-4.56-14.64-2.88-5.12-6.56-10.08-11.04-14.88-4.32-4.96-9.04-9.76-14.16-14.4s-9.92-8.96-14.4-12.96c-4.32-4.16-8-7.92-11.04-11.28-2.88-3.36-4.32-6.24-4.32-8.64V297.4h15.84c7.68 0 13.6 1.84 17.76 5.52 4.32 3.52 6.48 8.48 6.48 14.88h19.68c0-5.44-1.12-10.56-3.36-15.36-2.08-4.96-5.04-9.2-8.88-12.72-3.68-3.68-8-6.56-12.96-8.64-4.96-2.24-10.24-3.36-15.84-3.36H42.52c-5.76 0-11.2 1.04-16.32 3.12-4.96 2.08-9.36 4.96-13.2 8.64-3.68 3.68-6.64 8-8.88 12.96C2.04 307.24 1 312.52 1 318.28zm239.293-54.96h-120v19.92h40.08v160.08h39.84V297.64h40.08zm60.96 180h38.16c5.44 0 10.56-1.04 15.36-3.12 4.96-2.24 9.28-5.2 12.96-8.88 3.84-3.84 6.88-8.16 9.12-12.96a37.483 37.483 0 0 0 3.36-15.6v-98.88c0-5.12-1.12-10.08-3.36-14.88-2.08-4.96-4.96-9.28-8.64-12.96-3.68-3.84-8-6.88-12.96-9.12-4.96-2.4-10.24-3.6-15.84-3.6h-38.16c-5.6 0-10.88 1.2-15.84 3.6-4.96 2.24-9.28 5.28-12.96 9.12-3.68 3.68-6.64 8-8.88 12.96-2.08 4.8-3.12 9.76-3.12 14.88v98.88c0 5.44 1.12 10.64 3.36 15.6 2.24 4.8 5.2 9.12 8.88 12.96 3.84 3.68 8.16 6.64 12.96 8.88 4.96 2.08 10.16 3.12 15.6 3.12zm39.12-20.16h-40.08V297.64h40.08zm119.998-80.16v-60h40.08v60zm-39.84 100.32h39.84V377.8h40.08v79.92h39.84v-55.68c0-6.88-1.12-12.48-3.36-16.8-2.24-4.48-4.72-8-7.44-10.56-2.56-2.72-4.96-4.56-7.2-5.52l-3.36-1.68 3.36-1.2c2.24-.8 4.64-2.32 7.2-4.56 2.72-2.4 5.2-5.68 7.44-9.84 2.24-4.32 3.36-9.92 3.36-16.8V317.8c0-5.92-.96-11.36-2.88-16.32-1.76-4.96-4.4-9.2-7.92-12.72s-7.76-6.24-12.72-8.16c-4.8-1.92-10.24-2.88-16.32-2.88h-79.92zm201.598-180c-4.64 0-9.44 1.12-14.4 3.36-4.8 2.24-9.2 5.2-13.2 8.88-3.84 3.68-7.04 8-9.6 12.96-2.4 4.96-3.6 10.08-3.6 15.36v139.44h39.84V377.8h39.36v79.92c1.28.16 3.76.24 7.44.24h11.76c4.32 0 8.4-.08 12.24-.24h8.64V318.28c0-5.28-1.28-10.32-3.84-15.12-2.56-4.96-5.84-9.28-9.84-12.96-3.84-3.84-8.24-6.88-13.2-9.12s-9.84-3.36-14.64-3.36zm-.96 79.68v-60h39.36v60zm179.279 20.16h20.16v60h-40.08V297.64h44.16c4.96 0 8.88 1.84 11.76 5.52 2.88 3.52 4.32 8.56 4.32 15.12h19.68c0-5.12-1.12-10.08-3.36-14.88-2.24-4.96-5.28-9.28-9.12-12.96a44.3 44.3 0 0 0-13.2-9.12c-4.961-2.4-10.08-3.6-15.36-3.6h-38.16c-5.6 0-10.88 1.2-15.84 3.6-4.96 2.24-9.28 5.28-12.96 9.12s-6.56 8.24-8.64 13.2c-2.08 4.8-3.12 9.76-3.12 14.88v98.4c0 5.6 1.04 10.88 3.12 15.84s4.96 9.28 8.64 12.96 7.92 6.64 12.72 8.88c4.96 2.08 10.32 3.12 16.08 3.12h38.4c6.08 0 11.599-1.12 16.56-3.36 4.96-2.24 9.2-5.2 12.72-8.88 3.68-3.68 6.48-8 8.4-12.96 2.08-4.96 3.12-10.16 3.12-15.6v-59.76h-60zm180.238.24v-20.4h-40.08v-59.76h60.004v-19.92h-99.844v180h99.844v-20.16h-60.004V377.8z" mask="url(#b)" stroke="#000" stroke-width="2"/><path d="M1 322.44c0 4.32 1.44 8.8 4.32 13.44 3.04 4.48 6.72 9.04 11.04 13.68 4.48 4.64 9.28 9.28 14.4 13.92 5.28 4.48 10.08 8.8 14.4 12.96 4.48 4.16 8.16 8.16 11.04 12 3.04 3.68 4.56 6.96 4.56 9.84v29.28H42.52c-6.4 0-11.6-1.92-15.6-5.76-3.84-3.84-5.76-8.8-5.76-14.88H1c0 5.6 1.04 10.88 3.12 15.84 2.24 4.8 5.2 9.04 8.88 12.72 3.84 3.68 8.24 6.64 13.2 8.88 5.12 2.08 10.56 3.12 16.32 3.12h16.8c6.08 0 11.6-1.04 16.56-3.12 5.12-2.24 9.44-5.2 12.96-8.88 3.68-3.84 6.48-8.16 8.4-12.96 2.08-4.96 3.12-10.16 3.12-15.6v-14.64c0-4.8-1.52-9.68-4.56-14.64-2.88-5.12-6.56-10.08-11.04-14.88-4.32-4.96-9.04-9.76-14.16-14.4s-9.92-8.96-14.4-12.96c-4.32-4.16-8-7.92-11.04-11.28-2.88-3.36-4.32-6.24-4.32-8.64v-28.32h15.84c7.68 0 13.6 1.84 17.76 5.52 4.32 3.52 6.48 8.48 6.48 14.88h19.68c0-5.44-1.12-10.56-3.36-15.36-2.08-4.96-5.04-9.2-8.88-12.72-3.68-3.68-8-6.56-12.96-8.64-4.96-2.24-10.24-3.36-15.84-3.36H42.52c-5.76 0-11.2 1.04-16.32 3.12-4.96 2.08-9.36 4.96-13.2 8.64-3.68 3.68-6.64 8-8.88 12.96C2.04 297 1 302.28 1 308.04zm239.293-54.96h-120v19.92h40.08v160.08h39.84V287.4h40.08zm60.96 180h38.16c5.44 0 10.56-1.04 15.36-3.12 4.96-2.24 9.28-5.2 12.96-8.88 3.84-3.84 6.88-8.16 9.12-12.96a37.483 37.483 0 0 0 3.36-15.6v-98.88c0-5.12-1.12-10.08-3.36-14.88-2.08-4.96-4.96-9.28-8.64-12.96-3.68-3.84-8-6.88-12.96-9.12-4.96-2.4-10.24-3.6-15.84-3.6h-38.16c-5.6 0-10.88 1.2-15.84 3.6-4.96 2.24-9.28 5.28-12.96 9.12-3.68 3.68-6.64 8-8.88 12.96-2.08 4.8-3.12 9.76-3.12 14.88v98.88c0 5.44 1.12 10.64 3.36 15.6 2.24 4.8 5.2 9.12 8.88 12.96 3.84 3.68 8.16 6.64 12.96 8.88 4.96 2.08 10.16 3.12 15.6 3.12zm39.12-20.16h-40.08V287.4h40.08zm119.998-80.16v-60h40.08v60zm-39.84 100.32h39.84v-79.92h40.08v79.92h39.84V391.8c0-6.88-1.12-12.48-3.36-16.8-2.24-4.48-4.72-8-7.44-10.56-2.56-2.72-4.96-4.56-7.2-5.52l-3.36-1.68 3.36-1.2c2.24-.8 4.64-2.32 7.2-4.56 2.72-2.4 5.2-5.68 7.44-9.84 2.24-4.32 3.36-9.92 3.36-16.8v-17.28c0-5.92-.96-11.36-2.88-16.32-1.76-4.96-4.4-9.2-7.92-12.72s-7.76-6.24-12.72-8.16c-4.8-1.92-10.24-2.88-16.32-2.88h-79.92zm201.598-180c-4.64 0-9.44 1.12-14.4 3.36-4.8 2.24-9.2 5.2-13.2 8.88-3.84 3.68-7.04 8-9.6 12.96-2.4 4.96-3.6 10.08-3.6 15.36v139.44h39.84v-79.92h39.36v79.92c1.28.16 3.76.24 7.44.24h11.76c4.32 0 8.4-.08 12.24-.24h8.64V308.04c0-5.28-1.28-10.32-3.84-15.12-2.56-4.96-5.84-9.28-9.84-12.96-3.84-3.84-8.24-6.88-13.2-9.12s-9.84-3.36-14.64-3.36zm-.96 79.68v-60h39.36v60zm179.279 20.16h20.16v60h-40.08V287.4h44.16c4.96 0 8.88 1.84 11.76 5.52 2.88 3.52 4.32 8.56 4.32 15.12h19.68c0-5.12-1.12-10.08-3.36-14.88-2.24-4.96-5.28-9.28-9.12-12.96a44.3 44.3 0 0 0-13.2-9.12c-4.961-2.4-10.08-3.6-15.36-3.6h-38.16c-5.6 0-10.88 1.2-15.84 3.6-4.96 2.24-9.28 5.28-12.96 9.12s-6.56 8.24-8.64 13.2c-2.08 4.8-3.12 9.76-3.12 14.88v98.4c0 5.6 1.04 10.88 3.12 15.84s4.96 9.28 8.64 12.96 7.92 6.64 12.72 8.88c4.96 2.08 10.32 3.12 16.08 3.12h38.4c6.08 0 11.599-1.12 16.56-3.36 4.96-2.24 9.2-5.2 12.72-8.88 3.68-3.68 6.48-8 8.4-12.96 2.08-4.96 3.12-10.16 3.12-15.6v-59.76h-60zm180.238.24v-20.4h-40.08V287.4h60.004v-19.92h-99.844v180h99.844v-20.16h-60.004v-59.76z" fill="#f5c32c"/><path d="M1 322.44c0 4.32 1.44 8.8 4.32 13.44 3.04 4.48 6.72 9.04 11.04 13.68 4.48 4.64 9.28 9.28 14.4 13.92 5.28 4.48 10.08 8.8 14.4 12.96 4.48 4.16 8.16 8.16 11.04 12 3.04 3.68 4.56 6.96 4.56 9.84v29.28H42.52c-6.4 0-11.6-1.92-15.6-5.76-3.84-3.84-5.76-8.8-5.76-14.88H1c0 5.6 1.04 10.88 3.12 15.84 2.24 4.8 5.2 9.04 8.88 12.72 3.84 3.68 8.24 6.64 13.2 8.88 5.12 2.08 10.56 3.12 16.32 3.12h16.8c6.08 0 11.6-1.04 16.56-3.12 5.12-2.24 9.44-5.2 12.96-8.88 3.68-3.84 6.48-8.16 8.4-12.96 2.08-4.96 3.12-10.16 3.12-15.6v-14.64c0-4.8-1.52-9.68-4.56-14.64-2.88-5.12-6.56-10.08-11.04-14.88-4.32-4.96-9.04-9.76-14.16-14.4s-9.92-8.96-14.4-12.96c-4.32-4.16-8-7.92-11.04-11.28-2.88-3.36-4.32-6.24-4.32-8.64v-28.32h15.84c7.68 0 13.6 1.84 17.76 5.52 4.32 3.52 6.48 8.48 6.48 14.88h19.68c0-5.44-1.12-10.56-3.36-15.36-2.08-4.96-5.04-9.2-8.88-12.72-3.68-3.68-8-6.56-12.96-8.64-4.96-2.24-10.24-3.36-15.84-3.36H42.52c-5.76 0-11.2 1.04-16.32 3.12-4.96 2.08-9.36 4.96-13.2 8.64-3.68 3.68-6.64 8-8.88 12.96C2.04 297 1 302.28 1 308.04zm239.293-54.96h-120v19.92h40.08v160.08h39.84V287.4h40.08zm60.96 180h38.16c5.44 0 10.56-1.04 15.36-3.12 4.96-2.24 9.28-5.2 12.96-8.88 3.84-3.84 6.88-8.16 9.12-12.96a37.483 37.483 0 0 0 3.36-15.6v-98.88c0-5.12-1.12-10.08-3.36-14.88-2.08-4.96-4.96-9.28-8.64-12.96-3.68-3.84-8-6.88-12.96-9.12-4.96-2.4-10.24-3.6-15.84-3.6h-38.16c-5.6 0-10.88 1.2-15.84 3.6-4.96 2.24-9.28 5.28-12.96 9.12-3.68 3.68-6.64 8-8.88 12.96-2.08 4.8-3.12 9.76-3.12 14.88v98.88c0 5.44 1.12 10.64 3.36 15.6 2.24 4.8 5.2 9.12 8.88 12.96 3.84 3.68 8.16 6.64 12.96 8.88 4.96 2.08 10.16 3.12 15.6 3.12zm39.12-20.16h-40.08V287.4h40.08zm119.998-80.16v-60h40.08v60zm-39.84 100.32h39.84v-79.92h40.08v79.92h39.84V391.8c0-6.88-1.12-12.48-3.36-16.8-2.24-4.48-4.72-8-7.44-10.56-2.56-2.72-4.96-4.56-7.2-5.52l-3.36-1.68 3.36-1.2c2.24-.8 4.64-2.32 7.2-4.56 2.72-2.4 5.2-5.68 7.44-9.84 2.24-4.32 3.36-9.92 3.36-16.8v-17.28c0-5.92-.96-11.36-2.88-16.32-1.76-4.96-4.4-9.2-7.92-12.72s-7.76-6.24-12.72-8.16c-4.8-1.92-10.24-2.88-16.32-2.88h-79.92zm201.598-180c-4.64 0-9.44 1.12-14.4 3.36-4.8 2.24-9.2 5.2-13.2 8.88-3.84 3.68-7.04 8-9.6 12.96-2.4 4.96-3.6 10.08-3.6 15.36v139.44h39.84v-79.92h39.36v79.92c1.28.16 3.76.24 7.44.24h11.76c4.32 0 8.4-.08 12.24-.24h8.64V308.04c0-5.28-1.28-10.32-3.84-15.12-2.56-4.96-5.84-9.28-9.84-12.96-3.84-3.84-8.24-6.88-13.2-9.12s-9.84-3.36-14.64-3.36zm-.96 79.68v-60h39.36v60zm179.279 20.16h20.16v60h-40.08V287.4h44.16c4.96 0 8.88 1.84 11.76 5.52 2.88 3.52 4.32 8.56 4.32 15.12h19.68c0-5.12-1.12-10.08-3.36-14.88-2.24-4.96-5.28-9.28-9.12-12.96a44.3 44.3 0 0 0-13.2-9.12c-4.961-2.4-10.08-3.6-15.36-3.6h-38.16c-5.6 0-10.88 1.2-15.84 3.6-4.96 2.24-9.28 5.28-12.96 9.12s-6.56 8.24-8.64 13.2c-2.08 4.8-3.12 9.76-3.12 14.88v98.4c0 5.6 1.04 10.88 3.12 15.84s4.96 9.28 8.64 12.96 7.92 6.64 12.72 8.88c4.96 2.08 10.32 3.12 16.08 3.12h38.4c6.08 0 11.599-1.12 16.56-3.36 4.96-2.24 9.2-5.2 12.72-8.88 3.68-3.68 6.48-8 8.4-12.96 2.08-4.96 3.12-10.16 3.12-15.6v-59.76h-60zm180.238.24v-20.4h-40.08V287.4h60.004v-19.92h-99.844v180h99.844v-20.16h-60.004v-59.76z" mask="url(#c)" stroke="#000" stroke-width="2"/><path d="M1 312.2c0 4.32 1.44 8.8 4.32 13.44 3.04 4.48 6.72 9.04 11.04 13.68 4.48 4.64 9.28 9.28 14.4 13.92 5.28 4.48 10.08 8.8 14.4 12.96 4.48 4.16 8.16 8.16 11.04 12 3.04 3.68 4.56 6.96 4.56 9.84v29.28H42.52c-6.4 0-11.6-1.92-15.6-5.76-3.84-3.84-5.76-8.8-5.76-14.88H1c0 5.6 1.04 10.88 3.12 15.84 2.24 4.8 5.2 9.04 8.88 12.72 3.84 3.68 8.24 6.64 13.2 8.88 5.12 2.08 10.56 3.12 16.32 3.12h16.8c6.08 0 11.6-1.04 16.56-3.12 5.12-2.24 9.44-5.2 12.96-8.88 3.68-3.84 6.48-8.16 8.4-12.96 2.08-4.96 3.12-10.16 3.12-15.6v-14.64c0-4.8-1.52-9.68-4.56-14.64-2.88-5.12-6.56-10.08-11.04-14.88-4.32-4.96-9.04-9.76-14.16-14.4s-9.92-8.96-14.4-12.96c-4.32-4.16-8-7.92-11.04-11.28-2.88-3.36-4.32-6.24-4.32-8.64v-28.32h15.84c7.68 0 13.6 1.84 17.76 5.52 4.32 3.52 6.48 8.48 6.48 14.88h19.68c0-5.44-1.12-10.56-3.36-15.36-2.08-4.96-5.04-9.2-8.88-12.72-3.68-3.68-8-6.56-12.96-8.64-4.96-2.24-10.24-3.36-15.84-3.36H42.52c-5.76 0-11.2 1.04-16.32 3.12-4.96 2.08-9.36 4.96-13.2 8.64-3.68 3.68-6.64 8-8.88 12.96C2.04 286.76 1 292.04 1 297.8zm239.293-54.96h-120v19.92h40.08v160.08h39.84V277.16h40.08zm60.96 180h38.16c5.44 0 10.56-1.04 15.36-3.12 4.96-2.24 9.28-5.2 12.96-8.88 3.84-3.84 6.88-8.16 9.12-12.96a37.483 37.483 0 0 0 3.36-15.6V297.8c0-5.12-1.12-10.08-3.36-14.88-2.08-4.96-4.96-9.28-8.64-12.96-3.68-3.84-8-6.88-12.96-9.12-4.96-2.4-10.24-3.6-15.84-3.6h-38.16c-5.6 0-10.88 1.2-15.84 3.6-4.96 2.24-9.28 5.28-12.96 9.12-3.68 3.68-6.64 8-8.88 12.96-2.08 4.8-3.12 9.76-3.12 14.88v98.88c0 5.44 1.12 10.64 3.36 15.6 2.24 4.8 5.2 9.12 8.88 12.96 3.84 3.68 8.16 6.64 12.96 8.88 4.96 2.08 10.16 3.12 15.6 3.12zm39.12-20.16h-40.08V277.16h40.08zm119.998-80.16v-60h40.08v60zm-39.84 100.32h39.84v-79.92h40.08v79.92h39.84v-55.68c0-6.88-1.12-12.48-3.36-16.8-2.24-4.48-4.72-8-7.44-10.56-2.56-2.72-4.96-4.56-7.2-5.52l-3.36-1.68 3.36-1.2c2.24-.8 4.64-2.32 7.2-4.56 2.72-2.4 5.2-5.68 7.44-9.84 2.24-4.32 3.36-9.92 3.36-16.8v-17.28c0-5.92-.96-11.36-2.88-16.32-1.76-4.96-4.4-9.2-7.92-12.72s-7.76-6.24-12.72-8.16c-4.8-1.92-10.24-2.88-16.32-2.88h-79.92zm201.598-180c-4.64 0-9.44 1.12-14.4 3.36-4.8 2.24-9.2 5.2-13.2 8.88-3.84 3.68-7.04 8-9.6 12.96-2.4 4.96-3.6 10.08-3.6 15.36v139.44h39.84v-79.92h39.36v79.92c1.28.16 3.76.24 7.44.24h11.76c4.32 0 8.4-.08 12.24-.24h8.64V297.8c0-5.28-1.28-10.32-3.84-15.12-2.56-4.96-5.84-9.28-9.84-12.96-3.84-3.84-8.24-6.88-13.2-9.12s-9.84-3.36-14.64-3.36zm-.96 79.68v-60h39.36v60zm179.279 20.16h20.16v60h-40.08V277.16h44.16c4.96 0 8.88 1.84 11.76 5.52 2.88 3.52 4.32 8.56 4.32 15.12h19.68c0-5.12-1.12-10.08-3.36-14.88-2.24-4.96-5.28-9.28-9.12-12.96a44.3 44.3 0 0 0-13.2-9.12c-4.961-2.4-10.08-3.6-15.36-3.6h-38.16c-5.6 0-10.88 1.2-15.84 3.6-4.96 2.24-9.28 5.28-12.96 9.12s-6.56 8.24-8.64 13.2c-2.08 4.8-3.12 9.76-3.12 14.88v98.4c0 5.6 1.04 10.88 3.12 15.84s4.96 9.28 8.64 12.96 7.92 6.64 12.72 8.88c4.96 2.08 10.32 3.12 16.08 3.12h38.4c6.08 0 11.599-1.12 16.56-3.36 4.96-2.24 9.2-5.2 12.72-8.88 3.68-3.68 6.48-8 8.4-12.96 2.08-4.96 3.12-10.16 3.12-15.6v-59.76h-60zm180.238.24v-20.4h-40.08v-59.76h60.004v-19.92h-99.844v180h99.844v-20.16h-60.004v-59.76z" fill="#f5c32c"/><path d="M1 312.2c0 4.32 1.44 8.8 4.32 13.44 3.04 4.48 6.72 9.04 11.04 13.68 4.48 4.64 9.28 9.28 14.4 13.92 5.28 4.48 10.08 8.8 14.4 12.96 4.48 4.16 8.16 8.16 11.04 12 3.04 3.68 4.56 6.96 4.56 9.84v29.28H42.52c-6.4 0-11.6-1.92-15.6-5.76-3.84-3.84-5.76-8.8-5.76-14.88H1c0 5.6 1.04 10.88 3.12 15.84 2.24 4.8 5.2 9.04 8.88 12.72 3.84 3.68 8.24 6.64 13.2 8.88 5.12 2.08 10.56 3.12 16.32 3.12h16.8c6.08 0 11.6-1.04 16.56-3.12 5.12-2.24 9.44-5.2 12.96-8.88 3.68-3.84 6.48-8.16 8.4-12.96 2.08-4.96 3.12-10.16 3.12-15.6v-14.64c0-4.8-1.52-9.68-4.56-14.64-2.88-5.12-6.56-10.08-11.04-14.88-4.32-4.96-9.04-9.76-14.16-14.4s-9.92-8.96-14.4-12.96c-4.32-4.16-8-7.92-11.04-11.28-2.88-3.36-4.32-6.24-4.32-8.64v-28.32h15.84c7.68 0 13.6 1.84 17.76 5.52 4.32 3.52 6.48 8.48 6.48 14.88h19.68c0-5.44-1.12-10.56-3.36-15.36-2.08-4.96-5.04-9.2-8.88-12.72-3.68-3.68-8-6.56-12.96-8.64-4.96-2.24-10.24-3.36-15.84-3.36H42.52c-5.76 0-11.2 1.04-16.32 3.12-4.96 2.08-9.36 4.96-13.2 8.64-3.68 3.68-6.64 8-8.88 12.96C2.04 286.76 1 292.04 1 297.8zm239.293-54.96h-120v19.92h40.08v160.08h39.84V277.16h40.08zm60.96 180h38.16c5.44 0 10.56-1.04 15.36-3.12 4.96-2.24 9.28-5.2 12.96-8.88 3.84-3.84 6.88-8.16 9.12-12.96a37.483 37.483 0 0 0 3.36-15.6V297.8c0-5.12-1.12-10.08-3.36-14.88-2.08-4.96-4.96-9.28-8.64-12.96-3.68-3.84-8-6.88-12.96-9.12-4.96-2.4-10.24-3.6-15.84-3.6h-38.16c-5.6 0-10.88 1.2-15.84 3.6-4.96 2.24-9.28 5.28-12.96 9.12-3.68 3.68-6.64 8-8.88 12.96-2.08 4.8-3.12 9.76-3.12 14.88v98.88c0 5.44 1.12 10.64 3.36 15.6 2.24 4.8 5.2 9.12 8.88 12.96 3.84 3.68 8.16 6.64 12.96 8.88 4.96 2.08 10.16 3.12 15.6 3.12zm39.12-20.16h-40.08V277.16h40.08zm119.998-80.16v-60h40.08v60zm-39.84 100.32h39.84v-79.92h40.08v79.92h39.84v-55.68c0-6.88-1.12-12.48-3.36-16.8-2.24-4.48-4.72-8-7.44-10.56-2.56-2.72-4.96-4.56-7.2-5.52l-3.36-1.68 3.36-1.2c2.24-.8 4.64-2.32 7.2-4.56 2.72-2.4 5.2-5.68 7.44-9.84 2.24-4.32 3.36-9.92 3.36-16.8v-17.28c0-5.92-.96-11.36-2.88-16.32-1.76-4.96-4.4-9.2-7.92-12.72s-7.76-6.24-12.72-8.16c-4.8-1.92-10.24-2.88-16.32-2.88h-79.92zm201.598-180c-4.64 0-9.44 1.12-14.4 3.36-4.8 2.24-9.2 5.2-13.2 8.88-3.84 3.68-7.04 8-9.6 12.96-2.4 4.96-3.6 10.08-3.6 15.36v139.44h39.84v-79.92h39.36v79.92c1.28.16 3.76.24 7.44.24h11.76c4.32 0 8.4-.08 12.24-.24h8.64V297.8c0-5.28-1.28-10.32-3.84-15.12-2.56-4.96-5.84-9.28-9.84-12.96-3.84-3.84-8.24-6.88-13.2-9.12s-9.84-3.36-14.64-3.36zm-.96 79.68v-60h39.36v60zm179.279 20.16h20.16v60h-40.08V277.16h44.16c4.96 0 8.88 1.84 11.76 5.52 2.88 3.52 4.32 8.56 4.32 15.12h19.68c0-5.12-1.12-10.08-3.36-14.88-2.24-4.96-5.28-9.28-9.12-12.96a44.3 44.3 0 0 0-13.2-9.12c-4.961-2.4-10.08-3.6-15.36-3.6h-38.16c-5.6 0-10.88 1.2-15.84 3.6-4.96 2.24-9.28 5.28-12.96 9.12s-6.56 8.24-8.64 13.2c-2.08 4.8-3.12 9.76-3.12 14.88v98.4c0 5.6 1.04 10.88 3.12 15.84s4.96 9.28 8.64 12.96 7.92 6.64 12.72 8.88c4.96 2.08 10.32 3.12 16.08 3.12h38.4c6.08 0 11.599-1.12 16.56-3.36 4.96-2.24 9.2-5.2 12.72-8.88 3.68-3.68 6.48-8 8.4-12.96 2.08-4.96 3.12-10.16 3.12-15.6v-59.76h-60zm180.238.24v-20.4h-40.08v-59.76h60.004v-19.92h-99.844v180h99.844v-20.16h-60.004v-59.76z" mask="url(#d)" stroke="#000" stroke-width="2"/><path d="M1 301.96c0 4.32 1.44 8.8 4.32 13.44 3.04 4.48 6.72 9.04 11.04 13.68 4.48 4.64 9.28 9.28 14.4 13.92 5.28 4.48 10.08 8.8 14.4 12.96 4.48 4.16 8.16 8.16 11.04 12 3.04 3.68 4.56 6.96 4.56 9.84v29.28H42.52c-6.4 0-11.6-1.92-15.6-5.76-3.84-3.84-5.76-8.8-5.76-14.88H1c0 5.6 1.04 10.88 3.12 15.84 2.24 4.8 5.2 9.04 8.88 12.72 3.84 3.68 8.24 6.64 13.2 8.88 5.12 2.08 10.56 3.12 16.32 3.12h16.8c6.08 0 11.6-1.04 16.56-3.12 5.12-2.24 9.44-5.2 12.96-8.88 3.68-3.84 6.48-8.16 8.4-12.96 2.08-4.96 3.12-10.16 3.12-15.6V371.8c0-4.8-1.52-9.68-4.56-14.64-2.88-5.12-6.56-10.08-11.04-14.88-4.32-4.96-9.04-9.76-14.16-14.4s-9.92-8.96-14.4-12.96c-4.32-4.16-8-7.92-11.04-11.28-2.88-3.36-4.32-6.24-4.32-8.64v-28.32h15.84c7.68 0 13.6 1.84 17.76 5.52 4.32 3.52 6.48 8.48 6.48 14.88h19.68c0-5.44-1.12-10.56-3.36-15.36-2.08-4.96-5.04-9.2-8.88-12.72-3.68-3.68-8-6.56-12.96-8.64-4.96-2.24-10.24-3.36-15.84-3.36H42.52c-5.76 0-11.2 1.04-16.32 3.12-4.96 2.08-9.36 4.96-13.2 8.64-3.68 3.68-6.64 8-8.88 12.96C2.04 276.52 1 281.8 1 287.56zM240.293 247h-120v19.92h40.08V427h39.84V266.92h40.08zm60.96 180h38.16c5.44 0 10.56-1.04 15.36-3.12 4.96-2.24 9.28-5.2 12.96-8.88 3.84-3.84 6.88-8.16 9.12-12.96a37.483 37.483 0 0 0 3.36-15.6v-98.88c0-5.12-1.12-10.08-3.36-14.88-2.08-4.96-4.96-9.28-8.64-12.96-3.68-3.84-8-6.88-12.96-9.12-4.96-2.4-10.24-3.6-15.84-3.6h-38.16c-5.6 0-10.88 1.2-15.84 3.6-4.96 2.24-9.28 5.28-12.96 9.12-3.68 3.68-6.64 8-8.88 12.96-2.08 4.8-3.12 9.76-3.12 14.88v98.88c0 5.44 1.12 10.64 3.36 15.6 2.24 4.8 5.2 9.12 8.88 12.96 3.84 3.68 8.16 6.64 12.96 8.88 4.96 2.08 10.16 3.12 15.6 3.12zm39.12-20.16h-40.08V266.92h40.08zm119.998-80.16v-60h40.08v60zM420.531 427h39.84v-79.92h40.08V427h39.84v-55.68c0-6.88-1.12-12.48-3.36-16.8-2.24-4.48-4.72-8-7.44-10.56-2.56-2.72-4.96-4.56-7.2-5.52l-3.36-1.68 3.36-1.2c2.24-.8 4.64-2.32 7.2-4.56 2.72-2.4 5.2-5.68 7.44-9.84 2.24-4.32 3.36-9.92 3.36-16.8v-17.28c0-5.92-.96-11.36-2.88-16.32-1.76-4.96-4.4-9.2-7.92-12.72s-7.76-6.24-12.72-8.16c-4.8-1.92-10.24-2.88-16.32-2.88h-79.92zm201.598-180c-4.64 0-9.44 1.12-14.4 3.36-4.8 2.24-9.2 5.2-13.2 8.88-3.84 3.68-7.04 8-9.6 12.96-2.4 4.96-3.6 10.08-3.6 15.36V427h39.84v-79.92h39.36V427c1.28.16 3.76.24 7.44.24h11.76c4.32 0 8.4-.08 12.24-.24h8.64V287.56c0-5.28-1.28-10.32-3.84-15.12-2.56-4.96-5.84-9.28-9.84-12.96-3.84-3.84-8.24-6.88-13.2-9.12s-9.84-3.36-14.64-3.36zm-.96 79.68v-60h39.36v60zm179.279 20.16h20.16v60h-40.08V266.92h44.16c4.96 0 8.88 1.84 11.76 5.52 2.88 3.52 4.32 8.56 4.32 15.12h19.68c0-5.12-1.12-10.08-3.36-14.88-2.24-4.96-5.28-9.28-9.12-12.96a44.3 44.3 0 0 0-13.2-9.12c-4.961-2.4-10.08-3.6-15.36-3.6h-38.16c-5.6 0-10.88 1.2-15.84 3.6-4.96 2.24-9.28 5.28-12.96 9.12s-6.56 8.24-8.64 13.2c-2.08 4.8-3.12 9.76-3.12 14.88v98.4c0 5.6 1.04 10.88 3.12 15.84s4.96 9.28 8.64 12.96 7.92 6.64 12.72 8.88c4.96 2.08 10.32 3.12 16.08 3.12h38.4c6.08 0 11.599-1.12 16.56-3.36 4.96-2.24 9.2-5.2 12.72-8.88 3.68-3.68 6.48-8 8.4-12.96 2.08-4.96 3.12-10.16 3.12-15.6v-59.76h-60zm180.238.24v-20.4h-40.08v-59.76h60.004V247h-99.844v180h99.844v-20.16h-60.004v-59.76z" fill="#fff"/><path d="M1 301.96c0 4.32 1.44 8.8 4.32 13.44 3.04 4.48 6.72 9.04 11.04 13.68 4.48 4.64 9.28 9.28 14.4 13.92 5.28 4.48 10.08 8.8 14.4 12.96 4.48 4.16 8.16 8.16 11.04 12 3.04 3.68 4.56 6.96 4.56 9.84v29.28H42.52c-6.4 0-11.6-1.92-15.6-5.76-3.84-3.84-5.76-8.8-5.76-14.88H1c0 5.6 1.04 10.88 3.12 15.84 2.24 4.8 5.2 9.04 8.88 12.72 3.84 3.68 8.24 6.64 13.2 8.88 5.12 2.08 10.56 3.12 16.32 3.12h16.8c6.08 0 11.6-1.04 16.56-3.12 5.12-2.24 9.44-5.2 12.96-8.88 3.68-3.84 6.48-8.16 8.4-12.96 2.08-4.96 3.12-10.16 3.12-15.6V371.8c0-4.8-1.52-9.68-4.56-14.64-2.88-5.12-6.56-10.08-11.04-14.88-4.32-4.96-9.04-9.76-14.16-14.4s-9.92-8.96-14.4-12.96c-4.32-4.16-8-7.92-11.04-11.28-2.88-3.36-4.32-6.24-4.32-8.64v-28.32h15.84c7.68 0 13.6 1.84 17.76 5.52 4.32 3.52 6.48 8.48 6.48 14.88h19.68c0-5.44-1.12-10.56-3.36-15.36-2.08-4.96-5.04-9.2-8.88-12.72-3.68-3.68-8-6.56-12.96-8.64-4.96-2.24-10.24-3.36-15.84-3.36H42.52c-5.76 0-11.2 1.04-16.32 3.12-4.96 2.08-9.36 4.96-13.2 8.64-3.68 3.68-6.64 8-8.88 12.96C2.04 276.52 1 281.8 1 287.56zM240.293 247h-120v19.92h40.08V427h39.84V266.92h40.08zm60.96 180h38.16c5.44 0 10.56-1.04 15.36-3.12 4.96-2.24 9.28-5.2 12.96-8.88 3.84-3.84 6.88-8.16 9.12-12.96a37.483 37.483 0 0 0 3.36-15.6v-98.88c0-5.12-1.12-10.08-3.36-14.88-2.08-4.96-4.96-9.28-8.64-12.96-3.68-3.84-8-6.88-12.96-9.12-4.96-2.4-10.24-3.6-15.84-3.6h-38.16c-5.6 0-10.88 1.2-15.84 3.6-4.96 2.24-9.28 5.28-12.96 9.12-3.68 3.68-6.64 8-8.88 12.96-2.08 4.8-3.12 9.76-3.12 14.88v98.88c0 5.44 1.12 10.64 3.36 15.6 2.24 4.8 5.2 9.12 8.88 12.96 3.84 3.68 8.16 6.64 12.96 8.88 4.96 2.08 10.16 3.12 15.6 3.12zm39.12-20.16h-40.08V266.92h40.08zm119.998-80.16v-60h40.08v60zM420.531 427h39.84v-79.92h40.08V427h39.84v-55.68c0-6.88-1.12-12.48-3.36-16.8-2.24-4.48-4.72-8-7.44-10.56-2.56-2.72-4.96-4.56-7.2-5.52l-3.36-1.68 3.36-1.2c2.24-.8 4.64-2.32 7.2-4.56 2.72-2.4 5.2-5.68 7.44-9.84 2.24-4.32 3.36-9.92 3.36-16.8v-17.28c0-5.92-.96-11.36-2.88-16.32-1.76-4.96-4.4-9.2-7.92-12.72s-7.76-6.24-12.72-8.16c-4.8-1.92-10.24-2.88-16.32-2.88h-79.92zm201.598-180c-4.64 0-9.44 1.12-14.4 3.36-4.8 2.24-9.2 5.2-13.2 8.88-3.84 3.68-7.04 8-9.6 12.96-2.4 4.96-3.6 10.08-3.6 15.36V427h39.84v-79.92h39.36V427c1.28.16 3.76.24 7.44.24h11.76c4.32 0 8.4-.08 12.24-.24h8.64V287.56c0-5.28-1.28-10.32-3.84-15.12-2.56-4.96-5.84-9.28-9.84-12.96-3.84-3.84-8.24-6.88-13.2-9.12s-9.84-3.36-14.64-3.36zm-.96 79.68v-60h39.36v60zm179.279 20.16h20.16v60h-40.08V266.92h44.16c4.96 0 8.88 1.84 11.76 5.52 2.88 3.52 4.32 8.56 4.32 15.12h19.68c0-5.12-1.12-10.08-3.36-14.88-2.24-4.96-5.28-9.28-9.12-12.96a44.3 44.3 0 0 0-13.2-9.12c-4.961-2.4-10.08-3.6-15.36-3.6h-38.16c-5.6 0-10.88 1.2-15.84 3.6-4.96 2.24-9.28 5.28-12.96 9.12s-6.56 8.24-8.64 13.2c-2.08 4.8-3.12 9.76-3.12 14.88v98.4c0 5.6 1.04 10.88 3.12 15.84s4.96 9.28 8.64 12.96 7.92 6.64 12.72 8.88c4.96 2.08 10.32 3.12 16.08 3.12h38.4c6.08 0 11.599-1.12 16.56-3.36 4.96-2.24 9.2-5.2 12.72-8.88 3.68-3.68 6.48-8 8.4-12.96 2.08-4.96 3.12-10.16 3.12-15.6v-59.76h-60zm180.238.24v-20.4h-40.08v-59.76h60.004V247h-99.844v180h99.844v-20.16h-60.004v-59.76z" mask="url(#e)" stroke="#000" stroke-width="2"/><ellipse cx="320" cy="336.5" fill="#fff" rx="53" ry="79.5"/><ellipse cx="305.5" cy="298" fill="#000" rx="4.5" ry="10"/><ellipse cx="334.5" cy="298" fill="#000" rx="4.5" ry="10"/><path d="M359 320c0 21.539-17.237 39-38.5 39S282 341.539 282 320" stroke="#000"/><path d="M307.42 221V117.046l109.555 104.316.145.138h10.3v-181h-21.16v103.501L296.703 40.636l-.144-.136H286.5v181h20.92zm239.5-79.42h.5v-21.16h-40.08v-59h60V40.5H466.5v181h40.84v-79.92zM707.262 41v-.5h-121v20.92h40.08V221.5h40.84V61.42h40.08v-.5z" fill="#f5c32c" stroke="#000"/><path d="M307.42 211V107.046l109.555 104.316.145.138h10.3v-181h-21.16v103.501L296.703 30.636l-.144-.136H286.5v181h20.92zm239.5-79.42h.5v-21.16h-40.08v-59h60V30.5H466.5v181h40.84v-79.92zM707.262 31v-.5h-121v20.92h40.08V211.5h40.84V51.42h40.08v-.5z" fill="#f5c32c" stroke="#000"/><path d="M307.42 201V97.046l109.555 104.316.145.138h10.3v-181h-21.16v103.501L296.703 20.636l-.144-.136H286.5v181h20.92zm239.5-79.42h.5v-21.16h-40.08v-59h60V20.5H466.5v181h40.84v-79.92zM707.262 21v-.5h-121v20.92h40.08V201.5h40.84V41.42h40.08v-.5z" fill="#f5c32c" stroke="#000"/><path d="M307.42 191V87.046l109.555 104.316.145.138h10.3v-181h-21.16v103.501L296.703 10.636l-.144-.136H286.5v181h20.92zm239.5-79.42h.5V90.42h-40.08v-59h60V10.5H466.5v181h40.84v-79.92zM707.262 11v-.5h-121v20.92h40.08V191.5h40.84V31.42h40.08v-.5z" fill="#f5c32c" stroke="#000"/><path d="M307.42 181V77.046l109.555 104.316.145.138h10.3V.5h-21.16v103.501L296.703.636 296.559.5H286.5v181h20.92zm239.5-79.42h.5V80.42h-40.08v-59h60V.5H466.5v181h40.84v-79.92zM707.262 1V.5h-121v20.92h40.08V181.5h40.84V21.42h40.08v-.5z" fill="#fff" stroke="#000"/></svg>