<?xml version="1.0" encoding="UTF-8"?>
<svg width="29px" height="66px" viewBox="0 0 29 66" version="1.1" xmlns="http://www.w3.org/2000/svg" xmlns:xlink="http://www.w3.org/1999/xlink">
    <g id="Page-1" stroke="none" stroke-width="1" fill="none" fill-rule="evenodd">
        <g id="Line-3-(Stroke)" transform="translate(2.000000, 0.000000)">
            <polygon id="Path" fill="#D8DAD9" points="26 41.8169 13.5 64 1 41.8169 11.3349 41.8169 11.3349 1 15.6651 1 15.6651 41.8169"></polygon>
            <path d="M13.5,64 L13.0644,64.2455 L13.5,65.0185 L13.9356,64.2455 L13.5,64 Z M26,41.8169 L26.4356,42.0624 L26.8557,41.3169 L26,41.3169 L26,41.8169 Z M1,41.8169 L1,41.3169 L0.144337,41.3169 L0.564398,42.0624 L1,41.8169 Z M11.3349,41.8169 L11.3349,42.3169 L11.8349,42.3169 L11.8349,41.8169 L11.3349,41.8169 Z M11.3349,1 L11.3349,0.5 L10.8349,0.5 L10.8349,1 L11.3349,1 Z M15.6651,1 L16.1651,1 L16.1651,0.5 L15.6651,0.5 L15.6651,1 Z M15.6651,41.8169 L15.1651,41.8169 L15.1651,42.3169 L15.6651,42.3169 L15.6651,41.8169 Z M13.9356,64.2455 L26.4356,42.0624 L25.5644,41.5714 L13.0644,63.7545 L13.9356,64.2455 Z M0.564398,42.0624 L13.064398,64.2455 L13.9356,63.7545 L1.4356,41.5714 L0.564398,42.0624 Z M11.3349,41.3169 L1,41.3169 L1,42.3169 L11.3349,42.3169 L11.3349,41.3169 Z M10.8349,1 L10.8349,41.8169 L11.8349,41.8169 L11.8349,1 L10.8349,1 Z M15.6651,0.5 L11.3349,0.5 L11.3349,1.5 L15.6651,1.5 L15.6651,0.5 Z M16.1651,41.8169 L16.1651,1 L15.1651,1 L15.1651,41.8169 L16.1651,41.8169 Z M26,41.3169 L15.6651,41.3169 L15.6651,42.3169 L26,42.3169 L26,41.3169 Z" id="Shape" fill="#000000" fill-rule="nonzero"></path>
        </g>
        <g id="Line-3-(Stroke)-1" transform="translate(0.000000, 3.000000)" fill="#000000">
            <polygon id="Path" points="25 40.8169 12.5 63 0 40.8169 10.3349 40.8169 10.3349 0 14.6651 0 14.6651 40.8169"></polygon>
        </g>
    </g>
</svg>